<?xml version="1.0" encoding="UTF-8" standalone="no"?>
<!DOCTYPE svg PUBLIC "-//W3C//DTD SVG 1.1//EN"
 "http://www.w3.org/Graphics/SVG/1.1/DTD/svg11.dtd">
<!-- Generated by graphviz version 2.38.0 (20140413.2041)
 -->
<!-- Title: ViennaRNA/2Dfold.h Pages: 1 -->
<svg width="1130pt" height="274pt"
 viewBox="0.00 0.00 1129.50 274.00" xmlns="http://www.w3.org/2000/svg" xmlns:xlink="http://www.w3.org/1999/xlink">
<g id="graph0" class="graph" transform="scale(1 1) rotate(0) translate(4 270)">
<title>ViennaRNA/2Dfold.h</title>
<!-- Node1 -->
<g id="node1" class="node"><title>Node1</title>
<polygon fill="#bfbfbf" stroke="black" points="289,-246.5 289,-265.5 397,-265.5 397,-246.5 289,-246.5"/>
<text text-anchor="middle" x="343" y="-253.5" font-family="Helvetica,sans-Serif" font-size="10.00">ViennaRNA/2Dfold.h</text>
</g>
<!-- Node2 -->
<g id="node2" class="node"><title>Node2</title>
<g id="a_node2"><a xlink:href="data__structures_8h.html" target="_top" xlink:title="Various data structures and pre&#45;processor macros. ">
<polygon fill="none" stroke="black" points="392.5,-190.5 392.5,-209.5 539.5,-209.5 539.5,-190.5 392.5,-190.5"/>
<text text-anchor="middle" x="466" y="-197.5" font-family="Helvetica,sans-Serif" font-size="10.00">ViennaRNA/data_structures.h</text>
</a>
</g>
</g>
<!-- Node1&#45;&gt;Node2 -->
<g id="edge1" class="edge"><title>Node1&#45;&gt;Node2</title>
<path fill="none" stroke="midnightblue" d="M362.49,-246.444C382.642,-237.596 414.323,-223.687 437.331,-213.586"/>
<polygon fill="midnightblue" stroke="midnightblue" points="438.852,-216.741 446.601,-209.516 436.038,-210.332 438.852,-216.741"/>
</g>
<!-- Node6 -->
<g id="node6" class="node"><title>Node6</title>
<g id="a_node6"><a xlink:href="params_8h.html" target="_top" xlink:title="Functions to deal with sets of energy parameters. ">
<polygon fill="none" stroke="black" points="22,-129 22,-148 134,-148 134,-129 22,-129"/>
<text text-anchor="middle" x="78" y="-136" font-family="Helvetica,sans-Serif" font-size="10.00">ViennaRNA/params.h</text>
</a>
</g>
</g>
<!-- Node1&#45;&gt;Node6 -->
<g id="edge28" class="edge"><title>Node1&#45;&gt;Node6</title>
<path fill="none" stroke="midnightblue" d="M323.082,-246.319C276.736,-226.119 161.493,-175.891 107.188,-152.222"/>
<polygon fill="midnightblue" stroke="midnightblue" points="108.353,-148.912 97.7877,-148.124 105.556,-155.328 108.353,-148.912"/>
</g>
<!-- Node3 -->
<g id="node3" class="node"><title>Node3</title>
<g id="a_node3"><a xlink:href="energy__const_8h.html" target="_top" xlink:title="Energy parameter constants. ">
<polygon fill="none" stroke="black" points="0,-62 0,-81 138,-81 138,-62 0,-62"/>
<text text-anchor="middle" x="69" y="-69" font-family="Helvetica,sans-Serif" font-size="10.00">ViennaRNA/energy_const.h</text>
</a>
</g>
</g>
<!-- Node2&#45;&gt;Node3 -->
<g id="edge2" class="edge"><title>Node2&#45;&gt;Node3</title>
<path fill="none" stroke="midnightblue" d="M392.339,-193.987C338.273,-188.521 263.806,-177.215 202,-154 178.926,-145.333 121.421,-107.785 90.1155,-86.8099"/>
<polygon fill="midnightblue" stroke="midnightblue" points="91.9197,-83.8053 81.6691,-81.1266 88.0119,-89.613 91.9197,-83.8053"/>
</g>
<!-- Node5 -->
<g id="node5" class="node"><title>Node5</title>
<g id="a_node5"><a xlink:href="model_8h.html" target="_top" xlink:title="The model details data structure and its corresponding modifiers. ">
<polygon fill="none" stroke="black" points="156,-62 156,-81 262,-81 262,-62 156,-62"/>
<text text-anchor="middle" x="209" y="-69" font-family="Helvetica,sans-Serif" font-size="10.00">ViennaRNA/model.h</text>
</a>
</g>
</g>
<!-- Node2&#45;&gt;Node5 -->
<g id="edge4" class="edge"><title>Node2&#45;&gt;Node5</title>
<path fill="none" stroke="midnightblue" d="M392.44,-195.036C328.394,-189.957 242.257,-178.65 219,-154 203.364,-137.428 203.354,-109.781 205.553,-91.3476"/>
<polygon fill="midnightblue" stroke="midnightblue" points="209.047,-91.6545 207.088,-81.2422 202.126,-90.6033 209.047,-91.6545"/>
</g>
<!-- Node2&#45;&gt;Node6 -->
<g id="edge5" class="edge"><title>Node2&#45;&gt;Node6</title>
<path fill="none" stroke="midnightblue" d="M392.197,-190.793C325.626,-182.584 225.38,-169.043 139,-154 132.264,-152.827 125.185,-151.487 118.313,-150.107"/>
<polygon fill="midnightblue" stroke="midnightblue" points="118.957,-146.666 108.456,-148.07 117.54,-153.521 118.957,-146.666"/>
</g>
<!-- Node7 -->
<g id="node7" class="node"><title>Node7</title>
<g id="a_node7"><a xlink:href="dp__matrices_8h.html" target="_top" xlink:title="Functions to deal with standard dynamic programming (DP) matrices. ">
<polygon fill="none" stroke="black" points="228.5,-129 228.5,-148 361.5,-148 361.5,-129 228.5,-129"/>
<text text-anchor="middle" x="295" y="-136" font-family="Helvetica,sans-Serif" font-size="10.00">ViennaRNA/dp_matrices.h</text>
</a>
</g>
</g>
<!-- Node2&#45;&gt;Node7 -->
<g id="edge9" class="edge"><title>Node2&#45;&gt;Node7</title>
<path fill="none" stroke="midnightblue" d="M436.599,-190.475C405.041,-180.269 355.505,-163.108 324.079,-151.549"/>
<polygon fill="midnightblue" stroke="midnightblue" points="325.15,-148.214 314.558,-148.009 322.711,-154.775 325.15,-148.214"/>
</g>
<!-- Node8 -->
<g id="node8" class="node"><title>Node8</title>
<g id="a_node8"><a xlink:href="constraints_8h.html" target="_top" xlink:title="Functions and data structures for constraining secondary structure predictions and evaluation...">
<polygon fill="none" stroke="black" points="494,-129 494,-148 622,-148 622,-129 494,-129"/>
<text text-anchor="middle" x="558" y="-136" font-family="Helvetica,sans-Serif" font-size="10.00">ViennaRNA/constraints.h</text>
</a>
</g>
</g>
<!-- Node2&#45;&gt;Node8 -->
<g id="edge11" class="edge"><title>Node2&#45;&gt;Node8</title>
<path fill="none" stroke="midnightblue" d="M474.281,-190.475C487.249,-180.711 511.899,-164.581 531.23,-153.081"/>
<polygon fill="midnightblue" stroke="midnightblue" points="533.063,-156.064 539.946,-148.009 529.542,-150.013 533.063,-156.064"/>
</g>
<!-- Node14 -->
<g id="node14" class="node"><title>Node14</title>
<g id="a_node14"><a xlink:href="grammar_8h.html" target="_top" xlink:title="Implementations for the RNA folding grammar. ">
<polygon fill="none" stroke="black" points="640,-129 640,-148 758,-148 758,-129 640,-129"/>
<text text-anchor="middle" x="699" y="-136" font-family="Helvetica,sans-Serif" font-size="10.00">ViennaRNA/grammar.h</text>
</a>
</g>
</g>
<!-- Node2&#45;&gt;Node14 -->
<g id="edge23" class="edge"><title>Node2&#45;&gt;Node14</title>
<path fill="none" stroke="midnightblue" d="M494.483,-190.475C533.45,-179.937 603.589,-161.986 650.785,-150.441"/>
<polygon fill="midnightblue" stroke="midnightblue" points="651.893,-153.774 660.782,-148.009 650.238,-146.973 651.893,-153.774"/>
</g>
<!-- Node15 -->
<g id="node15" class="node"><title>Node15</title>
<g id="a_node15"><a xlink:href="structured__domains_8h.html" target="_top" xlink:title="This module provides interfaces that deal with additional structured domains in the folding grammar...">
<polygon fill="none" stroke="black" points="776.5,-123.5 776.5,-153.5 891.5,-153.5 891.5,-123.5 776.5,-123.5"/>
<text text-anchor="start" x="784.5" y="-141.5" font-family="Helvetica,sans-Serif" font-size="10.00">ViennaRNA/structured</text>
<text text-anchor="middle" x="834" y="-130.5" font-family="Helvetica,sans-Serif" font-size="10.00">_domains.h</text>
</a>
</g>
</g>
<!-- Node2&#45;&gt;Node15 -->
<g id="edge25" class="edge"><title>Node2&#45;&gt;Node15</title>
<path fill="none" stroke="midnightblue" d="M531.376,-190.469C590.216,-182.508 679.267,-169.761 766.257,-154.063"/>
<polygon fill="midnightblue" stroke="midnightblue" points="767.092,-157.468 776.304,-152.235 765.839,-150.581 767.092,-157.468"/>
</g>
<!-- Node16 -->
<g id="node16" class="node"><title>Node16</title>
<g id="a_node16"><a xlink:href="unstructured__domains_8h.html" target="_top" xlink:title="Functions to modify unstructured domains, e.g. to incorporate ligands binding to unpaired stretches...">
<polygon fill="none" stroke="black" points="909.5,-123.5 909.5,-153.5 1034.5,-153.5 1034.5,-123.5 909.5,-123.5"/>
<text text-anchor="start" x="917.5" y="-141.5" font-family="Helvetica,sans-Serif" font-size="10.00">ViennaRNA/unstructured</text>
<text text-anchor="middle" x="972" y="-130.5" font-family="Helvetica,sans-Serif" font-size="10.00">_domains.h</text>
</a>
</g>
</g>
<!-- Node2&#45;&gt;Node16 -->
<g id="edge26" class="edge"><title>Node2&#45;&gt;Node16</title>
<path fill="none" stroke="midnightblue" d="M539.647,-192.984C624.611,-185.902 768.182,-172.691 891,-154 893.685,-153.591 896.421,-153.151 899.187,-152.685"/>
<polygon fill="midnightblue" stroke="midnightblue" points="900.048,-156.088 909.292,-150.91 898.837,-149.193 900.048,-156.088"/>
</g>
<!-- Node4 -->
<g id="node4" class="node"><title>Node4</title>
<polygon fill="none" stroke="#bfbfbf" points="45,-0.5 45,-19.5 93,-19.5 93,-0.5 45,-0.5"/>
<text text-anchor="middle" x="69" y="-7.5" font-family="Helvetica,sans-Serif" font-size="10.00">limits.h</text>
</g>
<!-- Node3&#45;&gt;Node4 -->
<g id="edge3" class="edge"><title>Node3&#45;&gt;Node4</title>
<path fill="none" stroke="midnightblue" d="M69,-61.9751C69,-53.5803 69,-40.4806 69,-29.6631"/>
<polygon fill="midnightblue" stroke="midnightblue" points="72.5001,-29.5091 69,-19.5091 65.5001,-29.5091 72.5001,-29.5091"/>
</g>
<!-- Node6&#45;&gt;Node2 -->
<g id="edge7" class="edge"><title>Node6&#45;&gt;Node2</title>
<path fill="none" stroke="midnightblue" d="M125.864,-148.07C136.189,-150.139 146.974,-152.254 157,-154 237.784,-168.068 330.696,-180.823 393.436,-189.132"/>
<polygon fill="midnightblue" stroke="midnightblue" points="393.254,-192.638 403.627,-190.477 394.171,-185.698 393.254,-192.638"/>
</g>
<!-- Node6&#45;&gt;Node3 -->
<g id="edge6" class="edge"><title>Node6&#45;&gt;Node3</title>
<path fill="none" stroke="midnightblue" d="M76.7862,-128.734C75.4638,-119.183 73.3087,-103.618 71.6007,-91.2829"/>
<polygon fill="midnightblue" stroke="midnightblue" points="75.0331,-90.5527 70.1945,-81.1273 68.0992,-91.5129 75.0331,-90.5527"/>
</g>
<!-- Node6&#45;&gt;Node5 -->
<g id="edge8" class="edge"><title>Node6&#45;&gt;Node5</title>
<path fill="none" stroke="midnightblue" d="M95.3958,-128.869C117.613,-117.845 156.287,-98.6554 182.26,-85.7678"/>
<polygon fill="midnightblue" stroke="midnightblue" points="184.13,-88.7473 191.532,-81.1672 181.019,-82.4767 184.13,-88.7473"/>
</g>
<!-- Node7&#45;&gt;Node2 -->
<g id="edge10" class="edge"><title>Node7&#45;&gt;Node2</title>
<path fill="none" stroke="midnightblue" d="M324.352,-148.009C355.892,-158.208 405.428,-175.368 436.872,-186.933"/>
<polygon fill="midnightblue" stroke="midnightblue" points="435.808,-190.271 446.4,-190.475 438.247,-183.71 435.808,-190.271"/>
</g>
<!-- Node8&#45;&gt;Node2 -->
<g id="edge12" class="edge"><title>Node8&#45;&gt;Node2</title>
<path fill="none" stroke="midnightblue" d="M549.74,-148.009C536.785,-157.767 512.138,-173.896 492.802,-185.401"/>
<polygon fill="midnightblue" stroke="midnightblue" points="490.964,-182.42 484.082,-190.475 494.485,-188.47 490.964,-182.42"/>
</g>
<!-- Node9 -->
<g id="node9" class="node"><title>Node9</title>
<g id="a_node9"><a xlink:href="constraints__hard_8h.html" target="_top" xlink:title="Functions and data structures for handling of secondary structure hard constraints. ">
<polygon fill="none" stroke="black" points="300.5,-56.5 300.5,-86.5 419.5,-86.5 419.5,-56.5 300.5,-56.5"/>
<text text-anchor="start" x="308.5" y="-74.5" font-family="Helvetica,sans-Serif" font-size="10.00">ViennaRNA/constraints</text>
<text text-anchor="middle" x="360" y="-63.5" font-family="Helvetica,sans-Serif" font-size="10.00">_hard.h</text>
</a>
</g>
</g>
<!-- Node8&#45;&gt;Node9 -->
<g id="edge13" class="edge"><title>Node8&#45;&gt;Node9</title>
<path fill="none" stroke="midnightblue" d="M531.707,-128.869C501.482,-118.946 451.106,-102.408 412.714,-89.8051"/>
<polygon fill="midnightblue" stroke="midnightblue" points="413.324,-86.3218 402.732,-86.5281 411.141,-92.9726 413.324,-86.3218"/>
</g>
<!-- Node10 -->
<g id="node10" class="node"><title>Node10</title>
<g id="a_node10"><a xlink:href="constraints__soft_8h.html" target="_top" xlink:title="Functions and data structures for secondary structure soft constraints. ">
<polygon fill="none" stroke="black" points="437.5,-56.5 437.5,-86.5 556.5,-86.5 556.5,-56.5 437.5,-56.5"/>
<text text-anchor="start" x="445.5" y="-74.5" font-family="Helvetica,sans-Serif" font-size="10.00">ViennaRNA/constraints</text>
<text text-anchor="middle" x="497" y="-63.5" font-family="Helvetica,sans-Serif" font-size="10.00">_soft.h</text>
</a>
</g>
</g>
<!-- Node8&#45;&gt;Node10 -->
<g id="edge15" class="edge"><title>Node8&#45;&gt;Node10</title>
<path fill="none" stroke="midnightblue" d="M549.773,-128.734C541.45,-119.865 528.261,-105.811 517.151,-93.9722"/>
<polygon fill="midnightblue" stroke="midnightblue" points="519.617,-91.4858 510.222,-86.589 514.513,-96.276 519.617,-91.4858"/>
</g>
<!-- Node11 -->
<g id="node11" class="node"><title>Node11</title>
<g id="a_node11"><a xlink:href="constraints__SHAPE_8h.html" target="_top" xlink:title="This module provides function to incorporate SHAPE reactivity data into the folding recursions by mea...">
<polygon fill="none" stroke="black" points="574.5,-56.5 574.5,-86.5 693.5,-86.5 693.5,-56.5 574.5,-56.5"/>
<text text-anchor="start" x="582.5" y="-74.5" font-family="Helvetica,sans-Serif" font-size="10.00">ViennaRNA/constraints</text>
<text text-anchor="middle" x="634" y="-63.5" font-family="Helvetica,sans-Serif" font-size="10.00">_SHAPE.h</text>
</a>
</g>
</g>
<!-- Node8&#45;&gt;Node11 -->
<g id="edge17" class="edge"><title>Node8&#45;&gt;Node11</title>
<path fill="none" stroke="midnightblue" d="M568.25,-128.734C578.817,-119.696 595.68,-105.274 609.682,-93.2982"/>
<polygon fill="midnightblue" stroke="midnightblue" points="612.202,-95.7486 617.527,-86.589 607.652,-90.4288 612.202,-95.7486"/>
</g>
<!-- Node12 -->
<g id="node12" class="node"><title>Node12</title>
<g id="a_node12"><a xlink:href="perturbation__fold_8h.html" target="_top" xlink:title="Find a vector of perturbation energies that minimizes the discripancies between predicted and observe...">
<polygon fill="none" stroke="black" points="762,-56.5 762,-86.5 884,-86.5 884,-56.5 762,-56.5"/>
<text text-anchor="start" x="770" y="-74.5" font-family="Helvetica,sans-Serif" font-size="10.00">ViennaRNA/perturbation</text>
<text text-anchor="middle" x="823" y="-63.5" font-family="Helvetica,sans-Serif" font-size="10.00">_fold.h</text>
</a>
</g>
</g>
<!-- Node8&#45;&gt;Node12 -->
<g id="edge19" class="edge"><title>Node8&#45;&gt;Node12</title>
<path fill="none" stroke="midnightblue" d="M592.917,-128.936C634.244,-118.799 703.991,-101.691 755.884,-88.9625"/>
<polygon fill="midnightblue" stroke="midnightblue" points="756.804,-92.3407 765.682,-86.5592 755.136,-85.5422 756.804,-92.3407"/>
</g>
<!-- Node13 -->
<g id="node13" class="node"><title>Node13</title>
<g id="a_node13"><a xlink:href="constraints__ligand_8h.html" target="_top" xlink:title="Functions for incorporation of ligands binding to hairpin and interior loop motifs using the soft con...">
<polygon fill="none" stroke="black" points="1002.5,-56.5 1002.5,-86.5 1121.5,-86.5 1121.5,-56.5 1002.5,-56.5"/>
<text text-anchor="start" x="1010.5" y="-74.5" font-family="Helvetica,sans-Serif" font-size="10.00">ViennaRNA/constraints</text>
<text text-anchor="middle" x="1062" y="-63.5" font-family="Helvetica,sans-Serif" font-size="10.00">_ligand.h</text>
</a>
</g>
</g>
<!-- Node8&#45;&gt;Node13 -->
<g id="edge21" class="edge"><title>Node8&#45;&gt;Node13</title>
<path fill="none" stroke="midnightblue" d="M598.06,-128.948C608.733,-126.832 620.279,-124.69 631,-123 757.755,-103.018 906.633,-87.2703 992.084,-78.9682"/>
<polygon fill="midnightblue" stroke="midnightblue" points="992.567,-82.4379 1002.18,-77.9929 991.894,-75.4703 992.567,-82.4379"/>
</g>
<!-- Node9&#45;&gt;Node2 -->
<g id="edge14" class="edge"><title>Node9&#45;&gt;Node2</title>
<path fill="none" stroke="midnightblue" d="M372.056,-86.888C391.871,-110.534 431.206,-157.477 452.139,-182.459"/>
<polygon fill="midnightblue" stroke="midnightblue" points="449.609,-184.888 458.714,-190.305 454.974,-180.392 449.609,-184.888"/>
</g>
<!-- Node10&#45;&gt;Node2 -->
<g id="edge16" class="edge"><title>Node10&#45;&gt;Node2</title>
<path fill="none" stroke="midnightblue" d="M478.976,-86.7903C468.953,-95.9341 457.434,-108.734 452,-123 444.783,-141.948 450.966,-165.01 457.243,-180.726"/>
<polygon fill="midnightblue" stroke="midnightblue" points="454.217,-182.54 461.44,-190.291 460.627,-179.728 454.217,-182.54"/>
</g>
<!-- Node11&#45;&gt;Node2 -->
<g id="edge18" class="edge"><title>Node11&#45;&gt;Node2</title>
<path fill="none" stroke="midnightblue" d="M574.375,-86.4876C538.547,-96.0406 497.539,-109.391 485,-123 470.773,-138.441 466.795,-162.896 465.879,-179.879"/>
<polygon fill="midnightblue" stroke="midnightblue" points="462.372,-180.163 465.646,-190.24 469.37,-180.321 462.372,-180.163"/>
</g>
<!-- Node12&#45;&gt;Node2 -->
<g id="edge20" class="edge"><title>Node12&#45;&gt;Node2</title>
<path fill="none" stroke="midnightblue" d="M884.174,-75.6583C965.223,-81.9579 1092.51,-100.479 1043,-154 1010.23,-189.42 701.785,-197.021 549.81,-198.609"/>
<polygon fill="midnightblue" stroke="midnightblue" points="549.553,-195.111 539.588,-198.709 549.621,-202.111 549.553,-195.111"/>
</g>
<!-- Node13&#45;&gt;Node2 -->
<g id="edge22" class="edge"><title>Node13&#45;&gt;Node2</title>
<path fill="none" stroke="midnightblue" d="M1067.4,-86.6723C1073.26,-104.784 1079.74,-135.947 1063,-154 1028.83,-190.843 705.629,-197.702 549.555,-198.853"/>
<polygon fill="midnightblue" stroke="midnightblue" points="549.498,-195.353 539.522,-198.921 549.545,-202.353 549.498,-195.353"/>
</g>
<!-- Node14&#45;&gt;Node2 -->
<g id="edge24" class="edge"><title>Node14&#45;&gt;Node2</title>
<path fill="none" stroke="midnightblue" d="M670.576,-148.009C631.64,-158.539 561.505,-176.49 514.286,-188.041"/>
<polygon fill="midnightblue" stroke="midnightblue" points="513.173,-184.71 504.284,-190.475 514.828,-191.511 513.173,-184.71"/>
</g>
<!-- Node16&#45;&gt;Node2 -->
<g id="edge27" class="edge"><title>Node16&#45;&gt;Node2</title>
<path fill="none" stroke="midnightblue" d="M912.046,-153.526C911.024,-153.688 910.008,-153.847 909,-154 784.791,-172.903 639.355,-186.201 549.887,-193.222"/>
<polygon fill="midnightblue" stroke="midnightblue" points="549.496,-189.742 539.797,-194.006 550.038,-196.721 549.496,-189.742"/>
</g>
</g>
</svg>
