<?xml version="1.0" encoding="UTF-8" standalone="no"?>
<!DOCTYPE svg PUBLIC "-//W3C//DTD SVG 1.1//EN"
 "http://www.w3.org/Graphics/SVG/1.1/DTD/svg11.dtd">
<!-- Generated by graphviz version 2.38.0 (20140413.2041)
 -->
<!-- Title: ViennaRNA/alifold.h Pages: 1 -->
<!--zoomable 397 -->
<svg id="main" version="1.1" xmlns="http://www.w3.org/2000/svg" xmlns:xlink="http://www.w3.org/1999/xlink" xml:space="preserve" onload="init(evt)">
<style type="text/css"><![CDATA[
.edge:hover path { stroke: red; }
.edge:hover polygon { stroke: red; fill: red; }
]]></style>
<script type="text/javascript"><![CDATA[
var edges = document.getElementsByTagName('g');
if (edges && edges.length) {
  for (var i=0;i<edges.length;i++) {
    if (edges[i].id.substr(0,4)=='edge') {
      edges[i].setAttribute('class','edge');
    }
  }
}
]]></script>
        <defs>
                <circle id="rim" cx="0" cy="0" r="7"/>
                <circle id="rim2" cx="0" cy="0" r="3.5"/>
                <g id="zoomPlus">
                        <use xlink:href="#rim" fill="#404040">
                                <set attributeName="fill" to="#808080" begin="zoomplus.mouseover" end="zoomplus.mouseout"/>
                        </use>
                        <path d="M-4,0h8M0,-4v8" fill="none" stroke="white" stroke-width="1.5" pointer-events="none"/>
                </g>
                <g id="zoomMin">
                        <use xlink:href="#rim" fill="#404040">
                                <set attributeName="fill" to="#808080" begin="zoomminus.mouseover" end="zoomminus.mouseout"/>
                        </use>
                        <path d="M-4,0h8" fill="none" stroke="white" stroke-width="1.5" pointer-events="none"/>
                </g>
                <g id="dirArrow">
                        <path fill="none" stroke="white" stroke-width="1.5" d="M0,-3.0v7 M-2.5,-0.5L0,-3.0L2.5,-0.5"/>
                </g>
               <g id="resetDef">
                       <use xlink:href="#rim2" fill="#404040">
                               <set attributeName="fill" to="#808080" begin="reset.mouseover" end="reset.mouseout"/>
                       </use>
               </g>
        </defs>

<script type="text/javascript">
var viewWidth = 1247;
var viewHeight = 397;
var sectionId = 'dynsection-0';
</script>
<script xlink:href="svgpan.js"/>
<svg id="graph" class="graph">
<g id="viewport">
<title>ViennaRNA/alifold.h</title>
<!-- Node1 -->
<g id="node1" class="node"><title>Node1</title>
<polygon fill="#bfbfbf" stroke="black" points="471.5,-369.5 471.5,-388.5 576.5,-388.5 576.5,-369.5 471.5,-369.5"/>
<text text-anchor="middle" x="524" y="-376.5" font-family="Helvetica,sans-Serif" font-size="10.00">ViennaRNA/alifold.h</text>
</g>
<!-- Node2 -->
<g id="node2" class="node"><title>Node2</title>
<g id="a_node2"><a xlink:href="data__structures_8h.html" target="_top" xlink:title="Various data structures and pre&#45;processor macros. ">
<polygon fill="none" stroke="black" points="418.5,-190.5 418.5,-209.5 565.5,-209.5 565.5,-190.5 418.5,-190.5"/>
<text text-anchor="middle" x="492" y="-197.5" font-family="Helvetica,sans-Serif" font-size="10.00">ViennaRNA/data_structures.h</text>
</a>
</g>
</g>
<!-- Node1&#45;&gt;Node2 -->
<g id="edge1" class="edge"><title>Node1&#45;&gt;Node2</title>
<path fill="none" stroke="midnightblue" d="M531.338,-369.49C549.126,-347.776 591.344,-288.996 567,-246 558.653,-231.258 543.338,-220.819 528.713,-213.732"/>
<polygon fill="midnightblue" stroke="midnightblue" points="529.842,-210.404 519.282,-209.547 527.003,-216.803 529.842,-210.404"/>
</g>
<!-- Node6 -->
<g id="node6" class="node"><title>Node6</title>
<g id="a_node6"><a xlink:href="params_8h.html" target="_top" xlink:title="Functions to deal with sets of energy parameters. ">
<polygon fill="none" stroke="black" points="22,-129 22,-148 134,-148 134,-129 22,-129"/>
<text text-anchor="middle" x="78" y="-136" font-family="Helvetica,sans-Serif" font-size="10.00">ViennaRNA/params.h</text>
</a>
</g>
</g>
<!-- Node1&#45;&gt;Node6 -->
<g id="edge28" class="edge"><title>Node1&#45;&gt;Node6</title>
<path fill="none" stroke="midnightblue" d="M471.246,-374.85C409.977,-370.125 306.393,-358.821 221,-333 165.049,-316.082 139.509,-321.831 102,-277 73.4466,-242.873 73.5071,-186.96 75.8235,-158.073"/>
<polygon fill="midnightblue" stroke="midnightblue" points="79.3075,-158.407 76.8036,-148.112 72.3411,-157.721 79.3075,-158.407"/>
</g>
<!-- Node17 -->
<g id="node17" class="node"><title>Node17</title>
<g id="a_node17"><a xlink:href="ribo_8h.html" target="_top" xlink:title="Parse RiboSum Scoring Matrices for Covariance Scoring of Alignments. ">
<polygon fill="none" stroke="black" points="400.5,-313.5 400.5,-332.5 495.5,-332.5 495.5,-313.5 400.5,-313.5"/>
<text text-anchor="middle" x="448" y="-320.5" font-family="Helvetica,sans-Serif" font-size="10.00">ViennaRNA/ribo.h</text>
</a>
</g>
</g>
<!-- Node1&#45;&gt;Node17 -->
<g id="edge29" class="edge"><title>Node1&#45;&gt;Node17</title>
<path fill="none" stroke="midnightblue" d="M511.789,-369.324C500.224,-361.107 482.625,-348.602 468.839,-338.807"/>
<polygon fill="midnightblue" stroke="midnightblue" points="470.612,-335.773 460.433,-332.834 466.557,-341.479 470.612,-335.773"/>
</g>
<!-- Node18 -->
<g id="node18" class="node"><title>Node18</title>
<g id="a_node18"><a xlink:href="mfe_8h.html" target="_top" xlink:title="MFE calculations for single RNA sequences. ">
<polygon fill="none" stroke="black" points="614,-313.5 614,-332.5 710,-332.5 710,-313.5 614,-313.5"/>
<text text-anchor="middle" x="662" y="-320.5" font-family="Helvetica,sans-Serif" font-size="10.00">ViennaRNA/mfe.h</text>
</a>
</g>
</g>
<!-- Node1&#45;&gt;Node18 -->
<g id="edge30" class="edge"><title>Node1&#45;&gt;Node18</title>
<path fill="none" stroke="midnightblue" d="M545.867,-369.444C568.779,-360.478 604.975,-346.314 630.866,-336.183"/>
<polygon fill="midnightblue" stroke="midnightblue" points="632.199,-339.42 640.236,-332.516 629.648,-332.901 632.199,-339.42"/>
</g>
<!-- Node20 -->
<g id="node20" class="node"><title>Node20</title>
<g id="a_node20"><a xlink:href="part__func_8h.html" target="_top" xlink:title="Partition function implementations. ">
<polygon fill="none" stroke="black" points="230,-313.5 230,-332.5 350,-332.5 350,-313.5 230,-313.5"/>
<text text-anchor="middle" x="290" y="-320.5" font-family="Helvetica,sans-Serif" font-size="10.00">ViennaRNA/part_func.h</text>
</a>
</g>
</g>
<!-- Node1&#45;&gt;Node20 -->
<g id="edge33" class="edge"><title>Node1&#45;&gt;Node20</title>
<path fill="none" stroke="midnightblue" d="M486.922,-369.444C446.272,-360.063 380.968,-344.993 336.816,-334.804"/>
<polygon fill="midnightblue" stroke="midnightblue" points="337.435,-331.355 326.905,-332.516 335.861,-338.175 337.435,-331.355"/>
</g>
<!-- Node23 -->
<g id="node23" class="node"><title>Node23</title>
<g id="a_node23"><a xlink:href="boltzmann__sampling_8h.html" target="_top" xlink:title="Boltzmann Sampling of secondary structures from the ensemble. ">
<polygon fill="none" stroke="black" points="442,-246.5 442,-276.5 558,-276.5 558,-246.5 442,-246.5"/>
<text text-anchor="start" x="450" y="-264.5" font-family="Helvetica,sans-Serif" font-size="10.00">ViennaRNA/boltzmann</text>
<text text-anchor="middle" x="500" y="-253.5" font-family="Helvetica,sans-Serif" font-size="10.00">_sampling.h</text>
</a>
</g>
</g>
<!-- Node1&#45;&gt;Node23 -->
<g id="edge43" class="edge"><title>Node1&#45;&gt;Node23</title>
<path fill="none" stroke="midnightblue" d="M522.196,-369.319C518.59,-351.967 510.381,-312.457 505.02,-286.658"/>
<polygon fill="midnightblue" stroke="midnightblue" points="508.38,-285.624 502.919,-276.545 501.526,-287.048 508.38,-285.624"/>
</g>
<!-- Node24 -->
<g id="node24" class="node"><title>Node24</title>
<g id="a_node24"><a xlink:href="aln__util_8h.html" target="_top" xlink:title="Various utility&#45; and helper&#45;functions for sequence alignments and comparative structure prediction...">
<polygon fill="none" stroke="black" points="728,-313.5 728,-332.5 838,-332.5 838,-313.5 728,-313.5"/>
<text text-anchor="middle" x="783" y="-320.5" font-family="Helvetica,sans-Serif" font-size="10.00">ViennaRNA/aln_util.h</text>
</a>
</g>
</g>
<!-- Node1&#45;&gt;Node24 -->
<g id="edge42" class="edge"><title>Node1&#45;&gt;Node24</title>
<path fill="none" stroke="midnightblue" d="M565.039,-369.444C610.316,-360.004 683.227,-344.802 732.106,-334.611"/>
<polygon fill="midnightblue" stroke="midnightblue" points="733.078,-337.984 742.153,-332.516 731.649,-331.131 733.078,-337.984"/>
</g>
<!-- Node3 -->
<g id="node3" class="node"><title>Node3</title>
<g id="a_node3"><a xlink:href="energy__const_8h.html" target="_top" xlink:title="Energy parameter constants. ">
<polygon fill="none" stroke="black" points="0,-62 0,-81 138,-81 138,-62 0,-62"/>
<text text-anchor="middle" x="69" y="-69" font-family="Helvetica,sans-Serif" font-size="10.00">ViennaRNA/energy_const.h</text>
</a>
</g>
</g>
<!-- Node2&#45;&gt;Node3 -->
<g id="edge2" class="edge"><title>Node2&#45;&gt;Node3</title>
<path fill="none" stroke="midnightblue" d="M418.199,-195.583C358.362,-190.93 272.666,-179.944 202,-154 178.862,-145.505 121.384,-107.884 90.0995,-86.8529"/>
<polygon fill="midnightblue" stroke="midnightblue" points="91.9053,-83.8491 81.659,-81.1537 87.988,-89.6504 91.9053,-83.8491"/>
</g>
<!-- Node5 -->
<g id="node5" class="node"><title>Node5</title>
<g id="a_node5"><a xlink:href="model_8h.html" target="_top" xlink:title="The model details data structure and its corresponding modifiers. ">
<polygon fill="none" stroke="black" points="156,-62 156,-81 262,-81 262,-62 156,-62"/>
<text text-anchor="middle" x="209" y="-69" font-family="Helvetica,sans-Serif" font-size="10.00">ViennaRNA/model.h</text>
</a>
</g>
</g>
<!-- Node2&#45;&gt;Node5 -->
<g id="edge4" class="edge"><title>Node2&#45;&gt;Node5</title>
<path fill="none" stroke="midnightblue" d="M418.178,-196.535C346.848,-192.506 245.773,-181.901 219,-154 203.143,-137.475 203.25,-109.593 205.53,-91.1172"/>
<polygon fill="midnightblue" stroke="midnightblue" points="209.022,-91.4344 207.106,-81.0143 202.106,-90.355 209.022,-91.4344"/>
</g>
<!-- Node2&#45;&gt;Node6 -->
<g id="edge5" class="edge"><title>Node2&#45;&gt;Node6</title>
<path fill="none" stroke="midnightblue" d="M418.452,-191.748C346.72,-183.858 234.917,-170.185 139,-154 132.176,-152.848 125.003,-151.511 118.05,-150.122"/>
<polygon fill="midnightblue" stroke="midnightblue" points="118.588,-146.66 108.087,-148.068 117.174,-153.515 118.588,-146.66"/>
</g>
<!-- Node7 -->
<g id="node7" class="node"><title>Node7</title>
<g id="a_node7"><a xlink:href="dp__matrices_8h.html" target="_top" xlink:title="Functions to deal with standard dynamic programming (DP) matrices. ">
<polygon fill="none" stroke="black" points="228.5,-129 228.5,-148 361.5,-148 361.5,-129 228.5,-129"/>
<text text-anchor="middle" x="295" y="-136" font-family="Helvetica,sans-Serif" font-size="10.00">ViennaRNA/dp_matrices.h</text>
</a>
</g>
</g>
<!-- Node2&#45;&gt;Node7 -->
<g id="edge9" class="edge"><title>Node2&#45;&gt;Node7</title>
<path fill="none" stroke="midnightblue" d="M458.874,-190.475C422.388,-180.136 364.336,-162.661 327.933,-151.102"/>
<polygon fill="midnightblue" stroke="midnightblue" points="328.867,-147.726 318.276,-148.009 326.732,-154.392 328.867,-147.726"/>
</g>
<!-- Node8 -->
<g id="node8" class="node"><title>Node8</title>
<g id="a_node8"><a xlink:href="constraints_8h.html" target="_top" xlink:title="Functions and data structures for constraining secondary structure predictions and evaluation...">
<polygon fill="none" stroke="black" points="907,-129 907,-148 1035,-148 1035,-129 907,-129"/>
<text text-anchor="middle" x="971" y="-136" font-family="Helvetica,sans-Serif" font-size="10.00">ViennaRNA/constraints.h</text>
</a>
</g>
</g>
<!-- Node2&#45;&gt;Node8 -->
<g id="edge11" class="edge"><title>Node2&#45;&gt;Node8</title>
<path fill="none" stroke="midnightblue" d="M565.675,-191.688C644.612,-183.914 773.307,-170.478 884,-154 892.225,-152.776 900.909,-151.322 909.496,-149.816"/>
<polygon fill="midnightblue" stroke="midnightblue" points="910.267,-153.234 919.498,-148.034 909.039,-146.342 910.267,-153.234"/>
</g>
<!-- Node14 -->
<g id="node14" class="node"><title>Node14</title>
<g id="a_node14"><a xlink:href="grammar_8h.html" target="_top" xlink:title="Implementations for the RNA folding grammar. ">
<polygon fill="none" stroke="black" points="418,-129 418,-148 536,-148 536,-129 418,-129"/>
<text text-anchor="middle" x="477" y="-136" font-family="Helvetica,sans-Serif" font-size="10.00">ViennaRNA/grammar.h</text>
</a>
</g>
</g>
<!-- Node2&#45;&gt;Node14 -->
<g id="edge23" class="edge"><title>Node2&#45;&gt;Node14</title>
<path fill="none" stroke="midnightblue" d="M484.95,-190.475C481.003,-182.08 477.229,-168.981 475.39,-158.163"/>
<polygon fill="midnightblue" stroke="midnightblue" points="478.844,-157.555 474.248,-148.009 471.888,-158.338 478.844,-157.555"/>
</g>
<!-- Node15 -->
<g id="node15" class="node"><title>Node15</title>
<g id="a_node15"><a xlink:href="structured__domains_8h.html" target="_top" xlink:title="This module provides interfaces that deal with additional structured domains in the folding grammar...">
<polygon fill="none" stroke="black" points="554.5,-123.5 554.5,-153.5 669.5,-153.5 669.5,-123.5 554.5,-123.5"/>
<text text-anchor="start" x="562.5" y="-141.5" font-family="Helvetica,sans-Serif" font-size="10.00">ViennaRNA/structured</text>
<text text-anchor="middle" x="612" y="-130.5" font-family="Helvetica,sans-Serif" font-size="10.00">_domains.h</text>
</a>
</g>
</g>
<!-- Node2&#45;&gt;Node15 -->
<g id="edge25" class="edge"><title>Node2&#45;&gt;Node15</title>
<path fill="none" stroke="midnightblue" d="M509.193,-190.475C526.205,-182.04 552.796,-168.855 574.673,-158.008"/>
<polygon fill="midnightblue" stroke="midnightblue" points="576.314,-161.101 583.718,-153.523 573.204,-154.83 576.314,-161.101"/>
</g>
<!-- Node16 -->
<g id="node16" class="node"><title>Node16</title>
<g id="a_node16"><a xlink:href="unstructured__domains_8h.html" target="_top" xlink:title="Functions to modify unstructured domains, e.g. to incorporate ligands binding to unpaired stretches...">
<polygon fill="none" stroke="black" points="687.5,-123.5 687.5,-153.5 812.5,-153.5 812.5,-123.5 687.5,-123.5"/>
<text text-anchor="start" x="695.5" y="-141.5" font-family="Helvetica,sans-Serif" font-size="10.00">ViennaRNA/unstructured</text>
<text text-anchor="middle" x="750" y="-130.5" font-family="Helvetica,sans-Serif" font-size="10.00">_domains.h</text>
</a>
</g>
</g>
<!-- Node2&#45;&gt;Node16 -->
<g id="edge26" class="edge"><title>Node2&#45;&gt;Node16</title>
<path fill="none" stroke="midnightblue" d="M524.065,-190.475C562.274,-181.197 627.065,-166.171 677.533,-154.831"/>
<polygon fill="midnightblue" stroke="midnightblue" points="678.431,-158.217 687.424,-152.615 676.901,-151.386 678.431,-158.217"/>
</g>
<!-- Node4 -->
<g id="node4" class="node"><title>Node4</title>
<polygon fill="none" stroke="#bfbfbf" points="45,-0.5 45,-19.5 93,-19.5 93,-0.5 45,-0.5"/>
<text text-anchor="middle" x="69" y="-7.5" font-family="Helvetica,sans-Serif" font-size="10.00">limits.h</text>
</g>
<!-- Node3&#45;&gt;Node4 -->
<g id="edge3" class="edge"><title>Node3&#45;&gt;Node4</title>
<path fill="none" stroke="midnightblue" d="M69,-61.9751C69,-53.5803 69,-40.4806 69,-29.6631"/>
<polygon fill="midnightblue" stroke="midnightblue" points="72.5001,-29.5091 69,-19.5091 65.5001,-29.5091 72.5001,-29.5091"/>
</g>
<!-- Node6&#45;&gt;Node2 -->
<g id="edge7" class="edge"><title>Node6&#45;&gt;Node2</title>
<path fill="none" stroke="midnightblue" d="M125.474,-148.068C135.913,-150.159 146.843,-152.286 157,-154 243.573,-168.608 343.088,-181.17 411.076,-189.28"/>
<polygon fill="midnightblue" stroke="midnightblue" points="410.948,-192.79 421.291,-190.494 411.774,-185.839 410.948,-192.79"/>
</g>
<!-- Node6&#45;&gt;Node3 -->
<g id="edge6" class="edge"><title>Node6&#45;&gt;Node3</title>
<path fill="none" stroke="midnightblue" d="M76.7862,-128.734C75.4638,-119.183 73.3087,-103.618 71.6007,-91.2829"/>
<polygon fill="midnightblue" stroke="midnightblue" points="75.0331,-90.5527 70.1945,-81.1273 68.0992,-91.5129 75.0331,-90.5527"/>
</g>
<!-- Node6&#45;&gt;Node5 -->
<g id="edge8" class="edge"><title>Node6&#45;&gt;Node5</title>
<path fill="none" stroke="midnightblue" d="M95.3958,-128.869C117.613,-117.845 156.287,-98.6554 182.26,-85.7678"/>
<polygon fill="midnightblue" stroke="midnightblue" points="184.13,-88.7473 191.532,-81.1672 181.019,-82.4767 184.13,-88.7473"/>
</g>
<!-- Node7&#45;&gt;Node2 -->
<g id="edge10" class="edge"><title>Node7&#45;&gt;Node2</title>
<path fill="none" stroke="midnightblue" d="M328.07,-148.009C364.534,-158.341 422.586,-175.815 459.011,-187.381"/>
<polygon fill="midnightblue" stroke="midnightblue" points="458.084,-190.759 468.675,-190.475 460.219,-184.092 458.084,-190.759"/>
</g>
<!-- Node8&#45;&gt;Node2 -->
<g id="edge12" class="edge"><title>Node8&#45;&gt;Node2</title>
<path fill="none" stroke="midnightblue" d="M936.862,-148.034C925.776,-150.15 913.444,-152.296 902,-154 789.752,-170.709 658.994,-184.291 575.818,-192.012"/>
<polygon fill="midnightblue" stroke="midnightblue" points="575.3,-188.545 565.663,-192.947 575.942,-195.515 575.3,-188.545"/>
</g>
<!-- Node9 -->
<g id="node9" class="node"><title>Node9</title>
<g id="a_node9"><a xlink:href="constraints__hard_8h.html" target="_top" xlink:title="Functions and data structures for handling of secondary structure hard constraints. ">
<polygon fill="none" stroke="black" points="448.5,-56.5 448.5,-86.5 567.5,-86.5 567.5,-56.5 448.5,-56.5"/>
<text text-anchor="start" x="456.5" y="-74.5" font-family="Helvetica,sans-Serif" font-size="10.00">ViennaRNA/constraints</text>
<text text-anchor="middle" x="508" y="-63.5" font-family="Helvetica,sans-Serif" font-size="10.00">_hard.h</text>
</a>
</g>
</g>
<!-- Node8&#45;&gt;Node9 -->
<g id="edge13" class="edge"><title>Node8&#45;&gt;Node9</title>
<path fill="none" stroke="midnightblue" d="M909.995,-128.936C824.166,-116.886 668.176,-94.9869 577.819,-82.3019"/>
<polygon fill="midnightblue" stroke="midnightblue" points="578.062,-78.8017 567.673,-80.8774 577.089,-85.7337 578.062,-78.8017"/>
</g>
<!-- Node10 -->
<g id="node10" class="node"><title>Node10</title>
<g id="a_node10"><a xlink:href="constraints__soft_8h.html" target="_top" xlink:title="Functions and data structures for secondary structure soft constraints. ">
<polygon fill="none" stroke="black" points="704.5,-56.5 704.5,-86.5 823.5,-86.5 823.5,-56.5 704.5,-56.5"/>
<text text-anchor="start" x="712.5" y="-74.5" font-family="Helvetica,sans-Serif" font-size="10.00">ViennaRNA/constraints</text>
<text text-anchor="middle" x="764" y="-63.5" font-family="Helvetica,sans-Serif" font-size="10.00">_soft.h</text>
</a>
</g>
</g>
<!-- Node8&#45;&gt;Node10 -->
<g id="edge15" class="edge"><title>Node8&#45;&gt;Node10</title>
<path fill="none" stroke="midnightblue" d="M943.512,-128.869C911.711,-118.883 858.574,-102.197 818.343,-89.5642"/>
<polygon fill="midnightblue" stroke="midnightblue" points="819.263,-86.1848 808.674,-86.5281 817.166,-92.8632 819.263,-86.1848"/>
</g>
<!-- Node11 -->
<g id="node11" class="node"><title>Node11</title>
<g id="a_node11"><a xlink:href="constraints__SHAPE_8h.html" target="_top" xlink:title="This module provides function to incorporate SHAPE reactivity data into the folding recursions by mea...">
<polygon fill="none" stroke="black" points="841.5,-56.5 841.5,-86.5 960.5,-86.5 960.5,-56.5 841.5,-56.5"/>
<text text-anchor="start" x="849.5" y="-74.5" font-family="Helvetica,sans-Serif" font-size="10.00">ViennaRNA/constraints</text>
<text text-anchor="middle" x="901" y="-63.5" font-family="Helvetica,sans-Serif" font-size="10.00">_SHAPE.h</text>
</a>
</g>
</g>
<!-- Node8&#45;&gt;Node11 -->
<g id="edge17" class="edge"><title>Node8&#45;&gt;Node11</title>
<path fill="none" stroke="midnightblue" d="M961.559,-128.734C951.917,-119.78 936.585,-105.543 923.76,-93.6346"/>
<polygon fill="midnightblue" stroke="midnightblue" points="925.882,-90.8288 916.173,-86.589 921.119,-95.9583 925.882,-90.8288"/>
</g>
<!-- Node12 -->
<g id="node12" class="node"><title>Node12</title>
<g id="a_node12"><a xlink:href="perturbation__fold_8h.html" target="_top" xlink:title="Find a vector of perturbation energies that minimizes the discripancies between predicted and observe...">
<polygon fill="none" stroke="black" points="979,-56.5 979,-86.5 1101,-86.5 1101,-56.5 979,-56.5"/>
<text text-anchor="start" x="987" y="-74.5" font-family="Helvetica,sans-Serif" font-size="10.00">ViennaRNA/perturbation</text>
<text text-anchor="middle" x="1040" y="-63.5" font-family="Helvetica,sans-Serif" font-size="10.00">_fold.h</text>
</a>
</g>
</g>
<!-- Node8&#45;&gt;Node12 -->
<g id="edge19" class="edge"><title>Node8&#45;&gt;Node12</title>
<path fill="none" stroke="midnightblue" d="M980.306,-128.734C989.81,-119.78 1004.92,-105.543 1017.56,-93.6346"/>
<polygon fill="midnightblue" stroke="midnightblue" points="1020.16,-95.9936 1025.04,-86.589 1015.37,-90.8984 1020.16,-95.9936"/>
</g>
<!-- Node13 -->
<g id="node13" class="node"><title>Node13</title>
<g id="a_node13"><a xlink:href="constraints__ligand_8h.html" target="_top" xlink:title="Functions for incorporation of ligands binding to hairpin and interior loop motifs using the soft con...">
<polygon fill="none" stroke="black" points="1119.5,-56.5 1119.5,-86.5 1238.5,-86.5 1238.5,-56.5 1119.5,-56.5"/>
<text text-anchor="start" x="1127.5" y="-74.5" font-family="Helvetica,sans-Serif" font-size="10.00">ViennaRNA/constraints</text>
<text text-anchor="middle" x="1179" y="-63.5" font-family="Helvetica,sans-Serif" font-size="10.00">_ligand.h</text>
</a>
</g>
</g>
<!-- Node8&#45;&gt;Node13 -->
<g id="edge21" class="edge"><title>Node8&#45;&gt;Node13</title>
<path fill="none" stroke="midnightblue" d="M998.621,-128.869C1030.58,-118.883 1083.97,-102.197 1124.39,-89.5642"/>
<polygon fill="midnightblue" stroke="midnightblue" points="1125.61,-92.8516 1134.11,-86.5281 1123.52,-86.1702 1125.61,-92.8516"/>
</g>
<!-- Node9&#45;&gt;Node2 -->
<g id="edge14" class="edge"><title>Node9&#45;&gt;Node2</title>
<path fill="none" stroke="midnightblue" d="M456.086,-86.5603C437.961,-94.2345 419.531,-105.806 409,-123 401.804,-134.749 401.952,-142.161 409,-154 418.096,-169.279 434.388,-179.69 450.144,-186.614"/>
<polygon fill="midnightblue" stroke="midnightblue" points="449.231,-190.019 459.815,-190.488 451.833,-183.521 449.231,-190.019"/>
</g>
<!-- Node10&#45;&gt;Node2 -->
<g id="edge16" class="edge"><title>Node10&#45;&gt;Node2</title>
<path fill="none" stroke="midnightblue" d="M785.922,-86.7223C809.199,-103.537 840.185,-132.013 821,-154 789.782,-189.778 662.517,-198.144 575.737,-199.562"/>
<polygon fill="midnightblue" stroke="midnightblue" points="575.58,-196.064 565.628,-199.699 575.675,-203.063 575.58,-196.064"/>
</g>
<!-- Node11&#45;&gt;Node2 -->
<g id="edge18" class="edge"><title>Node11&#45;&gt;Node2</title>
<path fill="none" stroke="midnightblue" d="M894.386,-86.8124C884.839,-105.686 865.299,-138.332 838,-154 794.728,-178.835 663.883,-190.341 576.082,-195.389"/>
<polygon fill="midnightblue" stroke="midnightblue" points="575.653,-191.907 565.864,-195.959 576.043,-198.897 575.653,-191.907"/>
</g>
<!-- Node12&#45;&gt;Node2 -->
<g id="edge20" class="edge"><title>Node12&#45;&gt;Node2</title>
<path fill="none" stroke="midnightblue" d="M1046.11,-86.6503C1052.85,-104.738 1060.71,-135.876 1044,-154 1012.97,-187.657 722.665,-196.142 575.984,-198.28"/>
<polygon fill="midnightblue" stroke="midnightblue" points="575.627,-194.784 565.677,-198.423 575.724,-201.784 575.627,-194.784"/>
</g>
<!-- Node13&#45;&gt;Node2 -->
<g id="edge22" class="edge"><title>Node13&#45;&gt;Node2</title>
<path fill="none" stroke="midnightblue" d="M1164.39,-86.778C1143.75,-105.932 1103.99,-139.244 1063,-154 975.747,-185.411 712.534,-194.938 576.078,-197.796"/>
<polygon fill="midnightblue" stroke="midnightblue" points="575.604,-194.305 565.676,-198.006 575.745,-201.304 575.604,-194.305"/>
</g>
<!-- Node14&#45;&gt;Node2 -->
<g id="edge24" class="edge"><title>Node14&#45;&gt;Node2</title>
<path fill="none" stroke="midnightblue" d="M484.042,-148.009C487.99,-156.398 491.765,-169.496 493.606,-180.317"/>
<polygon fill="midnightblue" stroke="midnightblue" points="490.153,-180.93 494.751,-190.475 497.109,-180.146 490.153,-180.93"/>
</g>
<!-- Node16&#45;&gt;Node2 -->
<g id="edge27" class="edge"><title>Node16&#45;&gt;Node2</title>
<path fill="none" stroke="midnightblue" d="M695.024,-153.523C650.267,-164.162 587.635,-178.568 543.76,-188.292"/>
<polygon fill="midnightblue" stroke="midnightblue" points="542.877,-184.903 533.866,-190.475 544.385,-191.738 542.877,-184.903"/>
</g>
<!-- Node18&#45;&gt;Node2 -->
<g id="edge32" class="edge"><title>Node18&#45;&gt;Node2</title>
<path fill="none" stroke="midnightblue" d="M656.934,-313.306C647.526,-297.835 625.938,-265.338 600,-246 580.037,-231.117 554.429,-220.169 533.159,-212.8"/>
<polygon fill="midnightblue" stroke="midnightblue" points="534.013,-209.396 523.419,-209.567 531.807,-216.039 534.013,-209.396"/>
</g>
<!-- Node19 -->
<g id="node19" class="node"><title>Node19</title>
<polygon fill="none" stroke="#bfbfbf" points="652,-252 652,-271 698,-271 698,-252 652,-252"/>
<text text-anchor="middle" x="675" y="-259" font-family="Helvetica,sans-Serif" font-size="10.00">stdio.h</text>
</g>
<!-- Node18&#45;&gt;Node19 -->
<g id="edge31" class="edge"><title>Node18&#45;&gt;Node19</title>
<path fill="none" stroke="midnightblue" d="M663.863,-313.475C665.716,-304.992 668.619,-291.704 670.997,-280.822"/>
<polygon fill="midnightblue" stroke="midnightblue" points="674.426,-281.526 673.141,-271.009 667.587,-280.032 674.426,-281.526"/>
</g>
<!-- Node20&#45;&gt;Node2 -->
<g id="edge34" class="edge"><title>Node20&#45;&gt;Node2</title>
<path fill="none" stroke="midnightblue" d="M288.441,-313.421C286.143,-297.841 283.8,-264.777 301,-246 315.975,-229.651 365.095,-218.295 409.769,-211.08"/>
<polygon fill="midnightblue" stroke="midnightblue" points="410.471,-214.513 419.812,-209.513 409.392,-207.596 410.471,-214.513"/>
</g>
<!-- Node20&#45;&gt;Node6 -->
<g id="edge35" class="edge"><title>Node20&#45;&gt;Node6</title>
<path fill="none" stroke="midnightblue" d="M229.935,-318.801C195.91,-314.009 154.738,-302.784 127,-277 92.7531,-245.165 82.4186,-187.794 79.3173,-158.233"/>
<polygon fill="midnightblue" stroke="midnightblue" points="82.7852,-157.712 78.4257,-148.056 75.8119,-158.323 82.7852,-157.712"/>
</g>
<!-- Node21 -->
<g id="node21" class="node"><title>Node21</title>
<g id="a_node21"><a xlink:href="centroid_8h.html" target="_top" xlink:title="Centroid structure computation. ">
<polygon fill="none" stroke="black" points="310,-252 310,-271 424,-271 424,-252 310,-252"/>
<text text-anchor="middle" x="367" y="-259" font-family="Helvetica,sans-Serif" font-size="10.00">ViennaRNA/centroid.h</text>
</a>
</g>
</g>
<!-- Node20&#45;&gt;Node21 -->
<g id="edge36" class="edge"><title>Node20&#45;&gt;Node21</title>
<path fill="none" stroke="midnightblue" d="M301.032,-313.475C313.268,-304.02 333.229,-288.596 347.993,-277.187"/>
<polygon fill="midnightblue" stroke="midnightblue" points="350.215,-279.893 355.988,-271.009 345.935,-274.354 350.215,-279.893"/>
</g>
<!-- Node22 -->
<g id="node22" class="node"><title>Node22</title>
<g id="a_node22"><a xlink:href="equilibrium__probs_8h.html" target="_top" xlink:title="Equilibrium Probability implementations. ">
<polygon fill="none" stroke="black" points="136,-246.5 136,-276.5 254,-276.5 254,-246.5 136,-246.5"/>
<text text-anchor="start" x="144" y="-264.5" font-family="Helvetica,sans-Serif" font-size="10.00">ViennaRNA/equilibrium</text>
<text text-anchor="middle" x="195" y="-253.5" font-family="Helvetica,sans-Serif" font-size="10.00">_probs.h</text>
</a>
</g>
</g>
<!-- Node20&#45;&gt;Node22 -->
<g id="edge38" class="edge"><title>Node20&#45;&gt;Node22</title>
<path fill="none" stroke="midnightblue" d="M276.389,-313.475C263.282,-305.266 242.992,-292.558 225.95,-281.885"/>
<polygon fill="midnightblue" stroke="midnightblue" points="227.722,-278.865 217.39,-276.523 224.007,-284.797 227.722,-278.865"/>
</g>
<!-- Node20&#45;&gt;Node23 -->
<g id="edge40" class="edge"><title>Node20&#45;&gt;Node23</title>
<path fill="none" stroke="midnightblue" d="M320.088,-313.475C351.453,-304.588 401.428,-290.429 440.756,-279.286"/>
<polygon fill="midnightblue" stroke="midnightblue" points="441.84,-282.617 450.507,-276.523 439.932,-275.882 441.84,-282.617"/>
</g>
<!-- Node21&#45;&gt;Node2 -->
<g id="edge37" class="edge"><title>Node21&#45;&gt;Node2</title>
<path fill="none" stroke="midnightblue" d="M384.909,-251.975C405.887,-241.99 440.85,-225.348 465.093,-213.807"/>
<polygon fill="midnightblue" stroke="midnightblue" points="466.599,-216.967 474.124,-209.509 463.59,-210.647 466.599,-216.967"/>
</g>
<!-- Node22&#45;&gt;Node2 -->
<g id="edge39" class="edge"><title>Node22&#45;&gt;Node2</title>
<path fill="none" stroke="midnightblue" d="M254.033,-248.674C308.114,-237.839 387.434,-221.948 439.391,-211.539"/>
<polygon fill="midnightblue" stroke="midnightblue" points="440.284,-214.93 449.402,-209.534 438.909,-208.067 440.284,-214.93"/>
</g>
<!-- Node23&#45;&gt;Node2 -->
<g id="edge41" class="edge"><title>Node23&#45;&gt;Node2</title>
<path fill="none" stroke="midnightblue" d="M498.104,-246.399C497.026,-238.377 495.662,-228.233 494.497,-219.569"/>
<polygon fill="midnightblue" stroke="midnightblue" points="497.965,-219.102 493.164,-209.658 491.028,-220.035 497.965,-219.102"/>
</g>
</g>
</svg>
        <g id="navigator" transform="translate(0 0)" fill="#404254">
                <rect fill="#f2f5e9" fill-opacity="0.5" stroke="#606060" stroke-width=".5" x="0" y="0" width="60" height="60"/>
                <use id="zoomplus" xlink:href="#zoomPlus" x="17" y="9" onmousedown="handleZoom(evt,'in')"/>
                <use id="zoomminus" xlink:href="#zoomMin" x="42" y="9" onmousedown="handleZoom(evt,'out')"/>
                <use id="reset" xlink:href="#resetDef" x="30" y="36" onmousedown="handleReset()"/>
                <g id="arrowUp" xlink:href="#dirArrow" transform="translate(30 24)" onmousedown="handlePan(0,-1)">
                  <use xlink:href="#rim" fill="#404040">
                        <set attributeName="fill" to="#808080" begin="arrowUp.mouseover" end="arrowUp.mouseout"/>
                  </use>
                  <path fill="none" stroke="white" stroke-width="1.5" d="M0,-3.0v7 M-2.5,-0.5L0,-3.0L2.5,-0.5"/>
                </g>
                <g id="arrowRight" xlink:href="#dirArrow" transform="rotate(90) translate(36 -43)" onmousedown="handlePan(1,0)">
                  <use xlink:href="#rim" fill="#404040">
                        <set attributeName="fill" to="#808080" begin="arrowRight.mouseover" end="arrowRight.mouseout"/>
                  </use>
                  <path fill="none" stroke="white" stroke-width="1.5" d="M0,-3.0v7 M-2.5,-0.5L0,-3.0L2.5,-0.5"/>
                </g>
                <g id="arrowDown" xlink:href="#dirArrow" transform="rotate(180) translate(-30 -48)" onmousedown="handlePan(0,1)">
                  <use xlink:href="#rim" fill="#404040">
                        <set attributeName="fill" to="#808080" begin="arrowDown.mouseover" end="arrowDown.mouseout"/>
                  </use>
                  <path fill="none" stroke="white" stroke-width="1.5" d="M0,-3.0v7 M-2.5,-0.5L0,-3.0L2.5,-0.5"/>
                </g>
                <g id="arrowLeft" xlink:href="#dirArrow" transform="rotate(270) translate(-36 17)" onmousedown="handlePan(-1,0)">
                  <use xlink:href="#rim" fill="#404040">
                        <set attributeName="fill" to="#808080" begin="arrowLeft.mouseover" end="arrowLeft.mouseout"/>
                  </use>
                  <path fill="none" stroke="white" stroke-width="1.5" d="M0,-3.0v7 M-2.5,-0.5L0,-3.0L2.5,-0.5"/>
                </g>
        </g>
        <svg viewBox="0 0 15 15" width="100%" height="30px" preserveAspectRatio="xMaxYMin meet">
         <g id="arrow_out" transform="scale(0.3 0.3)">
          <a xlink:href="alifold_8h__incl_org.svg" target="_base">
           <rect id="button" ry="5" rx="5" y="6" x="6" height="38" width="38"
                fill="#f2f5e9" fill-opacity="0.5" stroke="#606060" stroke-width="1.0"/>
           <path id="arrow"
             d="M 11.500037,31.436501 C 11.940474,20.09759 22.043105,11.32322 32.158766,21.979434 L 37.068811,17.246167 C 37.068811,17.246167 37.088388,32 37.088388,32 L 22.160133,31.978069 C 22.160133,31.978069 26.997745,27.140456 26.997745,27.140456 C 18.528582,18.264221 13.291696,25.230495 11.500037,31.436501 z"
             style="fill:#404040;"/>
          </a>
         </g>
        </svg>
</svg>
