<?xml version="1.0" encoding="UTF-8" standalone="no"?>
<!DOCTYPE svg PUBLIC "-//W3C//DTD SVG 1.1//EN"
 "http://www.w3.org/Graphics/SVG/1.1/DTD/svg11.dtd">
<!-- Generated by graphviz version 2.38.0 (20140413.2041)
 -->
<!-- Title: ViennaRNA/cofold.h Pages: 1 -->
<!--zoomable 330 -->
<svg id="main" version="1.1" xmlns="http://www.w3.org/2000/svg" xmlns:xlink="http://www.w3.org/1999/xlink" xml:space="preserve" onload="init(evt)">
<style type="text/css"><![CDATA[
.edge:hover path { stroke: red; }
.edge:hover polygon { stroke: red; fill: red; }
]]></style>
<script type="text/javascript"><![CDATA[
var edges = document.getElementsByTagName('g');
if (edges && edges.length) {
  for (var i=0;i<edges.length;i++) {
    if (edges[i].id.substr(0,4)=='edge') {
      edges[i].setAttribute('class','edge');
    }
  }
}
]]></script>
        <defs>
                <circle id="rim" cx="0" cy="0" r="7"/>
                <circle id="rim2" cx="0" cy="0" r="3.5"/>
                <g id="zoomPlus">
                        <use xlink:href="#rim" fill="#404040">
                                <set attributeName="fill" to="#808080" begin="zoomplus.mouseover" end="zoomplus.mouseout"/>
                        </use>
                        <path d="M-4,0h8M0,-4v8" fill="none" stroke="white" stroke-width="1.5" pointer-events="none"/>
                </g>
                <g id="zoomMin">
                        <use xlink:href="#rim" fill="#404040">
                                <set attributeName="fill" to="#808080" begin="zoomminus.mouseover" end="zoomminus.mouseout"/>
                        </use>
                        <path d="M-4,0h8" fill="none" stroke="white" stroke-width="1.5" pointer-events="none"/>
                </g>
                <g id="dirArrow">
                        <path fill="none" stroke="white" stroke-width="1.5" d="M0,-3.0v7 M-2.5,-0.5L0,-3.0L2.5,-0.5"/>
                </g>
               <g id="resetDef">
                       <use xlink:href="#rim2" fill="#404040">
                               <set attributeName="fill" to="#808080" begin="reset.mouseover" end="reset.mouseout"/>
                       </use>
               </g>
        </defs>

<script type="text/javascript">
var viewWidth = 1123;
var viewHeight = 330;
var sectionId = 'dynsection-0';
</script>
<script xlink:href="svgpan.js"/>
<svg id="graph" class="graph">
<g id="viewport">
<title>ViennaRNA/cofold.h</title>
<!-- Node1 -->
<g id="node1" class="node"><title>Node1</title>
<polygon fill="#bfbfbf" stroke="black" points="375,-302.5 375,-321.5 481,-321.5 481,-302.5 375,-302.5"/>
<text text-anchor="middle" x="428" y="-309.5" font-family="Helvetica,sans-Serif" font-size="10.00">ViennaRNA/cofold.h</text>
</g>
<!-- Node2 -->
<g id="node2" class="node"><title>Node2</title>
<g id="a_node2"><a xlink:href="data__structures_8h.html" target="_top" xlink:title="Various data structures and pre&#45;processor macros. ">
<polygon fill="none" stroke="black" points="392.5,-190.5 392.5,-209.5 539.5,-209.5 539.5,-190.5 392.5,-190.5"/>
<text text-anchor="middle" x="466" y="-197.5" font-family="Helvetica,sans-Serif" font-size="10.00">ViennaRNA/data_structures.h</text>
</a>
</g>
</g>
<!-- Node1&#45;&gt;Node2 -->
<g id="edge1" class="edge"><title>Node1&#45;&gt;Node2</title>
<path fill="none" stroke="midnightblue" d="M430.153,-302.487C433.393,-289.973 439.904,-265.937 447,-246 450.239,-236.9 454.357,-226.989 457.931,-218.79"/>
<polygon fill="midnightblue" stroke="midnightblue" points="461.192,-220.07 462.059,-209.511 454.797,-217.225 461.192,-220.07"/>
</g>
<!-- Node6 -->
<g id="node6" class="node"><title>Node6</title>
<g id="a_node6"><a xlink:href="params_8h.html" target="_top" xlink:title="Functions to deal with sets of energy parameters. ">
<polygon fill="none" stroke="black" points="22,-129 22,-148 134,-148 134,-129 22,-129"/>
<text text-anchor="middle" x="78" y="-136" font-family="Helvetica,sans-Serif" font-size="10.00">ViennaRNA/params.h</text>
</a>
</g>
</g>
<!-- Node1&#45;&gt;Node6 -->
<g id="edge28" class="edge"><title>Node1&#45;&gt;Node6</title>
<path fill="none" stroke="midnightblue" d="M410.643,-302.495C353.849,-274.666 173.27,-186.182 104.732,-152.599"/>
<polygon fill="midnightblue" stroke="midnightblue" points="105.981,-149.313 95.4613,-148.056 102.901,-155.599 105.981,-149.313"/>
</g>
<!-- Node17 -->
<g id="node17" class="node"><title>Node17</title>
<g id="a_node17"><a xlink:href="mfe_8h.html" target="_top" xlink:title="MFE calculations for single RNA sequences. ">
<polygon fill="none" stroke="black" points="456,-246.5 456,-265.5 552,-265.5 552,-246.5 456,-246.5"/>
<text text-anchor="middle" x="504" y="-253.5" font-family="Helvetica,sans-Serif" font-size="10.00">ViennaRNA/mfe.h</text>
</a>
</g>
</g>
<!-- Node1&#45;&gt;Node17 -->
<g id="edge29" class="edge"><title>Node1&#45;&gt;Node17</title>
<path fill="none" stroke="midnightblue" d="M440.211,-302.324C451.776,-294.107 469.375,-281.602 483.161,-271.807"/>
<polygon fill="midnightblue" stroke="midnightblue" points="485.443,-274.479 491.567,-265.834 481.388,-268.773 485.443,-274.479"/>
</g>
<!-- Node3 -->
<g id="node3" class="node"><title>Node3</title>
<g id="a_node3"><a xlink:href="energy__const_8h.html" target="_top" xlink:title="Energy parameter constants. ">
<polygon fill="none" stroke="black" points="0,-62 0,-81 138,-81 138,-62 0,-62"/>
<text text-anchor="middle" x="69" y="-69" font-family="Helvetica,sans-Serif" font-size="10.00">ViennaRNA/energy_const.h</text>
</a>
</g>
</g>
<!-- Node2&#45;&gt;Node3 -->
<g id="edge2" class="edge"><title>Node2&#45;&gt;Node3</title>
<path fill="none" stroke="midnightblue" d="M392.339,-193.987C338.273,-188.521 263.806,-177.215 202,-154 178.926,-145.333 121.421,-107.785 90.1155,-86.8099"/>
<polygon fill="midnightblue" stroke="midnightblue" points="91.9197,-83.8053 81.6691,-81.1266 88.0119,-89.613 91.9197,-83.8053"/>
</g>
<!-- Node5 -->
<g id="node5" class="node"><title>Node5</title>
<g id="a_node5"><a xlink:href="model_8h.html" target="_top" xlink:title="The model details data structure and its corresponding modifiers. ">
<polygon fill="none" stroke="black" points="156,-62 156,-81 262,-81 262,-62 156,-62"/>
<text text-anchor="middle" x="209" y="-69" font-family="Helvetica,sans-Serif" font-size="10.00">ViennaRNA/model.h</text>
</a>
</g>
</g>
<!-- Node2&#45;&gt;Node5 -->
<g id="edge4" class="edge"><title>Node2&#45;&gt;Node5</title>
<path fill="none" stroke="midnightblue" d="M392.44,-195.036C328.394,-189.957 242.257,-178.65 219,-154 203.364,-137.428 203.354,-109.781 205.553,-91.3476"/>
<polygon fill="midnightblue" stroke="midnightblue" points="209.047,-91.6545 207.088,-81.2422 202.126,-90.6033 209.047,-91.6545"/>
</g>
<!-- Node2&#45;&gt;Node6 -->
<g id="edge5" class="edge"><title>Node2&#45;&gt;Node6</title>
<path fill="none" stroke="midnightblue" d="M392.197,-190.793C325.626,-182.584 225.38,-169.043 139,-154 132.264,-152.827 125.185,-151.487 118.313,-150.107"/>
<polygon fill="midnightblue" stroke="midnightblue" points="118.957,-146.666 108.456,-148.07 117.54,-153.521 118.957,-146.666"/>
</g>
<!-- Node7 -->
<g id="node7" class="node"><title>Node7</title>
<g id="a_node7"><a xlink:href="dp__matrices_8h.html" target="_top" xlink:title="Functions to deal with standard dynamic programming (DP) matrices. ">
<polygon fill="none" stroke="black" points="228.5,-129 228.5,-148 361.5,-148 361.5,-129 228.5,-129"/>
<text text-anchor="middle" x="295" y="-136" font-family="Helvetica,sans-Serif" font-size="10.00">ViennaRNA/dp_matrices.h</text>
</a>
</g>
</g>
<!-- Node2&#45;&gt;Node7 -->
<g id="edge9" class="edge"><title>Node2&#45;&gt;Node7</title>
<path fill="none" stroke="midnightblue" d="M436.599,-190.475C405.041,-180.269 355.505,-163.108 324.079,-151.549"/>
<polygon fill="midnightblue" stroke="midnightblue" points="325.15,-148.214 314.558,-148.009 322.711,-154.775 325.15,-148.214"/>
</g>
<!-- Node8 -->
<g id="node8" class="node"><title>Node8</title>
<g id="a_node8"><a xlink:href="constraints_8h.html" target="_top" xlink:title="Functions and data structures for constraining secondary structure predictions and evaluation...">
<polygon fill="none" stroke="black" points="494,-129 494,-148 622,-148 622,-129 494,-129"/>
<text text-anchor="middle" x="558" y="-136" font-family="Helvetica,sans-Serif" font-size="10.00">ViennaRNA/constraints.h</text>
</a>
</g>
</g>
<!-- Node2&#45;&gt;Node8 -->
<g id="edge11" class="edge"><title>Node2&#45;&gt;Node8</title>
<path fill="none" stroke="midnightblue" d="M474.281,-190.475C487.249,-180.711 511.899,-164.581 531.23,-153.081"/>
<polygon fill="midnightblue" stroke="midnightblue" points="533.063,-156.064 539.946,-148.009 529.542,-150.013 533.063,-156.064"/>
</g>
<!-- Node14 -->
<g id="node14" class="node"><title>Node14</title>
<g id="a_node14"><a xlink:href="grammar_8h.html" target="_top" xlink:title="Implementations for the RNA folding grammar. ">
<polygon fill="none" stroke="black" points="640,-129 640,-148 758,-148 758,-129 640,-129"/>
<text text-anchor="middle" x="699" y="-136" font-family="Helvetica,sans-Serif" font-size="10.00">ViennaRNA/grammar.h</text>
</a>
</g>
</g>
<!-- Node2&#45;&gt;Node14 -->
<g id="edge23" class="edge"><title>Node2&#45;&gt;Node14</title>
<path fill="none" stroke="midnightblue" d="M494.483,-190.475C533.45,-179.937 603.589,-161.986 650.785,-150.441"/>
<polygon fill="midnightblue" stroke="midnightblue" points="651.893,-153.774 660.782,-148.009 650.238,-146.973 651.893,-153.774"/>
</g>
<!-- Node15 -->
<g id="node15" class="node"><title>Node15</title>
<g id="a_node15"><a xlink:href="structured__domains_8h.html" target="_top" xlink:title="This module provides interfaces that deal with additional structured domains in the folding grammar...">
<polygon fill="none" stroke="black" points="776.5,-123.5 776.5,-153.5 891.5,-153.5 891.5,-123.5 776.5,-123.5"/>
<text text-anchor="start" x="784.5" y="-141.5" font-family="Helvetica,sans-Serif" font-size="10.00">ViennaRNA/structured</text>
<text text-anchor="middle" x="834" y="-130.5" font-family="Helvetica,sans-Serif" font-size="10.00">_domains.h</text>
</a>
</g>
</g>
<!-- Node2&#45;&gt;Node15 -->
<g id="edge25" class="edge"><title>Node2&#45;&gt;Node15</title>
<path fill="none" stroke="midnightblue" d="M531.376,-190.469C590.216,-182.508 679.267,-169.761 766.257,-154.063"/>
<polygon fill="midnightblue" stroke="midnightblue" points="767.092,-157.468 776.304,-152.235 765.839,-150.581 767.092,-157.468"/>
</g>
<!-- Node16 -->
<g id="node16" class="node"><title>Node16</title>
<g id="a_node16"><a xlink:href="unstructured__domains_8h.html" target="_top" xlink:title="Functions to modify unstructured domains, e.g. to incorporate ligands binding to unpaired stretches...">
<polygon fill="none" stroke="black" points="909.5,-123.5 909.5,-153.5 1034.5,-153.5 1034.5,-123.5 909.5,-123.5"/>
<text text-anchor="start" x="917.5" y="-141.5" font-family="Helvetica,sans-Serif" font-size="10.00">ViennaRNA/unstructured</text>
<text text-anchor="middle" x="972" y="-130.5" font-family="Helvetica,sans-Serif" font-size="10.00">_domains.h</text>
</a>
</g>
</g>
<!-- Node2&#45;&gt;Node16 -->
<g id="edge26" class="edge"><title>Node2&#45;&gt;Node16</title>
<path fill="none" stroke="midnightblue" d="M535.637,-190.461C537.103,-190.306 538.559,-190.152 540,-190 695.953,-173.547 735.954,-177.507 891,-154 893.685,-153.593 896.421,-153.153 899.187,-152.689"/>
<polygon fill="midnightblue" stroke="midnightblue" points="900.048,-156.092 909.293,-150.917 898.839,-149.197 900.048,-156.092"/>
</g>
<!-- Node4 -->
<g id="node4" class="node"><title>Node4</title>
<polygon fill="none" stroke="#bfbfbf" points="45,-0.5 45,-19.5 93,-19.5 93,-0.5 45,-0.5"/>
<text text-anchor="middle" x="69" y="-7.5" font-family="Helvetica,sans-Serif" font-size="10.00">limits.h</text>
</g>
<!-- Node3&#45;&gt;Node4 -->
<g id="edge3" class="edge"><title>Node3&#45;&gt;Node4</title>
<path fill="none" stroke="midnightblue" d="M69,-61.9751C69,-53.5803 69,-40.4806 69,-29.6631"/>
<polygon fill="midnightblue" stroke="midnightblue" points="72.5001,-29.5091 69,-19.5091 65.5001,-29.5091 72.5001,-29.5091"/>
</g>
<!-- Node6&#45;&gt;Node2 -->
<g id="edge7" class="edge"><title>Node6&#45;&gt;Node2</title>
<path fill="none" stroke="midnightblue" d="M125.864,-148.07C136.189,-150.139 146.974,-152.254 157,-154 237.784,-168.068 330.696,-180.823 393.436,-189.132"/>
<polygon fill="midnightblue" stroke="midnightblue" points="393.254,-192.638 403.627,-190.477 394.171,-185.698 393.254,-192.638"/>
</g>
<!-- Node6&#45;&gt;Node3 -->
<g id="edge6" class="edge"><title>Node6&#45;&gt;Node3</title>
<path fill="none" stroke="midnightblue" d="M76.7862,-128.734C75.4638,-119.183 73.3087,-103.618 71.6007,-91.2829"/>
<polygon fill="midnightblue" stroke="midnightblue" points="75.0331,-90.5527 70.1945,-81.1273 68.0992,-91.5129 75.0331,-90.5527"/>
</g>
<!-- Node6&#45;&gt;Node5 -->
<g id="edge8" class="edge"><title>Node6&#45;&gt;Node5</title>
<path fill="none" stroke="midnightblue" d="M95.3958,-128.869C117.613,-117.845 156.287,-98.6554 182.26,-85.7678"/>
<polygon fill="midnightblue" stroke="midnightblue" points="184.13,-88.7473 191.532,-81.1672 181.019,-82.4767 184.13,-88.7473"/>
</g>
<!-- Node7&#45;&gt;Node2 -->
<g id="edge10" class="edge"><title>Node7&#45;&gt;Node2</title>
<path fill="none" stroke="midnightblue" d="M324.352,-148.009C355.892,-158.208 405.428,-175.368 436.872,-186.933"/>
<polygon fill="midnightblue" stroke="midnightblue" points="435.808,-190.271 446.4,-190.475 438.247,-183.71 435.808,-190.271"/>
</g>
<!-- Node8&#45;&gt;Node2 -->
<g id="edge12" class="edge"><title>Node8&#45;&gt;Node2</title>
<path fill="none" stroke="midnightblue" d="M549.74,-148.009C536.785,-157.767 512.138,-173.896 492.802,-185.401"/>
<polygon fill="midnightblue" stroke="midnightblue" points="490.964,-182.42 484.082,-190.475 494.485,-188.47 490.964,-182.42"/>
</g>
<!-- Node9 -->
<g id="node9" class="node"><title>Node9</title>
<g id="a_node9"><a xlink:href="constraints__hard_8h.html" target="_top" xlink:title="Functions and data structures for handling of secondary structure hard constraints. ">
<polygon fill="none" stroke="black" points="305.5,-56.5 305.5,-86.5 424.5,-86.5 424.5,-56.5 305.5,-56.5"/>
<text text-anchor="start" x="313.5" y="-74.5" font-family="Helvetica,sans-Serif" font-size="10.00">ViennaRNA/constraints</text>
<text text-anchor="middle" x="365" y="-63.5" font-family="Helvetica,sans-Serif" font-size="10.00">_hard.h</text>
</a>
</g>
</g>
<!-- Node8&#45;&gt;Node9 -->
<g id="edge13" class="edge"><title>Node8&#45;&gt;Node9</title>
<path fill="none" stroke="midnightblue" d="M532.371,-128.869C502.909,-118.946 453.805,-102.408 416.383,-89.8051"/>
<polygon fill="midnightblue" stroke="midnightblue" points="417.247,-86.4029 406.653,-86.5281 415.012,-93.0368 417.247,-86.4029"/>
</g>
<!-- Node10 -->
<g id="node10" class="node"><title>Node10</title>
<g id="a_node10"><a xlink:href="constraints__soft_8h.html" target="_top" xlink:title="Functions and data structures for secondary structure soft constraints. ">
<polygon fill="none" stroke="black" points="442.5,-56.5 442.5,-86.5 561.5,-86.5 561.5,-56.5 442.5,-56.5"/>
<text text-anchor="start" x="450.5" y="-74.5" font-family="Helvetica,sans-Serif" font-size="10.00">ViennaRNA/constraints</text>
<text text-anchor="middle" x="502" y="-63.5" font-family="Helvetica,sans-Serif" font-size="10.00">_soft.h</text>
</a>
</g>
</g>
<!-- Node8&#45;&gt;Node10 -->
<g id="edge15" class="edge"><title>Node8&#45;&gt;Node10</title>
<path fill="none" stroke="midnightblue" d="M550.448,-128.734C542.879,-119.949 530.929,-106.078 520.791,-94.3111"/>
<polygon fill="midnightblue" stroke="midnightblue" points="523.317,-91.8806 514.138,-86.589 518.014,-96.4496 523.317,-91.8806"/>
</g>
<!-- Node11 -->
<g id="node11" class="node"><title>Node11</title>
<g id="a_node11"><a xlink:href="constraints__SHAPE_8h.html" target="_top" xlink:title="This module provides function to incorporate SHAPE reactivity data into the folding recursions by mea...">
<polygon fill="none" stroke="black" points="579.5,-56.5 579.5,-86.5 698.5,-86.5 698.5,-56.5 579.5,-56.5"/>
<text text-anchor="start" x="587.5" y="-74.5" font-family="Helvetica,sans-Serif" font-size="10.00">ViennaRNA/constraints</text>
<text text-anchor="middle" x="639" y="-63.5" font-family="Helvetica,sans-Serif" font-size="10.00">_SHAPE.h</text>
</a>
</g>
</g>
<!-- Node8&#45;&gt;Node11 -->
<g id="edge17" class="edge"><title>Node8&#45;&gt;Node11</title>
<path fill="none" stroke="midnightblue" d="M568.924,-128.734C580.292,-119.611 598.495,-105.004 613.5,-92.9631"/>
<polygon fill="midnightblue" stroke="midnightblue" points="615.834,-95.5775 621.443,-86.589 611.453,-90.118 615.834,-95.5775"/>
</g>
<!-- Node12 -->
<g id="node12" class="node"><title>Node12</title>
<g id="a_node12"><a xlink:href="perturbation__fold_8h.html" target="_top" xlink:title="Find a vector of perturbation energies that minimizes the discripancies between predicted and observe...">
<polygon fill="none" stroke="black" points="809,-56.5 809,-86.5 931,-86.5 931,-56.5 809,-56.5"/>
<text text-anchor="start" x="817" y="-74.5" font-family="Helvetica,sans-Serif" font-size="10.00">ViennaRNA/perturbation</text>
<text text-anchor="middle" x="870" y="-63.5" font-family="Helvetica,sans-Serif" font-size="10.00">_fold.h</text>
</a>
</g>
</g>
<!-- Node8&#45;&gt;Node12 -->
<g id="edge19" class="edge"><title>Node8&#45;&gt;Node12</title>
<path fill="none" stroke="midnightblue" d="M599.109,-128.936C649.895,-118.355 737.134,-100.18 798.874,-87.318"/>
<polygon fill="midnightblue" stroke="midnightblue" points="799.861,-90.6875 808.937,-85.2214 798.434,-83.8346 799.861,-90.6875"/>
</g>
<!-- Node13 -->
<g id="node13" class="node"><title>Node13</title>
<g id="a_node13"><a xlink:href="constraints__ligand_8h.html" target="_top" xlink:title="Functions for incorporation of ligands binding to hairpin and interior loop motifs using the soft con...">
<polygon fill="none" stroke="black" points="995.5,-56.5 995.5,-86.5 1114.5,-86.5 1114.5,-56.5 995.5,-56.5"/>
<text text-anchor="start" x="1003.5" y="-74.5" font-family="Helvetica,sans-Serif" font-size="10.00">ViennaRNA/constraints</text>
<text text-anchor="middle" x="1055" y="-63.5" font-family="Helvetica,sans-Serif" font-size="10.00">_ligand.h</text>
</a>
</g>
</g>
<!-- Node8&#45;&gt;Node13 -->
<g id="edge21" class="edge"><title>Node8&#45;&gt;Node13</title>
<path fill="none" stroke="midnightblue" d="M598.059,-128.943C608.733,-126.828 620.278,-124.687 631,-123 767.583,-101.514 802.744,-103.648 940,-87 954.608,-85.2281 970.254,-83.2854 985.153,-81.414"/>
<polygon fill="midnightblue" stroke="midnightblue" points="985.842,-84.855 995.326,-80.1328 984.967,-77.9099 985.842,-84.855"/>
</g>
<!-- Node9&#45;&gt;Node2 -->
<g id="edge14" class="edge"><title>Node9&#45;&gt;Node2</title>
<path fill="none" stroke="midnightblue" d="M376.488,-86.888C395.367,-110.534 432.847,-157.477 452.793,-182.459"/>
<polygon fill="midnightblue" stroke="midnightblue" points="450.083,-184.674 459.058,-190.305 455.554,-180.307 450.083,-184.674"/>
</g>
<!-- Node10&#45;&gt;Node2 -->
<g id="edge16" class="edge"><title>Node10&#45;&gt;Node2</title>
<path fill="none" stroke="midnightblue" d="M481.763,-86.5865C470.703,-95.5727 458.054,-108.281 452,-123 444.213,-141.932 450.682,-165.294 457.179,-181.08"/>
<polygon fill="midnightblue" stroke="midnightblue" points="454.005,-182.556 461.303,-190.237 460.388,-179.682 454.005,-182.556"/>
</g>
<!-- Node11&#45;&gt;Node2 -->
<g id="edge18" class="edge"><title>Node11&#45;&gt;Node2</title>
<path fill="none" stroke="midnightblue" d="M579.435,-85.7381C541.943,-95.223 498.226,-108.787 485,-123 470.697,-138.37 466.735,-162.84 465.843,-179.845"/>
<polygon fill="midnightblue" stroke="midnightblue" points="462.336,-180.152 465.627,-190.222 469.335,-180.297 462.336,-180.152"/>
</g>
<!-- Node12&#45;&gt;Node2 -->
<g id="edge20" class="edge"><title>Node12&#45;&gt;Node2</title>
<path fill="none" stroke="midnightblue" d="M931.022,-80.3368C994.863,-90.884 1080.92,-113.212 1043,-154 1007.14,-192.573 637.66,-185.738 549.825,-190.193"/>
<polygon fill="midnightblue" stroke="midnightblue" points="549.497,-186.707 539.753,-190.866 549.964,-193.691 549.497,-186.707"/>
</g>
<!-- Node13&#45;&gt;Node2 -->
<g id="edge22" class="edge"><title>Node13&#45;&gt;Node2</title>
<path fill="none" stroke="midnightblue" d="M1061.88,-86.6656C1069.56,-104.77 1078.85,-135.926 1062,-154 1024.67,-194.039 640.279,-185.74 549.889,-190.192"/>
<polygon fill="midnightblue" stroke="midnightblue" points="549.502,-186.71 539.752,-190.856 549.959,-193.695 549.502,-186.71"/>
</g>
<!-- Node14&#45;&gt;Node2 -->
<g id="edge24" class="edge"><title>Node14&#45;&gt;Node2</title>
<path fill="none" stroke="midnightblue" d="M670.576,-148.009C631.64,-158.539 561.505,-176.49 514.286,-188.041"/>
<polygon fill="midnightblue" stroke="midnightblue" points="513.173,-184.71 504.284,-190.475 514.828,-191.511 513.173,-184.71"/>
</g>
<!-- Node16&#45;&gt;Node2 -->
<g id="edge27" class="edge"><title>Node16&#45;&gt;Node2</title>
<path fill="none" stroke="midnightblue" d="M912.046,-153.528C911.024,-153.69 910.009,-153.847 909,-154 753.954,-177.507 713.953,-173.547 558,-190 555.322,-190.283 552.596,-190.571 549.839,-190.864"/>
<polygon fill="midnightblue" stroke="midnightblue" points="549.326,-187.399 539.753,-191.938 550.067,-194.36 549.326,-187.399"/>
</g>
<!-- Node17&#45;&gt;Node2 -->
<g id="edge31" class="edge"><title>Node17&#45;&gt;Node2</title>
<path fill="none" stroke="midnightblue" d="M497.725,-246.083C492.358,-238.455 484.482,-227.264 477.921,-217.941"/>
<polygon fill="midnightblue" stroke="midnightblue" points="480.775,-215.915 472.158,-209.751 475.051,-219.943 480.775,-215.915"/>
</g>
<!-- Node18 -->
<g id="node18" class="node"><title>Node18</title>
<polygon fill="none" stroke="#bfbfbf" points="558,-190.5 558,-209.5 604,-209.5 604,-190.5 558,-190.5"/>
<text text-anchor="middle" x="581" y="-197.5" font-family="Helvetica,sans-Serif" font-size="10.00">stdio.h</text>
</g>
<!-- Node17&#45;&gt;Node18 -->
<g id="edge30" class="edge"><title>Node17&#45;&gt;Node18</title>
<path fill="none" stroke="midnightblue" d="M516.371,-246.324C528.158,-238.058 546.132,-225.453 560.136,-215.632"/>
<polygon fill="midnightblue" stroke="midnightblue" points="562.482,-218.262 568.659,-209.655 558.462,-212.531 562.482,-218.262"/>
</g>
</g>
</svg>
        <g id="navigator" transform="translate(0 0)" fill="#404254">
                <rect fill="#f2f5e9" fill-opacity="0.5" stroke="#606060" stroke-width=".5" x="0" y="0" width="60" height="60"/>
                <use id="zoomplus" xlink:href="#zoomPlus" x="17" y="9" onmousedown="handleZoom(evt,'in')"/>
                <use id="zoomminus" xlink:href="#zoomMin" x="42" y="9" onmousedown="handleZoom(evt,'out')"/>
                <use id="reset" xlink:href="#resetDef" x="30" y="36" onmousedown="handleReset()"/>
                <g id="arrowUp" xlink:href="#dirArrow" transform="translate(30 24)" onmousedown="handlePan(0,-1)">
                  <use xlink:href="#rim" fill="#404040">
                        <set attributeName="fill" to="#808080" begin="arrowUp.mouseover" end="arrowUp.mouseout"/>
                  </use>
                  <path fill="none" stroke="white" stroke-width="1.5" d="M0,-3.0v7 M-2.5,-0.5L0,-3.0L2.5,-0.5"/>
                </g>
                <g id="arrowRight" xlink:href="#dirArrow" transform="rotate(90) translate(36 -43)" onmousedown="handlePan(1,0)">
                  <use xlink:href="#rim" fill="#404040">
                        <set attributeName="fill" to="#808080" begin="arrowRight.mouseover" end="arrowRight.mouseout"/>
                  </use>
                  <path fill="none" stroke="white" stroke-width="1.5" d="M0,-3.0v7 M-2.5,-0.5L0,-3.0L2.5,-0.5"/>
                </g>
                <g id="arrowDown" xlink:href="#dirArrow" transform="rotate(180) translate(-30 -48)" onmousedown="handlePan(0,1)">
                  <use xlink:href="#rim" fill="#404040">
                        <set attributeName="fill" to="#808080" begin="arrowDown.mouseover" end="arrowDown.mouseout"/>
                  </use>
                  <path fill="none" stroke="white" stroke-width="1.5" d="M0,-3.0v7 M-2.5,-0.5L0,-3.0L2.5,-0.5"/>
                </g>
                <g id="arrowLeft" xlink:href="#dirArrow" transform="rotate(270) translate(-36 17)" onmousedown="handlePan(-1,0)">
                  <use xlink:href="#rim" fill="#404040">
                        <set attributeName="fill" to="#808080" begin="arrowLeft.mouseover" end="arrowLeft.mouseout"/>
                  </use>
                  <path fill="none" stroke="white" stroke-width="1.5" d="M0,-3.0v7 M-2.5,-0.5L0,-3.0L2.5,-0.5"/>
                </g>
        </g>
        <svg viewBox="0 0 15 15" width="100%" height="30px" preserveAspectRatio="xMaxYMin meet">
         <g id="arrow_out" transform="scale(0.3 0.3)">
          <a xlink:href="cofold_8h__incl_org.svg" target="_base">
           <rect id="button" ry="5" rx="5" y="6" x="6" height="38" width="38"
                fill="#f2f5e9" fill-opacity="0.5" stroke="#606060" stroke-width="1.0"/>
           <path id="arrow"
             d="M 11.500037,31.436501 C 11.940474,20.09759 22.043105,11.32322 32.158766,21.979434 L 37.068811,17.246167 C 37.068811,17.246167 37.088388,32 37.088388,32 L 22.160133,31.978069 C 22.160133,31.978069 26.997745,27.140456 26.997745,27.140456 C 18.528582,18.264221 13.291696,25.230495 11.500037,31.436501 z"
             style="fill:#404040;"/>
          </a>
         </g>
        </svg>
</svg>
