<?xml version="1.0" encoding="UTF-8" standalone="no"?>
<!DOCTYPE svg PUBLIC "-//W3C//DTD SVG 1.1//EN"
 "http://www.w3.org/Graphics/SVG/1.1/DTD/svg11.dtd">
<!-- Generated by graphviz version 2.38.0 (20140413.2041)
 -->
<!-- Title: ViennaRNA/constraints_ligand.h Pages: 1 -->
<!--zoomable 285 -->
<svg id="main" version="1.1" xmlns="http://www.w3.org/2000/svg" xmlns:xlink="http://www.w3.org/1999/xlink" xml:space="preserve" onload="init(evt)">
<style type="text/css"><![CDATA[
.edge:hover path { stroke: red; }
.edge:hover polygon { stroke: red; fill: red; }
]]></style>
<script type="text/javascript"><![CDATA[
var edges = document.getElementsByTagName('g');
if (edges && edges.length) {
  for (var i=0;i<edges.length;i++) {
    if (edges[i].id.substr(0,4)=='edge') {
      edges[i].setAttribute('class','edge');
    }
  }
}
]]></script>
        <defs>
                <circle id="rim" cx="0" cy="0" r="7"/>
                <circle id="rim2" cx="0" cy="0" r="3.5"/>
                <g id="zoomPlus">
                        <use xlink:href="#rim" fill="#404040">
                                <set attributeName="fill" to="#808080" begin="zoomplus.mouseover" end="zoomplus.mouseout"/>
                        </use>
                        <path d="M-4,0h8M0,-4v8" fill="none" stroke="white" stroke-width="1.5" pointer-events="none"/>
                </g>
                <g id="zoomMin">
                        <use xlink:href="#rim" fill="#404040">
                                <set attributeName="fill" to="#808080" begin="zoomminus.mouseover" end="zoomminus.mouseout"/>
                        </use>
                        <path d="M-4,0h8" fill="none" stroke="white" stroke-width="1.5" pointer-events="none"/>
                </g>
                <g id="dirArrow">
                        <path fill="none" stroke="white" stroke-width="1.5" d="M0,-3.0v7 M-2.5,-0.5L0,-3.0L2.5,-0.5"/>
                </g>
               <g id="resetDef">
                       <use xlink:href="#rim2" fill="#404040">
                               <set attributeName="fill" to="#808080" begin="reset.mouseover" end="reset.mouseout"/>
                       </use>
               </g>
        </defs>

<script type="text/javascript">
var viewWidth = 1163;
var viewHeight = 285;
var sectionId = 'dynsection-0';
</script>
<script xlink:href="svgpan.js"/>
<svg id="graph" class="graph">
<g id="viewport">
<title>ViennaRNA/constraints_ligand.h</title>
<!-- Node1 -->
<g id="node1" class="node"><title>Node1</title>
<polygon fill="#bfbfbf" stroke="black" points="351,-246.5 351,-276.5 470,-276.5 470,-246.5 351,-246.5"/>
<text text-anchor="start" x="359" y="-264.5" font-family="Helvetica,sans-Serif" font-size="10.00">ViennaRNA/constraints</text>
<text text-anchor="middle" x="410.5" y="-253.5" font-family="Helvetica,sans-Serif" font-size="10.00">_ligand.h</text>
</g>
<!-- Node2 -->
<g id="node2" class="node"><title>Node2</title>
<g id="a_node2"><a xlink:href="data__structures_8h.html" target="_top" xlink:title="Various data structures and pre&#45;processor macros. ">
<polygon fill="none" stroke="black" points="443,-190.5 443,-209.5 590,-209.5 590,-190.5 443,-190.5"/>
<text text-anchor="middle" x="516.5" y="-197.5" font-family="Helvetica,sans-Serif" font-size="10.00">ViennaRNA/data_structures.h</text>
</a>
</g>
</g>
<!-- Node1&#45;&gt;Node2 -->
<g id="edge1" class="edge"><title>Node1&#45;&gt;Node2</title>
<path fill="none" stroke="midnightblue" d="M435.621,-246.399C452.77,-236.773 475.365,-224.09 492.312,-214.577"/>
<polygon fill="midnightblue" stroke="midnightblue" points="494.069,-217.605 501.076,-209.658 490.643,-211.501 494.069,-217.605"/>
</g>
<!-- Node3 -->
<g id="node3" class="node"><title>Node3</title>
<g id="a_node3"><a xlink:href="energy__const_8h.html" target="_top" xlink:title="Energy parameter constants. ">
<polygon fill="none" stroke="black" points="1016.5,-62 1016.5,-81 1154.5,-81 1154.5,-62 1016.5,-62"/>
<text text-anchor="middle" x="1085.5" y="-69" font-family="Helvetica,sans-Serif" font-size="10.00">ViennaRNA/energy_const.h</text>
</a>
</g>
</g>
<!-- Node2&#45;&gt;Node3 -->
<g id="edge2" class="edge"><title>Node2&#45;&gt;Node3</title>
<path fill="none" stroke="midnightblue" d="M590.149,-198.064C733.477,-195.528 1038.96,-186.349 1073.5,-154 1090.35,-138.22 1090.72,-109.938 1088.7,-91.1935"/>
<polygon fill="midnightblue" stroke="midnightblue" points="1092.15,-90.605 1087.29,-81.1884 1085.22,-91.5777 1092.15,-90.605"/>
</g>
<!-- Node5 -->
<g id="node5" class="node"><title>Node5</title>
<g id="a_node5"><a xlink:href="model_8h.html" target="_top" xlink:title="The model details data structure and its corresponding modifiers. ">
<polygon fill="none" stroke="black" points="878.5,-62 878.5,-81 984.5,-81 984.5,-62 878.5,-62"/>
<text text-anchor="middle" x="931.5" y="-69" font-family="Helvetica,sans-Serif" font-size="10.00">ViennaRNA/model.h</text>
</a>
</g>
</g>
<!-- Node2&#45;&gt;Node5 -->
<g id="edge4" class="edge"><title>Node2&#45;&gt;Node5</title>
<path fill="none" stroke="midnightblue" d="M590.238,-199.719C689.441,-199.166 858.845,-192.394 905.5,-154 924.106,-138.688 929.572,-110.049 931.079,-91.1254"/>
<polygon fill="midnightblue" stroke="midnightblue" points="934.579,-91.2048 931.584,-81.0423 927.588,-90.8548 934.579,-91.2048"/>
</g>
<!-- Node6 -->
<g id="node6" class="node"><title>Node6</title>
<g id="a_node6"><a xlink:href="params_8h.html" target="_top" xlink:title="Functions to deal with sets of energy parameters. ">
<polygon fill="none" stroke="black" points="952.5,-129 952.5,-148 1064.5,-148 1064.5,-129 952.5,-129"/>
<text text-anchor="middle" x="1008.5" y="-136" font-family="Helvetica,sans-Serif" font-size="10.00">ViennaRNA/params.h</text>
</a>
</g>
</g>
<!-- Node2&#45;&gt;Node6 -->
<g id="edge5" class="edge"><title>Node2&#45;&gt;Node6</title>
<path fill="none" stroke="midnightblue" d="M590.223,-192.785C673.058,-185.655 811.211,-172.513 929.5,-154 936.832,-152.853 944.558,-151.45 952.209,-149.974"/>
<polygon fill="midnightblue" stroke="midnightblue" points="953.049,-153.376 962.183,-148.007 951.695,-146.508 953.049,-153.376"/>
</g>
<!-- Node7 -->
<g id="node7" class="node"><title>Node7</title>
<g id="a_node7"><a xlink:href="dp__matrices_8h.html" target="_top" xlink:title="Functions to deal with standard dynamic programming (DP) matrices. ">
<polygon fill="none" stroke="black" points="274,-129 274,-148 407,-148 407,-129 274,-129"/>
<text text-anchor="middle" x="340.5" y="-136" font-family="Helvetica,sans-Serif" font-size="10.00">ViennaRNA/dp_matrices.h</text>
</a>
</g>
</g>
<!-- Node2&#45;&gt;Node7 -->
<g id="edge9" class="edge"><title>Node2&#45;&gt;Node7</title>
<path fill="none" stroke="midnightblue" d="M486.383,-190.475C453.967,-180.269 402.989,-163.108 370.591,-151.549"/>
<polygon fill="midnightblue" stroke="midnightblue" points="371.367,-148.108 360.773,-148.009 368.993,-154.693 371.367,-148.108"/>
</g>
<!-- Node8 -->
<g id="node8" class="node"><title>Node8</title>
<g id="a_node8"><a xlink:href="constraints_8h.html" target="_top" xlink:title="Functions and data structures for constraining secondary structure predictions and evaluation...">
<polygon fill="none" stroke="black" points="89.5,-129 89.5,-148 217.5,-148 217.5,-129 89.5,-129"/>
<text text-anchor="middle" x="153.5" y="-136" font-family="Helvetica,sans-Serif" font-size="10.00">ViennaRNA/constraints.h</text>
</a>
</g>
</g>
<!-- Node2&#45;&gt;Node8 -->
<g id="edge11" class="edge"><title>Node2&#45;&gt;Node8</title>
<path fill="none" stroke="midnightblue" d="M452.845,-190.489C393.07,-181.76 301.489,-167.575 222.5,-154 215.043,-152.718 207.196,-151.319 199.557,-149.912"/>
<polygon fill="midnightblue" stroke="midnightblue" points="200.158,-146.464 189.686,-148.067 198.872,-153.345 200.158,-146.464"/>
</g>
<!-- Node13 -->
<g id="node13" class="node"><title>Node13</title>
<g id="a_node13"><a xlink:href="grammar_8h.html" target="_top" xlink:title="Implementations for the RNA folding grammar. ">
<polygon fill="none" stroke="black" points="501.5,-129 501.5,-148 619.5,-148 619.5,-129 501.5,-129"/>
<text text-anchor="middle" x="560.5" y="-136" font-family="Helvetica,sans-Serif" font-size="10.00">ViennaRNA/grammar.h</text>
</a>
</g>
</g>
<!-- Node2&#45;&gt;Node13 -->
<g id="edge22" class="edge"><title>Node2&#45;&gt;Node13</title>
<path fill="none" stroke="midnightblue" d="M517.904,-190.475C522.649,-181.373 533.083,-166.741 542.619,-155.483"/>
<polygon fill="midnightblue" stroke="midnightblue" points="545.248,-157.794 549.31,-148.009 540.033,-153.125 545.248,-157.794"/>
</g>
<!-- Node14 -->
<g id="node14" class="node"><title>Node14</title>
<g id="a_node14"><a xlink:href="structured__domains_8h.html" target="_top" xlink:title="This module provides interfaces that deal with additional structured domains in the folding grammar...">
<polygon fill="none" stroke="black" points="638,-123.5 638,-153.5 753,-153.5 753,-123.5 638,-123.5"/>
<text text-anchor="start" x="646" y="-141.5" font-family="Helvetica,sans-Serif" font-size="10.00">ViennaRNA/structured</text>
<text text-anchor="middle" x="695.5" y="-130.5" font-family="Helvetica,sans-Serif" font-size="10.00">_domains.h</text>
</a>
</g>
</g>
<!-- Node2&#45;&gt;Node14 -->
<g id="edge24" class="edge"><title>Node2&#45;&gt;Node14</title>
<path fill="none" stroke="midnightblue" d="M542.146,-190.475C568.542,-181.701 610.398,-167.788 643.719,-156.712"/>
<polygon fill="midnightblue" stroke="midnightblue" points="644.928,-159.999 653.313,-153.523 642.72,-153.356 644.928,-159.999"/>
</g>
<!-- Node15 -->
<g id="node15" class="node"><title>Node15</title>
<g id="a_node15"><a xlink:href="unstructured__domains_8h.html" target="_top" xlink:title="Functions to modify unstructured domains, e.g. to incorporate ligands binding to unpaired stretches...">
<polygon fill="none" stroke="black" points="771,-123.5 771,-153.5 896,-153.5 896,-123.5 771,-123.5"/>
<text text-anchor="start" x="779" y="-141.5" font-family="Helvetica,sans-Serif" font-size="10.00">ViennaRNA/unstructured</text>
<text text-anchor="middle" x="833.5" y="-130.5" font-family="Helvetica,sans-Serif" font-size="10.00">_domains.h</text>
</a>
</g>
</g>
<!-- Node2&#45;&gt;Node15 -->
<g id="edge25" class="edge"><title>Node2&#45;&gt;Node15</title>
<path fill="none" stroke="midnightblue" d="M557.874,-190.496C605.267,-181.657 684.872,-167.283 753.5,-154 755.845,-153.546 758.232,-153.08 760.647,-152.605"/>
<polygon fill="midnightblue" stroke="midnightblue" points="761.555,-155.994 770.687,-150.621 760.198,-149.127 761.555,-155.994"/>
</g>
<!-- Node4 -->
<g id="node4" class="node"><title>Node4</title>
<polygon fill="none" stroke="#bfbfbf" points="1061.5,-0.5 1061.5,-19.5 1109.5,-19.5 1109.5,-0.5 1061.5,-0.5"/>
<text text-anchor="middle" x="1085.5" y="-7.5" font-family="Helvetica,sans-Serif" font-size="10.00">limits.h</text>
</g>
<!-- Node3&#45;&gt;Node4 -->
<g id="edge3" class="edge"><title>Node3&#45;&gt;Node4</title>
<path fill="none" stroke="midnightblue" d="M1085.5,-61.9751C1085.5,-53.5803 1085.5,-40.4806 1085.5,-29.6631"/>
<polygon fill="midnightblue" stroke="midnightblue" points="1089,-29.5091 1085.5,-19.5091 1082,-29.5091 1089,-29.5091"/>
</g>
<!-- Node6&#45;&gt;Node2 -->
<g id="edge7" class="edge"><title>Node6&#45;&gt;Node2</title>
<path fill="none" stroke="midnightblue" d="M979.501,-148.007C969.405,-150.172 958.045,-152.35 947.5,-154 827.764,-172.739 687.676,-185.975 600.434,-193.044"/>
<polygon fill="midnightblue" stroke="midnightblue" points="600.013,-189.566 590.325,-193.854 600.572,-196.544 600.013,-189.566"/>
</g>
<!-- Node6&#45;&gt;Node3 -->
<g id="edge6" class="edge"><title>Node6&#45;&gt;Node3</title>
<path fill="none" stroke="midnightblue" d="M1018.88,-128.734C1031.35,-118.208 1052.47,-100.379 1067.59,-87.6174"/>
<polygon fill="midnightblue" stroke="midnightblue" points="1069.9,-90.2524 1075.28,-81.1273 1065.38,-84.9034 1069.9,-90.2524"/>
</g>
<!-- Node6&#45;&gt;Node5 -->
<g id="edge8" class="edge"><title>Node6&#45;&gt;Node5</title>
<path fill="none" stroke="midnightblue" d="M998.115,-128.734C985.646,-118.208 964.526,-100.379 949.408,-87.6174"/>
<polygon fill="midnightblue" stroke="midnightblue" points="951.619,-84.9034 941.72,-81.1273 947.104,-90.2524 951.619,-84.9034"/>
</g>
<!-- Node7&#45;&gt;Node2 -->
<g id="edge10" class="edge"><title>Node7&#45;&gt;Node2</title>
<path fill="none" stroke="midnightblue" d="M370.567,-148.009C402.964,-158.208 453.942,-175.368 486.358,-186.933"/>
<polygon fill="midnightblue" stroke="midnightblue" points="485.59,-190.376 496.184,-190.475 487.964,-183.791 485.59,-190.376"/>
</g>
<!-- Node8&#45;&gt;Node1 -->
<g id="edge21" class="edge"><title>Node8&#45;&gt;Node1</title>
<path fill="none" stroke="midnightblue" d="M171.749,-148.092C213.116,-167.568 314.792,-215.439 371.201,-241.997"/>
<polygon fill="midnightblue" stroke="midnightblue" points="369.978,-245.29 380.516,-246.383 372.959,-238.957 369.978,-245.29"/>
</g>
<!-- Node8&#45;&gt;Node2 -->
<g id="edge12" class="edge"><title>Node8&#45;&gt;Node2</title>
<path fill="none" stroke="midnightblue" d="M207.157,-148.067C218.243,-150.071 229.776,-152.157 240.5,-154 314.861,-166.78 400.381,-180.1 456.353,-188.899"/>
<polygon fill="midnightblue" stroke="midnightblue" points="456.028,-192.391 466.451,-190.489 457.116,-185.476 456.028,-192.391"/>
</g>
<!-- Node9 -->
<g id="node9" class="node"><title>Node9</title>
<g id="a_node9"><a xlink:href="constraints__hard_8h.html" target="_top" xlink:title="Functions and data structures for handling of secondary structure hard constraints. ">
<polygon fill="none" stroke="black" points="278,-56.5 278,-86.5 397,-86.5 397,-56.5 278,-56.5"/>
<text text-anchor="start" x="286" y="-74.5" font-family="Helvetica,sans-Serif" font-size="10.00">ViennaRNA/constraints</text>
<text text-anchor="middle" x="337.5" y="-63.5" font-family="Helvetica,sans-Serif" font-size="10.00">_hard.h</text>
</a>
</g>
</g>
<!-- Node8&#45;&gt;Node9 -->
<g id="edge13" class="edge"><title>Node8&#45;&gt;Node9</title>
<path fill="none" stroke="midnightblue" d="M177.934,-128.869C205.902,-118.988 252.438,-102.549 288.057,-89.9662"/>
<polygon fill="midnightblue" stroke="midnightblue" points="289.527,-93.1592 297.79,-86.5281 287.195,-86.5589 289.527,-93.1592"/>
</g>
<!-- Node10 -->
<g id="node10" class="node"><title>Node10</title>
<g id="a_node10"><a xlink:href="constraints__soft_8h.html" target="_top" xlink:title="Functions and data structures for secondary structure soft constraints. ">
<polygon fill="none" stroke="black" points="415,-56.5 415,-86.5 534,-86.5 534,-56.5 415,-56.5"/>
<text text-anchor="start" x="423" y="-74.5" font-family="Helvetica,sans-Serif" font-size="10.00">ViennaRNA/constraints</text>
<text text-anchor="middle" x="474.5" y="-63.5" font-family="Helvetica,sans-Serif" font-size="10.00">_soft.h</text>
</a>
</g>
</g>
<!-- Node8&#45;&gt;Node10 -->
<g id="edge15" class="edge"><title>Node8&#45;&gt;Node10</title>
<path fill="none" stroke="midnightblue" d="M196.778,-128.955C244.939,-119.418 325.351,-103.409 404.519,-87.1907"/>
<polygon fill="midnightblue" stroke="midnightblue" points="405.575,-90.5471 414.668,-85.1091 404.169,-83.6899 405.575,-90.5471"/>
</g>
<!-- Node11 -->
<g id="node11" class="node"><title>Node11</title>
<g id="a_node11"><a xlink:href="constraints__SHAPE_8h.html" target="_top" xlink:title="This module provides function to incorporate SHAPE reactivity data into the folding recursions by mea...">
<polygon fill="none" stroke="black" points="0,-56.5 0,-86.5 119,-86.5 119,-56.5 0,-56.5"/>
<text text-anchor="start" x="8" y="-74.5" font-family="Helvetica,sans-Serif" font-size="10.00">ViennaRNA/constraints</text>
<text text-anchor="middle" x="59.5" y="-63.5" font-family="Helvetica,sans-Serif" font-size="10.00">_SHAPE.h</text>
</a>
</g>
</g>
<!-- Node8&#45;&gt;Node11 -->
<g id="edge17" class="edge"><title>Node8&#45;&gt;Node11</title>
<path fill="none" stroke="midnightblue" d="M140.823,-128.734C127.386,-119.443 105.72,-104.461 88.1293,-92.2968"/>
<polygon fill="midnightblue" stroke="midnightblue" points="90.0906,-89.3978 79.8749,-86.589 86.1093,-95.1554 90.0906,-89.3978"/>
</g>
<!-- Node12 -->
<g id="node12" class="node"><title>Node12</title>
<g id="a_node12"><a xlink:href="perturbation__fold_8h.html" target="_top" xlink:title="Find a vector of perturbation energies that minimizes the discripancies between predicted and observe...">
<polygon fill="none" stroke="black" points="137.5,-56.5 137.5,-86.5 259.5,-86.5 259.5,-56.5 137.5,-56.5"/>
<text text-anchor="start" x="145.5" y="-74.5" font-family="Helvetica,sans-Serif" font-size="10.00">ViennaRNA/perturbation</text>
<text text-anchor="middle" x="198.5" y="-63.5" font-family="Helvetica,sans-Serif" font-size="10.00">_fold.h</text>
</a>
</g>
</g>
<!-- Node8&#45;&gt;Node12 -->
<g id="edge19" class="edge"><title>Node8&#45;&gt;Node12</title>
<path fill="none" stroke="midnightblue" d="M159.569,-128.734C165.534,-120.118 174.885,-106.61 182.928,-94.9923"/>
<polygon fill="midnightblue" stroke="midnightblue" points="185.932,-96.8032 188.746,-86.589 180.176,-92.8187 185.932,-96.8032"/>
</g>
<!-- Node9&#45;&gt;Node2 -->
<g id="edge14" class="edge"><title>Node9&#45;&gt;Node2</title>
<path fill="none" stroke="midnightblue" d="M360.307,-86.6702C376.01,-96.5712 397.251,-110.25 415.5,-123 444.646,-143.363 477.356,-168.394 497.444,-184.027"/>
<polygon fill="midnightblue" stroke="midnightblue" points="495.445,-186.906 505.48,-190.304 499.754,-181.39 495.445,-186.906"/>
</g>
<!-- Node10&#45;&gt;Node2 -->
<g id="edge16" class="edge"><title>Node10&#45;&gt;Node2</title>
<path fill="none" stroke="midnightblue" d="M476.43,-86.6747C478.952,-103.2 484.069,-131.163 492.5,-154 495.988,-163.448 501.115,-173.385 505.735,-181.51"/>
<polygon fill="midnightblue" stroke="midnightblue" points="502.872,-183.544 510.976,-190.368 508.897,-179.98 502.872,-183.544"/>
</g>
<!-- Node11&#45;&gt;Node2 -->
<g id="edge18" class="edge"><title>Node11&#45;&gt;Node2</title>
<path fill="none" stroke="midnightblue" d="M58.6564,-86.8042C58.4233,-105.359 61.1208,-137.318 80.5,-154 106.558,-176.431 313.132,-189.619 432.351,-195.435"/>
<polygon fill="midnightblue" stroke="midnightblue" points="432.39,-198.94 442.546,-195.924 432.726,-191.948 432.39,-198.94"/>
</g>
<!-- Node12&#45;&gt;Node2 -->
<g id="edge20" class="edge"><title>Node12&#45;&gt;Node2</title>
<path fill="none" stroke="midnightblue" d="M205.724,-86.6291C216.059,-105.295 236.907,-137.706 264.5,-154 292.458,-170.509 370.596,-182.832 432.524,-190.37"/>
<polygon fill="midnightblue" stroke="midnightblue" points="432.36,-193.875 442.704,-191.584 433.189,-186.924 432.36,-193.875"/>
</g>
<!-- Node13&#45;&gt;Node2 -->
<g id="edge23" class="edge"><title>Node13&#45;&gt;Node2</title>
<path fill="none" stroke="midnightblue" d="M559.105,-148.009C554.366,-157.104 543.935,-171.736 534.397,-182.997"/>
<polygon fill="midnightblue" stroke="midnightblue" points="531.766,-180.69 527.705,-190.475 536.982,-185.358 531.766,-180.69"/>
</g>
<!-- Node15&#45;&gt;Node2 -->
<g id="edge26" class="edge"><title>Node15&#45;&gt;Node2</title>
<path fill="none" stroke="midnightblue" d="M773.735,-153.566C772.986,-153.712 772.241,-153.857 771.5,-154 707.162,-166.453 633.175,-179.865 581.438,-188.776"/>
<polygon fill="midnightblue" stroke="midnightblue" points="580.662,-185.357 571.396,-190.496 581.844,-192.257 580.662,-185.357"/>
</g>
</g>
</svg>
        <g id="navigator" transform="translate(0 0)" fill="#404254">
                <rect fill="#f2f5e9" fill-opacity="0.5" stroke="#606060" stroke-width=".5" x="0" y="0" width="60" height="60"/>
                <use id="zoomplus" xlink:href="#zoomPlus" x="17" y="9" onmousedown="handleZoom(evt,'in')"/>
                <use id="zoomminus" xlink:href="#zoomMin" x="42" y="9" onmousedown="handleZoom(evt,'out')"/>
                <use id="reset" xlink:href="#resetDef" x="30" y="36" onmousedown="handleReset()"/>
                <g id="arrowUp" xlink:href="#dirArrow" transform="translate(30 24)" onmousedown="handlePan(0,-1)">
                  <use xlink:href="#rim" fill="#404040">
                        <set attributeName="fill" to="#808080" begin="arrowUp.mouseover" end="arrowUp.mouseout"/>
                  </use>
                  <path fill="none" stroke="white" stroke-width="1.5" d="M0,-3.0v7 M-2.5,-0.5L0,-3.0L2.5,-0.5"/>
                </g>
                <g id="arrowRight" xlink:href="#dirArrow" transform="rotate(90) translate(36 -43)" onmousedown="handlePan(1,0)">
                  <use xlink:href="#rim" fill="#404040">
                        <set attributeName="fill" to="#808080" begin="arrowRight.mouseover" end="arrowRight.mouseout"/>
                  </use>
                  <path fill="none" stroke="white" stroke-width="1.5" d="M0,-3.0v7 M-2.5,-0.5L0,-3.0L2.5,-0.5"/>
                </g>
                <g id="arrowDown" xlink:href="#dirArrow" transform="rotate(180) translate(-30 -48)" onmousedown="handlePan(0,1)">
                  <use xlink:href="#rim" fill="#404040">
                        <set attributeName="fill" to="#808080" begin="arrowDown.mouseover" end="arrowDown.mouseout"/>
                  </use>
                  <path fill="none" stroke="white" stroke-width="1.5" d="M0,-3.0v7 M-2.5,-0.5L0,-3.0L2.5,-0.5"/>
                </g>
                <g id="arrowLeft" xlink:href="#dirArrow" transform="rotate(270) translate(-36 17)" onmousedown="handlePan(-1,0)">
                  <use xlink:href="#rim" fill="#404040">
                        <set attributeName="fill" to="#808080" begin="arrowLeft.mouseover" end="arrowLeft.mouseout"/>
                  </use>
                  <path fill="none" stroke="white" stroke-width="1.5" d="M0,-3.0v7 M-2.5,-0.5L0,-3.0L2.5,-0.5"/>
                </g>
        </g>
        <svg viewBox="0 0 15 15" width="100%" height="30px" preserveAspectRatio="xMaxYMin meet">
         <g id="arrow_out" transform="scale(0.3 0.3)">
          <a xlink:href="constraints__ligand_8h__incl_org.svg" target="_base">
           <rect id="button" ry="5" rx="5" y="6" x="6" height="38" width="38"
                fill="#f2f5e9" fill-opacity="0.5" stroke="#606060" stroke-width="1.0"/>
           <path id="arrow"
             d="M 11.500037,31.436501 C 11.940474,20.09759 22.043105,11.32322 32.158766,21.979434 L 37.068811,17.246167 C 37.068811,17.246167 37.088388,32 37.088388,32 L 22.160133,31.978069 C 22.160133,31.978069 26.997745,27.140456 26.997745,27.140456 C 18.528582,18.264221 13.291696,25.230495 11.500037,31.436501 z"
             style="fill:#404040;"/>
          </a>
         </g>
        </svg>
</svg>
