<?xml version="1.0" encoding="UTF-8" standalone="no"?>
<!DOCTYPE svg PUBLIC "-//W3C//DTD SVG 1.1//EN"
 "http://www.w3.org/Graphics/SVG/1.1/DTD/svg11.dtd">
<!-- Generated by graphviz version 2.38.0 (20140413.2041)
 -->
<!-- Title: ViennaRNA/constraints_hard.h Pages: 1 -->
<svg width="1162pt" height="285pt"
 viewBox="0.00 0.00 1162.00 285.00" xmlns="http://www.w3.org/2000/svg" xmlns:xlink="http://www.w3.org/1999/xlink">
<g id="graph0" class="graph" transform="scale(1 1) rotate(0) translate(4 281)">
<title>ViennaRNA/constraints_hard.h</title>
<!-- Node1 -->
<g id="node1" class="node"><title>Node1</title>
<polygon fill="#bfbfbf" stroke="black" points="350.5,-246.5 350.5,-276.5 469.5,-276.5 469.5,-246.5 350.5,-246.5"/>
<text text-anchor="start" x="358.5" y="-264.5" font-family="Helvetica,sans-Serif" font-size="10.00">ViennaRNA/constraints</text>
<text text-anchor="middle" x="410" y="-253.5" font-family="Helvetica,sans-Serif" font-size="10.00">_hard.h</text>
</g>
<!-- Node2 -->
<g id="node2" class="node"><title>Node2</title>
<g id="a_node2"><a xlink:href="data__structures_8h.html" target="_top" xlink:title="Various data structures and pre&#45;processor macros. ">
<polygon fill="none" stroke="black" points="442.5,-190.5 442.5,-209.5 589.5,-209.5 589.5,-190.5 442.5,-190.5"/>
<text text-anchor="middle" x="516" y="-197.5" font-family="Helvetica,sans-Serif" font-size="10.00">ViennaRNA/data_structures.h</text>
</a>
</g>
</g>
<!-- Node1&#45;&gt;Node2 -->
<g id="edge1" class="edge"><title>Node1&#45;&gt;Node2</title>
<path fill="none" stroke="midnightblue" d="M435.121,-246.399C452.27,-236.773 474.865,-224.09 491.812,-214.577"/>
<polygon fill="midnightblue" stroke="midnightblue" points="493.569,-217.605 500.576,-209.658 490.143,-211.501 493.569,-217.605"/>
</g>
<!-- Node3 -->
<g id="node3" class="node"><title>Node3</title>
<g id="a_node3"><a xlink:href="energy__const_8h.html" target="_top" xlink:title="Energy parameter constants. ">
<polygon fill="none" stroke="black" points="1016,-62 1016,-81 1154,-81 1154,-62 1016,-62"/>
<text text-anchor="middle" x="1085" y="-69" font-family="Helvetica,sans-Serif" font-size="10.00">ViennaRNA/energy_const.h</text>
</a>
</g>
</g>
<!-- Node2&#45;&gt;Node3 -->
<g id="edge2" class="edge"><title>Node2&#45;&gt;Node3</title>
<path fill="none" stroke="midnightblue" d="M589.649,-198.064C732.977,-195.528 1038.46,-186.349 1073,-154 1089.85,-138.22 1090.22,-109.938 1088.2,-91.1935"/>
<polygon fill="midnightblue" stroke="midnightblue" points="1091.65,-90.605 1086.79,-81.1884 1084.72,-91.5777 1091.65,-90.605"/>
</g>
<!-- Node5 -->
<g id="node5" class="node"><title>Node5</title>
<g id="a_node5"><a xlink:href="model_8h.html" target="_top" xlink:title="The model details data structure and its corresponding modifiers. ">
<polygon fill="none" stroke="black" points="878,-62 878,-81 984,-81 984,-62 878,-62"/>
<text text-anchor="middle" x="931" y="-69" font-family="Helvetica,sans-Serif" font-size="10.00">ViennaRNA/model.h</text>
</a>
</g>
</g>
<!-- Node2&#45;&gt;Node5 -->
<g id="edge4" class="edge"><title>Node2&#45;&gt;Node5</title>
<path fill="none" stroke="midnightblue" d="M589.738,-199.719C688.941,-199.166 858.345,-192.394 905,-154 923.606,-138.688 929.072,-110.049 930.579,-91.1254"/>
<polygon fill="midnightblue" stroke="midnightblue" points="934.079,-91.2048 931.084,-81.0423 927.088,-90.8548 934.079,-91.2048"/>
</g>
<!-- Node6 -->
<g id="node6" class="node"><title>Node6</title>
<g id="a_node6"><a xlink:href="params_8h.html" target="_top" xlink:title="Functions to deal with sets of energy parameters. ">
<polygon fill="none" stroke="black" points="952,-129 952,-148 1064,-148 1064,-129 952,-129"/>
<text text-anchor="middle" x="1008" y="-136" font-family="Helvetica,sans-Serif" font-size="10.00">ViennaRNA/params.h</text>
</a>
</g>
</g>
<!-- Node2&#45;&gt;Node6 -->
<g id="edge5" class="edge"><title>Node2&#45;&gt;Node6</title>
<path fill="none" stroke="midnightblue" d="M589.723,-192.785C672.558,-185.655 810.711,-172.513 929,-154 936.332,-152.853 944.058,-151.45 951.709,-149.974"/>
<polygon fill="midnightblue" stroke="midnightblue" points="952.549,-153.376 961.683,-148.007 951.195,-146.508 952.549,-153.376"/>
</g>
<!-- Node7 -->
<g id="node7" class="node"><title>Node7</title>
<g id="a_node7"><a xlink:href="dp__matrices_8h.html" target="_top" xlink:title="Functions to deal with standard dynamic programming (DP) matrices. ">
<polygon fill="none" stroke="black" points="273.5,-129 273.5,-148 406.5,-148 406.5,-129 273.5,-129"/>
<text text-anchor="middle" x="340" y="-136" font-family="Helvetica,sans-Serif" font-size="10.00">ViennaRNA/dp_matrices.h</text>
</a>
</g>
</g>
<!-- Node2&#45;&gt;Node7 -->
<g id="edge9" class="edge"><title>Node2&#45;&gt;Node7</title>
<path fill="none" stroke="midnightblue" d="M485.883,-190.475C453.467,-180.269 402.489,-163.108 370.091,-151.549"/>
<polygon fill="midnightblue" stroke="midnightblue" points="370.867,-148.108 360.273,-148.009 368.493,-154.693 370.867,-148.108"/>
</g>
<!-- Node8 -->
<g id="node8" class="node"><title>Node8</title>
<g id="a_node8"><a xlink:href="constraints_8h.html" target="_top" xlink:title="Functions and data structures for constraining secondary structure predictions and evaluation...">
<polygon fill="none" stroke="black" points="89,-129 89,-148 217,-148 217,-129 89,-129"/>
<text text-anchor="middle" x="153" y="-136" font-family="Helvetica,sans-Serif" font-size="10.00">ViennaRNA/constraints.h</text>
</a>
</g>
</g>
<!-- Node2&#45;&gt;Node8 -->
<g id="edge11" class="edge"><title>Node2&#45;&gt;Node8</title>
<path fill="none" stroke="midnightblue" d="M452.345,-190.489C392.57,-181.76 300.989,-167.575 222,-154 214.543,-152.718 206.696,-151.319 199.057,-149.912"/>
<polygon fill="midnightblue" stroke="midnightblue" points="199.658,-146.464 189.186,-148.067 198.372,-153.345 199.658,-146.464"/>
</g>
<!-- Node13 -->
<g id="node13" class="node"><title>Node13</title>
<g id="a_node13"><a xlink:href="grammar_8h.html" target="_top" xlink:title="Implementations for the RNA folding grammar. ">
<polygon fill="none" stroke="black" points="501,-129 501,-148 619,-148 619,-129 501,-129"/>
<text text-anchor="middle" x="560" y="-136" font-family="Helvetica,sans-Serif" font-size="10.00">ViennaRNA/grammar.h</text>
</a>
</g>
</g>
<!-- Node2&#45;&gt;Node13 -->
<g id="edge22" class="edge"><title>Node2&#45;&gt;Node13</title>
<path fill="none" stroke="midnightblue" d="M517.404,-190.475C522.149,-181.373 532.583,-166.741 542.119,-155.483"/>
<polygon fill="midnightblue" stroke="midnightblue" points="544.748,-157.794 548.81,-148.009 539.533,-153.125 544.748,-157.794"/>
</g>
<!-- Node14 -->
<g id="node14" class="node"><title>Node14</title>
<g id="a_node14"><a xlink:href="structured__domains_8h.html" target="_top" xlink:title="This module provides interfaces that deal with additional structured domains in the folding grammar...">
<polygon fill="none" stroke="black" points="637.5,-123.5 637.5,-153.5 752.5,-153.5 752.5,-123.5 637.5,-123.5"/>
<text text-anchor="start" x="645.5" y="-141.5" font-family="Helvetica,sans-Serif" font-size="10.00">ViennaRNA/structured</text>
<text text-anchor="middle" x="695" y="-130.5" font-family="Helvetica,sans-Serif" font-size="10.00">_domains.h</text>
</a>
</g>
</g>
<!-- Node2&#45;&gt;Node14 -->
<g id="edge24" class="edge"><title>Node2&#45;&gt;Node14</title>
<path fill="none" stroke="midnightblue" d="M541.646,-190.475C568.042,-181.701 609.898,-167.788 643.219,-156.712"/>
<polygon fill="midnightblue" stroke="midnightblue" points="644.428,-159.999 652.813,-153.523 642.22,-153.356 644.428,-159.999"/>
</g>
<!-- Node15 -->
<g id="node15" class="node"><title>Node15</title>
<g id="a_node15"><a xlink:href="unstructured__domains_8h.html" target="_top" xlink:title="Functions to modify unstructured domains, e.g. to incorporate ligands binding to unpaired stretches...">
<polygon fill="none" stroke="black" points="770.5,-123.5 770.5,-153.5 895.5,-153.5 895.5,-123.5 770.5,-123.5"/>
<text text-anchor="start" x="778.5" y="-141.5" font-family="Helvetica,sans-Serif" font-size="10.00">ViennaRNA/unstructured</text>
<text text-anchor="middle" x="833" y="-130.5" font-family="Helvetica,sans-Serif" font-size="10.00">_domains.h</text>
</a>
</g>
</g>
<!-- Node2&#45;&gt;Node15 -->
<g id="edge25" class="edge"><title>Node2&#45;&gt;Node15</title>
<path fill="none" stroke="midnightblue" d="M557.374,-190.496C604.767,-181.657 684.372,-167.283 753,-154 755.345,-153.546 757.732,-153.08 760.147,-152.605"/>
<polygon fill="midnightblue" stroke="midnightblue" points="761.055,-155.994 770.187,-150.621 759.698,-149.127 761.055,-155.994"/>
</g>
<!-- Node4 -->
<g id="node4" class="node"><title>Node4</title>
<polygon fill="none" stroke="#bfbfbf" points="1061,-0.5 1061,-19.5 1109,-19.5 1109,-0.5 1061,-0.5"/>
<text text-anchor="middle" x="1085" y="-7.5" font-family="Helvetica,sans-Serif" font-size="10.00">limits.h</text>
</g>
<!-- Node3&#45;&gt;Node4 -->
<g id="edge3" class="edge"><title>Node3&#45;&gt;Node4</title>
<path fill="none" stroke="midnightblue" d="M1085,-61.9751C1085,-53.5803 1085,-40.4806 1085,-29.6631"/>
<polygon fill="midnightblue" stroke="midnightblue" points="1088.5,-29.5091 1085,-19.5091 1081.5,-29.5091 1088.5,-29.5091"/>
</g>
<!-- Node6&#45;&gt;Node2 -->
<g id="edge7" class="edge"><title>Node6&#45;&gt;Node2</title>
<path fill="none" stroke="midnightblue" d="M979.001,-148.007C968.905,-150.172 957.545,-152.35 947,-154 827.264,-172.739 687.176,-185.975 599.934,-193.044"/>
<polygon fill="midnightblue" stroke="midnightblue" points="599.513,-189.566 589.825,-193.854 600.072,-196.544 599.513,-189.566"/>
</g>
<!-- Node6&#45;&gt;Node3 -->
<g id="edge6" class="edge"><title>Node6&#45;&gt;Node3</title>
<path fill="none" stroke="midnightblue" d="M1018.38,-128.734C1030.85,-118.208 1051.97,-100.379 1067.09,-87.6174"/>
<polygon fill="midnightblue" stroke="midnightblue" points="1069.4,-90.2524 1074.78,-81.1273 1064.88,-84.9034 1069.4,-90.2524"/>
</g>
<!-- Node6&#45;&gt;Node5 -->
<g id="edge8" class="edge"><title>Node6&#45;&gt;Node5</title>
<path fill="none" stroke="midnightblue" d="M997.615,-128.734C985.146,-118.208 964.026,-100.379 948.908,-87.6174"/>
<polygon fill="midnightblue" stroke="midnightblue" points="951.119,-84.9034 941.22,-81.1273 946.604,-90.2524 951.119,-84.9034"/>
</g>
<!-- Node7&#45;&gt;Node2 -->
<g id="edge10" class="edge"><title>Node7&#45;&gt;Node2</title>
<path fill="none" stroke="midnightblue" d="M370.067,-148.009C402.464,-158.208 453.442,-175.368 485.858,-186.933"/>
<polygon fill="midnightblue" stroke="midnightblue" points="485.09,-190.376 495.684,-190.475 487.464,-183.791 485.09,-190.376"/>
</g>
<!-- Node8&#45;&gt;Node1 -->
<g id="edge13" class="edge"><title>Node8&#45;&gt;Node1</title>
<path fill="none" stroke="midnightblue" d="M171.249,-148.092C212.616,-167.568 314.292,-215.439 370.701,-241.997"/>
<polygon fill="midnightblue" stroke="midnightblue" points="369.478,-245.29 380.016,-246.383 372.459,-238.957 369.478,-245.29"/>
</g>
<!-- Node8&#45;&gt;Node2 -->
<g id="edge12" class="edge"><title>Node8&#45;&gt;Node2</title>
<path fill="none" stroke="midnightblue" d="M206.657,-148.067C217.743,-150.071 229.276,-152.157 240,-154 314.361,-166.78 399.881,-180.1 455.853,-188.899"/>
<polygon fill="midnightblue" stroke="midnightblue" points="455.528,-192.391 465.951,-190.489 456.616,-185.476 455.528,-192.391"/>
</g>
<!-- Node9 -->
<g id="node9" class="node"><title>Node9</title>
<g id="a_node9"><a xlink:href="constraints__soft_8h.html" target="_top" xlink:title="Functions and data structures for secondary structure soft constraints. ">
<polygon fill="none" stroke="black" points="277.5,-56.5 277.5,-86.5 396.5,-86.5 396.5,-56.5 277.5,-56.5"/>
<text text-anchor="start" x="285.5" y="-74.5" font-family="Helvetica,sans-Serif" font-size="10.00">ViennaRNA/constraints</text>
<text text-anchor="middle" x="337" y="-63.5" font-family="Helvetica,sans-Serif" font-size="10.00">_soft.h</text>
</a>
</g>
</g>
<!-- Node8&#45;&gt;Node9 -->
<g id="edge14" class="edge"><title>Node8&#45;&gt;Node9</title>
<path fill="none" stroke="midnightblue" d="M177.434,-128.869C205.402,-118.988 251.938,-102.549 287.557,-89.9662"/>
<polygon fill="midnightblue" stroke="midnightblue" points="289.027,-93.1592 297.29,-86.5281 286.695,-86.5589 289.027,-93.1592"/>
</g>
<!-- Node10 -->
<g id="node10" class="node"><title>Node10</title>
<g id="a_node10"><a xlink:href="constraints__SHAPE_8h.html" target="_top" xlink:title="This module provides function to incorporate SHAPE reactivity data into the folding recursions by mea...">
<polygon fill="none" stroke="black" points="414.5,-56.5 414.5,-86.5 533.5,-86.5 533.5,-56.5 414.5,-56.5"/>
<text text-anchor="start" x="422.5" y="-74.5" font-family="Helvetica,sans-Serif" font-size="10.00">ViennaRNA/constraints</text>
<text text-anchor="middle" x="474" y="-63.5" font-family="Helvetica,sans-Serif" font-size="10.00">_SHAPE.h</text>
</a>
</g>
</g>
<!-- Node8&#45;&gt;Node10 -->
<g id="edge16" class="edge"><title>Node8&#45;&gt;Node10</title>
<path fill="none" stroke="midnightblue" d="M196.278,-128.955C244.439,-119.418 324.851,-103.409 404.019,-87.1907"/>
<polygon fill="midnightblue" stroke="midnightblue" points="405.075,-90.5471 414.168,-85.1091 403.669,-83.6899 405.075,-90.5471"/>
</g>
<!-- Node11 -->
<g id="node11" class="node"><title>Node11</title>
<g id="a_node11"><a xlink:href="perturbation__fold_8h.html" target="_top" xlink:title="Find a vector of perturbation energies that minimizes the discripancies between predicted and observe...">
<polygon fill="none" stroke="black" points="0,-56.5 0,-86.5 122,-86.5 122,-56.5 0,-56.5"/>
<text text-anchor="start" x="8" y="-74.5" font-family="Helvetica,sans-Serif" font-size="10.00">ViennaRNA/perturbation</text>
<text text-anchor="middle" x="61" y="-63.5" font-family="Helvetica,sans-Serif" font-size="10.00">_fold.h</text>
</a>
</g>
</g>
<!-- Node8&#45;&gt;Node11 -->
<g id="edge18" class="edge"><title>Node8&#45;&gt;Node11</title>
<path fill="none" stroke="midnightblue" d="M140.592,-128.734C127.561,-119.527 106.622,-104.733 89.4907,-92.6293"/>
<polygon fill="midnightblue" stroke="midnightblue" points="91.1282,-89.5008 80.9414,-86.589 87.089,-95.2179 91.1282,-89.5008"/>
</g>
<!-- Node12 -->
<g id="node12" class="node"><title>Node12</title>
<g id="a_node12"><a xlink:href="constraints__ligand_8h.html" target="_top" xlink:title="Functions for incorporation of ligands binding to hairpin and interior loop motifs using the soft con...">
<polygon fill="none" stroke="black" points="140.5,-56.5 140.5,-86.5 259.5,-86.5 259.5,-56.5 140.5,-56.5"/>
<text text-anchor="start" x="148.5" y="-74.5" font-family="Helvetica,sans-Serif" font-size="10.00">ViennaRNA/constraints</text>
<text text-anchor="middle" x="200" y="-63.5" font-family="Helvetica,sans-Serif" font-size="10.00">_ligand.h</text>
</a>
</g>
</g>
<!-- Node8&#45;&gt;Node12 -->
<g id="edge20" class="edge"><title>Node8&#45;&gt;Node12</title>
<path fill="none" stroke="midnightblue" d="M159.339,-128.734C165.568,-120.118 175.336,-106.61 183.736,-94.9923"/>
<polygon fill="midnightblue" stroke="midnightblue" points="186.789,-96.7434 189.813,-86.589 181.117,-92.6417 186.789,-96.7434"/>
</g>
<!-- Node9&#45;&gt;Node2 -->
<g id="edge15" class="edge"><title>Node9&#45;&gt;Node2</title>
<path fill="none" stroke="midnightblue" d="M359.807,-86.6702C375.51,-96.5712 396.751,-110.25 415,-123 444.146,-143.363 476.856,-168.394 496.944,-184.027"/>
<polygon fill="midnightblue" stroke="midnightblue" points="494.945,-186.906 504.98,-190.304 499.254,-181.39 494.945,-186.906"/>
</g>
<!-- Node10&#45;&gt;Node2 -->
<g id="edge17" class="edge"><title>Node10&#45;&gt;Node2</title>
<path fill="none" stroke="midnightblue" d="M475.93,-86.6747C478.452,-103.2 483.569,-131.163 492,-154 495.488,-163.448 500.615,-173.385 505.235,-181.51"/>
<polygon fill="midnightblue" stroke="midnightblue" points="502.372,-183.544 510.476,-190.368 508.397,-179.98 502.372,-183.544"/>
</g>
<!-- Node11&#45;&gt;Node2 -->
<g id="edge19" class="edge"><title>Node11&#45;&gt;Node2</title>
<path fill="none" stroke="midnightblue" d="M59.7734,-86.766C59.0496,-105.278 60.9238,-137.191 80,-154 105.832,-176.761 313.035,-189.83 432.264,-195.535"/>
<polygon fill="midnightblue" stroke="midnightblue" points="432.305,-199.041 442.458,-196.015 432.634,-192.049 432.305,-199.041"/>
</g>
<!-- Node12&#45;&gt;Node2 -->
<g id="edge21" class="edge"><title>Node12&#45;&gt;Node2</title>
<path fill="none" stroke="midnightblue" d="M206.892,-86.6261C216.785,-105.289 236.857,-137.696 264,-154 291.878,-170.745 370.242,-183.052 432.256,-190.522"/>
<polygon fill="midnightblue" stroke="midnightblue" points="432.108,-194.028 442.449,-191.724 432.928,-187.077 432.108,-194.028"/>
</g>
<!-- Node13&#45;&gt;Node2 -->
<g id="edge23" class="edge"><title>Node13&#45;&gt;Node2</title>
<path fill="none" stroke="midnightblue" d="M558.605,-148.009C553.866,-157.104 543.435,-171.736 533.897,-182.997"/>
<polygon fill="midnightblue" stroke="midnightblue" points="531.266,-180.69 527.205,-190.475 536.482,-185.358 531.266,-180.69"/>
</g>
<!-- Node15&#45;&gt;Node2 -->
<g id="edge26" class="edge"><title>Node15&#45;&gt;Node2</title>
<path fill="none" stroke="midnightblue" d="M773.235,-153.566C772.486,-153.712 771.741,-153.857 771,-154 706.662,-166.453 632.675,-179.865 580.938,-188.776"/>
<polygon fill="midnightblue" stroke="midnightblue" points="580.162,-185.357 570.896,-190.496 581.344,-192.257 580.162,-185.357"/>
</g>
</g>
</svg>
