<?xml version="1.0" encoding="UTF-8" standalone="no"?>
<!DOCTYPE svg PUBLIC "-//W3C//DTD SVG 1.1//EN"
 "http://www.w3.org/Graphics/SVG/1.1/DTD/svg11.dtd">
<!-- Generated by graphviz version 2.38.0 (20140413.2041)
 -->
<!-- Title: ViennaRNA/constraints.h Pages: 1 -->
<!--zoomable 330 -->
<svg id="main" version="1.1" xmlns="http://www.w3.org/2000/svg" xmlns:xlink="http://www.w3.org/1999/xlink" xml:space="preserve" onload="init(evt)">
<style type="text/css"><![CDATA[
.edge:hover path { stroke: red; }
.edge:hover polygon { stroke: red; fill: red; }
]]></style>
<script type="text/javascript"><![CDATA[
var edges = document.getElementsByTagName('g');
if (edges && edges.length) {
  for (var i=0;i<edges.length;i++) {
    if (edges[i].id.substr(0,4)=='edge') {
      edges[i].setAttribute('class','edge');
    }
  }
}
]]></script>
        <defs>
                <circle id="rim" cx="0" cy="0" r="7"/>
                <circle id="rim2" cx="0" cy="0" r="3.5"/>
                <g id="zoomPlus">
                        <use xlink:href="#rim" fill="#404040">
                                <set attributeName="fill" to="#808080" begin="zoomplus.mouseover" end="zoomplus.mouseout"/>
                        </use>
                        <path d="M-4,0h8M0,-4v8" fill="none" stroke="white" stroke-width="1.5" pointer-events="none"/>
                </g>
                <g id="zoomMin">
                        <use xlink:href="#rim" fill="#404040">
                                <set attributeName="fill" to="#808080" begin="zoomminus.mouseover" end="zoomminus.mouseout"/>
                        </use>
                        <path d="M-4,0h8" fill="none" stroke="white" stroke-width="1.5" pointer-events="none"/>
                </g>
                <g id="dirArrow">
                        <path fill="none" stroke="white" stroke-width="1.5" d="M0,-3.0v7 M-2.5,-0.5L0,-3.0L2.5,-0.5"/>
                </g>
               <g id="resetDef">
                       <use xlink:href="#rim2" fill="#404040">
                               <set attributeName="fill" to="#808080" begin="reset.mouseover" end="reset.mouseout"/>
                       </use>
               </g>
        </defs>

<script type="text/javascript">
var viewWidth = 806;
var viewHeight = 330;
var sectionId = 'dynsection-0';
</script>
<script xlink:href="svgpan.js"/>
<svg id="graph" class="graph">
<g id="viewport">
<title>ViennaRNA/constraints.h</title>
<!-- Node1 -->
<g id="node1" class="node"><title>Node1</title>
<polygon fill="#bfbfbf" stroke="black" points="254,-302.5 254,-321.5 382,-321.5 382,-302.5 254,-302.5"/>
<text text-anchor="middle" x="318" y="-309.5" font-family="Helvetica,sans-Serif" font-size="10.00">ViennaRNA/constraints.h</text>
</g>
<!-- Node2 -->
<g id="node2" class="node"><title>Node2</title>
<g id="a_node2"><a xlink:href="data__structures_8h.html" target="_top" xlink:title="Various data structures and pre&#45;processor macros. ">
<polygon fill="none" stroke="black" points="244.5,-179.5 244.5,-198.5 391.5,-198.5 391.5,-179.5 244.5,-179.5"/>
<text text-anchor="middle" x="318" y="-186.5" font-family="Helvetica,sans-Serif" font-size="10.00">ViennaRNA/data_structures.h</text>
</a>
</g>
</g>
<!-- Node1&#45;&gt;Node2 -->
<g id="edge1" class="edge"><title>Node1&#45;&gt;Node2</title>
<path fill="none" stroke="midnightblue" d="M253.766,-306.385C197.243,-300.686 121.366,-288.811 103,-266 63.9911,-217.55 158.403,-199.987 234.331,-193.62"/>
<polygon fill="midnightblue" stroke="midnightblue" points="234.737,-197.099 244.433,-192.829 234.19,-190.121 234.737,-197.099"/>
</g>
<!-- Node11 -->
<g id="node11" class="node"><title>Node11</title>
<g id="a_node11"><a xlink:href="constraints__hard_8h.html" target="_top" xlink:title="Functions and data structures for handling of secondary structure hard constraints. ">
<polygon fill="none" stroke="black" points="121.5,-235.5 121.5,-265.5 240.5,-265.5 240.5,-235.5 121.5,-235.5"/>
<text text-anchor="start" x="129.5" y="-253.5" font-family="Helvetica,sans-Serif" font-size="10.00">ViennaRNA/constraints</text>
<text text-anchor="middle" x="181" y="-242.5" font-family="Helvetica,sans-Serif" font-size="10.00">_hard.h</text>
</a>
</g>
</g>
<!-- Node1&#45;&gt;Node11 -->
<g id="edge17" class="edge"><title>Node1&#45;&gt;Node11</title>
<path fill="none" stroke="midnightblue" d="M298.371,-302.475C278.689,-293.927 247.776,-280.501 222.614,-269.573"/>
<polygon fill="midnightblue" stroke="midnightblue" points="223.855,-266.296 213.288,-265.523 221.066,-272.717 223.855,-266.296"/>
</g>
<!-- Node12 -->
<g id="node12" class="node"><title>Node12</title>
<g id="a_node12"><a xlink:href="constraints__soft_8h.html" target="_top" xlink:title="Functions and data structures for secondary structure soft constraints. ">
<polygon fill="none" stroke="black" points="258.5,-235.5 258.5,-265.5 377.5,-265.5 377.5,-235.5 258.5,-235.5"/>
<text text-anchor="start" x="266.5" y="-253.5" font-family="Helvetica,sans-Serif" font-size="10.00">ViennaRNA/constraints</text>
<text text-anchor="middle" x="318" y="-242.5" font-family="Helvetica,sans-Serif" font-size="10.00">_soft.h</text>
</a>
</g>
</g>
<!-- Node1&#45;&gt;Node12 -->
<g id="edge19" class="edge"><title>Node1&#45;&gt;Node12</title>
<path fill="none" stroke="midnightblue" d="M318,-302.475C318,-295.471 318,-285.192 318,-275.696"/>
<polygon fill="midnightblue" stroke="midnightblue" points="321.5,-275.523 318,-265.523 314.5,-275.523 321.5,-275.523"/>
</g>
<!-- Node13 -->
<g id="node13" class="node"><title>Node13</title>
<g id="a_node13"><a xlink:href="constraints__SHAPE_8h.html" target="_top" xlink:title="This module provides function to incorporate SHAPE reactivity data into the folding recursions by mea...">
<polygon fill="none" stroke="black" points="395.5,-235.5 395.5,-265.5 514.5,-265.5 514.5,-235.5 395.5,-235.5"/>
<text text-anchor="start" x="403.5" y="-253.5" font-family="Helvetica,sans-Serif" font-size="10.00">ViennaRNA/constraints</text>
<text text-anchor="middle" x="455" y="-242.5" font-family="Helvetica,sans-Serif" font-size="10.00">_SHAPE.h</text>
</a>
</g>
</g>
<!-- Node1&#45;&gt;Node13 -->
<g id="edge21" class="edge"><title>Node1&#45;&gt;Node13</title>
<path fill="none" stroke="midnightblue" d="M337.629,-302.475C357.311,-293.927 388.224,-280.501 413.386,-269.573"/>
<polygon fill="midnightblue" stroke="midnightblue" points="414.934,-272.717 422.712,-265.523 412.145,-266.296 414.934,-272.717"/>
</g>
<!-- Node14 -->
<g id="node14" class="node"><title>Node14</title>
<g id="a_node14"><a xlink:href="perturbation__fold_8h.html" target="_top" xlink:title="Find a vector of perturbation energies that minimizes the discripancies between predicted and observe...">
<polygon fill="none" stroke="black" points="533,-235.5 533,-265.5 655,-265.5 655,-235.5 533,-235.5"/>
<text text-anchor="start" x="541" y="-253.5" font-family="Helvetica,sans-Serif" font-size="10.00">ViennaRNA/perturbation</text>
<text text-anchor="middle" x="594" y="-242.5" font-family="Helvetica,sans-Serif" font-size="10.00">_fold.h</text>
</a>
</g>
</g>
<!-- Node1&#45;&gt;Node14 -->
<g id="edge23" class="edge"><title>Node1&#45;&gt;Node14</title>
<path fill="none" stroke="midnightblue" d="M357.544,-302.475C400.604,-293.192 470.348,-278.157 522.957,-266.816"/>
<polygon fill="midnightblue" stroke="midnightblue" points="523.865,-270.2 532.903,-264.671 522.39,-263.357 523.865,-270.2"/>
</g>
<!-- Node15 -->
<g id="node15" class="node"><title>Node15</title>
<g id="a_node15"><a xlink:href="constraints__ligand_8h.html" target="_top" xlink:title="Functions for incorporation of ligands binding to hairpin and interior loop motifs using the soft con...">
<polygon fill="none" stroke="black" points="673.5,-235.5 673.5,-265.5 792.5,-265.5 792.5,-235.5 673.5,-235.5"/>
<text text-anchor="start" x="681.5" y="-253.5" font-family="Helvetica,sans-Serif" font-size="10.00">ViennaRNA/constraints</text>
<text text-anchor="middle" x="733" y="-242.5" font-family="Helvetica,sans-Serif" font-size="10.00">_ligand.h</text>
</a>
</g>
</g>
<!-- Node1&#45;&gt;Node15 -->
<g id="edge25" class="edge"><title>Node1&#45;&gt;Node15</title>
<path fill="none" stroke="midnightblue" d="M382.311,-304.151C449.779,-296.624 559.111,-283.464 663.164,-266.058"/>
<polygon fill="midnightblue" stroke="midnightblue" points="663.938,-269.477 673.215,-264.361 662.772,-262.575 663.938,-269.477"/>
</g>
<!-- Node2&#45;&gt;Node1 -->
<g id="edge11" class="edge"><title>Node2&#45;&gt;Node1</title>
<path fill="none" stroke="midnightblue" d="M244.479,-193.911C173.628,-200.515 82.5705,-218.27 121,-266 136.759,-285.574 194.864,-297.095 243.973,-303.572"/>
<polygon fill="midnightblue" stroke="midnightblue" points="243.618,-307.055 253.978,-304.84 244.498,-300.11 243.618,-307.055"/>
</g>
<!-- Node3 -->
<g id="node3" class="node"><title>Node3</title>
<g id="a_node3"><a xlink:href="energy__const_8h.html" target="_top" xlink:title="Energy parameter constants. ">
<polygon fill="none" stroke="black" points="0,-56.5 0,-75.5 138,-75.5 138,-56.5 0,-56.5"/>
<text text-anchor="middle" x="69" y="-63.5" font-family="Helvetica,sans-Serif" font-size="10.00">ViennaRNA/energy_const.h</text>
</a>
</g>
</g>
<!-- Node2&#45;&gt;Node3 -->
<g id="edge2" class="edge"><title>Node2&#45;&gt;Node3</title>
<path fill="none" stroke="midnightblue" d="M244.391,-184.161C180.957,-179.177 96.1891,-167.942 74,-143 60.3016,-127.602 61.4297,-102.783 64.4084,-85.7214"/>
<polygon fill="midnightblue" stroke="midnightblue" points="67.8604,-86.3135 66.4958,-75.8069 61.0106,-84.8713 67.8604,-86.3135"/>
</g>
<!-- Node5 -->
<g id="node5" class="node"><title>Node5</title>
<g id="a_node5"><a xlink:href="model_8h.html" target="_top" xlink:title="The model details data structure and its corresponding modifiers. ">
<polygon fill="none" stroke="black" points="163,-56.5 163,-75.5 269,-75.5 269,-56.5 163,-56.5"/>
<text text-anchor="middle" x="216" y="-63.5" font-family="Helvetica,sans-Serif" font-size="10.00">ViennaRNA/model.h</text>
</a>
</g>
</g>
<!-- Node2&#45;&gt;Node5 -->
<g id="edge4" class="edge"><title>Node2&#45;&gt;Node5</title>
<path fill="none" stroke="midnightblue" d="M294.737,-179.38C277.93,-172.058 255.837,-160.01 242,-143 228.558,-126.476 221.9,-102.613 218.717,-86.052"/>
<polygon fill="midnightblue" stroke="midnightblue" points="222.126,-85.2203 217.027,-75.9334 215.222,-86.3733 222.126,-85.2203"/>
</g>
<!-- Node6 -->
<g id="node6" class="node"><title>Node6</title>
<g id="a_node6"><a xlink:href="params_8h.html" target="_top" xlink:title="Functions to deal with sets of energy parameters. ">
<polygon fill="none" stroke="black" points="83,-118 83,-137 195,-137 195,-118 83,-118"/>
<text text-anchor="middle" x="139" y="-125" font-family="Helvetica,sans-Serif" font-size="10.00">ViennaRNA/params.h</text>
</a>
</g>
</g>
<!-- Node2&#45;&gt;Node6 -->
<g id="edge5" class="edge"><title>Node2&#45;&gt;Node6</title>
<path fill="none" stroke="midnightblue" d="M287.453,-179.475C254.38,-169.225 202.23,-151.959 169.272,-140.399"/>
<polygon fill="midnightblue" stroke="midnightblue" points="170.296,-137.049 159.702,-137.009 167.959,-143.648 170.296,-137.049"/>
</g>
<!-- Node7 -->
<g id="node7" class="node"><title>Node7</title>
<g id="a_node7"><a xlink:href="dp__matrices_8h.html" target="_top" xlink:title="Functions to deal with standard dynamic programming (DP) matrices. ">
<polygon fill="none" stroke="black" points="251.5,-118 251.5,-137 384.5,-137 384.5,-118 251.5,-118"/>
<text text-anchor="middle" x="318" y="-125" font-family="Helvetica,sans-Serif" font-size="10.00">ViennaRNA/dp_matrices.h</text>
</a>
</g>
</g>
<!-- Node2&#45;&gt;Node7 -->
<g id="edge9" class="edge"><title>Node2&#45;&gt;Node7</title>
<path fill="none" stroke="midnightblue" d="M313.099,-179.475C311.268,-171.08 310.797,-157.981 311.685,-147.163"/>
<polygon fill="midnightblue" stroke="midnightblue" points="315.186,-147.397 313.103,-137.009 308.254,-146.429 315.186,-147.397"/>
</g>
<!-- Node8 -->
<g id="node8" class="node"><title>Node8</title>
<g id="a_node8"><a xlink:href="grammar_8h.html" target="_top" xlink:title="Implementations for the RNA folding grammar. ">
<polygon fill="none" stroke="black" points="403,-118 403,-137 521,-137 521,-118 403,-118"/>
<text text-anchor="middle" x="462" y="-125" font-family="Helvetica,sans-Serif" font-size="10.00">ViennaRNA/grammar.h</text>
</a>
</g>
</g>
<!-- Node2&#45;&gt;Node8 -->
<g id="edge12" class="edge"><title>Node2&#45;&gt;Node8</title>
<path fill="none" stroke="midnightblue" d="M333.731,-179.475C356.109,-169.313 397.164,-152.256 426.902,-140.7"/>
<polygon fill="midnightblue" stroke="midnightblue" points="428.429,-143.862 436.509,-137.009 425.919,-137.328 428.429,-143.862"/>
</g>
<!-- Node9 -->
<g id="node9" class="node"><title>Node9</title>
<g id="a_node9"><a xlink:href="structured__domains_8h.html" target="_top" xlink:title="This module provides interfaces that deal with additional structured domains in the folding grammar...">
<polygon fill="none" stroke="black" points="539.5,-112.5 539.5,-142.5 654.5,-142.5 654.5,-112.5 539.5,-112.5"/>
<text text-anchor="start" x="547.5" y="-130.5" font-family="Helvetica,sans-Serif" font-size="10.00">ViennaRNA/structured</text>
<text text-anchor="middle" x="597" y="-119.5" font-family="Helvetica,sans-Serif" font-size="10.00">_domains.h</text>
</a>
</g>
</g>
<!-- Node2&#45;&gt;Node9 -->
<g id="edge14" class="edge"><title>Node2&#45;&gt;Node9</title>
<path fill="none" stroke="midnightblue" d="M358.652,-179.421C399.252,-170.842 463.719,-157.19 529.174,-143.172"/>
<polygon fill="midnightblue" stroke="midnightblue" points="530.215,-146.529 539.26,-141.011 528.748,-139.684 530.215,-146.529"/>
</g>
<!-- Node10 -->
<g id="node10" class="node"><title>Node10</title>
<g id="a_node10"><a xlink:href="unstructured__domains_8h.html" target="_top" xlink:title="Functions to modify unstructured domains, e.g. to incorporate ligands binding to unpaired stretches...">
<polygon fill="none" stroke="black" points="672.5,-112.5 672.5,-142.5 797.5,-142.5 797.5,-112.5 672.5,-112.5"/>
<text text-anchor="start" x="680.5" y="-130.5" font-family="Helvetica,sans-Serif" font-size="10.00">ViennaRNA/unstructured</text>
<text text-anchor="middle" x="735" y="-119.5" font-family="Helvetica,sans-Serif" font-size="10.00">_domains.h</text>
</a>
</g>
</g>
<!-- Node2&#45;&gt;Node10 -->
<g id="edge15" class="edge"><title>Node2&#45;&gt;Node10</title>
<path fill="none" stroke="midnightblue" d="M388.818,-179.497C457.159,-171.438 563.286,-158.309 655,-143 657.356,-142.607 659.753,-142.192 662.175,-141.761"/>
<polygon fill="midnightblue" stroke="midnightblue" points="663.036,-145.162 672.24,-139.914 661.772,-138.277 663.036,-145.162"/>
</g>
<!-- Node4 -->
<g id="node4" class="node"><title>Node4</title>
<polygon fill="none" stroke="#bfbfbf" points="45,-0.5 45,-19.5 93,-19.5 93,-0.5 45,-0.5"/>
<text text-anchor="middle" x="69" y="-7.5" font-family="Helvetica,sans-Serif" font-size="10.00">limits.h</text>
</g>
<!-- Node3&#45;&gt;Node4 -->
<g id="edge3" class="edge"><title>Node3&#45;&gt;Node4</title>
<path fill="none" stroke="midnightblue" d="M69,-56.083C69,-49.0059 69,-38.8611 69,-29.9865"/>
<polygon fill="midnightblue" stroke="midnightblue" points="72.5001,-29.751 69,-19.7511 65.5001,-29.7511 72.5001,-29.751"/>
</g>
<!-- Node6&#45;&gt;Node2 -->
<g id="edge7" class="edge"><title>Node6&#45;&gt;Node2</title>
<path fill="none" stroke="midnightblue" d="M169.496,-137.009C202.55,-147.252 254.699,-164.517 287.678,-176.083"/>
<polygon fill="midnightblue" stroke="midnightblue" points="286.659,-179.435 297.254,-179.475 288.997,-172.837 286.659,-179.435"/>
</g>
<!-- Node6&#45;&gt;Node3 -->
<g id="edge6" class="edge"><title>Node6&#45;&gt;Node3</title>
<path fill="none" stroke="midnightblue" d="M128.971,-117.975C117.951,-108.608 100.04,-93.3839 86.6565,-82.0081"/>
<polygon fill="midnightblue" stroke="midnightblue" points="88.8969,-79.3188 79.0107,-75.5091 84.3633,-84.6524 88.8969,-79.3188"/>
</g>
<!-- Node6&#45;&gt;Node5 -->
<g id="edge8" class="edge"><title>Node6&#45;&gt;Node5</title>
<path fill="none" stroke="midnightblue" d="M150.032,-117.975C162.268,-108.52 182.229,-93.0961 196.993,-81.6871"/>
<polygon fill="midnightblue" stroke="midnightblue" points="199.215,-84.3931 204.988,-75.5091 194.935,-78.8541 199.215,-84.3931"/>
</g>
<!-- Node7&#45;&gt;Node2 -->
<g id="edge10" class="edge"><title>Node7&#45;&gt;Node2</title>
<path fill="none" stroke="midnightblue" d="M322.897,-137.009C324.73,-145.398 325.203,-158.496 324.317,-169.317"/>
<polygon fill="midnightblue" stroke="midnightblue" points="320.815,-169.088 322.901,-179.475 327.748,-170.054 320.815,-169.088"/>
</g>
<!-- Node8&#45;&gt;Node2 -->
<g id="edge13" class="edge"><title>Node8&#45;&gt;Node2</title>
<path fill="none" stroke="midnightblue" d="M446.304,-137.009C423.945,-147.164 382.894,-164.22 353.145,-175.782"/>
<polygon fill="midnightblue" stroke="midnightblue" points="351.612,-172.622 343.532,-179.475 354.122,-179.156 351.612,-172.622"/>
</g>
<!-- Node10&#45;&gt;Node2 -->
<g id="edge16" class="edge"><title>Node10&#45;&gt;Node2</title>
<path fill="none" stroke="midnightblue" d="M675.622,-142.557C674.743,-142.707 673.869,-142.855 673,-143 580.698,-158.407 473.798,-171.606 401.553,-179.652"/>
<polygon fill="midnightblue" stroke="midnightblue" points="401.149,-176.175 391.594,-180.752 401.918,-183.132 401.149,-176.175"/>
</g>
<!-- Node11&#45;&gt;Node2 -->
<g id="edge18" class="edge"><title>Node11&#45;&gt;Node2</title>
<path fill="none" stroke="midnightblue" d="M213.467,-235.399C236.351,-225.461 266.734,-212.265 288.844,-202.662"/>
<polygon fill="midnightblue" stroke="midnightblue" points="290.287,-205.852 298.065,-198.658 287.499,-199.431 290.287,-205.852"/>
</g>
<!-- Node12&#45;&gt;Node2 -->
<g id="edge20" class="edge"><title>Node12&#45;&gt;Node2</title>
<path fill="none" stroke="midnightblue" d="M318,-235.399C318,-227.466 318,-217.458 318,-208.858"/>
<polygon fill="midnightblue" stroke="midnightblue" points="321.5,-208.658 318,-198.658 314.5,-208.658 321.5,-208.658"/>
</g>
<!-- Node13&#45;&gt;Node2 -->
<g id="edge22" class="edge"><title>Node13&#45;&gt;Node2</title>
<path fill="none" stroke="midnightblue" d="M422.533,-235.399C399.649,-225.461 369.266,-212.265 347.156,-202.662"/>
<polygon fill="midnightblue" stroke="midnightblue" points="348.501,-199.431 337.935,-198.658 345.713,-205.852 348.501,-199.431"/>
</g>
<!-- Node14&#45;&gt;Node2 -->
<g id="edge24" class="edge"><title>Node14&#45;&gt;Node2</title>
<path fill="none" stroke="midnightblue" d="M532.747,-236.295C483.033,-225.578 413.837,-210.66 367.563,-200.685"/>
<polygon fill="midnightblue" stroke="midnightblue" points="368.277,-197.258 357.764,-198.572 366.802,-204.101 368.277,-197.258"/>
</g>
<!-- Node15&#45;&gt;Node2 -->
<g id="edge26" class="edge"><title>Node15&#45;&gt;Node2</title>
<path fill="none" stroke="midnightblue" d="M673.215,-236.639C670.103,-236.063 667.017,-235.512 664,-235 574.919,-219.871 472.179,-207.094 401.94,-199.066"/>
<polygon fill="midnightblue" stroke="midnightblue" points="402.15,-195.567 391.819,-197.916 401.36,-202.522 402.15,-195.567"/>
</g>
</g>
</svg>
        <g id="navigator" transform="translate(0 0)" fill="#404254">
                <rect fill="#f2f5e9" fill-opacity="0.5" stroke="#606060" stroke-width=".5" x="0" y="0" width="60" height="60"/>
                <use id="zoomplus" xlink:href="#zoomPlus" x="17" y="9" onmousedown="handleZoom(evt,'in')"/>
                <use id="zoomminus" xlink:href="#zoomMin" x="42" y="9" onmousedown="handleZoom(evt,'out')"/>
                <use id="reset" xlink:href="#resetDef" x="30" y="36" onmousedown="handleReset()"/>
                <g id="arrowUp" xlink:href="#dirArrow" transform="translate(30 24)" onmousedown="handlePan(0,-1)">
                  <use xlink:href="#rim" fill="#404040">
                        <set attributeName="fill" to="#808080" begin="arrowUp.mouseover" end="arrowUp.mouseout"/>
                  </use>
                  <path fill="none" stroke="white" stroke-width="1.5" d="M0,-3.0v7 M-2.5,-0.5L0,-3.0L2.5,-0.5"/>
                </g>
                <g id="arrowRight" xlink:href="#dirArrow" transform="rotate(90) translate(36 -43)" onmousedown="handlePan(1,0)">
                  <use xlink:href="#rim" fill="#404040">
                        <set attributeName="fill" to="#808080" begin="arrowRight.mouseover" end="arrowRight.mouseout"/>
                  </use>
                  <path fill="none" stroke="white" stroke-width="1.5" d="M0,-3.0v7 M-2.5,-0.5L0,-3.0L2.5,-0.5"/>
                </g>
                <g id="arrowDown" xlink:href="#dirArrow" transform="rotate(180) translate(-30 -48)" onmousedown="handlePan(0,1)">
                  <use xlink:href="#rim" fill="#404040">
                        <set attributeName="fill" to="#808080" begin="arrowDown.mouseover" end="arrowDown.mouseout"/>
                  </use>
                  <path fill="none" stroke="white" stroke-width="1.5" d="M0,-3.0v7 M-2.5,-0.5L0,-3.0L2.5,-0.5"/>
                </g>
                <g id="arrowLeft" xlink:href="#dirArrow" transform="rotate(270) translate(-36 17)" onmousedown="handlePan(-1,0)">
                  <use xlink:href="#rim" fill="#404040">
                        <set attributeName="fill" to="#808080" begin="arrowLeft.mouseover" end="arrowLeft.mouseout"/>
                  </use>
                  <path fill="none" stroke="white" stroke-width="1.5" d="M0,-3.0v7 M-2.5,-0.5L0,-3.0L2.5,-0.5"/>
                </g>
        </g>
        <svg viewBox="0 0 15 15" width="100%" height="30px" preserveAspectRatio="xMaxYMin meet">
         <g id="arrow_out" transform="scale(0.3 0.3)">
          <a xlink:href="constraints_8h__incl_org.svg" target="_base">
           <rect id="button" ry="5" rx="5" y="6" x="6" height="38" width="38"
                fill="#f2f5e9" fill-opacity="0.5" stroke="#606060" stroke-width="1.0"/>
           <path id="arrow"
             d="M 11.500037,31.436501 C 11.940474,20.09759 22.043105,11.32322 32.158766,21.979434 L 37.068811,17.246167 C 37.068811,17.246167 37.088388,32 37.088388,32 L 22.160133,31.978069 C 22.160133,31.978069 26.997745,27.140456 26.997745,27.140456 C 18.528582,18.264221 13.291696,25.230495 11.500037,31.436501 z"
             style="fill:#404040;"/>
          </a>
         </g>
        </svg>
</svg>
