<?xml version="1.0" encoding="UTF-8" standalone="no"?>
<!DOCTYPE svg PUBLIC "-//W3C//DTD SVG 1.1//EN"
 "http://www.w3.org/Graphics/SVG/1.1/DTD/svg11.dtd">
<!-- Generated by graphviz version 2.38.0 (20140413.2041)
 -->
<!-- Title: ViennaRNA/dp_matrices.h Pages: 1 -->
<svg width="1098pt" height="274pt"
 viewBox="0.00 0.00 1097.50 274.00" xmlns="http://www.w3.org/2000/svg" xmlns:xlink="http://www.w3.org/1999/xlink">
<g id="graph0" class="graph" transform="scale(1 1) rotate(0) translate(4 270)">
<title>ViennaRNA/dp_matrices.h</title>
<!-- Node1 -->
<g id="node1" class="node"><title>Node1</title>
<polygon fill="#bfbfbf" stroke="black" points="478.5,-246.5 478.5,-265.5 611.5,-265.5 611.5,-246.5 478.5,-246.5"/>
<text text-anchor="middle" x="545" y="-253.5" font-family="Helvetica,sans-Serif" font-size="10.00">ViennaRNA/dp_matrices.h</text>
</g>
<!-- Node2 -->
<g id="node2" class="node"><title>Node2</title>
<g id="a_node2"><a xlink:href="data__structures_8h.html" target="_top" xlink:title="Various data structures and pre&#45;processor macros. ">
<polygon fill="none" stroke="black" points="471.5,-190.5 471.5,-209.5 618.5,-209.5 618.5,-190.5 471.5,-190.5"/>
<text text-anchor="middle" x="545" y="-197.5" font-family="Helvetica,sans-Serif" font-size="10.00">ViennaRNA/data_structures.h</text>
</a>
</g>
</g>
<!-- Node1&#45;&gt;Node2 -->
<g id="edge1" class="edge"><title>Node1&#45;&gt;Node2</title>
<path fill="none" stroke="midnightblue" d="M539.834,-246.083C538.324,-238.927 537.894,-228.635 538.542,-219.691"/>
<polygon fill="midnightblue" stroke="midnightblue" points="542.015,-220.126 539.869,-209.751 535.077,-219.2 542.015,-220.126"/>
</g>
<!-- Node2&#45;&gt;Node1 -->
<g id="edge9" class="edge"><title>Node2&#45;&gt;Node1</title>
<path fill="none" stroke="midnightblue" d="M550.131,-209.751C551.657,-216.858 552.104,-227.136 551.472,-236.101"/>
<polygon fill="midnightblue" stroke="midnightblue" points="547.993,-235.713 550.166,-246.083 554.934,-236.622 547.993,-235.713"/>
</g>
<!-- Node3 -->
<g id="node3" class="node"><title>Node3</title>
<g id="a_node3"><a xlink:href="energy__const_8h.html" target="_top" xlink:title="Energy parameter constants. ">
<polygon fill="none" stroke="black" points="0,-62 0,-81 138,-81 138,-62 0,-62"/>
<text text-anchor="middle" x="69" y="-69" font-family="Helvetica,sans-Serif" font-size="10.00">ViennaRNA/energy_const.h</text>
</a>
</g>
</g>
<!-- Node2&#45;&gt;Node3 -->
<g id="edge2" class="edge"><title>Node2&#45;&gt;Node3</title>
<path fill="none" stroke="midnightblue" d="M471.49,-196.714C372.245,-192.612 201.431,-181.674 146,-154 116.665,-139.355 92.5986,-108.699 79.5669,-89.4418"/>
<polygon fill="midnightblue" stroke="midnightblue" points="82.4733,-87.491 74.0813,-81.0238 76.6086,-91.3128 82.4733,-87.491"/>
</g>
<!-- Node5 -->
<g id="node5" class="node"><title>Node5</title>
<g id="a_node5"><a xlink:href="model_8h.html" target="_top" xlink:title="The model details data structure and its corresponding modifiers. ">
<polygon fill="none" stroke="black" points="156,-62 156,-81 262,-81 262,-62 156,-62"/>
<text text-anchor="middle" x="209" y="-69" font-family="Helvetica,sans-Serif" font-size="10.00">ViennaRNA/model.h</text>
</a>
</g>
</g>
<!-- Node2&#45;&gt;Node5 -->
<g id="edge4" class="edge"><title>Node2&#45;&gt;Node5</title>
<path fill="none" stroke="midnightblue" d="M505.46,-190.427C471.423,-182.543 421.263,-169.709 379,-154 325.618,-134.157 266.266,-103.637 233.721,-86.1213"/>
<polygon fill="midnightblue" stroke="midnightblue" points="234.977,-82.8207 224.518,-81.129 231.639,-88.9737 234.977,-82.8207"/>
</g>
<!-- Node6 -->
<g id="node6" class="node"><title>Node6</title>
<g id="a_node6"><a xlink:href="params_8h.html" target="_top" xlink:title="Functions to deal with sets of energy parameters. ">
<polygon fill="none" stroke="black" points="155,-129 155,-148 267,-148 267,-129 155,-129"/>
<text text-anchor="middle" x="211" y="-136" font-family="Helvetica,sans-Serif" font-size="10.00">ViennaRNA/params.h</text>
</a>
</g>
</g>
<!-- Node2&#45;&gt;Node6 -->
<g id="edge5" class="edge"><title>Node2&#45;&gt;Node6</title>
<path fill="none" stroke="midnightblue" d="M487.108,-190.495C432.406,-181.685 348.417,-167.36 276,-154 269.167,-152.739 261.986,-151.378 254.975,-150.012"/>
<polygon fill="midnightblue" stroke="midnightblue" points="255.375,-146.524 244.887,-148.019 254.019,-153.391 255.375,-146.524"/>
</g>
<!-- Node7 -->
<g id="node7" class="node"><title>Node7</title>
<g id="a_node7"><a xlink:href="constraints_8h.html" target="_top" xlink:title="Functions and data structures for constraining secondary structure predictions and evaluation...">
<polygon fill="none" stroke="black" points="435,-129 435,-148 563,-148 563,-129 435,-129"/>
<text text-anchor="middle" x="499" y="-136" font-family="Helvetica,sans-Serif" font-size="10.00">ViennaRNA/constraints.h</text>
</a>
</g>
</g>
<!-- Node2&#45;&gt;Node7 -->
<g id="edge10" class="edge"><title>Node2&#45;&gt;Node7</title>
<path fill="none" stroke="midnightblue" d="M533.509,-190.475C524.837,-181.727 513.692,-167.869 506.187,-156.809"/>
<polygon fill="midnightblue" stroke="midnightblue" points="508.952,-154.631 500.681,-148.009 503.018,-158.343 508.952,-154.631"/>
</g>
<!-- Node13 -->
<g id="node13" class="node"><title>Node13</title>
<g id="a_node13"><a xlink:href="grammar_8h.html" target="_top" xlink:title="Implementations for the RNA folding grammar. ">
<polygon fill="none" stroke="black" points="695,-129 695,-148 813,-148 813,-129 695,-129"/>
<text text-anchor="middle" x="754" y="-136" font-family="Helvetica,sans-Serif" font-size="10.00">ViennaRNA/grammar.h</text>
</a>
</g>
</g>
<!-- Node2&#45;&gt;Node13 -->
<g id="edge22" class="edge"><title>Node2&#45;&gt;Node13</title>
<path fill="none" stroke="midnightblue" d="M570.044,-190.475C604.542,-180.004 666.869,-162.212 709.393,-150.66"/>
<polygon fill="midnightblue" stroke="midnightblue" points="710.471,-153.994 719.214,-148.009 708.647,-147.236 710.471,-153.994"/>
</g>
<!-- Node14 -->
<g id="node14" class="node"><title>Node14</title>
<g id="a_node14"><a xlink:href="structured__domains_8h.html" target="_top" xlink:title="This module provides interfaces that deal with additional structured domains in the folding grammar...">
<polygon fill="none" stroke="black" points="831.5,-123.5 831.5,-153.5 946.5,-153.5 946.5,-123.5 831.5,-123.5"/>
<text text-anchor="start" x="839.5" y="-141.5" font-family="Helvetica,sans-Serif" font-size="10.00">ViennaRNA/structured</text>
<text text-anchor="middle" x="889" y="-130.5" font-family="Helvetica,sans-Serif" font-size="10.00">_domains.h</text>
</a>
</g>
</g>
<!-- Node2&#45;&gt;Node14 -->
<g id="edge24" class="edge"><title>Node2&#45;&gt;Node14</title>
<path fill="none" stroke="midnightblue" d="M602.982,-190.48C656.939,-182.347 739.818,-169.338 821.36,-154.062"/>
<polygon fill="midnightblue" stroke="midnightblue" points="822.117,-157.481 831.295,-152.188 820.82,-150.602 822.117,-157.481"/>
</g>
<!-- Node15 -->
<g id="node15" class="node"><title>Node15</title>
<g id="a_node15"><a xlink:href="unstructured__domains_8h.html" target="_top" xlink:title="Functions to modify unstructured domains, e.g. to incorporate ligands binding to unpaired stretches...">
<polygon fill="none" stroke="black" points="964.5,-123.5 964.5,-153.5 1089.5,-153.5 1089.5,-123.5 964.5,-123.5"/>
<text text-anchor="start" x="972.5" y="-141.5" font-family="Helvetica,sans-Serif" font-size="10.00">ViennaRNA/unstructured</text>
<text text-anchor="middle" x="1027" y="-130.5" font-family="Helvetica,sans-Serif" font-size="10.00">_domains.h</text>
</a>
</g>
</g>
<!-- Node2&#45;&gt;Node15 -->
<g id="edge25" class="edge"><title>Node2&#45;&gt;Node15</title>
<path fill="none" stroke="midnightblue" d="M618.859,-192.391C699.699,-185.062 832.823,-171.87 947,-154 949.36,-153.631 951.76,-153.236 954.185,-152.823"/>
<polygon fill="midnightblue" stroke="midnightblue" points="955.027,-156.228 964.258,-151.029 953.8,-149.337 955.027,-156.228"/>
</g>
<!-- Node4 -->
<g id="node4" class="node"><title>Node4</title>
<polygon fill="none" stroke="#bfbfbf" points="45,-0.5 45,-19.5 93,-19.5 93,-0.5 45,-0.5"/>
<text text-anchor="middle" x="69" y="-7.5" font-family="Helvetica,sans-Serif" font-size="10.00">limits.h</text>
</g>
<!-- Node3&#45;&gt;Node4 -->
<g id="edge3" class="edge"><title>Node3&#45;&gt;Node4</title>
<path fill="none" stroke="midnightblue" d="M69,-61.9751C69,-53.5803 69,-40.4806 69,-29.6631"/>
<polygon fill="midnightblue" stroke="midnightblue" points="72.5001,-29.5091 69,-19.5091 65.5001,-29.5091 72.5001,-29.5091"/>
</g>
<!-- Node6&#45;&gt;Node2 -->
<g id="edge7" class="edge"><title>Node6&#45;&gt;Node2</title>
<path fill="none" stroke="midnightblue" d="M262.358,-148.019C272.889,-150.024 283.829,-152.124 294,-154 361.645,-166.48 439.385,-179.801 490.29,-188.683"/>
<polygon fill="midnightblue" stroke="midnightblue" points="489.963,-192.179 500.416,-190.454 491.169,-185.284 489.963,-192.179"/>
</g>
<!-- Node6&#45;&gt;Node3 -->
<g id="edge6" class="edge"><title>Node6&#45;&gt;Node3</title>
<path fill="none" stroke="midnightblue" d="M192.143,-128.869C167.849,-117.748 125.399,-98.3167 97.2441,-85.4286"/>
<polygon fill="midnightblue" stroke="midnightblue" points="98.4839,-82.147 87.9345,-81.1672 95.5704,-88.5118 98.4839,-82.147"/>
</g>
<!-- Node6&#45;&gt;Node5 -->
<g id="edge8" class="edge"><title>Node6&#45;&gt;Node5</title>
<path fill="none" stroke="midnightblue" d="M210.73,-128.734C210.436,-119.183 209.957,-103.618 209.578,-91.2829"/>
<polygon fill="midnightblue" stroke="midnightblue" points="213.071,-91.0149 209.265,-81.1273 206.075,-91.2302 213.071,-91.0149"/>
</g>
<!-- Node7&#45;&gt;Node2 -->
<g id="edge11" class="edge"><title>Node7&#45;&gt;Node2</title>
<path fill="none" stroke="midnightblue" d="M510.476,-148.009C519.144,-156.751 530.29,-170.608 537.8,-181.671"/>
<polygon fill="midnightblue" stroke="midnightblue" points="535.038,-183.855 543.31,-190.475 540.972,-180.141 535.038,-183.855"/>
</g>
<!-- Node8 -->
<g id="node8" class="node"><title>Node8</title>
<g id="a_node8"><a xlink:href="constraints__hard_8h.html" target="_top" xlink:title="Functions and data structures for handling of secondary structure hard constraints. ">
<polygon fill="none" stroke="black" points="280.5,-56.5 280.5,-86.5 399.5,-86.5 399.5,-56.5 280.5,-56.5"/>
<text text-anchor="start" x="288.5" y="-74.5" font-family="Helvetica,sans-Serif" font-size="10.00">ViennaRNA/constraints</text>
<text text-anchor="middle" x="340" y="-63.5" font-family="Helvetica,sans-Serif" font-size="10.00">_hard.h</text>
</a>
</g>
</g>
<!-- Node7&#45;&gt;Node8 -->
<g id="edge12" class="edge"><title>Node7&#45;&gt;Node8</title>
<path fill="none" stroke="midnightblue" d="M477.886,-128.869C454.027,-119.115 414.533,-102.97 383.913,-90.452"/>
<polygon fill="midnightblue" stroke="midnightblue" points="384.896,-87.0724 374.315,-86.5281 382.247,-93.5519 384.896,-87.0724"/>
</g>
<!-- Node9 -->
<g id="node9" class="node"><title>Node9</title>
<g id="a_node9"><a xlink:href="constraints__soft_8h.html" target="_top" xlink:title="Functions and data structures for secondary structure soft constraints. ">
<polygon fill="none" stroke="black" points="417.5,-56.5 417.5,-86.5 536.5,-86.5 536.5,-56.5 417.5,-56.5"/>
<text text-anchor="start" x="425.5" y="-74.5" font-family="Helvetica,sans-Serif" font-size="10.00">ViennaRNA/constraints</text>
<text text-anchor="middle" x="477" y="-63.5" font-family="Helvetica,sans-Serif" font-size="10.00">_soft.h</text>
</a>
</g>
</g>
<!-- Node7&#45;&gt;Node9 -->
<g id="edge14" class="edge"><title>Node7&#45;&gt;Node9</title>
<path fill="none" stroke="midnightblue" d="M496.033,-128.734C493.231,-120.456 488.901,-107.662 485.078,-96.3674"/>
<polygon fill="midnightblue" stroke="midnightblue" points="488.29,-94.9391 481.769,-86.589 481.659,-97.1833 488.29,-94.9391"/>
</g>
<!-- Node10 -->
<g id="node10" class="node"><title>Node10</title>
<g id="a_node10"><a xlink:href="constraints__SHAPE_8h.html" target="_top" xlink:title="This module provides function to incorporate SHAPE reactivity data into the folding recursions by mea...">
<polygon fill="none" stroke="black" points="554.5,-56.5 554.5,-86.5 673.5,-86.5 673.5,-56.5 554.5,-56.5"/>
<text text-anchor="start" x="562.5" y="-74.5" font-family="Helvetica,sans-Serif" font-size="10.00">ViennaRNA/constraints</text>
<text text-anchor="middle" x="614" y="-63.5" font-family="Helvetica,sans-Serif" font-size="10.00">_SHAPE.h</text>
</a>
</g>
</g>
<!-- Node7&#45;&gt;Node10 -->
<g id="edge16" class="edge"><title>Node7&#45;&gt;Node10</title>
<path fill="none" stroke="midnightblue" d="M514.509,-128.734C531.247,-119.274 558.421,-103.914 580.144,-91.6362"/>
<polygon fill="midnightblue" stroke="midnightblue" points="582.09,-94.5566 589.073,-86.589 578.645,-88.4627 582.09,-94.5566"/>
</g>
<!-- Node11 -->
<g id="node11" class="node"><title>Node11</title>
<g id="a_node11"><a xlink:href="perturbation__fold_8h.html" target="_top" xlink:title="Find a vector of perturbation energies that minimizes the discripancies between predicted and observe...">
<polygon fill="none" stroke="black" points="692,-56.5 692,-86.5 814,-86.5 814,-56.5 692,-56.5"/>
<text text-anchor="start" x="700" y="-74.5" font-family="Helvetica,sans-Serif" font-size="10.00">ViennaRNA/perturbation</text>
<text text-anchor="middle" x="753" y="-63.5" font-family="Helvetica,sans-Serif" font-size="10.00">_fold.h</text>
</a>
</g>
</g>
<!-- Node7&#45;&gt;Node11 -->
<g id="edge18" class="edge"><title>Node7&#45;&gt;Node11</title>
<path fill="none" stroke="midnightblue" d="M532.467,-128.936C571.996,-118.82 638.653,-101.762 688.359,-89.042"/>
<polygon fill="midnightblue" stroke="midnightblue" points="689.241,-92.4291 698.061,-86.5592 687.506,-85.6477 689.241,-92.4291"/>
</g>
<!-- Node12 -->
<g id="node12" class="node"><title>Node12</title>
<g id="a_node12"><a xlink:href="constraints__ligand_8h.html" target="_top" xlink:title="Functions for incorporation of ligands binding to hairpin and interior loop motifs using the soft con...">
<polygon fill="none" stroke="black" points="832.5,-56.5 832.5,-86.5 951.5,-86.5 951.5,-56.5 832.5,-56.5"/>
<text text-anchor="start" x="840.5" y="-74.5" font-family="Helvetica,sans-Serif" font-size="10.00">ViennaRNA/constraints</text>
<text text-anchor="middle" x="892" y="-63.5" font-family="Helvetica,sans-Serif" font-size="10.00">_ligand.h</text>
</a>
</g>
</g>
<!-- Node7&#45;&gt;Node12 -->
<g id="edge20" class="edge"><title>Node7&#45;&gt;Node12</title>
<path fill="none" stroke="midnightblue" d="M560.071,-128.957C623.159,-119.912 724.699,-104.742 822.172,-87.0943"/>
<polygon fill="midnightblue" stroke="midnightblue" points="822.988,-90.5034 832.199,-85.2675 821.733,-83.6168 822.988,-90.5034"/>
</g>
<!-- Node8&#45;&gt;Node2 -->
<g id="edge13" class="edge"><title>Node8&#45;&gt;Node2</title>
<path fill="none" stroke="midnightblue" d="M350.073,-86.5338C363.633,-104.496 389.382,-135.498 418,-154 441.998,-169.516 472.015,-180.471 496.839,-187.685"/>
<polygon fill="midnightblue" stroke="midnightblue" points="496.203,-191.141 506.776,-190.455 498.083,-184.398 496.203,-191.141"/>
</g>
<!-- Node9&#45;&gt;Node2 -->
<g id="edge15" class="edge"><title>Node9&#45;&gt;Node2</title>
<path fill="none" stroke="midnightblue" d="M457.413,-86.5921C437.005,-103.04 410.06,-130.93 426,-154 437.227,-170.248 455.128,-180.636 473.672,-187.275"/>
<polygon fill="midnightblue" stroke="midnightblue" points="472.804,-190.672 483.396,-190.416 474.956,-184.011 472.804,-190.672"/>
</g>
<!-- Node10&#45;&gt;Node2 -->
<g id="edge17" class="edge"><title>Node10&#45;&gt;Node2</title>
<path fill="none" stroke="midnightblue" d="M606.99,-86.7814C598.866,-103.17 584.934,-130.776 572,-154 566.839,-163.268 560.787,-173.415 555.722,-181.723"/>
<polygon fill="midnightblue" stroke="midnightblue" points="552.6,-180.118 550.343,-190.47 558.563,-183.785 552.6,-180.118"/>
</g>
<!-- Node11&#45;&gt;Node2 -->
<g id="edge19" class="edge"><title>Node11&#45;&gt;Node2</title>
<path fill="none" stroke="midnightblue" d="M722.187,-86.6269C702.093,-96.1862 675.515,-109.491 653,-123 620.66,-142.404 585.288,-168.252 564.134,-184.25"/>
<polygon fill="midnightblue" stroke="midnightblue" points="561.822,-181.611 555.989,-190.456 566.064,-187.179 561.822,-181.611"/>
</g>
<!-- Node12&#45;&gt;Node2 -->
<g id="edge21" class="edge"><title>Node12&#45;&gt;Node2</title>
<path fill="none" stroke="midnightblue" d="M832.432,-85.8099C776.445,-98.5292 699.302,-116.674 686,-123 665.369,-132.811 664.651,-142.35 645,-154 623.327,-166.848 597.337,-178.439 577.285,-186.638"/>
<polygon fill="midnightblue" stroke="midnightblue" points="575.939,-183.407 567.964,-190.382 578.548,-189.903 575.939,-183.407"/>
</g>
<!-- Node13&#45;&gt;Node2 -->
<g id="edge23" class="edge"><title>Node13&#45;&gt;Node2</title>
<path fill="none" stroke="midnightblue" d="M729.008,-148.009C694.538,-158.473 632.215,-176.264 589.671,-187.822"/>
<polygon fill="midnightblue" stroke="midnightblue" points="588.587,-184.49 579.845,-190.475 590.412,-191.248 588.587,-184.49"/>
</g>
<!-- Node15&#45;&gt;Node2 -->
<g id="edge26" class="edge"><title>Node15&#45;&gt;Node2</title>
<path fill="none" stroke="midnightblue" d="M968.003,-153.52C966.996,-153.684 965.994,-153.844 965,-154 849.15,-172.132 713.794,-185.447 628.661,-192.71"/>
<polygon fill="midnightblue" stroke="midnightblue" points="628.203,-189.236 618.533,-193.565 628.792,-196.211 628.203,-189.236"/>
</g>
</g>
</svg>
