<?xml version="1.0" encoding="UTF-8" standalone="no"?>
<!DOCTYPE svg PUBLIC "-//W3C//DTD SVG 1.1//EN"
 "http://www.w3.org/Graphics/SVG/1.1/DTD/svg11.dtd">
<!-- Generated by graphviz version 2.38.0 (20140413.2041)
 -->
<!-- Title: ViennaRNA/file_formats.h Pages: 1 -->
<svg width="1162pt" height="285pt"
 viewBox="0.00 0.00 1162.00 285.00" xmlns="http://www.w3.org/2000/svg" xmlns:xlink="http://www.w3.org/1999/xlink">
<g id="graph0" class="graph" transform="scale(1 1) rotate(0) translate(4 281)">
<title>ViennaRNA/file_formats.h</title>
<!-- Node1 -->
<g id="node1" class="node"><title>Node1</title>
<polygon fill="#bfbfbf" stroke="black" points="46.5,-257.5 46.5,-276.5 177.5,-276.5 177.5,-257.5 46.5,-257.5"/>
<text text-anchor="middle" x="112" y="-264.5" font-family="Helvetica,sans-Serif" font-size="10.00">ViennaRNA/file_formats.h</text>
</g>
<!-- Node2 -->
<g id="node2" class="node"><title>Node2</title>
<polygon fill="none" stroke="#bfbfbf" points="0,-129 0,-148 46,-148 46,-129 0,-129"/>
<text text-anchor="middle" x="23" y="-136" font-family="Helvetica,sans-Serif" font-size="10.00">stdio.h</text>
</g>
<!-- Node1&#45;&gt;Node2 -->
<g id="edge1" class="edge"><title>Node1&#45;&gt;Node2</title>
<path fill="none" stroke="midnightblue" d="M90.4134,-257.459C74.64,-250.114 53.9904,-238.001 42,-221 28.8804,-202.397 24.7029,-176.037 23.4362,-158.383"/>
<polygon fill="midnightblue" stroke="midnightblue" points="26.9238,-158.034 22.9595,-148.208 19.9315,-158.361 26.9238,-158.034"/>
</g>
<!-- Node3 -->
<g id="node3" class="node"><title>Node3</title>
<g id="a_node3"><a xlink:href="data__structures_8h.html" target="_top" xlink:title="Various data structures and pre&#45;processor macros. ">
<polygon fill="none" stroke="black" points="450.5,-196 450.5,-215 597.5,-215 597.5,-196 450.5,-196"/>
<text text-anchor="middle" x="524" y="-203" font-family="Helvetica,sans-Serif" font-size="10.00">ViennaRNA/data_structures.h</text>
</a>
</g>
</g>
<!-- Node1&#45;&gt;Node3 -->
<g id="edge2" class="edge"><title>Node1&#45;&gt;Node3</title>
<path fill="none" stroke="midnightblue" d="M171.03,-257.475C246.138,-246.628 375.637,-227.926 455.159,-216.442"/>
<polygon fill="midnightblue" stroke="midnightblue" points="455.683,-219.903 465.08,-215.009 454.682,-212.974 455.683,-219.903"/>
</g>
<!-- Node18 -->
<g id="node18" class="node"><title>Node18</title>
<g id="a_node18"><a xlink:href="file__formats__msa_8h.html" target="_top" xlink:title="Functions dealing with file formats for Multiple Sequence Alignments (MSA) ">
<polygon fill="none" stroke="black" points="51,-190.5 51,-220.5 173,-220.5 173,-190.5 51,-190.5"/>
<text text-anchor="start" x="59" y="-208.5" font-family="Helvetica,sans-Serif" font-size="10.00">ViennaRNA/file_formats</text>
<text text-anchor="middle" x="112" y="-197.5" font-family="Helvetica,sans-Serif" font-size="10.00">_msa.h</text>
</a>
</g>
</g>
<!-- Node1&#45;&gt;Node18 -->
<g id="edge29" class="edge"><title>Node1&#45;&gt;Node18</title>
<path fill="none" stroke="midnightblue" d="M112,-257.475C112,-250.471 112,-240.192 112,-230.696"/>
<polygon fill="midnightblue" stroke="midnightblue" points="115.5,-230.523 112,-220.523 108.5,-230.523 115.5,-230.523"/>
</g>
<!-- Node4 -->
<g id="node4" class="node"><title>Node4</title>
<g id="a_node4"><a xlink:href="energy__const_8h.html" target="_top" xlink:title="Energy parameter constants. ">
<polygon fill="none" stroke="black" points="819,-62 819,-81 957,-81 957,-62 819,-62"/>
<text text-anchor="middle" x="888" y="-69" font-family="Helvetica,sans-Serif" font-size="10.00">ViennaRNA/energy_const.h</text>
</a>
</g>
</g>
<!-- Node3&#45;&gt;Node4 -->
<g id="edge3" class="edge"><title>Node3&#45;&gt;Node4</title>
<path fill="none" stroke="midnightblue" d="M527.313,-195.878C534.348,-178.835 552.505,-140.935 581,-123 617.914,-99.7664 730.432,-85.749 808.474,-78.566"/>
<polygon fill="midnightblue" stroke="midnightblue" points="809.121,-82.022 818.767,-77.6397 808.493,-75.0502 809.121,-82.022"/>
</g>
<!-- Node6 -->
<g id="node6" class="node"><title>Node6</title>
<g id="a_node6"><a xlink:href="model_8h.html" target="_top" xlink:title="The model details data structure and its corresponding modifiers. ">
<polygon fill="none" stroke="black" points="1048,-62 1048,-81 1154,-81 1154,-62 1048,-62"/>
<text text-anchor="middle" x="1101" y="-69" font-family="Helvetica,sans-Serif" font-size="10.00">ViennaRNA/model.h</text>
</a>
</g>
</g>
<!-- Node3&#45;&gt;Node6 -->
<g id="edge5" class="edge"><title>Node3&#45;&gt;Node6</title>
<path fill="none" stroke="midnightblue" d="M597.624,-203.755C750.065,-201.446 1089.02,-192.044 1124,-154 1140.27,-136.304 1126.38,-107.968 1114.21,-89.8011"/>
<polygon fill="midnightblue" stroke="midnightblue" points="1116.83,-87.4481 1108.18,-81.3381 1111.13,-91.5122 1116.83,-87.4481"/>
</g>
<!-- Node7 -->
<g id="node7" class="node"><title>Node7</title>
<g id="a_node7"><a xlink:href="params_8h.html" target="_top" xlink:title="Functions to deal with sets of energy parameters. ">
<polygon fill="none" stroke="black" points="1003,-129 1003,-148 1115,-148 1115,-129 1003,-129"/>
<text text-anchor="middle" x="1059" y="-136" font-family="Helvetica,sans-Serif" font-size="10.00">ViennaRNA/params.h</text>
</a>
</g>
</g>
<!-- Node3&#45;&gt;Node7 -->
<g id="edge6" class="edge"><title>Node3&#45;&gt;Node7</title>
<path fill="none" stroke="midnightblue" d="M597.748,-198.645C689.061,-191.155 848.961,-176.409 985,-154 991.592,-152.914 998.519,-151.58 1005.4,-150.164"/>
<polygon fill="midnightblue" stroke="midnightblue" points="1006.34,-153.543 1015.4,-148.052 1004.89,-146.694 1006.34,-153.543"/>
</g>
<!-- Node8 -->
<g id="node8" class="node"><title>Node8</title>
<g id="a_node8"><a xlink:href="dp__matrices_8h.html" target="_top" xlink:title="Functions to deal with standard dynamic programming (DP) matrices. ">
<polygon fill="none" stroke="black" points="102.5,-129 102.5,-148 235.5,-148 235.5,-129 102.5,-129"/>
<text text-anchor="middle" x="169" y="-136" font-family="Helvetica,sans-Serif" font-size="10.00">ViennaRNA/dp_matrices.h</text>
</a>
</g>
</g>
<!-- Node3&#45;&gt;Node8 -->
<g id="edge10" class="edge"><title>Node3&#45;&gt;Node8</title>
<path fill="none" stroke="midnightblue" d="M472.479,-195.936C405.196,-184.082 288.275,-162.696 220.839,-149.928"/>
<polygon fill="midnightblue" stroke="midnightblue" points="221.335,-146.459 210.858,-148.032 220.029,-153.336 221.335,-146.459"/>
</g>
<!-- Node9 -->
<g id="node9" class="node"><title>Node9</title>
<g id="a_node9"><a xlink:href="constraints_8h.html" target="_top" xlink:title="Functions and data structures for constraining secondary structure predictions and evaluation...">
<polygon fill="none" stroke="black" points="330,-129 330,-148 458,-148 458,-129 330,-129"/>
<text text-anchor="middle" x="394" y="-136" font-family="Helvetica,sans-Serif" font-size="10.00">ViennaRNA/constraints.h</text>
</a>
</g>
</g>
<!-- Node3&#45;&gt;Node9 -->
<g id="edge12" class="edge"><title>Node3&#45;&gt;Node9</title>
<path fill="none" stroke="midnightblue" d="M501.977,-195.869C477.794,-184.942 439.612,-165.993 415.608,-153.11"/>
<polygon fill="midnightblue" stroke="midnightblue" points="417.02,-149.893 406.567,-148.167 413.662,-156.035 417.02,-149.893"/>
</g>
<!-- Node15 -->
<g id="node15" class="node"><title>Node15</title>
<g id="a_node15"><a xlink:href="grammar_8h.html" target="_top" xlink:title="Implementations for the RNA folding grammar. ">
<polygon fill="none" stroke="black" points="590,-129 590,-148 708,-148 708,-129 590,-129"/>
<text text-anchor="middle" x="649" y="-136" font-family="Helvetica,sans-Serif" font-size="10.00">ViennaRNA/grammar.h</text>
</a>
</g>
</g>
<!-- Node3&#45;&gt;Node15 -->
<g id="edge24" class="edge"><title>Node3&#45;&gt;Node15</title>
<path fill="none" stroke="midnightblue" d="M536.07,-195.734C555.098,-184.623 591.864,-165.376 618.392,-152.539"/>
<polygon fill="midnightblue" stroke="midnightblue" points="620.128,-155.589 627.65,-148.127 617.117,-149.27 620.128,-155.589"/>
</g>
<!-- Node16 -->
<g id="node16" class="node"><title>Node16</title>
<g id="a_node16"><a xlink:href="structured__domains_8h.html" target="_top" xlink:title="This module provides interfaces that deal with additional structured domains in the folding grammar...">
<polygon fill="none" stroke="black" points="726.5,-123.5 726.5,-153.5 841.5,-153.5 841.5,-123.5 726.5,-123.5"/>
<text text-anchor="start" x="734.5" y="-141.5" font-family="Helvetica,sans-Serif" font-size="10.00">ViennaRNA/structured</text>
<text text-anchor="middle" x="784" y="-130.5" font-family="Helvetica,sans-Serif" font-size="10.00">_domains.h</text>
</a>
</g>
</g>
<!-- Node3&#45;&gt;Node16 -->
<g id="edge26" class="edge"><title>Node3&#45;&gt;Node16</title>
<path fill="none" stroke="midnightblue" d="M558.258,-195.936C598.721,-185.82 666.952,-168.762 717.832,-156.042"/>
<polygon fill="midnightblue" stroke="midnightblue" points="718.911,-159.38 727.763,-153.559 717.213,-152.589 718.911,-159.38"/>
</g>
<!-- Node17 -->
<g id="node17" class="node"><title>Node17</title>
<g id="a_node17"><a xlink:href="unstructured__domains_8h.html" target="_top" xlink:title="Functions to modify unstructured domains, e.g. to incorporate ligands binding to unpaired stretches...">
<polygon fill="none" stroke="black" points="859.5,-123.5 859.5,-153.5 984.5,-153.5 984.5,-123.5 859.5,-123.5"/>
<text text-anchor="start" x="867.5" y="-141.5" font-family="Helvetica,sans-Serif" font-size="10.00">ViennaRNA/unstructured</text>
<text text-anchor="middle" x="922" y="-130.5" font-family="Helvetica,sans-Serif" font-size="10.00">_domains.h</text>
</a>
</g>
</g>
<!-- Node3&#45;&gt;Node17 -->
<g id="edge27" class="edge"><title>Node3&#45;&gt;Node17</title>
<path fill="none" stroke="midnightblue" d="M577.874,-195.958C641.074,-186.51 748.669,-170.44 841,-154 843.674,-153.524 846.4,-153.027 849.159,-152.515"/>
<polygon fill="midnightblue" stroke="midnightblue" points="850.065,-155.906 859.243,-150.613 848.767,-149.027 850.065,-155.906"/>
</g>
<!-- Node5 -->
<g id="node5" class="node"><title>Node5</title>
<polygon fill="none" stroke="#bfbfbf" points="864,-0.5 864,-19.5 912,-19.5 912,-0.5 864,-0.5"/>
<text text-anchor="middle" x="888" y="-7.5" font-family="Helvetica,sans-Serif" font-size="10.00">limits.h</text>
</g>
<!-- Node4&#45;&gt;Node5 -->
<g id="edge4" class="edge"><title>Node4&#45;&gt;Node5</title>
<path fill="none" stroke="midnightblue" d="M888,-61.9751C888,-53.5803 888,-40.4806 888,-29.6631"/>
<polygon fill="midnightblue" stroke="midnightblue" points="891.5,-29.5091 888,-19.5091 884.5,-29.5091 891.5,-29.5091"/>
</g>
<!-- Node7&#45;&gt;Node3 -->
<g id="edge8" class="edge"><title>Node7&#45;&gt;Node3</title>
<path fill="none" stroke="midnightblue" d="M1032.72,-148.052C1023.37,-150.217 1012.81,-152.384 1003,-154 865.689,-176.619 704.068,-191.43 607.973,-198.853"/>
<polygon fill="midnightblue" stroke="midnightblue" points="607.438,-195.383 597.734,-199.635 607.972,-202.363 607.438,-195.383"/>
</g>
<!-- Node7&#45;&gt;Node4 -->
<g id="edge7" class="edge"><title>Node7&#45;&gt;Node4</title>
<path fill="none" stroke="midnightblue" d="M1036.29,-128.869C1006.44,-117.522 953.834,-97.5246 919.97,-84.6522"/>
<polygon fill="midnightblue" stroke="midnightblue" points="921.12,-81.3452 910.529,-81.0637 918.633,-87.8885 921.12,-81.3452"/>
</g>
<!-- Node7&#45;&gt;Node6 -->
<g id="edge9" class="edge"><title>Node7&#45;&gt;Node6</title>
<path fill="none" stroke="midnightblue" d="M1064.66,-128.734C1071.09,-118.793 1081.72,-102.338 1089.83,-89.7892"/>
<polygon fill="midnightblue" stroke="midnightblue" points="1092.94,-91.426 1095.43,-81.1273 1087.06,-87.627 1092.94,-91.426"/>
</g>
<!-- Node8&#45;&gt;Node3 -->
<g id="edge11" class="edge"><title>Node8&#45;&gt;Node3</title>
<path fill="none" stroke="midnightblue" d="M220.335,-148.032C287.526,-159.868 404.448,-181.253 471.975,-194.037"/>
<polygon fill="midnightblue" stroke="midnightblue" points="471.493,-197.508 481.971,-195.936 472.799,-190.631 471.493,-197.508"/>
</g>
<!-- Node9&#45;&gt;Node3 -->
<g id="edge13" class="edge"><title>Node9&#45;&gt;Node3</title>
<path fill="none" stroke="midnightblue" d="M416.014,-148.127C440.132,-159.024 478.182,-177.905 502.201,-190.787"/>
<polygon fill="midnightblue" stroke="midnightblue" points="500.802,-194.011 511.256,-195.734 504.158,-187.868 500.802,-194.011"/>
</g>
<!-- Node10 -->
<g id="node10" class="node"><title>Node10</title>
<g id="a_node10"><a xlink:href="constraints__hard_8h.html" target="_top" xlink:title="Functions and data structures for handling of secondary structure hard constraints. ">
<polygon fill="none" stroke="black" points="14.5,-56.5 14.5,-86.5 133.5,-86.5 133.5,-56.5 14.5,-56.5"/>
<text text-anchor="start" x="22.5" y="-74.5" font-family="Helvetica,sans-Serif" font-size="10.00">ViennaRNA/constraints</text>
<text text-anchor="middle" x="74" y="-63.5" font-family="Helvetica,sans-Serif" font-size="10.00">_hard.h</text>
</a>
</g>
</g>
<!-- Node9&#45;&gt;Node10 -->
<g id="edge14" class="edge"><title>Node9&#45;&gt;Node10</title>
<path fill="none" stroke="midnightblue" d="M350.714,-128.994C302.546,-119.491 222.127,-103.515 143.739,-87.3475"/>
<polygon fill="midnightblue" stroke="midnightblue" points="144.197,-83.8682 133.695,-85.2726 142.78,-90.7234 144.197,-83.8682"/>
</g>
<!-- Node11 -->
<g id="node11" class="node"><title>Node11</title>
<g id="a_node11"><a xlink:href="constraints__soft_8h.html" target="_top" xlink:title="Functions and data structures for secondary structure soft constraints. ">
<polygon fill="none" stroke="black" points="151.5,-56.5 151.5,-86.5 270.5,-86.5 270.5,-56.5 151.5,-56.5"/>
<text text-anchor="start" x="159.5" y="-74.5" font-family="Helvetica,sans-Serif" font-size="10.00">ViennaRNA/constraints</text>
<text text-anchor="middle" x="211" y="-63.5" font-family="Helvetica,sans-Serif" font-size="10.00">_soft.h</text>
</a>
</g>
</g>
<!-- Node9&#45;&gt;Node11 -->
<g id="edge16" class="edge"><title>Node9&#45;&gt;Node11</title>
<path fill="none" stroke="midnightblue" d="M369.699,-128.869C341.883,-118.988 295.6,-102.549 260.174,-89.9662"/>
<polygon fill="midnightblue" stroke="midnightblue" points="261.089,-86.577 250.494,-86.5281 258.746,-93.1733 261.089,-86.577"/>
</g>
<!-- Node12 -->
<g id="node12" class="node"><title>Node12</title>
<g id="a_node12"><a xlink:href="constraints__SHAPE_8h.html" target="_top" xlink:title="This module provides function to incorporate SHAPE reactivity data into the folding recursions by mea...">
<polygon fill="none" stroke="black" points="288.5,-56.5 288.5,-86.5 407.5,-86.5 407.5,-56.5 288.5,-56.5"/>
<text text-anchor="start" x="296.5" y="-74.5" font-family="Helvetica,sans-Serif" font-size="10.00">ViennaRNA/constraints</text>
<text text-anchor="middle" x="348" y="-63.5" font-family="Helvetica,sans-Serif" font-size="10.00">_SHAPE.h</text>
</a>
</g>
</g>
<!-- Node9&#45;&gt;Node12 -->
<g id="edge18" class="edge"><title>Node9&#45;&gt;Node12</title>
<path fill="none" stroke="midnightblue" d="M387.796,-128.734C381.699,-120.118 372.139,-106.61 363.918,-94.9923"/>
<polygon fill="midnightblue" stroke="midnightblue" points="366.604,-92.7299 357.971,-86.589 360.89,-96.7736 366.604,-92.7299"/>
</g>
<!-- Node13 -->
<g id="node13" class="node"><title>Node13</title>
<g id="a_node13"><a xlink:href="perturbation__fold_8h.html" target="_top" xlink:title="Find a vector of perturbation energies that minimizes the discripancies between predicted and observe...">
<polygon fill="none" stroke="black" points="426,-56.5 426,-86.5 548,-86.5 548,-56.5 426,-56.5"/>
<text text-anchor="start" x="434" y="-74.5" font-family="Helvetica,sans-Serif" font-size="10.00">ViennaRNA/perturbation</text>
<text text-anchor="middle" x="487" y="-63.5" font-family="Helvetica,sans-Serif" font-size="10.00">_fold.h</text>
</a>
</g>
</g>
<!-- Node9&#45;&gt;Node13 -->
<g id="edge20" class="edge"><title>Node9&#45;&gt;Node13</title>
<path fill="none" stroke="midnightblue" d="M406.542,-128.734C419.715,-119.527 440.882,-104.733 458.2,-92.6293"/>
<polygon fill="midnightblue" stroke="midnightblue" points="460.65,-95.1865 466.842,-86.589 456.64,-89.449 460.65,-95.1865"/>
</g>
<!-- Node14 -->
<g id="node14" class="node"><title>Node14</title>
<g id="a_node14"><a xlink:href="constraints__ligand_8h.html" target="_top" xlink:title="Functions for incorporation of ligands binding to hairpin and interior loop motifs using the soft con...">
<polygon fill="none" stroke="black" points="566.5,-56.5 566.5,-86.5 685.5,-86.5 685.5,-56.5 566.5,-56.5"/>
<text text-anchor="start" x="574.5" y="-74.5" font-family="Helvetica,sans-Serif" font-size="10.00">ViennaRNA/constraints</text>
<text text-anchor="middle" x="626" y="-63.5" font-family="Helvetica,sans-Serif" font-size="10.00">_ligand.h</text>
</a>
</g>
</g>
<!-- Node9&#45;&gt;Node14 -->
<g id="edge22" class="edge"><title>Node9&#45;&gt;Node14</title>
<path fill="none" stroke="midnightblue" d="M424.808,-128.869C460.751,-118.798 521.013,-101.914 566.235,-89.2446"/>
<polygon fill="midnightblue" stroke="midnightblue" points="567.246,-92.5962 575.931,-86.5281 565.357,-85.8558 567.246,-92.5962"/>
</g>
<!-- Node10&#45;&gt;Node3 -->
<g id="edge15" class="edge"><title>Node10&#45;&gt;Node3</title>
<path fill="none" stroke="midnightblue" d="M72.8084,-86.7266C72.1233,-105.195 74.0402,-137.06 93,-154 118.35,-176.65 322.195,-192.464 440.243,-199.823"/>
<polygon fill="midnightblue" stroke="midnightblue" points="440.143,-203.323 450.339,-200.445 440.573,-196.336 440.143,-203.323"/>
</g>
<!-- Node11&#45;&gt;Node3 -->
<g id="edge17" class="edge"><title>Node11&#45;&gt;Node3</title>
<path fill="none" stroke="midnightblue" d="M224.142,-86.6063C242.027,-104.942 275.851,-136.659 311,-154 352.404,-174.426 402.478,-186.839 443.67,-194.243"/>
<polygon fill="midnightblue" stroke="midnightblue" points="443.217,-197.717 453.668,-195.974 444.411,-190.819 443.217,-197.717"/>
</g>
<!-- Node12&#45;&gt;Node3 -->
<g id="edge19" class="edge"><title>Node12&#45;&gt;Node3</title>
<path fill="none" stroke="midnightblue" d="M336.087,-86.5418C322.826,-103.954 305.211,-133.801 321,-154 336.197,-173.44 392.458,-186.471 441.907,-194.42"/>
<polygon fill="midnightblue" stroke="midnightblue" points="441.595,-197.913 452.014,-195.991 442.67,-190.996 441.595,-197.913"/>
</g>
<!-- Node13&#45;&gt;Node3 -->
<g id="edge21" class="edge"><title>Node13&#45;&gt;Node3</title>
<path fill="none" stroke="midnightblue" d="M491.004,-86.7832C497.735,-110.798 511.315,-159.244 518.783,-185.889"/>
<polygon fill="midnightblue" stroke="midnightblue" points="515.503,-187.155 521.572,-195.839 522.243,-185.266 515.503,-187.155"/>
</g>
<!-- Node14&#45;&gt;Node3 -->
<g id="edge23" class="edge"><title>Node14&#45;&gt;Node3</title>
<path fill="none" stroke="midnightblue" d="M593.938,-86.5611C578.041,-95.0208 559.774,-107.229 548,-123 534.109,-141.607 528.226,-168.149 525.756,-185.831"/>
<polygon fill="midnightblue" stroke="midnightblue" points="522.279,-185.434 524.596,-195.772 529.232,-186.245 522.279,-185.434"/>
</g>
<!-- Node15&#45;&gt;Node3 -->
<g id="edge25" class="edge"><title>Node15&#45;&gt;Node3</title>
<path fill="none" stroke="midnightblue" d="M637.1,-148.167C618.129,-159.257 581.247,-178.569 554.643,-191.444"/>
<polygon fill="midnightblue" stroke="midnightblue" points="552.88,-188.407 545.359,-195.869 555.892,-194.726 552.88,-188.407"/>
</g>
<!-- Node17&#45;&gt;Node3 -->
<g id="edge28" class="edge"><title>Node17&#45;&gt;Node3</title>
<path fill="none" stroke="midnightblue" d="M861.652,-153.524C860.763,-153.685 859.879,-153.844 859,-154 771.177,-169.637 669.545,-184.94 601.389,-194.527"/>
<polygon fill="midnightblue" stroke="midnightblue" points="600.582,-191.106 591.164,-195.958 601.552,-198.038 600.582,-191.106"/>
</g>
<!-- Node18&#45;&gt;Node2 -->
<g id="edge30" class="edge"><title>Node18&#45;&gt;Node2</title>
<path fill="none" stroke="midnightblue" d="M92.6883,-190.396C78.0396,-179.697 57.9612,-165.033 43.1181,-154.193"/>
<polygon fill="midnightblue" stroke="midnightblue" points="44.7879,-151.078 34.648,-148.007 40.6594,-156.731 44.7879,-151.078"/>
</g>
</g>
</svg>
