<?xml version="1.0" encoding="UTF-8" standalone="no"?>
<!DOCTYPE svg PUBLIC "-//W3C//DTD SVG 1.1//EN"
 "http://www.w3.org/Graphics/SVG/1.1/DTD/svg11.dtd">
<!-- Generated by graphviz version 2.38.0 (20140413.2041)
 -->
<!-- Title: Extending the folding grammar with additional domains Pages: 1 -->
<svg width="447pt" height="66pt"
 viewBox="0.00 0.00 447.00 66.00" xmlns="http://www.w3.org/2000/svg" xmlns:xlink="http://www.w3.org/1999/xlink">
<g id="graph0" class="graph" transform="scale(1 1) rotate(0) translate(4 62)">
<title>Extending the folding grammar with additional domains</title>
<!-- Node3 -->
<g id="node1" class="node"><title>Node3</title>
<g id="a_node1"><a xlink:href="group__domains__struc.html" target="_top" xlink:title="Add and modify structured domains to the RNA folding grammar. ">
<polygon fill="none" stroke="black" points="332,-38.5 332,-57.5 433,-57.5 433,-38.5 332,-38.5"/>
<text text-anchor="middle" x="382.5" y="-45.5" font-family="Helvetica,sans-Serif" font-size="10.00">Structured domains</text>
</a>
</g>
</g>
<!-- Node1 -->
<g id="node2" class="node"><title>Node1</title>
<g id="a_node2"><a xlink:href="group__grammar.html" target="_top" xlink:title="The RNA folding grammar as implemented in RNAlib. ">
<polygon fill="none" stroke="black" points="0,-19.5 0,-38.5 131,-38.5 131,-19.5 0,-19.5"/>
<text text-anchor="middle" x="65.5" y="-26.5" font-family="Helvetica,sans-Serif" font-size="10.00">The RNA folding grammar</text>
</a>
</g>
</g>
<!-- Node0 -->
<g id="node4" class="node"><title>Node0</title>
<polygon fill="#bfbfbf" stroke="black" points="167,-8.5 167,-49.5 290,-49.5 290,-8.5 167,-8.5"/>
<text text-anchor="start" x="175" y="-37.5" font-family="Helvetica,sans-Serif" font-size="10.00">Extending the folding</text>
<text text-anchor="start" x="175" y="-26.5" font-family="Helvetica,sans-Serif" font-size="10.00"> grammar with additional</text>
<text text-anchor="middle" x="228.5" y="-15.5" font-family="Helvetica,sans-Serif" font-size="10.00"> domains</text>
</g>
<!-- Node1&#45;&gt;Node0 -->
<g id="edge1" class="edge"><title>Node1&#45;&gt;Node0</title>
<path fill="none" stroke="black" d="M141.111,-29C149.732,-29 158.443,-29 166.846,-29"/>
<polygon fill="black" stroke="black" points="141.057,-25.5001 131.057,-29 141.057,-32.5001 141.057,-25.5001"/>
</g>
<!-- Node2 -->
<g id="node3" class="node"><title>Node2</title>
<g id="a_node3"><a xlink:href="group__domains__up.html" target="_top" xlink:title="Add and modify unstructured domains to the RNA folding grammar. ">
<polygon fill="none" stroke="black" points="326,-0.5 326,-19.5 439,-19.5 439,-0.5 326,-0.5"/>
<text text-anchor="middle" x="382.5" y="-7.5" font-family="Helvetica,sans-Serif" font-size="10.00">Unstructured domains</text>
</a>
</g>
</g>
<!-- Node0&#45;&gt;Node3 -->
<g id="edge3" class="edge"><title>Node0&#45;&gt;Node3</title>
<path fill="none" stroke="black" d="M300.216,-37.8395C310.933,-39.1792 321.792,-40.5365 331.933,-41.8042"/>
<polygon fill="black" stroke="black" points="300.368,-34.3314 290.011,-36.5639 299.5,-41.2773 300.368,-34.3314"/>
</g>
<!-- Node0&#45;&gt;Node2 -->
<g id="edge2" class="edge"><title>Node0&#45;&gt;Node2</title>
<path fill="none" stroke="black" d="M300.026,-20.1842C308.617,-19.1104 317.302,-18.0248 325.638,-16.9828"/>
<polygon fill="black" stroke="black" points="299.5,-16.7227 290.011,-21.4361 300.368,-23.6686 299.5,-16.7227"/>
</g>
</g>
</svg>
