<?xml version="1.0" encoding="UTF-8" standalone="no"?>
<!DOCTYPE svg PUBLIC "-//W3C//DTD SVG 1.1//EN"
 "http://www.w3.org/Graphics/SVG/1.1/DTD/svg11.dtd">
<!-- Generated by graphviz version 2.38.0 (20140413.2041)
 -->
<!-- Title: RNA&#45;RNA interaction Pages: 1 -->
<svg width="352pt" height="222pt"
 viewBox="0.00 0.00 352.00 221.50" xmlns="http://www.w3.org/2000/svg" xmlns:xlink="http://www.w3.org/1999/xlink">
<g id="graph0" class="graph" transform="scale(1 1) rotate(0) translate(4 217.5)">
<title>RNA&#45;RNA interaction</title>
<!-- Node3 -->
<g id="node1" class="node"><title>Node3</title>
<g id="a_node1"><a xlink:href="group__up__cofold.html" target="_top" xlink:title="RNA&#45;RNA interaction as a stepwise process. ">
<polygon fill="none" stroke="black" points="212,-161 212,-213 344,-213 344,-161 212,-161"/>
<text text-anchor="start" x="220" y="-201" font-family="Helvetica,sans-Serif" font-size="10.00">Partition Function</text>
<text text-anchor="start" x="220" y="-190" font-family="Helvetica,sans-Serif" font-size="10.00"> for two hybridized</text>
<text text-anchor="start" x="220" y="-179" font-family="Helvetica,sans-Serif" font-size="10.00"> Sequences as a stepwise</text>
<text text-anchor="middle" x="278" y="-168" font-family="Helvetica,sans-Serif" font-size="10.00"> Process</text>
</a>
</g>
</g>
<!-- Node4 -->
<g id="node2" class="node"><title>Node4</title>
<g id="a_node2"><a xlink:href="group__pf__fold.html" target="_top" xlink:title="Compuate the partition function and various equilibrium properties derived from it. ">
<polygon fill="none" stroke="black" points="212.5,-112 212.5,-142 343.5,-142 343.5,-112 212.5,-112"/>
<text text-anchor="start" x="220.5" y="-130" font-family="Helvetica,sans-Serif" font-size="10.00">Partition function</text>
<text text-anchor="middle" x="278" y="-119" font-family="Helvetica,sans-Serif" font-size="10.00"> and equilibrium properties</text>
</a>
</g>
</g>
<!-- Node1 -->
<g id="node3" class="node"><title>Node1</title>
<g id="a_node3"><a xlink:href="group__mfe__cofold.html" target="_top" xlink:title="MFE version of cofolding routines This file includes (almost) all function declarations within the RN...">
<polygon fill="none" stroke="black" points="220,-63 220,-93 336,-93 336,-63 220,-63"/>
<text text-anchor="start" x="228" y="-81" font-family="Helvetica,sans-Serif" font-size="10.00">MFE Structures of two</text>
<text text-anchor="middle" x="278" y="-70" font-family="Helvetica,sans-Serif" font-size="10.00"> hybridized Sequences</text>
</a>
</g>
</g>
<!-- Node0 -->
<g id="node4" class="node"><title>Node0</title>
<polygon fill="#bfbfbf" stroke="black" points="0,-70.5 0,-89.5 111,-89.5 111,-70.5 0,-70.5"/>
<text text-anchor="middle" x="55.5" y="-77.5" font-family="Helvetica,sans-Serif" font-size="10.00">RNA&#45;RNA interaction</text>
</g>
<!-- Node0&#45;&gt;Node3 -->
<g id="edge3" class="edge"><title>Node0&#45;&gt;Node3</title>
<path fill="none" stroke="black" d="M74.3873,-96.509C88.3976,-108.745 108.831,-125.118 129,-136 154.831,-149.937 185.208,-161.191 211.698,-169.546"/>
<polygon fill="black" stroke="black" points="76.3433,-93.5631 66.5538,-89.5115 71.6799,-98.7836 76.3433,-93.5631"/>
</g>
<!-- Node0&#45;&gt;Node4 -->
<g id="edge4" class="edge"><title>Node0&#45;&gt;Node4</title>
<path fill="none" stroke="darkgreen" stroke-dasharray="5,2" d="M101.121,-89.5112C133.085,-96.3243 176.62,-105.604 212.379,-113.226"/>
<text text-anchor="middle" x="161.5" y="-124" font-family="Helvetica,sans-Serif" font-size="10.00">part_func_co.h</text>
<text text-anchor="middle" x="161.5" y="-113" font-family="Helvetica,sans-Serif" font-size="10.00">part_func_up.h</text>
</g>
<!-- Node0&#45;&gt;Node1 -->
<g id="edge1" class="edge"><title>Node0&#45;&gt;Node1</title>
<path fill="none" stroke="black" d="M121.332,-79.412C152.498,-79.1293 189.532,-78.7934 219.658,-78.5201"/>
<polygon fill="black" stroke="black" points="120.973,-75.915 111.006,-79.5056 121.037,-82.9147 120.973,-75.915"/>
</g>
<!-- Node2 -->
<g id="node5" class="node"><title>Node2</title>
<g id="a_node5"><a xlink:href="group__pf__cofold.html" target="_top" xlink:title="Partition Function Cofolding. ">
<polygon fill="none" stroke="black" points="229.5,-0.5 229.5,-41.5 326.5,-41.5 326.5,-0.5 229.5,-0.5"/>
<text text-anchor="start" x="237.5" y="-29.5" font-family="Helvetica,sans-Serif" font-size="10.00">Partition Function</text>
<text text-anchor="start" x="237.5" y="-18.5" font-family="Helvetica,sans-Serif" font-size="10.00"> for two hybridized</text>
<text text-anchor="middle" x="278" y="-7.5" font-family="Helvetica,sans-Serif" font-size="10.00"> Sequences</text>
</a>
</g>
</g>
<!-- Node0&#45;&gt;Node2 -->
<g id="edge2" class="edge"><title>Node0&#45;&gt;Node2</title>
<path fill="none" stroke="black" d="M102.458,-67.7028C139.544,-57.7795 191.549,-43.8645 229.135,-33.8075"/>
<polygon fill="black" stroke="black" points="101.173,-64.4234 92.4179,-70.3893 102.983,-71.1855 101.173,-64.4234"/>
</g>
<!-- Node0&#45;&gt;Node2 -->
<g id="edge5" class="edge"><title>Node0&#45;&gt;Node2</title>
<path fill="none" stroke="darkgreen" stroke-dasharray="5,2" d="M64.0835,-70.0708C76.0092,-55.3734 100.724,-28.4417 129,-18 160.944,-6.2039 199.468,-7.42227 229.204,-11.3431"/>
<text text-anchor="middle" x="161.5" y="-32" font-family="Helvetica,sans-Serif" font-size="10.00">part_func_co.h</text>
<text text-anchor="middle" x="161.5" y="-21" font-family="Helvetica,sans-Serif" font-size="10.00">part_func_up.h</text>
</g>
</g>
</svg>
