<?xml version="1.0" encoding="UTF-8" standalone="no"?>
<!DOCTYPE svg PUBLIC "-//W3C//DTD SVG 1.1//EN"
 "http://www.w3.org/Graphics/SVG/1.1/DTD/svg11.dtd">
<!-- Generated by graphviz version 2.38.0 (20140413.2041)
 -->
<!-- Title: Partition Function for two hybridized Sequences Pages: 1 -->
<svg width="549pt" height="54pt"
 viewBox="0.00 0.00 549.00 54.13" xmlns="http://www.w3.org/2000/svg" xmlns:xlink="http://www.w3.org/1999/xlink">
<g id="graph0" class="graph" transform="scale(1 1) rotate(0) translate(4 50.1295)">
<title>Partition Function for two hybridized Sequences</title>
<!-- Node2 -->
<g id="node1" class="node"><title>Node2</title>
<g id="a_node1"><a xlink:href="group__pf__fold.html" target="_top" xlink:title="Compuate the partition function and various equilibrium properties derived from it. ">
<polygon fill="none" stroke="black" points="0,-9.12952 0,-39.1295 131,-39.1295 131,-9.12952 0,-9.12952"/>
<text text-anchor="start" x="8" y="-27.1295" font-family="Helvetica,sans-Serif" font-size="10.00">Partition function</text>
<text text-anchor="middle" x="65.5" y="-16.1295" font-family="Helvetica,sans-Serif" font-size="10.00"> and equilibrium properties</text>
</a>
</g>
</g>
<!-- Node0 -->
<g id="node3" class="node"><title>Node0</title>
<polygon fill="#bfbfbf" stroke="black" points="232,-3.62952 232,-44.6295 329,-44.6295 329,-3.62952 232,-3.62952"/>
<text text-anchor="start" x="240" y="-32.6295" font-family="Helvetica,sans-Serif" font-size="10.00">Partition Function</text>
<text text-anchor="start" x="240" y="-21.6295" font-family="Helvetica,sans-Serif" font-size="10.00"> for two hybridized</text>
<text text-anchor="middle" x="280.5" y="-10.6295" font-family="Helvetica,sans-Serif" font-size="10.00"> Sequences</text>
</g>
<!-- Node2&#45;&gt;Node0 -->
<g id="edge2" class="edge"><title>Node2&#45;&gt;Node0</title>
<path fill="none" stroke="black" d="M141.361,-28.8647C143.938,-28.9646 146.49,-29.0535 149,-29.1295 177.876,-30.0037 185.132,-30.2297 214,-29.1295 219.812,-28.908 225.908,-28.5763 231.944,-28.1871"/>
<polygon fill="black" stroke="black" points="141.476,-25.3666 131.334,-28.4305 141.173,-32.36 141.476,-25.3666"/>
</g>
<!-- Node1 -->
<g id="node2" class="node"><title>Node1</title>
<g id="a_node2"><a xlink:href="group__cofold.html" target="_top" xlink:title="Predict structures formed by two molecules upon hybridization. ">
<polygon fill="none" stroke="black" points="430,-14.6295 430,-33.6295 541,-33.6295 541,-14.6295 430,-14.6295"/>
<text text-anchor="middle" x="485.5" y="-21.6295" font-family="Helvetica,sans-Serif" font-size="10.00">RNA&#45;RNA interaction</text>
</a>
</g>
</g>
<!-- Node1&#45;&gt;Node0 -->
<g id="edge1" class="edge"><title>Node1&#45;&gt;Node0</title>
<path fill="none" stroke="black" d="M419.727,-22.2536C417.117,-22.2063 414.534,-22.1645 412,-22.1295 383.114,-21.7312 375.886,-21.6886 347,-22.1295 341.198,-22.2181 335.109,-22.3507 329.076,-22.5064"/>
<polygon fill="black" stroke="black" points="419.803,-25.7558 429.873,-22.4613 419.947,-18.7573 419.803,-25.7558"/>
</g>
<!-- Node0&#45;&gt;Node2 -->
<g id="edge3" class="edge"><title>Node0&#45;&gt;Node2</title>
<path fill="none" stroke="darkgreen" stroke-dasharray="5,2" d="M231.979,-7.01194C225.993,-5.41531 219.899,-4.05205 214,-3.12952 185.458,1.33402 177.665,0.46148 149,-3.12952 138.588,-4.4339 127.605,-6.63007 117.17,-9.12303"/>
<text text-anchor="middle" x="181.5" y="-17.1295" font-family="Helvetica,sans-Serif" font-size="10.00">part_func_co.h</text>
<text text-anchor="middle" x="181.5" y="-6.12952" font-family="Helvetica,sans-Serif" font-size="10.00">part_func_up.h</text>
</g>
<!-- Node0&#45;&gt;Node1 -->
<g id="edge4" class="edge"><title>Node0&#45;&gt;Node1</title>
<path fill="none" stroke="darkgreen" stroke-dasharray="5,2" d="M329.094,-24.1295C359.212,-24.1295 398.25,-24.1295 429.665,-24.1295"/>
<text text-anchor="middle" x="379.5" y="-38.1295" font-family="Helvetica,sans-Serif" font-size="10.00">part_func_co.h</text>
<text text-anchor="middle" x="379.5" y="-27.1295" font-family="Helvetica,sans-Serif" font-size="10.00">part_func_up.h</text>
</g>
</g>
</svg>
