<?xml version="1.0" encoding="UTF-8" standalone="no"?>
<!DOCTYPE svg PUBLIC "-//W3C//DTD SVG 1.1//EN"
 "http://www.w3.org/Graphics/SVG/1.1/DTD/svg11.dtd">
<!-- Generated by graphviz version 2.38.0 (20140413.2041)
 -->
<!-- Title: Calculate Partition Functions of a Distance Based Partitioning Pages: 1 -->
<svg width="335pt" height="88pt"
 viewBox="0.00 0.00 335.00 88.00" xmlns="http://www.w3.org/2000/svg" xmlns:xlink="http://www.w3.org/1999/xlink">
<g id="graph0" class="graph" transform="scale(1 1) rotate(0) translate(4 84)">
<title>Calculate Partition Functions of a Distance Based Partitioning</title>
<!-- Node1 -->
<g id="node1" class="node"><title>Node1</title>
<g id="a_node1"><a xlink:href="group__kl__neighborhood.html" target="_top" xlink:title="Compute Thermodynamic properties for a Distance Class Partitioning of the Secondary Structure Space...">
<polygon fill="none" stroke="black" points="0,-49.5 0,-79.5 167,-79.5 167,-49.5 0,-49.5"/>
<text text-anchor="start" x="8" y="-67.5" font-family="Helvetica,sans-Serif" font-size="10.00">Distance based partitioning</text>
<text text-anchor="middle" x="83.5" y="-56.5" font-family="Helvetica,sans-Serif" font-size="10.00"> of the Secondary Structure Space</text>
</a>
</g>
</g>
<!-- Node0 -->
<g id="node3" class="node"><title>Node0</title>
<polygon fill="#bfbfbf" stroke="black" points="203,-19 203,-60 327,-60 327,-19 203,-19"/>
<text text-anchor="start" x="211" y="-48" font-family="Helvetica,sans-Serif" font-size="10.00">Calculate Partition</text>
<text text-anchor="start" x="211" y="-37" font-family="Helvetica,sans-Serif" font-size="10.00"> Functions of a Distance</text>
<text text-anchor="middle" x="265" y="-26" font-family="Helvetica,sans-Serif" font-size="10.00"> Based Partitioning</text>
</g>
<!-- Node1&#45;&gt;Node0 -->
<g id="edge1" class="edge"><title>Node1&#45;&gt;Node0</title>
<path fill="none" stroke="black" d="M177.065,-51.6079C185.844,-50.3853 194.586,-49.1677 202.956,-48.0019"/>
<polygon fill="black" stroke="black" points="176.579,-48.1418 167.157,-52.9879 177.544,-55.0749 176.579,-48.1418"/>
</g>
<!-- Node2 -->
<g id="node2" class="node"><title>Node2</title>
<g id="a_node2"><a xlink:href="group__pf__fold.html" target="_top" xlink:title="Compuate the partition function and various equilibrium properties derived from it. ">
<polygon fill="none" stroke="black" points="18,-0.5 18,-30.5 149,-30.5 149,-0.5 18,-0.5"/>
<text text-anchor="start" x="26" y="-18.5" font-family="Helvetica,sans-Serif" font-size="10.00">Partition function</text>
<text text-anchor="middle" x="83.5" y="-7.5" font-family="Helvetica,sans-Serif" font-size="10.00"> and equilibrium properties</text>
</a>
</g>
</g>
<!-- Node2&#45;&gt;Node0 -->
<g id="edge2" class="edge"><title>Node2&#45;&gt;Node0</title>
<path fill="none" stroke="black" d="M159.014,-25.4629C173.563,-27.4081 188.661,-29.4268 202.72,-31.3065"/>
<polygon fill="black" stroke="black" points="159.426,-21.9869 149.05,-24.1306 158.498,-28.9251 159.426,-21.9869"/>
</g>
</g>
</svg>
