<?xml version="1.0" encoding="UTF-8" standalone="no"?>
<!DOCTYPE svg PUBLIC "-//W3C//DTD SVG 1.1//EN"
 "http://www.w3.org/Graphics/SVG/1.1/DTD/svg11.dtd">
<!-- Generated by graphviz version 2.38.0 (20140413.2041)
 -->
<!-- Title: Constraining the RNA folding grammar Pages: 1 -->
<svg width="413pt" height="66pt"
 viewBox="0.00 0.00 413.00 66.00" xmlns="http://www.w3.org/2000/svg" xmlns:xlink="http://www.w3.org/1999/xlink">
<g id="graph0" class="graph" transform="scale(1 1) rotate(0) translate(4 62)">
<title>Constraining the RNA folding grammar</title>
<!-- Node0 -->
<g id="node1" class="node"><title>Node0</title>
<polygon fill="#bfbfbf" stroke="black" points="167,-14 167,-44 280,-44 280,-14 167,-14"/>
<text text-anchor="start" x="175" y="-32" font-family="Helvetica,sans-Serif" font-size="10.00">Constraining the RNA</text>
<text text-anchor="middle" x="223.5" y="-21" font-family="Helvetica,sans-Serif" font-size="10.00"> folding grammar</text>
</g>
<!-- Node3 -->
<g id="node3" class="node"><title>Node3</title>
<g id="a_node3"><a xlink:href="group__soft__constraints.html" target="_top" xlink:title="Functions and data structures for secondary structure soft constraints. ">
<polygon fill="none" stroke="black" points="317.5,-38.5 317.5,-57.5 403.5,-57.5 403.5,-38.5 317.5,-38.5"/>
<text text-anchor="middle" x="360.5" y="-45.5" font-family="Helvetica,sans-Serif" font-size="10.00">Soft constraints</text>
</a>
</g>
</g>
<!-- Node0&#45;&gt;Node3 -->
<g id="edge3" class="edge"><title>Node0&#45;&gt;Node3</title>
<path fill="none" stroke="black" d="M290.111,-38.2342C299.302,-39.5277 308.539,-40.8277 317.141,-42.0384"/>
<polygon fill="black" stroke="black" points="290.579,-34.7656 280.189,-36.8377 289.604,-41.6973 290.579,-34.7656"/>
</g>
<!-- Node2 -->
<g id="node4" class="node"><title>Node2</title>
<g id="a_node4"><a xlink:href="group__hard__constraints.html" target="_top" xlink:title="This module covers all functionality for hard constraints in secondary structure prediction. ">
<polygon fill="none" stroke="black" points="316,-0.5 316,-19.5 405,-19.5 405,-0.5 316,-0.5"/>
<text text-anchor="middle" x="360.5" y="-7.5" font-family="Helvetica,sans-Serif" font-size="10.00">Hard constraints</text>
</a>
</g>
</g>
<!-- Node0&#45;&gt;Node2 -->
<g id="edge2" class="edge"><title>Node0&#45;&gt;Node2</title>
<path fill="none" stroke="black" d="M290.325,-19.7357C299.003,-18.5143 307.719,-17.2877 315.897,-16.1368"/>
<polygon fill="black" stroke="black" points="289.604,-16.3027 280.189,-21.1623 290.579,-23.2344 289.604,-16.3027"/>
</g>
<!-- Node1 -->
<g id="node2" class="node"><title>Node1</title>
<g id="a_node2"><a xlink:href="group__grammar.html" target="_top" xlink:title="The RNA folding grammar as implemented in RNAlib. ">
<polygon fill="none" stroke="black" points="0,-19.5 0,-38.5 131,-38.5 131,-19.5 0,-19.5"/>
<text text-anchor="middle" x="65.5" y="-26.5" font-family="Helvetica,sans-Serif" font-size="10.00">The RNA folding grammar</text>
</a>
</g>
</g>
<!-- Node1&#45;&gt;Node0 -->
<g id="edge1" class="edge"><title>Node1&#45;&gt;Node0</title>
<path fill="none" stroke="black" d="M141.542,-29C149.977,-29 158.458,-29 166.59,-29"/>
<polygon fill="black" stroke="black" points="141.303,-25.5001 131.303,-29 141.303,-32.5001 141.303,-25.5001"/>
</g>
</g>
</svg>
