<?xml version="1.0" encoding="UTF-8" standalone="no"?>
<!DOCTYPE svg PUBLIC "-//W3C//DTD SVG 1.1//EN"
 "http://www.w3.org/Graphics/SVG/1.1/DTD/svg11.dtd">
<!-- Generated by graphviz version 2.38.0 (20140413.2041)
 -->
<!-- Title: Stochastic Backtracking of Consensus Structures from Sequence Alignment(s) Pages: 1 -->
<svg width="300pt" height="88pt"
 viewBox="0.00 0.00 300.00 88.00" xmlns="http://www.w3.org/2000/svg" xmlns:xlink="http://www.w3.org/1999/xlink">
<g id="graph0" class="graph" transform="scale(1 1) rotate(0) translate(4 84)">
<title>Stochastic Backtracking of Consensus Structures from Sequence Alignment(s)</title>
<!-- Node1 -->
<g id="node1" class="node"><title>Node1</title>
<g id="a_node1"><a xlink:href="group__consensus__fold.html" target="_top" xlink:title="compute various properties (consensus MFE structures, partition function, Boltzmann distributed stoch...">
<polygon fill="none" stroke="black" points="0,-49.5 0,-79.5 113,-79.5 113,-49.5 0,-49.5"/>
<text text-anchor="start" x="8" y="-67.5" font-family="Helvetica,sans-Serif" font-size="10.00">Comparative structure</text>
<text text-anchor="middle" x="56.5" y="-56.5" font-family="Helvetica,sans-Serif" font-size="10.00"> prediction</text>
</a>
</g>
</g>
<!-- Node0 -->
<g id="node3" class="node"><title>Node0</title>
<polygon fill="#bfbfbf" stroke="black" points="149,-19 149,-60 292,-60 292,-19 149,-19"/>
<text text-anchor="start" x="157" y="-48" font-family="Helvetica,sans-Serif" font-size="10.00">Stochastic Backtracking</text>
<text text-anchor="start" x="157" y="-37" font-family="Helvetica,sans-Serif" font-size="10.00"> of Consensus Structures</text>
<text text-anchor="middle" x="220.5" y="-26" font-family="Helvetica,sans-Serif" font-size="10.00"> from Sequence Alignment(s)</text>
</g>
<!-- Node1&#45;&gt;Node0 -->
<g id="edge1" class="edge"><title>Node1&#45;&gt;Node0</title>
<path fill="none" stroke="black" d="M123.334,-54.3404C131.713,-53.0474 140.315,-51.7199 148.767,-50.4156"/>
<polygon fill="black" stroke="black" points="122.6,-50.9121 113.251,-55.8964 123.668,-57.8302 122.6,-50.9121"/>
</g>
<!-- Node2 -->
<g id="node2" class="node"><title>Node2</title>
<g id="a_node2"><a xlink:href="group__subopt__stochbt.html" target="_top" xlink:title="Structure sampling\l from the ensemble">
<polygon fill="none" stroke="black" points="6,-0.5 6,-30.5 107,-30.5 107,-0.5 6,-0.5"/>
<text text-anchor="start" x="14" y="-18.5" font-family="Helvetica,sans-Serif" font-size="10.00">Structure sampling</text>
<text text-anchor="middle" x="56.5" y="-7.5" font-family="Helvetica,sans-Serif" font-size="10.00"> from the ensemble</text>
</a>
</g>
</g>
<!-- Node2&#45;&gt;Node0 -->
<g id="edge2" class="edge"><title>Node2&#45;&gt;Node0</title>
<path fill="none" stroke="black" d="M117.472,-24.3847C127.704,-25.9005 138.416,-27.4876 148.893,-29.0397"/>
<polygon fill="black" stroke="black" points="117.832,-20.9 107.427,-22.8966 116.806,-27.8244 117.832,-20.9"/>
</g>
</g>
</svg>
