<?xml version="1.0" encoding="UTF-8" standalone="no"?>
<!DOCTYPE svg PUBLIC "-//W3C//DTD SVG 1.1//EN"
 "http://www.w3.org/Graphics/SVG/1.1/DTD/svg11.dtd">
<!-- Generated by graphviz version 2.38.0 (20140413.2041)
 -->
<!-- Title: The RNA folding grammar Pages: 1 -->
<svg width="298pt" height="188pt"
 viewBox="0.00 0.00 298.00 187.50" xmlns="http://www.w3.org/2000/svg" xmlns:xlink="http://www.w3.org/1999/xlink">
<g id="graph0" class="graph" transform="scale(1 1) rotate(0) translate(4 183.5)">
<title>The RNA folding grammar</title>
<!-- Node1 -->
<g id="node1" class="node"><title>Node1</title>
<g id="a_node1"><a xlink:href="group__model__details.html" target="_top" xlink:title="Functions and data structures to fine&#45;tune the implemented secondary structure evaluation model...">
<polygon fill="none" stroke="black" points="173.5,-149 173.5,-179 283.5,-179 283.5,-149 173.5,-149"/>
<text text-anchor="start" x="181.5" y="-167" font-family="Helvetica,sans-Serif" font-size="10.00">Fine&#45;tuning of the</text>
<text text-anchor="middle" x="228.5" y="-156" font-family="Helvetica,sans-Serif" font-size="10.00"> implemented models</text>
</a>
</g>
</g>
<!-- Node2 -->
<g id="node2" class="node"><title>Node2</title>
<g id="a_node2"><a xlink:href="group__energy__parameters.html" target="_top" xlink:title="All relevant functions to retrieve and copy pre&#45;calculated energy parameter sets as well as reading/w...">
<polygon fill="none" stroke="black" points="179,-110.5 179,-129.5 278,-129.5 278,-110.5 179,-110.5"/>
<text text-anchor="middle" x="228.5" y="-117.5" font-family="Helvetica,sans-Serif" font-size="10.00">Energy parameters</text>
</a>
</g>
</g>
<!-- Node4 -->
<g id="node3" class="node"><title>Node4</title>
<g id="a_node3"><a xlink:href="group__constraints.html" target="_top" xlink:title="This module provides general functions that allow for an easy control of constrained secondary struct...">
<polygon fill="none" stroke="black" points="172,-61 172,-91 285,-91 285,-61 172,-61"/>
<text text-anchor="start" x="180" y="-79" font-family="Helvetica,sans-Serif" font-size="10.00">Constraining the RNA</text>
<text text-anchor="middle" x="228.5" y="-68" font-family="Helvetica,sans-Serif" font-size="10.00"> folding grammar</text>
</a>
</g>
</g>
<!-- Node0 -->
<g id="node4" class="node"><title>Node0</title>
<polygon fill="#bfbfbf" stroke="black" points="0,-88.5 0,-107.5 131,-107.5 131,-88.5 0,-88.5"/>
<text text-anchor="middle" x="65.5" y="-95.5" font-family="Helvetica,sans-Serif" font-size="10.00">The RNA folding grammar</text>
</g>
<!-- Node0&#45;&gt;Node1 -->
<g id="edge1" class="edge"><title>Node0&#45;&gt;Node1</title>
<path fill="none" stroke="black" d="M99.4998,-111.528C125.996,-122.39 163.181,-137.633 190.648,-148.893"/>
<polygon fill="black" stroke="black" points="100.491,-108.152 89.9108,-107.597 97.8359,-114.629 100.491,-108.152"/>
</g>
<!-- Node0&#45;&gt;Node2 -->
<g id="edge2" class="edge"><title>Node0&#45;&gt;Node2</title>
<path fill="none" stroke="black" d="M141.224,-108.211C153.984,-109.954 166.938,-111.724 178.795,-113.345"/>
<polygon fill="black" stroke="black" points="141.439,-104.708 131.057,-106.821 140.491,-111.643 141.439,-104.708"/>
</g>
<!-- Node0&#45;&gt;Node4 -->
<g id="edge4" class="edge"><title>Node0&#45;&gt;Node4</title>
<path fill="none" stroke="black" d="M140.997,-87.8203C151.431,-86.3945 162.001,-84.9502 172,-83.5839"/>
<polygon fill="black" stroke="black" points="140.491,-84.3568 131.057,-89.1785 141.439,-91.2923 140.491,-84.3568"/>
</g>
<!-- Node3 -->
<g id="node5" class="node"><title>Node3</title>
<g id="a_node5"><a xlink:href="group__domains.html" target="_top" xlink:title="This module covers simple and straight&#45;forward extensions to the RNA folding grammar. ">
<polygon fill="none" stroke="black" points="167,-0.5 167,-41.5 290,-41.5 290,-0.5 167,-0.5"/>
<text text-anchor="start" x="175" y="-29.5" font-family="Helvetica,sans-Serif" font-size="10.00">Extending the folding</text>
<text text-anchor="start" x="175" y="-18.5" font-family="Helvetica,sans-Serif" font-size="10.00"> grammar with additional</text>
<text text-anchor="middle" x="228.5" y="-7.5" font-family="Helvetica,sans-Serif" font-size="10.00"> domains</text>
</a>
</g>
</g>
<!-- Node0&#45;&gt;Node3 -->
<g id="edge3" class="edge"><title>Node0&#45;&gt;Node3</title>
<path fill="none" stroke="black" d="M95.8025,-83.9858C120.577,-72.137 156.411,-54.9993 184.447,-41.5907"/>
<polygon fill="black" stroke="black" points="94.0765,-80.9315 86.5652,-88.4036 97.0967,-87.2464 94.0765,-80.9315"/>
</g>
</g>
</svg>
