<?xml version="1.0" encoding="UTF-8" standalone="no"?>
<!DOCTYPE svg PUBLIC "-//W3C//DTD SVG 1.1//EN"
 "http://www.w3.org/Graphics/SVG/1.1/DTD/svg11.dtd">
<!-- Generated by graphviz version 2.38.0 (20140413.2041)
 -->
<!-- Title: Suboptimals and representative structures Pages: 1 -->
<svg width="324pt" height="269pt"
 viewBox="0.00 0.00 324.00 269.00" xmlns="http://www.w3.org/2000/svg" xmlns:xlink="http://www.w3.org/1999/xlink">
<g id="graph0" class="graph" transform="scale(1 1) rotate(0) translate(4 265)">
<title>Suboptimals and representative structures</title>
<!-- Node1 -->
<g id="node1" class="node"><title>Node1</title>
<g id="a_node1"><a xlink:href="group__subopt__zuker.html" target="_top" xlink:title="Suboptimal structures\l sensu Stiegler et al.\l 1984 / Zuker et al. 1989">
<polygon fill="none" stroke="black" points="191.5,-219.5 191.5,-260.5 314.5,-260.5 314.5,-219.5 191.5,-219.5"/>
<text text-anchor="start" x="199.5" y="-248.5" font-family="Helvetica,sans-Serif" font-size="10.00">Suboptimal structures</text>
<text text-anchor="start" x="199.5" y="-237.5" font-family="Helvetica,sans-Serif" font-size="10.00"> sensu Stiegler et al.</text>
<text text-anchor="middle" x="253" y="-226.5" font-family="Helvetica,sans-Serif" font-size="10.00"> 1984 / Zuker et al. 1989</text>
</a>
</g>
</g>
<!-- Node4 -->
<g id="node2" class="node"><title>Node4</title>
<g id="a_node2"><a xlink:href="group__mea__fold.html" target="_top" xlink:title="Compute the structure\l with maximum expected\l accuracy (MEA)">
<polygon fill="none" stroke="black" points="190,-159.5 190,-200.5 316,-200.5 316,-159.5 190,-159.5"/>
<text text-anchor="start" x="198" y="-188.5" font-family="Helvetica,sans-Serif" font-size="10.00">Compute the structure</text>
<text text-anchor="start" x="198" y="-177.5" font-family="Helvetica,sans-Serif" font-size="10.00"> with maximum expected</text>
<text text-anchor="middle" x="253" y="-166.5" font-family="Helvetica,sans-Serif" font-size="10.00"> accuracy (MEA)</text>
</a>
</g>
</g>
<!-- Node3 -->
<g id="node3" class="node"><title>Node3</title>
<g id="a_node3"><a xlink:href="group__subopt__stochbt.html" target="_top" xlink:title="Structure sampling\l from the ensemble">
<polygon fill="none" stroke="black" points="202.5,-110 202.5,-140 303.5,-140 303.5,-110 202.5,-110"/>
<text text-anchor="start" x="210.5" y="-128" font-family="Helvetica,sans-Serif" font-size="10.00">Structure sampling</text>
<text text-anchor="middle" x="253" y="-117" font-family="Helvetica,sans-Serif" font-size="10.00"> from the ensemble</text>
</a>
</g>
</g>
<!-- Node5 -->
<g id="node4" class="node"><title>Node5</title>
<g id="a_node4"><a xlink:href="group__centroid__fold.html" target="_top" xlink:title="Compute the centroid\l structure">
<polygon fill="none" stroke="black" points="198,-61 198,-91 308,-91 308,-61 198,-61"/>
<text text-anchor="start" x="206" y="-79" font-family="Helvetica,sans-Serif" font-size="10.00">Compute the centroid</text>
<text text-anchor="middle" x="253" y="-68" font-family="Helvetica,sans-Serif" font-size="10.00"> structure</text>
</a>
</g>
</g>
<!-- Node0 -->
<g id="node5" class="node"><title>Node0</title>
<polygon fill="#bfbfbf" stroke="black" points="0,-110 0,-140 154,-140 154,-110 0,-110"/>
<text text-anchor="start" x="8" y="-128" font-family="Helvetica,sans-Serif" font-size="10.00">Suboptimals and representative</text>
<text text-anchor="middle" x="77" y="-117" font-family="Helvetica,sans-Serif" font-size="10.00"> structures</text>
</g>
<!-- Node0&#45;&gt;Node1 -->
<g id="edge1" class="edge"><title>Node0&#45;&gt;Node1</title>
<path fill="none" stroke="black" d="M103.712,-146.861C125.76,-165.02 158.813,-190.882 190,-210 195.301,-213.25 201.007,-216.417 206.734,-219.401"/>
<polygon fill="black" stroke="black" points="105.756,-144.008 95.8279,-140.308 101.282,-149.392 105.756,-144.008"/>
</g>
<!-- Node0&#45;&gt;Node4 -->
<g id="edge4" class="edge"><title>Node0&#45;&gt;Node4</title>
<path fill="none" stroke="black" d="M135.558,-143.194C152.953,-148.692 172.128,-154.753 189.812,-160.343"/>
<polygon fill="black" stroke="black" points="136.136,-139.706 125.546,-140.029 134.026,-146.38 136.136,-139.706"/>
</g>
<!-- Node0&#45;&gt;Node3 -->
<g id="edge3" class="edge"><title>Node0&#45;&gt;Node3</title>
<path fill="none" stroke="black" d="M164.086,-125C177.222,-125 190.386,-125 202.379,-125"/>
<polygon fill="black" stroke="black" points="164.066,-121.5 154.066,-125 164.066,-128.5 164.066,-121.5"/>
</g>
<!-- Node0&#45;&gt;Node5 -->
<g id="edge5" class="edge"><title>Node0&#45;&gt;Node5</title>
<path fill="none" stroke="black" d="M141.284,-107.179C160.07,-101.888 180.455,-96.1478 198.552,-91.0516"/>
<polygon fill="black" stroke="black" points="140.302,-103.819 131.626,-109.899 142.2,-110.557 140.302,-103.819"/>
</g>
<!-- Node2 -->
<g id="node6" class="node"><title>Node2</title>
<g id="a_node6"><a xlink:href="group__subopt__wuchty.html" target="_top" xlink:title="Suboptimal structures\l within an energy band\l arround the MFE">
<polygon fill="none" stroke="black" points="195.5,-0.5 195.5,-41.5 310.5,-41.5 310.5,-0.5 195.5,-0.5"/>
<text text-anchor="start" x="203.5" y="-29.5" font-family="Helvetica,sans-Serif" font-size="10.00">Suboptimal structures</text>
<text text-anchor="start" x="203.5" y="-18.5" font-family="Helvetica,sans-Serif" font-size="10.00"> within an energy band</text>
<text text-anchor="middle" x="253" y="-7.5" font-family="Helvetica,sans-Serif" font-size="10.00"> arround the MFE</text>
</a>
</g>
</g>
<!-- Node0&#45;&gt;Node2 -->
<g id="edge2" class="edge"><title>Node0&#45;&gt;Node2</title>
<path fill="none" stroke="black" d="M107.777,-104.26C130.017,-89.1006 161.382,-68.4099 190,-52 196.16,-48.4681 202.773,-44.9176 209.304,-41.5446"/>
<polygon fill="black" stroke="black" points="105.7,-101.441 99.4311,-109.982 109.658,-107.214 105.7,-101.441"/>
</g>
</g>
</svg>
