<?xml version="1.0" encoding="UTF-8" standalone="no"?>
<!DOCTYPE svg PUBLIC "-//W3C//DTD SVG 1.1//EN"
 "http://www.w3.org/Graphics/SVG/1.1/DTD/svg11.dtd">
<!-- Generated by graphviz version 2.38.0 (20140413.2041)
 -->
<!-- Title: Energy parameters Pages: 1 -->
<svg width="450pt" height="39pt"
 viewBox="0.00 0.00 450.00 39.00" xmlns="http://www.w3.org/2000/svg" xmlns:xlink="http://www.w3.org/1999/xlink">
<g id="graph0" class="graph" transform="scale(1 1) rotate(0) translate(4 35)">
<title>Energy parameters</title>
<!-- Node0 -->
<g id="node1" class="node"><title>Node0</title>
<polygon fill="#bfbfbf" stroke="black" points="167,-6 167,-25 266,-25 266,-6 167,-6"/>
<text text-anchor="middle" x="216.5" y="-13" font-family="Helvetica,sans-Serif" font-size="10.00">Energy parameters</text>
</g>
<!-- Node2 -->
<g id="node2" class="node"><title>Node2</title>
<g id="a_node2"><a xlink:href="group__energy__parameters__rw.html" target="_top" xlink:title="Read and Write energy parameter sets from and to text files. ">
<polygon fill="none" stroke="black" points="302,-0.5 302,-30.5 442,-30.5 442,-0.5 302,-0.5"/>
<text text-anchor="start" x="310" y="-18.5" font-family="Helvetica,sans-Serif" font-size="10.00">Reading/Writing Energy</text>
<text text-anchor="middle" x="372" y="-7.5" font-family="Helvetica,sans-Serif" font-size="10.00"> Parameter Sets from/to File</text>
</a>
</g>
</g>
<!-- Node0&#45;&gt;Node2 -->
<g id="edge2" class="edge"><title>Node0&#45;&gt;Node2</title>
<path fill="none" stroke="black" d="M276.183,-15.5C284.625,-15.5 293.376,-15.5 301.996,-15.5"/>
<polygon fill="black" stroke="black" points="276.068,-12.0001 266.068,-15.5 276.068,-19.0001 276.068,-12.0001"/>
</g>
<!-- Node1 -->
<g id="node3" class="node"><title>Node1</title>
<g id="a_node3"><a xlink:href="group__grammar.html" target="_top" xlink:title="The RNA folding grammar as implemented in RNAlib. ">
<polygon fill="none" stroke="black" points="0,-6 0,-25 131,-25 131,-6 0,-6"/>
<text text-anchor="middle" x="65.5" y="-13" font-family="Helvetica,sans-Serif" font-size="10.00">The RNA folding grammar</text>
</a>
</g>
</g>
<!-- Node1&#45;&gt;Node0 -->
<g id="edge1" class="edge"><title>Node1&#45;&gt;Node0</title>
<path fill="none" stroke="black" d="M141.529,-15.5C150.16,-15.5 158.782,-15.5 166.931,-15.5"/>
<polygon fill="black" stroke="black" points="141.42,-12.0001 131.42,-15.5 141.42,-19.0001 141.42,-12.0001"/>
</g>
</g>
</svg>
