<?xml version="1.0" encoding="UTF-8" standalone="no"?>
<!DOCTYPE svg PUBLIC "-//W3C//DTD SVG 1.1//EN"
 "http://www.w3.org/Graphics/SVG/1.1/DTD/svg11.dtd">
<!-- Generated by graphviz version 2.38.0 (20140413.2041)
 -->
<!-- Title: Utilities Pages: 1 -->
<svg width="255pt" height="330pt"
 viewBox="0.00 0.00 255.00 329.50" xmlns="http://www.w3.org/2000/svg" xmlns:xlink="http://www.w3.org/1999/xlink">
<g id="graph0" class="graph" transform="scale(1 1) rotate(0) translate(4 325.5)">
<title>Utilities</title>
<!-- Node2 -->
<g id="node1" class="node"><title>Node2</title>
<g id="a_node1"><a xlink:href="group__struct__utils.html" target="_top" xlink:title="Parsing, converting,\l comparing secondary\l structures">
<polygon fill="none" stroke="black" points="110,-280 110,-321 223,-321 223,-280 110,-280"/>
<text text-anchor="start" x="118" y="-309" font-family="Helvetica,sans-Serif" font-size="10.00">Parsing, converting,</text>
<text text-anchor="start" x="118" y="-298" font-family="Helvetica,sans-Serif" font-size="10.00"> comparing secondary</text>
<text text-anchor="middle" x="166.5" y="-287" font-family="Helvetica,sans-Serif" font-size="10.00"> structures</text>
</a>
</g>
</g>
<!-- Node6 -->
<g id="node2" class="node"><title>Node6</title>
<g id="a_node2"><a xlink:href="group__units.html" target="_top" xlink:title="Functions to convert\l between various units">
<polygon fill="none" stroke="black" points="109,-230.5 109,-260.5 224,-260.5 224,-230.5 109,-230.5"/>
<text text-anchor="start" x="117" y="-248.5" font-family="Helvetica,sans-Serif" font-size="10.00">Functions to convert</text>
<text text-anchor="middle" x="166.5" y="-237.5" font-family="Helvetica,sans-Serif" font-size="10.00"> between various units</text>
</a>
</g>
</g>
<!-- Node1 -->
<g id="node3" class="node"><title>Node1</title>
<g id="a_node3"><a xlink:href="group__string__utils.html" target="_top" xlink:title="Parsing, converting,\l and comparing sequences">
<polygon fill="none" stroke="black" points="99.5,-181.5 99.5,-211.5 233.5,-211.5 233.5,-181.5 99.5,-181.5"/>
<text text-anchor="start" x="107.5" y="-199.5" font-family="Helvetica,sans-Serif" font-size="10.00">Parsing, converting,</text>
<text text-anchor="middle" x="166.5" y="-188.5" font-family="Helvetica,sans-Serif" font-size="10.00"> and comparing sequences</text>
</a>
</g>
</g>
<!-- Node5 -->
<g id="node4" class="node"><title>Node5</title>
<g id="a_node4"><a xlink:href="group__plotting__utils.html" target="_top" xlink:title="Functions for Creating\l RNA Secondary Structures\l Plots, Dot&#45;Plots, and More">
<polygon fill="none" stroke="black" points="97,-121 97,-162 236,-162 236,-121 97,-121"/>
<text text-anchor="start" x="105" y="-150" font-family="Helvetica,sans-Serif" font-size="10.00">Functions for Creating</text>
<text text-anchor="start" x="105" y="-139" font-family="Helvetica,sans-Serif" font-size="10.00"> RNA Secondary Structures</text>
<text text-anchor="middle" x="166.5" y="-128" font-family="Helvetica,sans-Serif" font-size="10.00"> Plots, Dot&#45;Plots, and More</text>
</a>
</g>
</g>
<!-- Node4 -->
<g id="node5" class="node"><title>Node4</title>
<g id="a_node5"><a xlink:href="group__file__utils.html" target="_top" xlink:title="Functions dealing with file formats for RNA sequences, structures, and alignments. ">
<polygon fill="none" stroke="black" points="86,-49.5 86,-101.5 247,-101.5 247,-49.5 86,-49.5"/>
<text text-anchor="start" x="94" y="-89.5" font-family="Helvetica,sans-Serif" font-size="10.00">Functions to Read/Write</text>
<text text-anchor="start" x="94" y="-78.5" font-family="Helvetica,sans-Serif" font-size="10.00"> several File Formats</text>
<text text-anchor="start" x="94" y="-67.5" font-family="Helvetica,sans-Serif" font-size="10.00"> for RNA Sequences, Structures,</text>
<text text-anchor="middle" x="166.5" y="-56.5" font-family="Helvetica,sans-Serif" font-size="10.00"> and Alignments</text>
</a>
</g>
</g>
<!-- Node0 -->
<g id="node6" class="node"><title>Node0</title>
<polygon fill="#bfbfbf" stroke="black" points="0,-159 0,-178 50,-178 50,-159 0,-159"/>
<text text-anchor="middle" x="25" y="-166" font-family="Helvetica,sans-Serif" font-size="10.00">Utilities</text>
</g>
<!-- Node0&#45;&gt;Node2 -->
<g id="edge2" class="edge"><title>Node0&#45;&gt;Node2</title>
<path fill="none" stroke="black" d="M32.7095,-187.655C41.5789,-210.374 59.2754,-247.992 86,-270.5 92.9957,-276.392 101.266,-281.19 109.783,-285.077"/>
<polygon fill="black" stroke="black" points="35.9234,-186.256 29.159,-178.102 29.3619,-188.695 35.9234,-186.256"/>
</g>
<!-- Node0&#45;&gt;Node6 -->
<g id="edge6" class="edge"><title>Node0&#45;&gt;Node6</title>
<path fill="none" stroke="black" d="M41.3844,-185.513C52.7101,-197.119 69.0328,-212.046 86,-221.5 93.0527,-225.43 100.824,-228.789 108.662,-231.639"/>
<polygon fill="black" stroke="black" points="43.8073,-182.981 34.3955,-178.116 38.7192,-187.788 43.8073,-182.981"/>
</g>
<!-- Node0&#45;&gt;Node1 -->
<g id="edge1" class="edge"><title>Node0&#45;&gt;Node1</title>
<path fill="none" stroke="black" d="M60.1673,-175.358C72.0018,-177.733 85.7028,-180.483 99.229,-183.198"/>
<polygon fill="black" stroke="black" points="60.7923,-171.914 50.299,-173.377 59.4147,-178.777 60.7923,-171.914"/>
</g>
<!-- Node0&#45;&gt;Node5 -->
<g id="edge5" class="edge"><title>Node0&#45;&gt;Node5</title>
<path fill="none" stroke="black" d="M60.3765,-161.846C71.4623,-159.701 84.1694,-157.241 96.8292,-154.791"/>
<polygon fill="black" stroke="black" points="59.4517,-158.46 50.299,-163.797 60.782,-165.333 59.4517,-158.46"/>
</g>
<!-- Node0&#45;&gt;Node4 -->
<g id="edge4" class="edge"><title>Node0&#45;&gt;Node4</title>
<path fill="none" stroke="black" d="M41.1803,-151.273C52.6118,-139.041 69.1496,-122.843 86,-111.5 91.1532,-108.031 96.695,-104.75 102.369,-101.685"/>
<polygon fill="black" stroke="black" points="38.2888,-149.25 34.1409,-158.999 43.4631,-153.964 38.2888,-149.25"/>
</g>
<!-- Node3 -->
<g id="node7" class="node"><title>Node3</title>
<g id="a_node7"><a xlink:href="group__aln__utils.html" target="_top" xlink:title="Utilities for sequence\l alignments">
<polygon fill="none" stroke="black" points="112,-0.5 112,-30.5 221,-30.5 221,-0.5 112,-0.5"/>
<text text-anchor="start" x="120" y="-18.5" font-family="Helvetica,sans-Serif" font-size="10.00">Utilities for sequence</text>
<text text-anchor="middle" x="166.5" y="-7.5" font-family="Helvetica,sans-Serif" font-size="10.00"> alignments</text>
</a>
</g>
</g>
<!-- Node0&#45;&gt;Node3 -->
<g id="edge3" class="edge"><title>Node0&#45;&gt;Node3</title>
<path fill="none" stroke="black" d="M29.9216,-149.088C36.5756,-121.102 52.7288,-69.5968 86,-40.5 93.406,-34.0232 102.487,-29.2233 111.83,-25.6664"/>
<polygon fill="black" stroke="black" points="26.4976,-148.362 27.7561,-158.881 33.3326,-149.873 26.4976,-148.362"/>
</g>
</g>
</svg>
