<?xml version="1.0" encoding="UTF-8" standalone="no"?>
<!DOCTYPE svg PUBLIC "-//W3C//DTD SVG 1.1//EN"
 "http://www.w3.org/Graphics/SVG/1.1/DTD/svg11.dtd">
<!-- Generated by graphviz version 2.38.0 (20140413.2041)
 -->
<!-- Title: Structure sampling from the ensemble Pages: 1 -->
<svg width="478pt" height="110pt"
 viewBox="0.00 0.00 478.00 110.00" xmlns="http://www.w3.org/2000/svg" xmlns:xlink="http://www.w3.org/1999/xlink">
<g id="graph0" class="graph" transform="scale(1 1) rotate(0) translate(4 106)">
<title>Structure sampling from the ensemble</title>
<!-- Node3 -->
<g id="node1" class="node"><title>Node3</title>
<g id="a_node1"><a xlink:href="group__kl__neighborhood__stochbt.html" target="_top" xlink:title="Contains functions related to stochastic backtracking from a specified distance class. ">
<polygon fill="none" stroke="black" points="328.5,-60.5 328.5,-101.5 468.5,-101.5 468.5,-60.5 328.5,-60.5"/>
<text text-anchor="start" x="336.5" y="-89.5" font-family="Helvetica,sans-Serif" font-size="10.00">Stochastic Backtracking</text>
<text text-anchor="start" x="336.5" y="-78.5" font-family="Helvetica,sans-Serif" font-size="10.00"> of Structures from Distance</text>
<text text-anchor="middle" x="398.5" y="-67.5" font-family="Helvetica,sans-Serif" font-size="10.00"> Based Partitioning</text>
</a>
</g>
</g>
<!-- Node0 -->
<g id="node2" class="node"><title>Node0</title>
<polygon fill="#bfbfbf" stroke="black" points="190,-36 190,-66 291,-66 291,-36 190,-36"/>
<text text-anchor="start" x="198" y="-54" font-family="Helvetica,sans-Serif" font-size="10.00">Structure sampling</text>
<text text-anchor="middle" x="240.5" y="-43" font-family="Helvetica,sans-Serif" font-size="10.00"> from the ensemble</text>
</g>
<!-- Node0&#45;&gt;Node3 -->
<g id="edge3" class="edge"><title>Node0&#45;&gt;Node3</title>
<path fill="none" stroke="black" d="M301.139,-62.4691C310.015,-64.1759 319.226,-65.9473 328.278,-67.688"/>
<polygon fill="black" stroke="black" points="301.769,-59.0262 291.288,-60.5747 300.447,-65.9002 301.769,-59.0262"/>
</g>
<!-- Node2 -->
<g id="node3" class="node"><title>Node2</title>
<g id="a_node3"><a xlink:href="group__consensus__stochbt.html" target="_top" xlink:title="Stochastic Backtracking\l of Consensus Structures\l from Sequence Alignment(s)">
<polygon fill="none" stroke="black" points="327,-0.5 327,-41.5 470,-41.5 470,-0.5 327,-0.5"/>
<text text-anchor="start" x="335" y="-29.5" font-family="Helvetica,sans-Serif" font-size="10.00">Stochastic Backtracking</text>
<text text-anchor="start" x="335" y="-18.5" font-family="Helvetica,sans-Serif" font-size="10.00"> of Consensus Structures</text>
<text text-anchor="middle" x="398.5" y="-7.5" font-family="Helvetica,sans-Serif" font-size="10.00"> from Sequence Alignment(s)</text>
</a>
</g>
</g>
<!-- Node0&#45;&gt;Node2 -->
<g id="edge2" class="edge"><title>Node0&#45;&gt;Node2</title>
<path fill="none" stroke="black" d="M301.311,-39.4979C309.67,-37.8904 318.325,-36.226 326.861,-34.5845"/>
<polygon fill="black" stroke="black" points="300.447,-36.0998 291.288,-41.4253 301.769,-42.9738 300.447,-36.0998"/>
</g>
<!-- Node1 -->
<g id="node4" class="node"><title>Node1</title>
<g id="a_node4"><a xlink:href="group__subopt__and__representatives.html" target="_top" xlink:title="Sample and enumerate suboptimal secondary structures from RNA sequence data. ">
<polygon fill="none" stroke="black" points="0,-36 0,-66 154,-66 154,-36 0,-36"/>
<text text-anchor="start" x="8" y="-54" font-family="Helvetica,sans-Serif" font-size="10.00">Suboptimals and representative</text>
<text text-anchor="middle" x="77" y="-43" font-family="Helvetica,sans-Serif" font-size="10.00"> structures</text>
</a>
</g>
</g>
<!-- Node1&#45;&gt;Node0 -->
<g id="edge1" class="edge"><title>Node1&#45;&gt;Node0</title>
<path fill="none" stroke="black" d="M164.247,-51C172.945,-51 181.558,-51 189.679,-51"/>
<polygon fill="black" stroke="black" points="164.021,-47.5001 154.021,-51 164.021,-54.5001 164.021,-47.5001"/>
</g>
</g>
</svg>
