<?xml version="1.0" encoding="UTF-8" standalone="no"?>
<!DOCTYPE svg PUBLIC "-//W3C//DTD SVG 1.1//EN"
 "http://www.w3.org/Graphics/SVG/1.1/DTD/svg11.dtd">
<!-- Generated by graphviz version 2.38.0 (20140413.2041)
 -->
<!-- Title: ViennaRNA/interior_loops.h Pages: 1 -->
<svg width="1256pt" height="408pt"
 viewBox="0.00 0.00 1256.00 408.00" xmlns="http://www.w3.org/2000/svg" xmlns:xlink="http://www.w3.org/1999/xlink">
<g id="graph0" class="graph" transform="scale(1 1) rotate(0) translate(4 404)">
<title>ViennaRNA/interior_loops.h</title>
<!-- Node1 -->
<g id="node1" class="node"><title>Node1</title>
<polygon fill="#bfbfbf" stroke="black" points="422.5,-369.5 422.5,-399.5 523.5,-399.5 523.5,-369.5 422.5,-369.5"/>
<text text-anchor="start" x="430.5" y="-387.5" font-family="Helvetica,sans-Serif" font-size="10.00">ViennaRNA/interior</text>
<text text-anchor="middle" x="473" y="-376.5" font-family="Helvetica,sans-Serif" font-size="10.00">_loops.h</text>
</g>
<!-- Node2 -->
<g id="node2" class="node"><title>Node2</title>
<g id="a_node2"><a xlink:href="utils_8h.html" target="_top" xlink:title="General utility&#45; and helper&#45;functions used throughout the ViennaRNA Package. ">
<polygon fill="none" stroke="black" points="424,-313.5 424,-332.5 522,-332.5 522,-313.5 424,-313.5"/>
<text text-anchor="middle" x="473" y="-320.5" font-family="Helvetica,sans-Serif" font-size="10.00">ViennaRNA/utils.h</text>
</a>
</g>
</g>
<!-- Node1&#45;&gt;Node2 -->
<g id="edge1" class="edge"><title>Node1&#45;&gt;Node2</title>
<path fill="none" stroke="midnightblue" d="M473,-369.399C473,-361.466 473,-351.458 473,-342.858"/>
<polygon fill="midnightblue" stroke="midnightblue" points="476.5,-342.658 473,-332.658 469.5,-342.658 476.5,-342.658"/>
</g>
<!-- Node5 -->
<g id="node5" class="node"><title>Node5</title>
<g id="a_node5"><a xlink:href="data__structures_8h.html" target="_top" xlink:title="Various data structures and pre&#45;processor macros. ">
<polygon fill="none" stroke="black" points="571.5,-190.5 571.5,-209.5 718.5,-209.5 718.5,-190.5 571.5,-190.5"/>
<text text-anchor="middle" x="645" y="-197.5" font-family="Helvetica,sans-Serif" font-size="10.00">ViennaRNA/data_structures.h</text>
</a>
</g>
</g>
<!-- Node1&#45;&gt;Node5 -->
<g id="edge42" class="edge"><title>Node1&#45;&gt;Node5</title>
<path fill="none" stroke="midnightblue" d="M523.612,-382.187C592.994,-377.332 715.464,-357.153 772,-277 779.941,-265.741 779.951,-257.252 772,-246 760.51,-229.739 742.62,-219.316 723.857,-212.648"/>
<polygon fill="midnightblue" stroke="midnightblue" points="724.89,-209.303 714.299,-209.579 722.75,-215.968 724.89,-209.303"/>
</g>
<!-- Node9 -->
<g id="node9" class="node"><title>Node9</title>
<g id="a_node9"><a xlink:href="params_8h.html" target="_top" xlink:title="Functions to deal with sets of energy parameters. ">
<polygon fill="none" stroke="black" points="136,-129 136,-148 248,-148 248,-129 136,-129"/>
<text text-anchor="middle" x="192" y="-136" font-family="Helvetica,sans-Serif" font-size="10.00">ViennaRNA/params.h</text>
</a>
</g>
</g>
<!-- Node1&#45;&gt;Node9 -->
<g id="edge43" class="edge"><title>Node1&#45;&gt;Node9</title>
<path fill="none" stroke="midnightblue" d="M422.47,-370.815C353.713,-350.377 234.285,-302.712 191,-210 183.407,-193.737 184.84,-172.976 187.45,-158.205"/>
<polygon fill="midnightblue" stroke="midnightblue" points="190.911,-158.757 189.546,-148.25 184.061,-157.315 190.911,-158.757"/>
</g>
<!-- Node11 -->
<g id="node11" class="node"><title>Node11</title>
<g id="a_node11"><a xlink:href="constraints_8h.html" target="_top" xlink:title="Functions and data structures for constraining secondary structure predictions and evaluation...">
<polygon fill="none" stroke="black" points="984,-129 984,-148 1112,-148 1112,-129 984,-129"/>
<text text-anchor="middle" x="1048" y="-136" font-family="Helvetica,sans-Serif" font-size="10.00">ViennaRNA/constraints.h</text>
</a>
</g>
</g>
<!-- Node1&#45;&gt;Node11 -->
<g id="edge44" class="edge"><title>Node1&#45;&gt;Node11</title>
<path fill="none" stroke="midnightblue" d="M523.663,-379.369C577.965,-373.68 665.944,-360.788 737,-333 857.733,-285.784 983.398,-191.06 1029.58,-154.434"/>
<polygon fill="midnightblue" stroke="midnightblue" points="1031.87,-157.084 1037.49,-148.105 1027.5,-151.616 1031.87,-157.084"/>
</g>
<!-- Node24 -->
<g id="node24" class="node"><title>Node24</title>
<g id="a_node24"><a xlink:href="energy__par_8h_source.html" target="_top" xlink:title="ViennaRNA/energy_par.h">
<polygon fill="none" stroke="black" points="0,-313.5 0,-332.5 128,-332.5 128,-313.5 0,-313.5"/>
<text text-anchor="middle" x="64" y="-320.5" font-family="Helvetica,sans-Serif" font-size="10.00">ViennaRNA/energy_par.h</text>
</a>
</g>
</g>
<!-- Node1&#45;&gt;Node24 -->
<g id="edge40" class="edge"><title>Node1&#45;&gt;Node24</title>
<path fill="none" stroke="midnightblue" d="M422.438,-376.144C349.501,-365.534 214.551,-345.902 132.659,-333.988"/>
<polygon fill="midnightblue" stroke="midnightblue" points="133.098,-330.515 122.698,-332.539 132.09,-337.442 133.098,-330.515"/>
</g>
<!-- Node3 -->
<g id="node3" class="node"><title>Node3</title>
<polygon fill="none" stroke="#bfbfbf" points="491,-190.5 491,-209.5 537,-209.5 537,-190.5 491,-190.5"/>
<text text-anchor="middle" x="514" y="-197.5" font-family="Helvetica,sans-Serif" font-size="10.00">stdio.h</text>
</g>
<!-- Node2&#45;&gt;Node3 -->
<g id="edge2" class="edge"><title>Node2&#45;&gt;Node3</title>
<path fill="none" stroke="midnightblue" d="M474.54,-313.391C477.228,-299.116 483.329,-269.765 492,-246 495.391,-236.707 500.112,-226.788 504.311,-218.634"/>
<polygon fill="midnightblue" stroke="midnightblue" points="507.445,-220.196 509.051,-209.724 501.265,-216.909 507.445,-220.196"/>
</g>
<!-- Node4 -->
<g id="node4" class="node"><title>Node4</title>
<polygon fill="none" stroke="#bfbfbf" points="341,-190.5 341,-209.5 393,-209.5 393,-190.5 341,-190.5"/>
<text text-anchor="middle" x="367" y="-197.5" font-family="Helvetica,sans-Serif" font-size="10.00">stdarg.h</text>
</g>
<!-- Node2&#45;&gt;Node4 -->
<g id="edge3" class="edge"><title>Node2&#45;&gt;Node4</title>
<path fill="none" stroke="midnightblue" d="M423.99,-315.258C380.627,-308.171 322.103,-295.464 308,-277 299.637,-266.051 301.888,-258.348 308,-246 314.603,-232.659 327.265,-222.194 339.171,-214.726"/>
<polygon fill="midnightblue" stroke="midnightblue" points="341.118,-217.643 348.016,-209.602 337.609,-211.587 341.118,-217.643"/>
</g>
<!-- Node2&#45;&gt;Node5 -->
<g id="edge4" class="edge"><title>Node2&#45;&gt;Node5</title>
<path fill="none" stroke="midnightblue" d="M522.254,-321.478C594.753,-319.546 724.79,-311.26 754,-277 762.939,-266.516 761.661,-257.451 754,-246 743.094,-229.699 725.086,-219.296 706.819,-212.66"/>
<polygon fill="midnightblue" stroke="midnightblue" points="707.872,-209.322 697.279,-209.522 705.684,-215.972 707.872,-209.322"/>
</g>
<!-- Node20 -->
<g id="node20" class="node"><title>Node20</title>
<g id="a_node20"><a xlink:href="string__utils_8h.html" target="_top" xlink:title="General utility&#45; and helper&#45;functions for RNA sequence and structure strings used throughout the Vien...">
<polygon fill="none" stroke="black" points="317.5,-252 317.5,-271 444.5,-271 444.5,-252 317.5,-252"/>
<text text-anchor="middle" x="381" y="-259" font-family="Helvetica,sans-Serif" font-size="10.00">ViennaRNA/string_utils.h</text>
</a>
</g>
</g>
<!-- Node2&#45;&gt;Node20 -->
<g id="edge31" class="edge"><title>Node2&#45;&gt;Node20</title>
<path fill="none" stroke="midnightblue" d="M459.819,-313.475C444.926,-303.843 420.456,-288.017 402.727,-276.552"/>
<polygon fill="midnightblue" stroke="midnightblue" points="404.455,-273.501 394.157,-271.009 400.653,-279.379 404.455,-273.501"/>
</g>
<!-- Node21 -->
<g id="node21" class="node"><title>Node21</title>
<g id="a_node21"><a xlink:href="structure__utils_8h.html" target="_top" xlink:title="Various utility&#45; and helper&#45;functions for secondary structure parsing, converting, etc. ">
<polygon fill="none" stroke="black" points="501,-246.5 501,-276.5 611,-276.5 611,-246.5 501,-246.5"/>
<text text-anchor="start" x="509" y="-264.5" font-family="Helvetica,sans-Serif" font-size="10.00">ViennaRNA/structure</text>
<text text-anchor="middle" x="556" y="-253.5" font-family="Helvetica,sans-Serif" font-size="10.00">_utils.h</text>
</a>
</g>
</g>
<!-- Node2&#45;&gt;Node21 -->
<g id="edge34" class="edge"><title>Node2&#45;&gt;Node21</title>
<path fill="none" stroke="midnightblue" d="M484.892,-313.475C496.133,-305.417 513.422,-293.023 528.137,-282.474"/>
<polygon fill="midnightblue" stroke="midnightblue" points="530.35,-285.194 536.439,-276.523 526.272,-279.505 530.35,-285.194"/>
</g>
<!-- Node22 -->
<g id="node22" class="node"><title>Node22</title>
<g id="a_node22"><a xlink:href="file__utils_8h.html" target="_top" xlink:title="Several utilities for file handling. ">
<polygon fill="none" stroke="black" points="629,-252 629,-271 745,-271 745,-252 629,-252"/>
<text text-anchor="middle" x="687" y="-259" font-family="Helvetica,sans-Serif" font-size="10.00">ViennaRNA/file_utils.h</text>
</a>
</g>
</g>
<!-- Node2&#45;&gt;Node22 -->
<g id="edge37" class="edge"><title>Node2&#45;&gt;Node22</title>
<path fill="none" stroke="midnightblue" d="M503.661,-313.475C541.244,-303.026 605.044,-285.287 646.598,-273.733"/>
<polygon fill="midnightblue" stroke="midnightblue" points="647.699,-277.06 656.396,-271.009 645.824,-270.316 647.699,-277.06"/>
</g>
<!-- Node23 -->
<g id="node23" class="node"><title>Node23</title>
<g id="a_node23"><a xlink:href="alphabet_8h.html" target="_top" xlink:title="Functions to process, convert, and generally handle different nucleotide and/or base pair alphabets...">
<polygon fill="none" stroke="black" points="200,-190.5 200,-209.5 316,-209.5 316,-190.5 200,-190.5"/>
<text text-anchor="middle" x="258" y="-197.5" font-family="Helvetica,sans-Serif" font-size="10.00">ViennaRNA/alphabet.h</text>
</a>
</g>
</g>
<!-- Node2&#45;&gt;Node23 -->
<g id="edge38" class="edge"><title>Node2&#45;&gt;Node23</title>
<path fill="none" stroke="midnightblue" d="M423.706,-319.735C386.059,-315.707 334.737,-304.999 299,-277 280.236,-262.299 268.964,-236.542 263.116,-219.133"/>
<polygon fill="midnightblue" stroke="midnightblue" points="266.451,-218.07 260.158,-209.546 259.762,-220.134 266.451,-218.07"/>
</g>
<!-- Node6 -->
<g id="node6" class="node"><title>Node6</title>
<g id="a_node6"><a xlink:href="energy__const_8h.html" target="_top" xlink:title="Energy parameter constants. ">
<polygon fill="none" stroke="black" points="160,-62 160,-81 298,-81 298,-62 160,-62"/>
<text text-anchor="middle" x="229" y="-69" font-family="Helvetica,sans-Serif" font-size="10.00">ViennaRNA/energy_const.h</text>
</a>
</g>
</g>
<!-- Node5&#45;&gt;Node6 -->
<g id="edge5" class="edge"><title>Node5&#45;&gt;Node6</title>
<path fill="none" stroke="midnightblue" d="M572.324,-190.455C533.709,-183.975 486.248,-172.84 447,-154 427.039,-144.418 427.708,-133.093 408,-123 370.434,-103.762 324.564,-91.0038 288.663,-83.124"/>
<polygon fill="midnightblue" stroke="midnightblue" points="289.326,-79.6868 278.817,-81.0295 287.87,-86.5337 289.326,-79.6868"/>
</g>
<!-- Node8 -->
<g id="node8" class="node"><title>Node8</title>
<g id="a_node8"><a xlink:href="model_8h.html" target="_top" xlink:title="The model details data structure and its corresponding modifiers. ">
<polygon fill="none" stroke="black" points="36,-62 36,-81 142,-81 142,-62 36,-62"/>
<text text-anchor="middle" x="89" y="-69" font-family="Helvetica,sans-Serif" font-size="10.00">ViennaRNA/model.h</text>
</a>
</g>
</g>
<!-- Node5&#45;&gt;Node8 -->
<g id="edge7" class="edge"><title>Node5&#45;&gt;Node8</title>
<path fill="none" stroke="midnightblue" d="M571.479,-192.275C562.89,-191.502 554.252,-190.73 546,-190 452.909,-181.77 203.594,-207.545 127,-154 106.143,-139.419 96.4402,-110.363 92.1433,-91.1774"/>
<polygon fill="midnightblue" stroke="midnightblue" points="95.5477,-90.3489 90.1945,-81.2059 88.6776,-91.6916 95.5477,-90.3489"/>
</g>
<!-- Node5&#45;&gt;Node9 -->
<g id="edge8" class="edge"><title>Node5&#45;&gt;Node9</title>
<path fill="none" stroke="midnightblue" d="M571.128,-191.981C473.695,-182.087 307.843,-164.117 248,-154 241.641,-152.925 234.967,-151.63 228.51,-150.262"/>
<polygon fill="midnightblue" stroke="midnightblue" points="229.139,-146.817 218.619,-148.073 227.627,-153.651 229.139,-146.817"/>
</g>
<!-- Node10 -->
<g id="node10" class="node"><title>Node10</title>
<g id="a_node10"><a xlink:href="dp__matrices_8h.html" target="_top" xlink:title="Functions to deal with standard dynamic programming (DP) matrices. ">
<polygon fill="none" stroke="black" points="266.5,-129 266.5,-148 399.5,-148 399.5,-129 266.5,-129"/>
<text text-anchor="middle" x="333" y="-136" font-family="Helvetica,sans-Serif" font-size="10.00">ViennaRNA/dp_matrices.h</text>
</a>
</g>
</g>
<!-- Node5&#45;&gt;Node10 -->
<g id="edge12" class="edge"><title>Node5&#45;&gt;Node10</title>
<path fill="none" stroke="midnightblue" d="M595.397,-190.475C537.118,-179.805 441.178,-161.534 382.812,-150.009"/>
<polygon fill="midnightblue" stroke="midnightblue" points="383.212,-146.52 372.722,-148.009 381.851,-153.386 383.212,-146.52"/>
</g>
<!-- Node5&#45;&gt;Node11 -->
<g id="edge14" class="edge"><title>Node5&#45;&gt;Node11</title>
<path fill="none" stroke="midnightblue" d="M709.121,-190.476C773.849,-182.188 876.426,-168.723 965,-154 972.363,-152.776 980.117,-151.378 987.822,-149.944"/>
<polygon fill="midnightblue" stroke="midnightblue" points="988.706,-153.34 997.886,-148.05 987.411,-146.46 988.706,-153.34"/>
</g>
<!-- Node17 -->
<g id="node17" class="node"><title>Node17</title>
<g id="a_node17"><a xlink:href="grammar_8h.html" target="_top" xlink:title="Implementations for the RNA folding grammar. ">
<polygon fill="none" stroke="black" points="456,-129 456,-148 574,-148 574,-129 456,-129"/>
<text text-anchor="middle" x="515" y="-136" font-family="Helvetica,sans-Serif" font-size="10.00">ViennaRNA/grammar.h</text>
</a>
</g>
</g>
<!-- Node5&#45;&gt;Node17 -->
<g id="edge26" class="edge"><title>Node5&#45;&gt;Node17</title>
<path fill="none" stroke="midnightblue" d="M621.474,-190.475C597.691,-180.578 561.511,-164.142 537.947,-152.615"/>
<polygon fill="midnightblue" stroke="midnightblue" points="539.206,-149.332 528.694,-148.009 536.087,-155.599 539.206,-149.332"/>
</g>
<!-- Node18 -->
<g id="node18" class="node"><title>Node18</title>
<g id="a_node18"><a xlink:href="structured__domains_8h.html" target="_top" xlink:title="This module provides interfaces that deal with additional structured domains in the folding grammar...">
<polygon fill="none" stroke="black" points="630.5,-123.5 630.5,-153.5 745.5,-153.5 745.5,-123.5 630.5,-123.5"/>
<text text-anchor="start" x="638.5" y="-141.5" font-family="Helvetica,sans-Serif" font-size="10.00">ViennaRNA/structured</text>
<text text-anchor="middle" x="688" y="-130.5" font-family="Helvetica,sans-Serif" font-size="10.00">_domains.h</text>
</a>
</g>
</g>
<!-- Node5&#45;&gt;Node18 -->
<g id="edge28" class="edge"><title>Node5&#45;&gt;Node18</title>
<path fill="none" stroke="midnightblue" d="M651.161,-190.475C656.549,-183.019 664.62,-171.852 671.835,-161.869"/>
<polygon fill="midnightblue" stroke="midnightblue" points="674.845,-163.678 677.866,-153.523 669.172,-159.578 674.845,-163.678"/>
</g>
<!-- Node19 -->
<g id="node19" class="node"><title>Node19</title>
<g id="a_node19"><a xlink:href="unstructured__domains_8h.html" target="_top" xlink:title="Functions to modify unstructured domains, e.g. to incorporate ligands binding to unpaired stretches...">
<polygon fill="none" stroke="black" points="840.5,-123.5 840.5,-153.5 965.5,-153.5 965.5,-123.5 840.5,-123.5"/>
<text text-anchor="start" x="848.5" y="-141.5" font-family="Helvetica,sans-Serif" font-size="10.00">ViennaRNA/unstructured</text>
<text text-anchor="middle" x="903" y="-130.5" font-family="Helvetica,sans-Serif" font-size="10.00">_domains.h</text>
</a>
</g>
</g>
<!-- Node5&#45;&gt;Node19 -->
<g id="edge29" class="edge"><title>Node5&#45;&gt;Node19</title>
<path fill="none" stroke="midnightblue" d="M677.065,-190.475C715.274,-181.197 780.065,-166.171 830.533,-154.831"/>
<polygon fill="midnightblue" stroke="midnightblue" points="831.431,-158.217 840.424,-152.615 829.901,-151.386 831.431,-158.217"/>
</g>
<!-- Node7 -->
<g id="node7" class="node"><title>Node7</title>
<polygon fill="none" stroke="#bfbfbf" points="205,-0.5 205,-19.5 253,-19.5 253,-0.5 205,-0.5"/>
<text text-anchor="middle" x="229" y="-7.5" font-family="Helvetica,sans-Serif" font-size="10.00">limits.h</text>
</g>
<!-- Node6&#45;&gt;Node7 -->
<g id="edge6" class="edge"><title>Node6&#45;&gt;Node7</title>
<path fill="none" stroke="midnightblue" d="M229,-61.9751C229,-53.5803 229,-40.4806 229,-29.6631"/>
<polygon fill="midnightblue" stroke="midnightblue" points="232.5,-29.5091 229,-19.5091 225.5,-29.5091 232.5,-29.5091"/>
</g>
<!-- Node9&#45;&gt;Node5 -->
<g id="edge10" class="edge"><title>Node9&#45;&gt;Node5</title>
<path fill="none" stroke="midnightblue" d="M235.961,-148.073C245.888,-150.213 256.31,-152.362 266,-154 321.32,-163.352 467.23,-179.415 561.077,-189.606"/>
<polygon fill="midnightblue" stroke="midnightblue" points="560.803,-193.097 571.122,-190.696 561.558,-186.138 560.803,-193.097"/>
</g>
<!-- Node9&#45;&gt;Node6 -->
<g id="edge9" class="edge"><title>Node9&#45;&gt;Node6</title>
<path fill="none" stroke="midnightblue" d="M196.99,-128.734C202.593,-118.89 211.832,-102.66 218.948,-90.1594"/>
<polygon fill="midnightblue" stroke="midnightblue" points="222.184,-91.5494 224.089,-81.1273 216.1,-88.0865 222.184,-91.5494"/>
</g>
<!-- Node9&#45;&gt;Node8 -->
<g id="edge11" class="edge"><title>Node9&#45;&gt;Node8</title>
<path fill="none" stroke="midnightblue" d="M178.109,-128.734C160.966,-117.916 131.6,-99.3832 111.289,-86.5659"/>
<polygon fill="midnightblue" stroke="midnightblue" points="112.996,-83.5043 102.671,-81.1273 109.26,-89.4241 112.996,-83.5043"/>
</g>
<!-- Node10&#45;&gt;Node5 -->
<g id="edge13" class="edge"><title>Node10&#45;&gt;Node5</title>
<path fill="none" stroke="midnightblue" d="M382.516,-148.009C440.758,-158.672 536.698,-176.943 595.101,-188.474"/>
<polygon fill="midnightblue" stroke="midnightblue" points="594.709,-191.964 605.199,-190.475 596.07,-185.098 594.709,-191.964"/>
</g>
<!-- Node11&#45;&gt;Node5 -->
<g id="edge15" class="edge"><title>Node11&#45;&gt;Node5</title>
<path fill="none" stroke="midnightblue" d="M1015.29,-148.05C1004.99,-150.119 993.59,-152.24 983,-154 896.993,-168.296 797.783,-181.406 729.131,-189.742"/>
<polygon fill="midnightblue" stroke="midnightblue" points="728.315,-186.315 718.806,-190.988 729.154,-193.265 728.315,-186.315"/>
</g>
<!-- Node12 -->
<g id="node12" class="node"><title>Node12</title>
<g id="a_node12"><a xlink:href="constraints__hard_8h.html" target="_top" xlink:title="Functions and data structures for handling of secondary structure hard constraints. ">
<polygon fill="none" stroke="black" points="714.5,-56.5 714.5,-86.5 833.5,-86.5 833.5,-56.5 714.5,-56.5"/>
<text text-anchor="start" x="722.5" y="-74.5" font-family="Helvetica,sans-Serif" font-size="10.00">ViennaRNA/constraints</text>
<text text-anchor="middle" x="774" y="-63.5" font-family="Helvetica,sans-Serif" font-size="10.00">_hard.h</text>
</a>
</g>
</g>
<!-- Node11&#45;&gt;Node12 -->
<g id="edge16" class="edge"><title>Node11&#45;&gt;Node12</title>
<path fill="none" stroke="midnightblue" d="M1011.9,-128.936C969.078,-118.778 896.751,-101.62 843.061,-88.8832"/>
<polygon fill="midnightblue" stroke="midnightblue" points="843.803,-85.4619 833.265,-86.5592 842.187,-92.2729 843.803,-85.4619"/>
</g>
<!-- Node13 -->
<g id="node13" class="node"><title>Node13</title>
<g id="a_node13"><a xlink:href="constraints__soft_8h.html" target="_top" xlink:title="Functions and data structures for secondary structure soft constraints. ">
<polygon fill="none" stroke="black" points="851.5,-56.5 851.5,-86.5 970.5,-86.5 970.5,-56.5 851.5,-56.5"/>
<text text-anchor="start" x="859.5" y="-74.5" font-family="Helvetica,sans-Serif" font-size="10.00">ViennaRNA/constraints</text>
<text text-anchor="middle" x="911" y="-63.5" font-family="Helvetica,sans-Serif" font-size="10.00">_soft.h</text>
</a>
</g>
</g>
<!-- Node11&#45;&gt;Node13 -->
<g id="edge18" class="edge"><title>Node11&#45;&gt;Node13</title>
<path fill="none" stroke="midnightblue" d="M1029.81,-128.869C1009.52,-119.242 976.102,-103.388 949.869,-90.9415"/>
<polygon fill="midnightblue" stroke="midnightblue" points="951.102,-87.6525 940.567,-86.5281 948.101,-93.9768 951.102,-87.6525"/>
</g>
<!-- Node14 -->
<g id="node14" class="node"><title>Node14</title>
<g id="a_node14"><a xlink:href="constraints__SHAPE_8h.html" target="_top" xlink:title="This module provides function to incorporate SHAPE reactivity data into the folding recursions by mea...">
<polygon fill="none" stroke="black" points="988.5,-56.5 988.5,-86.5 1107.5,-86.5 1107.5,-56.5 988.5,-56.5"/>
<text text-anchor="start" x="996.5" y="-74.5" font-family="Helvetica,sans-Serif" font-size="10.00">ViennaRNA/constraints</text>
<text text-anchor="middle" x="1048" y="-63.5" font-family="Helvetica,sans-Serif" font-size="10.00">_SHAPE.h</text>
</a>
</g>
</g>
<!-- Node11&#45;&gt;Node14 -->
<g id="edge20" class="edge"><title>Node11&#45;&gt;Node14</title>
<path fill="none" stroke="midnightblue" d="M1048,-128.734C1048,-120.541 1048,-107.923 1048,-96.7136"/>
<polygon fill="midnightblue" stroke="midnightblue" points="1051.5,-96.589 1048,-86.589 1044.5,-96.5891 1051.5,-96.589"/>
</g>
<!-- Node15 -->
<g id="node15" class="node"><title>Node15</title>
<g id="a_node15"><a xlink:href="perturbation__fold_8h.html" target="_top" xlink:title="Find a vector of perturbation energies that minimizes the discripancies between predicted and observe...">
<polygon fill="none" stroke="black" points="1126,-56.5 1126,-86.5 1248,-86.5 1248,-56.5 1126,-56.5"/>
<text text-anchor="start" x="1134" y="-74.5" font-family="Helvetica,sans-Serif" font-size="10.00">ViennaRNA/perturbation</text>
<text text-anchor="middle" x="1187" y="-63.5" font-family="Helvetica,sans-Serif" font-size="10.00">_fold.h</text>
</a>
</g>
</g>
<!-- Node11&#45;&gt;Node15 -->
<g id="edge22" class="edge"><title>Node11&#45;&gt;Node15</title>
<path fill="none" stroke="midnightblue" d="M1066.46,-128.869C1087.13,-119.199 1121.25,-103.249 1147.91,-90.778"/>
<polygon fill="midnightblue" stroke="midnightblue" points="1149.43,-93.9346 1157,-86.5281 1146.46,-87.5936 1149.43,-93.9346"/>
</g>
<!-- Node16 -->
<g id="node16" class="node"><title>Node16</title>
<g id="a_node16"><a xlink:href="constraints__ligand_8h.html" target="_top" xlink:title="Functions for incorporation of ligands binding to hairpin and interior loop motifs using the soft con...">
<polygon fill="none" stroke="black" points="559.5,-56.5 559.5,-86.5 678.5,-86.5 678.5,-56.5 559.5,-56.5"/>
<text text-anchor="start" x="567.5" y="-74.5" font-family="Helvetica,sans-Serif" font-size="10.00">ViennaRNA/constraints</text>
<text text-anchor="middle" x="619" y="-63.5" font-family="Helvetica,sans-Serif" font-size="10.00">_ligand.h</text>
</a>
</g>
</g>
<!-- Node11&#45;&gt;Node16 -->
<g id="edge24" class="edge"><title>Node11&#45;&gt;Node16</title>
<path fill="none" stroke="midnightblue" d="M1006.59,-128.928C995.991,-126.86 984.592,-124.745 974,-123 854.983,-103.394 824.266,-105.03 705,-87 699.667,-86.1937 694.152,-85.3311 688.61,-84.4433"/>
<polygon fill="midnightblue" stroke="midnightblue" points="689.07,-80.9722 678.638,-82.825 687.949,-87.8818 689.07,-80.9722"/>
</g>
<!-- Node12&#45;&gt;Node5 -->
<g id="edge17" class="edge"><title>Node12&#45;&gt;Node5</title>
<path fill="none" stroke="midnightblue" d="M774.237,-86.6181C773.786,-104.386 770.428,-134.885 754,-154 740.009,-170.279 719.196,-180.771 699.495,-187.487"/>
<polygon fill="midnightblue" stroke="midnightblue" points="698.437,-184.15 689.948,-190.489 700.537,-190.828 698.437,-184.15"/>
</g>
<!-- Node13&#45;&gt;Node5 -->
<g id="edge19" class="edge"><title>Node13&#45;&gt;Node5</title>
<path fill="none" stroke="midnightblue" d="M889.074,-86.5178C856.96,-106.913 798.51,-143.485 776,-154 746.538,-167.763 711.65,-179.542 685.288,-187.593"/>
<polygon fill="midnightblue" stroke="midnightblue" points="684.202,-184.264 675.631,-190.492 686.215,-190.969 684.202,-184.264"/>
</g>
<!-- Node14&#45;&gt;Node5 -->
<g id="edge21" class="edge"><title>Node14&#45;&gt;Node5</title>
<path fill="none" stroke="midnightblue" d="M1075.82,-86.5486C1104.55,-102.839 1142.41,-130.467 1121,-154 1095.18,-182.375 858.423,-193.235 728.846,-197.08"/>
<polygon fill="midnightblue" stroke="midnightblue" points="728.456,-193.59 718.561,-197.377 728.658,-200.587 728.456,-193.59"/>
</g>
<!-- Node15&#45;&gt;Node5 -->
<g id="edge23" class="edge"><title>Node15&#45;&gt;Node5</title>
<path fill="none" stroke="midnightblue" d="M1182.95,-86.5572C1176.7,-105.455 1162.75,-138.471 1138,-154 1104.23,-175.185 860.441,-189.3 728.804,-195.464"/>
<polygon fill="midnightblue" stroke="midnightblue" points="728.577,-191.971 718.75,-195.93 728.901,-198.964 728.577,-191.971"/>
</g>
<!-- Node16&#45;&gt;Node5 -->
<g id="edge25" class="edge"><title>Node16&#45;&gt;Node5</title>
<path fill="none" stroke="midnightblue" d="M617.402,-86.6185C615.98,-103.091 614.95,-131.004 621,-154 623.558,-163.724 628.57,-173.676 633.354,-181.74"/>
<polygon fill="midnightblue" stroke="midnightblue" points="630.407,-183.628 638.706,-190.213 636.325,-179.89 630.407,-183.628"/>
</g>
<!-- Node17&#45;&gt;Node5 -->
<g id="edge27" class="edge"><title>Node17&#45;&gt;Node5</title>
<path fill="none" stroke="midnightblue" d="M538.488,-148.009C562.258,-157.899 598.438,-174.335 622.015,-185.867"/>
<polygon fill="midnightblue" stroke="midnightblue" points="620.763,-189.153 631.275,-190.475 623.882,-182.886 620.763,-189.153"/>
</g>
<!-- Node19&#45;&gt;Node5 -->
<g id="edge30" class="edge"><title>Node19&#45;&gt;Node5</title>
<path fill="none" stroke="midnightblue" d="M848.024,-153.523C803.267,-164.162 740.635,-178.568 696.76,-188.292"/>
<polygon fill="midnightblue" stroke="midnightblue" points="695.877,-184.903 686.866,-190.475 697.385,-191.738 695.877,-184.903"/>
</g>
<!-- Node20&#45;&gt;Node4 -->
<g id="edge32" class="edge"><title>Node20&#45;&gt;Node4</title>
<path fill="none" stroke="midnightblue" d="M378.994,-251.975C376.998,-243.492 373.872,-230.204 371.311,-219.322"/>
<polygon fill="midnightblue" stroke="midnightblue" points="374.7,-218.442 369.002,-209.509 367.886,-220.045 374.7,-218.442"/>
</g>
<!-- Node20&#45;&gt;Node5 -->
<g id="edge33" class="edge"><title>Node20&#45;&gt;Node5</title>
<path fill="none" stroke="midnightblue" d="M418.825,-251.975C465.874,-241.371 546.232,-223.26 597.416,-211.724"/>
<polygon fill="midnightblue" stroke="midnightblue" points="598.26,-215.122 607.245,-209.509 596.721,-208.293 598.26,-215.122"/>
</g>
<!-- Node21&#45;&gt;Node3 -->
<g id="edge35" class="edge"><title>Node21&#45;&gt;Node3</title>
<path fill="none" stroke="midnightblue" d="M546.047,-246.399C540.006,-237.842 532.262,-226.871 525.899,-217.857"/>
<polygon fill="midnightblue" stroke="midnightblue" points="528.738,-215.809 520.111,-209.658 523.019,-219.846 528.738,-215.809"/>
</g>
<!-- Node21&#45;&gt;Node5 -->
<g id="edge36" class="edge"><title>Node21&#45;&gt;Node5</title>
<path fill="none" stroke="midnightblue" d="M577.092,-246.399C591.091,-237.04 609.411,-224.792 623.495,-215.377"/>
<polygon fill="midnightblue" stroke="midnightblue" points="625.682,-218.125 632.05,-209.658 621.791,-212.306 625.682,-218.125"/>
</g>
<!-- Node23&#45;&gt;Node8 -->
<g id="edge39" class="edge"><title>Node23&#45;&gt;Node8</title>
<path fill="none" stroke="midnightblue" d="M200.709,-190.481C159.019,-183.014 107.588,-170.73 94,-154 79.7898,-136.504 81.3026,-109.302 84.4891,-91.2"/>
<polygon fill="midnightblue" stroke="midnightblue" points="87.9439,-91.7776 86.5638,-81.273 81.092,-90.3455 87.9439,-91.7776"/>
</g>
<!-- Node24&#45;&gt;Node6 -->
<g id="edge41" class="edge"><title>Node24&#45;&gt;Node6</title>
<path fill="none" stroke="midnightblue" d="M64.4017,-313.295C66.2264,-283.24 76.0464,-182.42 127,-123 142.657,-104.742 166.485,-92.429 187.174,-84.536"/>
<polygon fill="midnightblue" stroke="midnightblue" points="188.491,-87.7822 196.722,-81.1124 186.128,-81.193 188.491,-87.7822"/>
</g>
</g>
</svg>
