<?xml version="1.0" encoding="UTF-8" standalone="no"?>
<!DOCTYPE svg PUBLIC "-//W3C//DTD SVG 1.1//EN"
 "http://www.w3.org/Graphics/SVG/1.1/DTD/svg11.dtd">
<!-- Generated by graphviz version 2.38.0 (20140413.2041)
 -->
<!-- Title: ViennaRNA/loop_energies.h Pages: 1 -->
<svg width="1533pt" height="464pt"
 viewBox="0.00 0.00 1533.00 464.00" xmlns="http://www.w3.org/2000/svg" xmlns:xlink="http://www.w3.org/1999/xlink">
<g id="graph0" class="graph" transform="scale(1 1) rotate(0) translate(4 460)">
<title>ViennaRNA/loop_energies.h</title>
<!-- Node1 -->
<g id="node1" class="node"><title>Node1</title>
<polygon fill="#bfbfbf" stroke="black" points="861.5,-436.5 861.5,-455.5 1001.5,-455.5 1001.5,-436.5 861.5,-436.5"/>
<text text-anchor="middle" x="931.5" y="-443.5" font-family="Helvetica,sans-Serif" font-size="10.00">ViennaRNA/loop_energies.h</text>
</g>
<!-- Node2 -->
<g id="node2" class="node"><title>Node2</title>
<g id="a_node2"><a xlink:href="exterior__loops_8h.html" target="_top" xlink:title="Energy evaluation of exterior loops for MFE and partition function calculations. ">
<polygon fill="none" stroke="black" points="465.5,-246.5 465.5,-276.5 569.5,-276.5 569.5,-246.5 465.5,-246.5"/>
<text text-anchor="start" x="473.5" y="-264.5" font-family="Helvetica,sans-Serif" font-size="10.00">ViennaRNA/exterior</text>
<text text-anchor="middle" x="517.5" y="-253.5" font-family="Helvetica,sans-Serif" font-size="10.00">_loops.h</text>
</a>
</g>
</g>
<!-- Node1&#45;&gt;Node2 -->
<g id="edge1" class="edge"><title>Node1&#45;&gt;Node2</title>
<path fill="none" stroke="midnightblue" d="M878.125,-436.485C806.588,-423.223 677.719,-392.71 583.5,-333 563.545,-320.354 545.562,-300.271 533.426,-284.768"/>
<polygon fill="midnightblue" stroke="midnightblue" points="536.141,-282.556 527.309,-276.704 530.563,-286.786 536.141,-282.556"/>
</g>
<!-- Node18 -->
<g id="node18" class="node"><title>Node18</title>
<g id="a_node18"><a xlink:href="hairpin__loops_8h.html" target="_top" xlink:title="Energy evaluation of hairpin loops for MFE and partition function calculations. ">
<polygon fill="none" stroke="black" points="1189,-375 1189,-394 1326,-394 1326,-375 1189,-375"/>
<text text-anchor="middle" x="1257.5" y="-382" font-family="Helvetica,sans-Serif" font-size="10.00">ViennaRNA/hairpin_loops.h</text>
</a>
</g>
</g>
<!-- Node1&#45;&gt;Node18 -->
<g id="edge30" class="edge"><title>Node1&#45;&gt;Node18</title>
<path fill="none" stroke="midnightblue" d="M978.208,-436.475C1036.91,-425.761 1137.61,-407.382 1200.7,-395.866"/>
<polygon fill="midnightblue" stroke="midnightblue" points="1201.67,-399.248 1210.88,-394.009 1200.41,-392.362 1201.67,-399.248"/>
</g>
<!-- Node28 -->
<g id="node28" class="node"><title>Node28</title>
<g id="a_node28"><a xlink:href="interior__loops_8h.html" target="_top" xlink:title="Energy evaluation of interior loops for MFE and partition function calculations. ">
<polygon fill="none" stroke="black" points="946,-369.5 946,-399.5 1047,-399.5 1047,-369.5 946,-369.5"/>
<text text-anchor="start" x="954" y="-387.5" font-family="Helvetica,sans-Serif" font-size="10.00">ViennaRNA/interior</text>
<text text-anchor="middle" x="996.5" y="-376.5" font-family="Helvetica,sans-Serif" font-size="10.00">_loops.h</text>
</a>
</g>
</g>
<!-- Node1&#45;&gt;Node28 -->
<g id="edge48" class="edge"><title>Node1&#45;&gt;Node28</title>
<path fill="none" stroke="midnightblue" d="M940.813,-436.475C949.369,-428.643 962.4,-416.714 973.706,-406.366"/>
<polygon fill="midnightblue" stroke="midnightblue" points="976.168,-408.857 981.181,-399.523 971.441,-403.693 976.168,-408.857"/>
</g>
<!-- Node30 -->
<g id="node30" class="node"><title>Node30</title>
<g id="a_node30"><a xlink:href="multibranch__loops_8h.html" target="_top" xlink:title="Energy evaluation of multibranch loops for MFE and partition function calculations. ">
<polygon fill="none" stroke="black" points="805.5,-369.5 805.5,-399.5 927.5,-399.5 927.5,-369.5 805.5,-369.5"/>
<text text-anchor="start" x="813.5" y="-387.5" font-family="Helvetica,sans-Serif" font-size="10.00">ViennaRNA/multibranch</text>
<text text-anchor="middle" x="866.5" y="-376.5" font-family="Helvetica,sans-Serif" font-size="10.00">_loops.h</text>
</a>
</g>
</g>
<!-- Node1&#45;&gt;Node30 -->
<g id="edge55" class="edge"><title>Node1&#45;&gt;Node30</title>
<path fill="none" stroke="midnightblue" d="M922.187,-436.475C913.631,-428.643 900.6,-416.714 889.294,-406.366"/>
<polygon fill="midnightblue" stroke="midnightblue" points="891.559,-403.693 881.819,-399.523 886.832,-408.857 891.559,-403.693"/>
</g>
<!-- Node3 -->
<g id="node3" class="node"><title>Node3</title>
<g id="a_node3"><a xlink:href="data__structures_8h.html" target="_top" xlink:title="Various data structures and pre&#45;processor macros. ">
<polygon fill="none" stroke="black" points="560,-190.5 560,-209.5 707,-209.5 707,-190.5 560,-190.5"/>
<text text-anchor="middle" x="633.5" y="-197.5" font-family="Helvetica,sans-Serif" font-size="10.00">ViennaRNA/data_structures.h</text>
</a>
</g>
</g>
<!-- Node2&#45;&gt;Node3 -->
<g id="edge2" class="edge"><title>Node2&#45;&gt;Node3</title>
<path fill="none" stroke="midnightblue" d="M544.99,-246.399C563.932,-236.684 588.942,-223.855 607.544,-214.314"/>
<polygon fill="midnightblue" stroke="midnightblue" points="609.321,-217.336 616.621,-209.658 606.126,-211.108 609.321,-217.336"/>
</g>
<!-- Node7 -->
<g id="node7" class="node"><title>Node7</title>
<g id="a_node7"><a xlink:href="params_8h.html" target="_top" xlink:title="Functions to deal with sets of energy parameters. ">
<polygon fill="none" stroke="black" points="1140.5,-129 1140.5,-148 1252.5,-148 1252.5,-129 1140.5,-129"/>
<text text-anchor="middle" x="1196.5" y="-136" font-family="Helvetica,sans-Serif" font-size="10.00">ViennaRNA/params.h</text>
</a>
</g>
</g>
<!-- Node2&#45;&gt;Node7 -->
<g id="edge29" class="edge"><title>Node2&#45;&gt;Node7</title>
<path fill="none" stroke="midnightblue" d="M569.751,-255.012C637.824,-247.375 760.335,-231.962 863.5,-210 895.565,-203.174 902.598,-197.554 934.5,-190 1002.89,-173.807 1082.24,-159.07 1135.54,-149.751"/>
<polygon fill="midnightblue" stroke="midnightblue" points="1136.26,-153.178 1145.51,-148.017 1135.06,-146.282 1136.26,-153.178"/>
</g>
<!-- Node4 -->
<g id="node4" class="node"><title>Node4</title>
<g id="a_node4"><a xlink:href="energy__const_8h.html" target="_top" xlink:title="Energy parameter constants. ">
<polygon fill="none" stroke="black" points="1155.5,-62 1155.5,-81 1293.5,-81 1293.5,-62 1155.5,-62"/>
<text text-anchor="middle" x="1224.5" y="-69" font-family="Helvetica,sans-Serif" font-size="10.00">ViennaRNA/energy_const.h</text>
</a>
</g>
</g>
<!-- Node3&#45;&gt;Node4 -->
<g id="edge3" class="edge"><title>Node3&#45;&gt;Node4</title>
<path fill="none" stroke="midnightblue" d="M707.03,-191.794C823.266,-180.309 1038.06,-158.67 1054.5,-154 1083.66,-145.717 1159.62,-106.754 1199.39,-85.8434"/>
<polygon fill="midnightblue" stroke="midnightblue" points="1201.23,-88.8289 1208.44,-81.0666 1197.97,-82.6378 1201.23,-88.8289"/>
</g>
<!-- Node6 -->
<g id="node6" class="node"><title>Node6</title>
<g id="a_node6"><a xlink:href="model_8h.html" target="_top" xlink:title="The model details data structure and its corresponding modifiers. ">
<polygon fill="none" stroke="black" points="1031.5,-62 1031.5,-81 1137.5,-81 1137.5,-62 1031.5,-62"/>
<text text-anchor="middle" x="1084.5" y="-69" font-family="Helvetica,sans-Serif" font-size="10.00">ViennaRNA/model.h</text>
</a>
</g>
</g>
<!-- Node3&#45;&gt;Node6 -->
<g id="edge5" class="edge"><title>Node3&#45;&gt;Node6</title>
<path fill="none" stroke="midnightblue" d="M697.571,-190.485C757.437,-181.893 842.021,-167.936 872.5,-154 892.637,-144.793 891.838,-133.182 911.5,-123 948.041,-104.078 992.696,-91.2695 1027.48,-83.2872"/>
<polygon fill="midnightblue" stroke="midnightblue" points="1028.48,-86.6514 1037.48,-81.0631 1026.96,-79.8185 1028.48,-86.6514"/>
</g>
<!-- Node3&#45;&gt;Node7 -->
<g id="edge6" class="edge"><title>Node3&#45;&gt;Node7</title>
<path fill="none" stroke="midnightblue" d="M707.153,-191.468C814.597,-180.948 1008.93,-162.224 1079.5,-154 1095.84,-152.096 1113.54,-149.812 1130.14,-147.627"/>
<polygon fill="midnightblue" stroke="midnightblue" points="1130.86,-151.062 1140.32,-146.283 1129.94,-144.123 1130.86,-151.062"/>
</g>
<!-- Node8 -->
<g id="node8" class="node"><title>Node8</title>
<g id="a_node8"><a xlink:href="dp__matrices_8h.html" target="_top" xlink:title="Functions to deal with standard dynamic programming (DP) matrices. ">
<polygon fill="none" stroke="black" points="423,-129 423,-148 556,-148 556,-129 423,-129"/>
<text text-anchor="middle" x="489.5" y="-136" font-family="Helvetica,sans-Serif" font-size="10.00">ViennaRNA/dp_matrices.h</text>
</a>
</g>
</g>
<!-- Node3&#45;&gt;Node8 -->
<g id="edge10" class="edge"><title>Node3&#45;&gt;Node8</title>
<path fill="none" stroke="midnightblue" d="M607.968,-190.475C581.507,-180.445 540.733,-163.7 514.485,-152.155"/>
<polygon fill="midnightblue" stroke="midnightblue" points="515.755,-148.889 505.196,-148.009 512.902,-155.281 515.755,-148.889"/>
</g>
<!-- Node9 -->
<g id="node9" class="node"><title>Node9</title>
<g id="a_node9"><a xlink:href="constraints_8h.html" target="_top" xlink:title="Functions and data structures for constraining secondary structure predictions and evaluation...">
<polygon fill="none" stroke="black" points="200.5,-129 200.5,-148 328.5,-148 328.5,-129 200.5,-129"/>
<text text-anchor="middle" x="264.5" y="-136" font-family="Helvetica,sans-Serif" font-size="10.00">ViennaRNA/constraints.h</text>
</a>
</g>
</g>
<!-- Node3&#45;&gt;Node9 -->
<g id="edge12" class="edge"><title>Node3&#45;&gt;Node9</title>
<path fill="none" stroke="midnightblue" d="M568.068,-190.471C507.063,-181.784 413.882,-167.683 333.5,-154 325.947,-152.714 317.994,-151.303 310.263,-149.881"/>
<polygon fill="midnightblue" stroke="midnightblue" points="310.754,-146.412 300.281,-148.015 309.468,-153.293 310.754,-146.412"/>
</g>
<!-- Node15 -->
<g id="node15" class="node"><title>Node15</title>
<g id="a_node15"><a xlink:href="grammar_8h.html" target="_top" xlink:title="Implementations for the RNA folding grammar. ">
<polygon fill="none" stroke="black" points="574.5,-129 574.5,-148 692.5,-148 692.5,-129 574.5,-129"/>
<text text-anchor="middle" x="633.5" y="-136" font-family="Helvetica,sans-Serif" font-size="10.00">ViennaRNA/grammar.h</text>
</a>
</g>
</g>
<!-- Node3&#45;&gt;Node15 -->
<g id="edge24" class="edge"><title>Node3&#45;&gt;Node15</title>
<path fill="none" stroke="midnightblue" d="M628.599,-190.475C626.768,-182.08 626.297,-168.981 627.185,-158.163"/>
<polygon fill="midnightblue" stroke="midnightblue" points="630.686,-158.397 628.603,-148.009 623.754,-157.429 630.686,-158.397"/>
</g>
<!-- Node16 -->
<g id="node16" class="node"><title>Node16</title>
<g id="a_node16"><a xlink:href="structured__domains_8h.html" target="_top" xlink:title="This module provides interfaces that deal with additional structured domains in the folding grammar...">
<polygon fill="none" stroke="black" points="749,-123.5 749,-153.5 864,-153.5 864,-123.5 749,-123.5"/>
<text text-anchor="start" x="757" y="-141.5" font-family="Helvetica,sans-Serif" font-size="10.00">ViennaRNA/structured</text>
<text text-anchor="middle" x="806.5" y="-130.5" font-family="Helvetica,sans-Serif" font-size="10.00">_domains.h</text>
</a>
</g>
</g>
<!-- Node3&#45;&gt;Node16 -->
<g id="edge26" class="edge"><title>Node3&#45;&gt;Node16</title>
<path fill="none" stroke="midnightblue" d="M658.287,-190.475C683.688,-181.739 723.904,-167.907 756.039,-156.855"/>
<polygon fill="midnightblue" stroke="midnightblue" points="757.409,-160.085 765.727,-153.523 755.133,-153.466 757.409,-160.085"/>
</g>
<!-- Node17 -->
<g id="node17" class="node"><title>Node17</title>
<g id="a_node17"><a xlink:href="unstructured__domains_8h.html" target="_top" xlink:title="Functions to modify unstructured domains, e.g. to incorporate ligands binding to unpaired stretches...">
<polygon fill="none" stroke="black" points="921,-123.5 921,-153.5 1046,-153.5 1046,-123.5 921,-123.5"/>
<text text-anchor="start" x="929" y="-141.5" font-family="Helvetica,sans-Serif" font-size="10.00">ViennaRNA/unstructured</text>
<text text-anchor="middle" x="983.5" y="-130.5" font-family="Helvetica,sans-Serif" font-size="10.00">_domains.h</text>
</a>
</g>
</g>
<!-- Node3&#45;&gt;Node17 -->
<g id="edge27" class="edge"><title>Node3&#45;&gt;Node17</title>
<path fill="none" stroke="midnightblue" d="M680.651,-190.481C733.546,-181.689 821.577,-167.404 897.5,-154 901.837,-153.234 906.308,-152.43 910.829,-151.61"/>
<polygon fill="midnightblue" stroke="midnightblue" points="911.562,-155.034 920.772,-149.797 910.306,-148.148 911.562,-155.034"/>
</g>
<!-- Node5 -->
<g id="node5" class="node"><title>Node5</title>
<polygon fill="none" stroke="#bfbfbf" points="1200.5,-0.5 1200.5,-19.5 1248.5,-19.5 1248.5,-0.5 1200.5,-0.5"/>
<text text-anchor="middle" x="1224.5" y="-7.5" font-family="Helvetica,sans-Serif" font-size="10.00">limits.h</text>
</g>
<!-- Node4&#45;&gt;Node5 -->
<g id="edge4" class="edge"><title>Node4&#45;&gt;Node5</title>
<path fill="none" stroke="midnightblue" d="M1224.5,-61.9751C1224.5,-53.5803 1224.5,-40.4806 1224.5,-29.6631"/>
<polygon fill="midnightblue" stroke="midnightblue" points="1228,-29.5091 1224.5,-19.5091 1221,-29.5091 1228,-29.5091"/>
</g>
<!-- Node7&#45;&gt;Node3 -->
<g id="edge8" class="edge"><title>Node7&#45;&gt;Node3</title>
<path fill="none" stroke="midnightblue" d="M1144.7,-148.001C1129.53,-150.071 1112.91,-152.204 1097.5,-154 1026.61,-162.262 830.808,-181.12 717.438,-191.612"/>
<polygon fill="midnightblue" stroke="midnightblue" points="717.04,-188.134 707.404,-192.539 717.684,-195.104 717.04,-188.134"/>
</g>
<!-- Node7&#45;&gt;Node4 -->
<g id="edge7" class="edge"><title>Node7&#45;&gt;Node4</title>
<path fill="none" stroke="midnightblue" d="M1200.28,-128.734C1204.47,-118.988 1211.37,-102.981 1216.73,-90.5318"/>
<polygon fill="midnightblue" stroke="midnightblue" points="1220.04,-91.6961 1220.78,-81.1273 1213.61,-88.9267 1220.04,-91.6961"/>
</g>
<!-- Node7&#45;&gt;Node6 -->
<g id="edge9" class="edge"><title>Node7&#45;&gt;Node6</title>
<path fill="none" stroke="midnightblue" d="M1181.4,-128.734C1162.59,-117.818 1130.25,-99.0487 1108.14,-86.2209"/>
<polygon fill="midnightblue" stroke="midnightblue" points="1109.77,-83.1197 1099.37,-81.1273 1106.26,-89.174 1109.77,-83.1197"/>
</g>
<!-- Node8&#45;&gt;Node3 -->
<g id="edge11" class="edge"><title>Node8&#45;&gt;Node3</title>
<path fill="none" stroke="midnightblue" d="M514.991,-148.009C541.436,-158.032 582.21,-174.776 608.474,-186.327"/>
<polygon fill="midnightblue" stroke="midnightblue" points="607.211,-189.596 617.769,-190.475 610.063,-183.204 607.211,-189.596"/>
</g>
<!-- Node9&#45;&gt;Node3 -->
<g id="edge13" class="edge"><title>Node9&#45;&gt;Node3</title>
<path fill="none" stroke="midnightblue" d="M317.732,-148.015C328.947,-150.041 340.637,-152.151 351.5,-154 427.329,-166.908 514.549,-180.188 571.745,-188.944"/>
<polygon fill="midnightblue" stroke="midnightblue" points="571.3,-192.416 581.714,-190.471 572.36,-185.497 571.3,-192.416"/>
</g>
<!-- Node10 -->
<g id="node10" class="node"><title>Node10</title>
<g id="a_node10"><a xlink:href="constraints__hard_8h.html" target="_top" xlink:title="Functions and data structures for handling of secondary structure hard constraints. ">
<polygon fill="none" stroke="black" points="137,-56.5 137,-86.5 256,-86.5 256,-56.5 137,-56.5"/>
<text text-anchor="start" x="145" y="-74.5" font-family="Helvetica,sans-Serif" font-size="10.00">ViennaRNA/constraints</text>
<text text-anchor="middle" x="196.5" y="-63.5" font-family="Helvetica,sans-Serif" font-size="10.00">_hard.h</text>
</a>
</g>
</g>
<!-- Node9&#45;&gt;Node10 -->
<g id="edge14" class="edge"><title>Node9&#45;&gt;Node10</title>
<path fill="none" stroke="midnightblue" d="M255.329,-128.734C245.963,-119.78 231.068,-105.543 218.61,-93.6346"/>
<polygon fill="midnightblue" stroke="midnightblue" points="220.886,-90.9688 211.239,-86.589 216.05,-96.0289 220.886,-90.9688"/>
</g>
<!-- Node11 -->
<g id="node11" class="node"><title>Node11</title>
<g id="a_node11"><a xlink:href="constraints__soft_8h.html" target="_top" xlink:title="Functions and data structures for secondary structure soft constraints. ">
<polygon fill="none" stroke="black" points="274,-56.5 274,-86.5 393,-86.5 393,-56.5 274,-56.5"/>
<text text-anchor="start" x="282" y="-74.5" font-family="Helvetica,sans-Serif" font-size="10.00">ViennaRNA/constraints</text>
<text text-anchor="middle" x="333.5" y="-63.5" font-family="Helvetica,sans-Serif" font-size="10.00">_soft.h</text>
</a>
</g>
</g>
<!-- Node9&#45;&gt;Node11 -->
<g id="edge16" class="edge"><title>Node9&#45;&gt;Node11</title>
<path fill="none" stroke="midnightblue" d="M273.806,-128.734C283.31,-119.78 298.424,-105.543 311.065,-93.6346"/>
<polygon fill="midnightblue" stroke="midnightblue" points="313.665,-95.9936 318.544,-86.589 308.865,-90.8984 313.665,-95.9936"/>
</g>
<!-- Node12 -->
<g id="node12" class="node"><title>Node12</title>
<g id="a_node12"><a xlink:href="constraints__SHAPE_8h.html" target="_top" xlink:title="This module provides function to incorporate SHAPE reactivity data into the folding recursions by mea...">
<polygon fill="none" stroke="black" points="411,-56.5 411,-86.5 530,-86.5 530,-56.5 411,-56.5"/>
<text text-anchor="start" x="419" y="-74.5" font-family="Helvetica,sans-Serif" font-size="10.00">ViennaRNA/constraints</text>
<text text-anchor="middle" x="470.5" y="-63.5" font-family="Helvetica,sans-Serif" font-size="10.00">_SHAPE.h</text>
</a>
</g>
</g>
<!-- Node9&#45;&gt;Node12 -->
<g id="edge18" class="edge"><title>Node9&#45;&gt;Node12</title>
<path fill="none" stroke="midnightblue" d="M291.855,-128.869C323.502,-118.883 376.383,-102.197 416.42,-89.5642"/>
<polygon fill="midnightblue" stroke="midnightblue" points="417.558,-92.875 426.042,-86.5281 415.452,-86.1994 417.558,-92.875"/>
</g>
<!-- Node13 -->
<g id="node13" class="node"><title>Node13</title>
<g id="a_node13"><a xlink:href="perturbation__fold_8h.html" target="_top" xlink:title="Find a vector of perturbation energies that minimizes the discripancies between predicted and observe...">
<polygon fill="none" stroke="black" points="604.5,-56.5 604.5,-86.5 726.5,-86.5 726.5,-56.5 604.5,-56.5"/>
<text text-anchor="start" x="612.5" y="-74.5" font-family="Helvetica,sans-Serif" font-size="10.00">ViennaRNA/perturbation</text>
<text text-anchor="middle" x="665.5" y="-63.5" font-family="Helvetica,sans-Serif" font-size="10.00">_fold.h</text>
</a>
</g>
</g>
<!-- Node9&#45;&gt;Node13 -->
<g id="edge20" class="edge"><title>Node9&#45;&gt;Node13</title>
<path fill="none" stroke="midnightblue" d="M317.336,-128.936C388.413,-117.414 515.044,-96.8881 594.42,-84.0217"/>
<polygon fill="midnightblue" stroke="midnightblue" points="595.026,-87.4692 604.337,-82.4142 593.906,-80.5594 595.026,-87.4692"/>
</g>
<!-- Node14 -->
<g id="node14" class="node"><title>Node14</title>
<g id="a_node14"><a xlink:href="constraints__ligand_8h.html" target="_top" xlink:title="Functions for incorporation of ligands binding to hairpin and interior loop motifs using the soft con...">
<polygon fill="none" stroke="black" points="0,-56.5 0,-86.5 119,-86.5 119,-56.5 0,-56.5"/>
<text text-anchor="start" x="8" y="-74.5" font-family="Helvetica,sans-Serif" font-size="10.00">ViennaRNA/constraints</text>
<text text-anchor="middle" x="59.5" y="-63.5" font-family="Helvetica,sans-Serif" font-size="10.00">_ligand.h</text>
</a>
</g>
</g>
<!-- Node9&#45;&gt;Node14 -->
<g id="edge22" class="edge"><title>Node9&#45;&gt;Node14</title>
<path fill="none" stroke="midnightblue" d="M237.278,-128.869C205.784,-118.883 153.16,-102.197 113.318,-89.5642"/>
<polygon fill="midnightblue" stroke="midnightblue" points="114.333,-86.2143 103.742,-86.5281 112.217,-92.8869 114.333,-86.2143"/>
</g>
<!-- Node10&#45;&gt;Node3 -->
<g id="edge15" class="edge"><title>Node10&#45;&gt;Node3</title>
<path fill="none" stroke="midnightblue" d="M190.2,-86.595C183.217,-104.623 174.965,-135.696 191.5,-154 215.011,-180.026 428.236,-191.786 549.725,-196.413"/>
<polygon fill="midnightblue" stroke="midnightblue" points="549.624,-199.912 559.747,-196.787 549.885,-192.917 549.624,-199.912"/>
</g>
<!-- Node11&#45;&gt;Node3 -->
<g id="edge17" class="edge"><title>Node11&#45;&gt;Node3</title>
<path fill="none" stroke="midnightblue" d="M341.59,-86.5605C353.07,-105.149 375.906,-137.472 404.5,-154 448.445,-179.401 504.22,-190.717 549.722,-195.652"/>
<polygon fill="midnightblue" stroke="midnightblue" points="549.561,-199.153 559.86,-196.665 550.258,-192.188 549.561,-199.153"/>
</g>
<!-- Node12&#45;&gt;Node3 -->
<g id="edge19" class="edge"><title>Node12&#45;&gt;Node3</title>
<path fill="none" stroke="midnightblue" d="M448.832,-86.5077C425.8,-103.116 395.049,-131.393 413.5,-154 430.788,-175.183 495.181,-186.662 549.867,-192.712"/>
<polygon fill="midnightblue" stroke="midnightblue" points="549.639,-196.208 559.952,-193.78 550.376,-189.247 549.639,-196.208"/>
</g>
<!-- Node13&#45;&gt;Node3 -->
<g id="edge21" class="edge"><title>Node13&#45;&gt;Node3</title>
<path fill="none" stroke="midnightblue" d="M679.698,-86.6556C694.453,-103.163 713.801,-131.109 701.5,-154 693.878,-168.185 679.603,-178.648 666.094,-185.897"/>
<polygon fill="midnightblue" stroke="midnightblue" points="664.372,-182.844 656.954,-190.408 667.47,-189.121 664.372,-182.844"/>
</g>
<!-- Node14&#45;&gt;Node3 -->
<g id="edge23" class="edge"><title>Node14&#45;&gt;Node3</title>
<path fill="none" stroke="midnightblue" d="M74.6064,-86.6572C95.9123,-105.671 136.858,-138.821 178.5,-154 244.583,-178.088 437.218,-190.391 549.523,-195.682"/>
<polygon fill="midnightblue" stroke="midnightblue" points="549.649,-199.191 559.8,-196.157 549.973,-192.198 549.649,-199.191"/>
</g>
<!-- Node15&#45;&gt;Node3 -->
<g id="edge25" class="edge"><title>Node15&#45;&gt;Node3</title>
<path fill="none" stroke="midnightblue" d="M638.397,-148.009C640.23,-156.398 640.703,-169.496 639.817,-180.317"/>
<polygon fill="midnightblue" stroke="midnightblue" points="636.315,-180.088 638.401,-190.475 643.248,-181.054 636.315,-180.088"/>
</g>
<!-- Node17&#45;&gt;Node3 -->
<g id="edge28" class="edge"><title>Node17&#45;&gt;Node3</title>
<path fill="none" stroke="midnightblue" d="M920.782,-153.061C919.005,-153.379 917.241,-153.693 915.5,-154 843.878,-166.645 761.48,-180.074 704.244,-188.936"/>
<polygon fill="midnightblue" stroke="midnightblue" points="703.565,-185.499 694.215,-190.481 704.631,-192.417 703.565,-185.499"/>
</g>
<!-- Node18&#45;&gt;Node3 -->
<g id="edge46" class="edge"><title>Node18&#45;&gt;Node3</title>
<path fill="none" stroke="midnightblue" d="M1188.86,-375.934C1038.21,-358.7 689.015,-315.064 651.5,-277 636.729,-262.013 633.252,-237.268 632.804,-220.103"/>
<polygon fill="midnightblue" stroke="midnightblue" points="636.307,-219.667 632.876,-209.643 629.307,-219.619 636.307,-219.667"/>
</g>
<!-- Node18&#45;&gt;Node7 -->
<g id="edge47" class="edge"><title>Node18&#45;&gt;Node7</title>
<path fill="none" stroke="midnightblue" d="M1296.88,-374.965C1332.16,-365.067 1376.51,-345.762 1363.5,-313 1334.36,-239.618 1257.32,-180.081 1218.92,-153.9"/>
<polygon fill="midnightblue" stroke="midnightblue" points="1220.73,-150.902 1210.48,-148.256 1216.85,-156.722 1220.73,-150.902"/>
</g>
<!-- Node19 -->
<g id="node19" class="node"><title>Node19</title>
<polygon fill="none" stroke="#bfbfbf" points="1411,-313.5 1411,-332.5 1458,-332.5 1458,-313.5 1411,-313.5"/>
<text text-anchor="middle" x="1434.5" y="-320.5" font-family="Helvetica,sans-Serif" font-size="10.00">math.h</text>
</g>
<!-- Node18&#45;&gt;Node19 -->
<g id="edge31" class="edge"><title>Node18&#45;&gt;Node19</title>
<path fill="none" stroke="midnightblue" d="M1282.86,-374.975C1314.01,-364.505 1366.92,-346.716 1401.29,-335.164"/>
<polygon fill="midnightblue" stroke="midnightblue" points="1402.52,-338.443 1410.88,-331.939 1400.29,-331.807 1402.52,-338.443"/>
</g>
<!-- Node20 -->
<g id="node20" class="node"><title>Node20</title>
<polygon fill="none" stroke="#bfbfbf" points="1476,-313.5 1476,-332.5 1525,-332.5 1525,-313.5 1476,-313.5"/>
<text text-anchor="middle" x="1500.5" y="-320.5" font-family="Helvetica,sans-Serif" font-size="10.00">string.h</text>
</g>
<!-- Node18&#45;&gt;Node20 -->
<g id="edge32" class="edge"><title>Node18&#45;&gt;Node20</title>
<path fill="none" stroke="midnightblue" d="M1293.81,-374.98C1333.58,-365.589 1399.52,-349.86 1465.85,-333.125"/>
<polygon fill="midnightblue" stroke="midnightblue" points="1466.8,-336.495 1475.63,-330.649 1465.08,-329.708 1466.8,-336.495"/>
</g>
<!-- Node21 -->
<g id="node21" class="node"><title>Node21</title>
<g id="a_node21"><a xlink:href="utils_8h.html" target="_top" xlink:title="General utility&#45; and helper&#45;functions used throughout the ViennaRNA Package. ">
<polygon fill="none" stroke="black" points="882.5,-313.5 882.5,-332.5 980.5,-332.5 980.5,-313.5 882.5,-313.5"/>
<text text-anchor="middle" x="931.5" y="-320.5" font-family="Helvetica,sans-Serif" font-size="10.00">ViennaRNA/utils.h</text>
</a>
</g>
</g>
<!-- Node18&#45;&gt;Node21 -->
<g id="edge33" class="edge"><title>Node18&#45;&gt;Node21</title>
<path fill="none" stroke="midnightblue" d="M1210.79,-374.975C1152.09,-364.261 1051.39,-345.882 988.296,-334.366"/>
<polygon fill="midnightblue" stroke="midnightblue" points="988.587,-330.862 978.121,-332.509 987.33,-337.748 988.587,-330.862"/>
</g>
<!-- Node21&#45;&gt;Node3 -->
<g id="edge36" class="edge"><title>Node21&#45;&gt;Node3</title>
<path fill="none" stroke="midnightblue" d="M882.363,-317.77C819.39,-311.568 714.518,-298.367 682.5,-277 661.737,-263.144 647.863,-237.182 640.331,-219.497"/>
<polygon fill="midnightblue" stroke="midnightblue" points="643.399,-217.74 636.455,-209.738 636.893,-220.324 643.399,-217.74"/>
</g>
<!-- Node22 -->
<g id="node22" class="node"><title>Node22</title>
<polygon fill="none" stroke="#bfbfbf" points="943.5,-190.5 943.5,-209.5 989.5,-209.5 989.5,-190.5 943.5,-190.5"/>
<text text-anchor="middle" x="966.5" y="-197.5" font-family="Helvetica,sans-Serif" font-size="10.00">stdio.h</text>
</g>
<!-- Node21&#45;&gt;Node22 -->
<g id="edge34" class="edge"><title>Node21&#45;&gt;Node22</title>
<path fill="none" stroke="midnightblue" d="M936.945,-313.393C942.258,-304.59 950.157,-290.349 954.5,-277 960.626,-258.172 963.681,-235.67 965.167,-220.059"/>
<polygon fill="midnightblue" stroke="midnightblue" points="968.693,-219.893 966.023,-209.64 961.716,-219.32 968.693,-219.893"/>
</g>
<!-- Node23 -->
<g id="node23" class="node"><title>Node23</title>
<polygon fill="none" stroke="#bfbfbf" points="1077.5,-190.5 1077.5,-209.5 1129.5,-209.5 1129.5,-190.5 1077.5,-190.5"/>
<text text-anchor="middle" x="1103.5" y="-197.5" font-family="Helvetica,sans-Serif" font-size="10.00">stdarg.h</text>
</g>
<!-- Node21&#45;&gt;Node23 -->
<g id="edge35" class="edge"><title>Node21&#45;&gt;Node23</title>
<path fill="none" stroke="midnightblue" d="M980.954,-318.194C1035.53,-312.847 1118.22,-300.952 1137.5,-277 1152.01,-258.975 1135.08,-233.772 1120.35,-217.418"/>
<polygon fill="midnightblue" stroke="midnightblue" points="1122.47,-214.569 1113.03,-209.758 1117.41,-219.405 1122.47,-214.569"/>
</g>
<!-- Node24 -->
<g id="node24" class="node"><title>Node24</title>
<g id="a_node24"><a xlink:href="string__utils_8h.html" target="_top" xlink:title="General utility&#45; and helper&#45;functions for RNA sequence and structure strings used throughout the Vien...">
<polygon fill="none" stroke="black" points="1002,-252 1002,-271 1129,-271 1129,-252 1002,-252"/>
<text text-anchor="middle" x="1065.5" y="-259" font-family="Helvetica,sans-Serif" font-size="10.00">ViennaRNA/string_utils.h</text>
</a>
</g>
</g>
<!-- Node21&#45;&gt;Node24 -->
<g id="edge37" class="edge"><title>Node21&#45;&gt;Node24</title>
<path fill="none" stroke="midnightblue" d="M950.699,-313.475C973.287,-303.445 1011,-286.7 1037,-275.155"/>
<polygon fill="midnightblue" stroke="midnightblue" points="1038.62,-278.266 1046.34,-271.009 1035.78,-271.869 1038.62,-278.266"/>
</g>
<!-- Node25 -->
<g id="node25" class="node"><title>Node25</title>
<g id="a_node25"><a xlink:href="structure__utils_8h.html" target="_top" xlink:title="Various utility&#45; and helper&#45;functions for secondary structure parsing, converting, etc. ">
<polygon fill="none" stroke="black" points="835.5,-246.5 835.5,-276.5 945.5,-276.5 945.5,-246.5 835.5,-246.5"/>
<text text-anchor="start" x="843.5" y="-264.5" font-family="Helvetica,sans-Serif" font-size="10.00">ViennaRNA/structure</text>
<text text-anchor="middle" x="890.5" y="-253.5" font-family="Helvetica,sans-Serif" font-size="10.00">_utils.h</text>
</a>
</g>
</g>
<!-- Node21&#45;&gt;Node25 -->
<g id="edge40" class="edge"><title>Node21&#45;&gt;Node25</title>
<path fill="none" stroke="midnightblue" d="M925.626,-313.475C920.488,-306.019 912.793,-294.852 905.914,-284.869"/>
<polygon fill="midnightblue" stroke="midnightblue" points="908.719,-282.771 900.163,-276.523 902.955,-286.743 908.719,-282.771"/>
</g>
<!-- Node26 -->
<g id="node26" class="node"><title>Node26</title>
<g id="a_node26"><a xlink:href="file__utils_8h.html" target="_top" xlink:title="Several utilities for file handling. ">
<polygon fill="none" stroke="black" points="701.5,-252 701.5,-271 817.5,-271 817.5,-252 701.5,-252"/>
<text text-anchor="middle" x="759.5" y="-259" font-family="Helvetica,sans-Serif" font-size="10.00">ViennaRNA/file_utils.h</text>
</a>
</g>
</g>
<!-- Node21&#45;&gt;Node26 -->
<g id="edge43" class="edge"><title>Node21&#45;&gt;Node26</title>
<path fill="none" stroke="midnightblue" d="M906.857,-313.475C877.225,-303.225 827.315,-285.959 793.898,-274.399"/>
<polygon fill="midnightblue" stroke="midnightblue" points="794.692,-270.971 784.098,-271.009 792.404,-277.586 794.692,-270.971"/>
</g>
<!-- Node27 -->
<g id="node27" class="node"><title>Node27</title>
<g id="a_node27"><a xlink:href="alphabet_8h.html" target="_top" xlink:title="Functions to process, convert, and generally handle different nucleotide and/or base pair alphabets...">
<polygon fill="none" stroke="black" points="738.5,-190.5 738.5,-209.5 854.5,-209.5 854.5,-190.5 738.5,-190.5"/>
<text text-anchor="middle" x="796.5" y="-197.5" font-family="Helvetica,sans-Serif" font-size="10.00">ViennaRNA/alphabet.h</text>
</a>
</g>
</g>
<!-- Node21&#45;&gt;Node27 -->
<g id="edge44" class="edge"><title>Node21&#45;&gt;Node27</title>
<path fill="none" stroke="midnightblue" d="M882.481,-319.91C819.698,-316.085 716.151,-305.519 692.5,-277 683.705,-266.395 684.935,-257.515 692.5,-246 703.072,-229.907 720.762,-219.541 738.582,-212.876"/>
<polygon fill="midnightblue" stroke="midnightblue" points="740.097,-216.059 748.451,-209.542 737.856,-209.427 740.097,-216.059"/>
</g>
<!-- Node24&#45;&gt;Node3 -->
<g id="edge39" class="edge"><title>Node24&#45;&gt;Node3</title>
<path fill="none" stroke="midnightblue" d="M1003.6,-251.975C924.77,-241.117 788.788,-222.388 705.428,-210.907"/>
<polygon fill="midnightblue" stroke="midnightblue" points="705.664,-207.406 695.28,-209.509 704.709,-214.341 705.664,-207.406"/>
</g>
<!-- Node24&#45;&gt;Node23 -->
<g id="edge38" class="edge"><title>Node24&#45;&gt;Node23</title>
<path fill="none" stroke="midnightblue" d="M1070.94,-251.975C1076.59,-243.138 1085.56,-229.089 1092.66,-217.975"/>
<polygon fill="midnightblue" stroke="midnightblue" points="1095.63,-219.821 1098.07,-209.509 1089.73,-216.053 1095.63,-219.821"/>
</g>
<!-- Node25&#45;&gt;Node3 -->
<g id="edge42" class="edge"><title>Node25&#45;&gt;Node3</title>
<path fill="none" stroke="midnightblue" d="M835.367,-247.736C789.118,-237.028 723.8,-221.906 680.119,-211.793"/>
<polygon fill="midnightblue" stroke="midnightblue" points="680.856,-208.371 670.324,-209.525 679.277,-215.191 680.856,-208.371"/>
</g>
<!-- Node25&#45;&gt;Node22 -->
<g id="edge41" class="edge"><title>Node25&#45;&gt;Node22</title>
<path fill="none" stroke="midnightblue" d="M908.511,-246.399C920.238,-237.218 935.515,-225.258 947.445,-215.918"/>
<polygon fill="midnightblue" stroke="midnightblue" points="949.725,-218.578 955.441,-209.658 945.41,-213.066 949.725,-218.578"/>
</g>
<!-- Node27&#45;&gt;Node6 -->
<g id="edge45" class="edge"><title>Node27&#45;&gt;Node6</title>
<path fill="none" stroke="midnightblue" d="M854.588,-191.968C925.908,-182.86 1039.34,-166.654 1054.5,-154 1073.19,-138.408 1080.24,-110.077 1082.89,-91.2703"/>
<polygon fill="midnightblue" stroke="midnightblue" points="1086.38,-91.5573 1084.03,-81.228 1079.43,-90.7728 1086.38,-91.5573"/>
</g>
<!-- Node28&#45;&gt;Node3 -->
<g id="edge52" class="edge"><title>Node28&#45;&gt;Node3</title>
<path fill="none" stroke="midnightblue" d="M945.861,-370.752C942.703,-370.115 939.563,-369.524 936.5,-369 829.446,-350.692 515.815,-367.98 456.5,-277 429.653,-235.82 491.995,-216.874 549.954,-208.205"/>
<polygon fill="midnightblue" stroke="midnightblue" points="550.534,-211.658 559.951,-206.801 549.561,-204.726 550.534,-211.658"/>
</g>
<!-- Node28&#45;&gt;Node7 -->
<g id="edge53" class="edge"><title>Node28&#45;&gt;Node7</title>
<path fill="none" stroke="midnightblue" d="M1047.27,-378.972C1085.46,-373.376 1137.39,-360.881 1174.5,-333 1226.81,-293.698 1217.72,-254.913 1209.5,-190 1208.14,-179.284 1205.23,-167.587 1202.5,-158.152"/>
<polygon fill="midnightblue" stroke="midnightblue" points="1205.76,-156.848 1199.49,-148.308 1199.07,-158.894 1205.76,-156.848"/>
</g>
<!-- Node28&#45;&gt;Node9 -->
<g id="edge54" class="edge"><title>Node28&#45;&gt;Node9</title>
<path fill="none" stroke="midnightblue" d="M945.872,-370.684C942.711,-370.064 939.568,-369.495 936.5,-369 745.859,-338.228 682.706,-404.944 503.5,-333 403.088,-292.689 311.868,-194.926 278.221,-155.944"/>
<polygon fill="midnightblue" stroke="midnightblue" points="280.742,-153.506 271.595,-148.159 275.411,-158.043 280.742,-153.506"/>
</g>
<!-- Node28&#45;&gt;Node21 -->
<g id="edge49" class="edge"><title>Node28&#45;&gt;Node21</title>
<path fill="none" stroke="midnightblue" d="M981.096,-369.399C971.261,-360.397 958.507,-348.721 948.395,-339.465"/>
<polygon fill="midnightblue" stroke="midnightblue" points="950.698,-336.828 940.958,-332.658 945.971,-341.992 950.698,-336.828"/>
</g>
<!-- Node29 -->
<g id="node29" class="node"><title>Node29</title>
<g id="a_node29"><a xlink:href="energy__par_8h_source.html" target="_top" xlink:title="ViennaRNA/energy_par.h">
<polygon fill="none" stroke="black" points="1226.5,-313.5 1226.5,-332.5 1354.5,-332.5 1354.5,-313.5 1226.5,-313.5"/>
<text text-anchor="middle" x="1290.5" y="-320.5" font-family="Helvetica,sans-Serif" font-size="10.00">ViennaRNA/energy_par.h</text>
</a>
</g>
</g>
<!-- Node28&#45;&gt;Node29 -->
<g id="edge50" class="edge"><title>Node28&#45;&gt;Node29</title>
<path fill="none" stroke="midnightblue" d="M1047.04,-373.272C1100.41,-362.471 1184.14,-345.525 1238.17,-334.59"/>
<polygon fill="midnightblue" stroke="midnightblue" points="1239.13,-337.968 1248.23,-332.554 1237.74,-331.107 1239.13,-337.968"/>
</g>
<!-- Node29&#45;&gt;Node4 -->
<g id="edge51" class="edge"><title>Node29&#45;&gt;Node4</title>
<path fill="none" stroke="midnightblue" d="M1290.7,-313.272C1291.05,-284.748 1289.8,-192.147 1261.5,-123 1256.39,-110.524 1247.55,-98.283 1239.79,-88.9778"/>
<polygon fill="midnightblue" stroke="midnightblue" points="1242.32,-86.558 1233.1,-81.335 1237.05,-91.1664 1242.32,-86.558"/>
</g>
<!-- Node30&#45;&gt;Node3 -->
<g id="edge57" class="edge"><title>Node30&#45;&gt;Node3</title>
<path fill="none" stroke="midnightblue" d="M805.359,-384.18C730.533,-382.995 601.244,-374.334 499.5,-333 460.628,-317.208 442.423,-314.448 423.5,-277 396.25,-223.072 479.993,-206.638 549.696,-202.033"/>
<polygon fill="midnightblue" stroke="midnightblue" points="550.086,-205.516 559.864,-201.436 549.676,-198.528 550.086,-205.516"/>
</g>
<!-- Node30&#45;&gt;Node7 -->
<g id="edge58" class="edge"><title>Node30&#45;&gt;Node7</title>
<path fill="none" stroke="midnightblue" d="M921.347,-369.473C995.419,-349.514 1121.93,-311.503 1154.5,-277 1185.96,-243.669 1193.9,-187.41 1195.87,-158.264"/>
<polygon fill="midnightblue" stroke="midnightblue" points="1199.37,-158.372 1196.38,-148.207 1192.38,-158.016 1199.37,-158.372"/>
</g>
<!-- Node30&#45;&gt;Node21 -->
<g id="edge56" class="edge"><title>Node30&#45;&gt;Node21</title>
<path fill="none" stroke="midnightblue" d="M881.904,-369.399C891.739,-360.397 904.493,-348.721 914.605,-339.465"/>
<polygon fill="midnightblue" stroke="midnightblue" points="917.029,-341.992 922.042,-332.658 912.302,-336.828 917.029,-341.992"/>
</g>
</g>
</svg>
