<?xml version="1.0" encoding="UTF-8" standalone="no"?>
<!DOCTYPE svg PUBLIC "-//W3C//DTD SVG 1.1//EN"
 "http://www.w3.org/Graphics/SVG/1.1/DTD/svg11.dtd">
<!-- Generated by graphviz version 2.38.0 (20140413.2041)
 -->
<!-- Title: ViennaRNA/multibranch_loops.h Pages: 1 -->
<svg width="1157pt" height="408pt"
 viewBox="0.00 0.00 1156.54 408.00" xmlns="http://www.w3.org/2000/svg" xmlns:xlink="http://www.w3.org/1999/xlink">
<g id="graph0" class="graph" transform="scale(1 1) rotate(0) translate(4 404)">
<title>ViennaRNA/multibranch_loops.h</title>
<!-- Node1 -->
<g id="node1" class="node"><title>Node1</title>
<polygon fill="#bfbfbf" stroke="black" points="748.54,-369.5 748.54,-399.5 870.54,-399.5 870.54,-369.5 748.54,-369.5"/>
<text text-anchor="start" x="756.54" y="-387.5" font-family="Helvetica,sans-Serif" font-size="10.00">ViennaRNA/multibranch</text>
<text text-anchor="middle" x="809.54" y="-376.5" font-family="Helvetica,sans-Serif" font-size="10.00">_loops.h</text>
</g>
<!-- Node2 -->
<g id="node2" class="node"><title>Node2</title>
<g id="a_node2"><a xlink:href="utils_8h.html" target="_top" xlink:title="General utility&#45; and helper&#45;functions used throughout the ViennaRNA Package. ">
<polygon fill="none" stroke="black" points="760.54,-313.5 760.54,-332.5 858.54,-332.5 858.54,-313.5 760.54,-313.5"/>
<text text-anchor="middle" x="809.54" y="-320.5" font-family="Helvetica,sans-Serif" font-size="10.00">ViennaRNA/utils.h</text>
</a>
</g>
</g>
<!-- Node1&#45;&gt;Node2 -->
<g id="edge1" class="edge"><title>Node1&#45;&gt;Node2</title>
<path fill="none" stroke="midnightblue" d="M809.54,-369.399C809.54,-361.466 809.54,-351.458 809.54,-342.858"/>
<polygon fill="midnightblue" stroke="midnightblue" points="813.04,-342.658 809.54,-332.658 806.04,-342.658 813.04,-342.658"/>
</g>
<!-- Node5 -->
<g id="node5" class="node"><title>Node5</title>
<g id="a_node5"><a xlink:href="data__structures_8h.html" target="_top" xlink:title="Various data structures and pre&#45;processor macros. ">
<polygon fill="none" stroke="black" points="482.04,-190.5 482.04,-209.5 629.04,-209.5 629.04,-190.5 482.04,-190.5"/>
<text text-anchor="middle" x="555.54" y="-197.5" font-family="Helvetica,sans-Serif" font-size="10.00">ViennaRNA/data_structures.h</text>
</a>
</g>
</g>
<!-- Node1&#45;&gt;Node5 -->
<g id="edge40" class="edge"><title>Node1&#45;&gt;Node5</title>
<path fill="none" stroke="midnightblue" d="M748.529,-378.143C685.439,-368.98 589.935,-344.167 544.54,-277 532.918,-259.803 539.5,-235.414 546.443,-218.941"/>
<polygon fill="midnightblue" stroke="midnightblue" points="549.631,-220.388 550.654,-209.843 543.278,-217.448 549.631,-220.388"/>
</g>
<!-- Node9 -->
<g id="node9" class="node"><title>Node9</title>
<g id="a_node9"><a xlink:href="params_8h.html" target="_top" xlink:title="Functions to deal with sets of energy parameters. ">
<polygon fill="none" stroke="black" points="955.54,-129 955.54,-148 1067.54,-148 1067.54,-129 955.54,-129"/>
<text text-anchor="middle" x="1011.54" y="-136" font-family="Helvetica,sans-Serif" font-size="10.00">ViennaRNA/params.h</text>
</a>
</g>
</g>
<!-- Node1&#45;&gt;Node9 -->
<g id="edge41" class="edge"><title>Node1&#45;&gt;Node9</title>
<path fill="none" stroke="midnightblue" d="M870.612,-372.066C948.331,-353.657 1077.86,-308.953 1122.54,-210 1136.15,-179.856 1098.81,-161.251 1063.82,-150.779"/>
<polygon fill="midnightblue" stroke="midnightblue" points="1064.63,-147.372 1054.06,-148.038 1062.74,-154.112 1064.63,-147.372"/>
</g>
<!-- Node3 -->
<g id="node3" class="node"><title>Node3</title>
<polygon fill="none" stroke="#bfbfbf" points="922.54,-190.5 922.54,-209.5 968.54,-209.5 968.54,-190.5 922.54,-190.5"/>
<text text-anchor="middle" x="945.54" y="-197.5" font-family="Helvetica,sans-Serif" font-size="10.00">stdio.h</text>
</g>
<!-- Node2&#45;&gt;Node3 -->
<g id="edge2" class="edge"><title>Node2&#45;&gt;Node3</title>
<path fill="none" stroke="midnightblue" d="M858.709,-317.54C910.387,-311.715 986.642,-299.5 1004.54,-277 1013.12,-266.218 1010.65,-258.348 1004.54,-246 997.937,-232.659 985.275,-222.194 973.369,-214.726"/>
<polygon fill="midnightblue" stroke="midnightblue" points="974.932,-211.587 964.525,-209.602 971.423,-217.643 974.932,-211.587"/>
</g>
<!-- Node4 -->
<g id="node4" class="node"><title>Node4</title>
<polygon fill="none" stroke="#bfbfbf" points="680.54,-190.5 680.54,-209.5 732.54,-209.5 732.54,-190.5 680.54,-190.5"/>
<text text-anchor="middle" x="706.54" y="-197.5" font-family="Helvetica,sans-Serif" font-size="10.00">stdarg.h</text>
</g>
<!-- Node2&#45;&gt;Node4 -->
<g id="edge3" class="edge"><title>Node2&#45;&gt;Node4</title>
<path fill="none" stroke="midnightblue" d="M791.646,-313.436C776.9,-305.639 756.254,-292.927 742.54,-277 727.849,-259.938 717.794,-235.852 712.12,-219.397"/>
<polygon fill="midnightblue" stroke="midnightblue" points="715.434,-218.268 709.02,-209.835 708.775,-220.428 715.434,-218.268"/>
</g>
<!-- Node2&#45;&gt;Node5 -->
<g id="edge4" class="edge"><title>Node2&#45;&gt;Node5</title>
<path fill="none" stroke="midnightblue" d="M760.489,-320.26C695.032,-316.806 584.342,-306.631 558.54,-277 545.025,-261.479 546.855,-236.686 550.354,-219.665"/>
<polygon fill="midnightblue" stroke="midnightblue" points="553.797,-220.32 552.75,-209.777 546.994,-218.671 553.797,-220.32"/>
</g>
<!-- Node20 -->
<g id="node20" class="node"><title>Node20</title>
<g id="a_node20"><a xlink:href="string__utils_8h.html" target="_top" xlink:title="General utility&#45; and helper&#45;functions for RNA sequence and structure strings used throughout the Vien...">
<polygon fill="none" stroke="black" points="568.04,-252 568.04,-271 695.04,-271 695.04,-252 568.04,-252"/>
<text text-anchor="middle" x="631.54" y="-259" font-family="Helvetica,sans-Serif" font-size="10.00">ViennaRNA/string_utils.h</text>
</a>
</g>
</g>
<!-- Node2&#45;&gt;Node20 -->
<g id="edge31" class="edge"><title>Node2&#45;&gt;Node20</title>
<path fill="none" stroke="midnightblue" d="M784.037,-313.475C753.24,-303.18 701.275,-285.81 666.692,-274.25"/>
<polygon fill="midnightblue" stroke="midnightblue" points="667.59,-270.86 656.996,-271.009 665.371,-277.499 667.59,-270.86"/>
</g>
<!-- Node21 -->
<g id="node21" class="node"><title>Node21</title>
<g id="a_node21"><a xlink:href="structure__utils_8h.html" target="_top" xlink:title="Various utility&#45; and helper&#45;functions for secondary structure parsing, converting, etc. ">
<polygon fill="none" stroke="black" points="885.54,-246.5 885.54,-276.5 995.54,-276.5 995.54,-246.5 885.54,-246.5"/>
<text text-anchor="start" x="893.54" y="-264.5" font-family="Helvetica,sans-Serif" font-size="10.00">ViennaRNA/structure</text>
<text text-anchor="middle" x="940.54" y="-253.5" font-family="Helvetica,sans-Serif" font-size="10.00">_utils.h</text>
</a>
</g>
</g>
<!-- Node2&#45;&gt;Node21 -->
<g id="edge34" class="edge"><title>Node2&#45;&gt;Node21</title>
<path fill="none" stroke="midnightblue" d="M828.309,-313.475C847.046,-304.965 876.429,-291.619 900.43,-280.718"/>
<polygon fill="midnightblue" stroke="midnightblue" points="902.009,-283.845 909.666,-276.523 899.114,-277.472 902.009,-283.845"/>
</g>
<!-- Node22 -->
<g id="node22" class="node"><title>Node22</title>
<g id="a_node22"><a xlink:href="file__utils_8h.html" target="_top" xlink:title="Several utilities for file handling. ">
<polygon fill="none" stroke="black" points="751.54,-252 751.54,-271 867.54,-271 867.54,-252 751.54,-252"/>
<text text-anchor="middle" x="809.54" y="-259" font-family="Helvetica,sans-Serif" font-size="10.00">ViennaRNA/file_utils.h</text>
</a>
</g>
</g>
<!-- Node2&#45;&gt;Node22 -->
<g id="edge37" class="edge"><title>Node2&#45;&gt;Node22</title>
<path fill="none" stroke="midnightblue" d="M809.54,-313.475C809.54,-305.08 809.54,-291.981 809.54,-281.163"/>
<polygon fill="midnightblue" stroke="midnightblue" points="813.04,-281.009 809.54,-271.009 806.04,-281.009 813.04,-281.009"/>
</g>
<!-- Node23 -->
<g id="node23" class="node"><title>Node23</title>
<g id="a_node23"><a xlink:href="alphabet_8h.html" target="_top" xlink:title="Functions to process, convert, and generally handle different nucleotide and/or base pair alphabets...">
<polygon fill="none" stroke="black" points="997.54,-190.5 997.54,-209.5 1113.54,-209.5 1113.54,-190.5 997.54,-190.5"/>
<text text-anchor="middle" x="1055.54" y="-197.5" font-family="Helvetica,sans-Serif" font-size="10.00">ViennaRNA/alphabet.h</text>
</a>
</g>
</g>
<!-- Node2&#45;&gt;Node23 -->
<g id="edge38" class="edge"><title>Node2&#45;&gt;Node23</title>
<path fill="none" stroke="midnightblue" d="M858.756,-316.745C913.339,-310.037 996.958,-296.865 1021.54,-277 1039.25,-262.691 1048.04,-237.222 1052.18,-219.741"/>
<polygon fill="midnightblue" stroke="midnightblue" points="1055.68,-220.106 1054.28,-209.604 1048.82,-218.688 1055.68,-220.106"/>
</g>
<!-- Node6 -->
<g id="node6" class="node"><title>Node6</title>
<g id="a_node6"><a xlink:href="energy__const_8h.html" target="_top" xlink:title="Energy parameter constants. ">
<polygon fill="none" stroke="black" points="886.54,-62 886.54,-81 1024.54,-81 1024.54,-62 886.54,-62"/>
<text text-anchor="middle" x="955.54" y="-69" font-family="Helvetica,sans-Serif" font-size="10.00">ViennaRNA/energy_const.h</text>
</a>
</g>
</g>
<!-- Node5&#45;&gt;Node6 -->
<g id="edge5" class="edge"><title>Node5&#45;&gt;Node6</title>
<path fill="none" stroke="midnightblue" d="M629.108,-191.971C702.897,-184.17 810.958,-170.48 849.54,-154 885.965,-138.442 920.923,-107.418 940.189,-88.4562"/>
<polygon fill="midnightblue" stroke="midnightblue" points="942.883,-90.7111 947.444,-81.1483 937.915,-85.7795 942.883,-90.7111"/>
</g>
<!-- Node8 -->
<g id="node8" class="node"><title>Node8</title>
<g id="a_node8"><a xlink:href="model_8h.html" target="_top" xlink:title="The model details data structure and its corresponding modifiers. ">
<polygon fill="none" stroke="black" points="1042.54,-62 1042.54,-81 1148.54,-81 1148.54,-62 1042.54,-62"/>
<text text-anchor="middle" x="1095.54" y="-69" font-family="Helvetica,sans-Serif" font-size="10.00">ViennaRNA/model.h</text>
</a>
</g>
</g>
<!-- Node5&#45;&gt;Node8 -->
<g id="edge7" class="edge"><title>Node5&#45;&gt;Node8</title>
<path fill="none" stroke="midnightblue" d="M629.264,-192.12C712.304,-183.828 841.772,-169.115 888.54,-154 916.353,-145.012 919.72,-134.619 946.54,-123 982.68,-107.343 1025.38,-93.302 1055.79,-84.0239"/>
<polygon fill="midnightblue" stroke="midnightblue" points="1057.04,-87.303 1065.6,-81.0645 1055.01,-80.6011 1057.04,-87.303"/>
</g>
<!-- Node5&#45;&gt;Node9 -->
<g id="edge8" class="edge"><title>Node5&#45;&gt;Node9</title>
<path fill="none" stroke="midnightblue" d="M629.144,-191.703C705.322,-184.115 827.472,-170.973 932.54,-154 939.781,-152.83 947.41,-151.428 954.972,-149.962"/>
<polygon fill="midnightblue" stroke="midnightblue" points="955.704,-153.386 964.836,-148.014 954.348,-146.518 955.704,-153.386"/>
</g>
<!-- Node10 -->
<g id="node10" class="node"><title>Node10</title>
<g id="a_node10"><a xlink:href="dp__matrices_8h.html" target="_top" xlink:title="Functions to deal with standard dynamic programming (DP) matrices. ">
<polygon fill="none" stroke="black" points="690.04,-129 690.04,-148 823.04,-148 823.04,-129 690.04,-129"/>
<text text-anchor="middle" x="756.54" y="-136" font-family="Helvetica,sans-Serif" font-size="10.00">ViennaRNA/dp_matrices.h</text>
</a>
</g>
</g>
<!-- Node5&#45;&gt;Node10 -->
<g id="edge12" class="edge"><title>Node5&#45;&gt;Node10</title>
<path fill="none" stroke="midnightblue" d="M579.438,-190.475C612.459,-180.026 672.211,-162.287 713.174,-150.733"/>
<polygon fill="midnightblue" stroke="midnightblue" points="714.213,-154.077 722.898,-148.009 712.325,-147.337 714.213,-154.077"/>
</g>
<!-- Node11 -->
<g id="node11" class="node"><title>Node11</title>
<g id="a_node11"><a xlink:href="constraints_8h.html" target="_top" xlink:title="Functions and data structures for constraining secondary structure predictions and evaluation...">
<polygon fill="none" stroke="black" points="467.54,-129 467.54,-148 595.54,-148 595.54,-129 467.54,-129"/>
<text text-anchor="middle" x="531.54" y="-136" font-family="Helvetica,sans-Serif" font-size="10.00">ViennaRNA/constraints.h</text>
</a>
</g>
</g>
<!-- Node5&#45;&gt;Node11 -->
<g id="edge14" class="edge"><title>Node5&#45;&gt;Node11</title>
<path fill="none" stroke="midnightblue" d="M547.201,-190.475C541.929,-181.992 536.107,-168.704 532.645,-157.822"/>
<polygon fill="midnightblue" stroke="midnightblue" points="535.994,-156.797 530.075,-148.009 529.222,-158.57 535.994,-156.797"/>
</g>
<!-- Node17 -->
<g id="node17" class="node"><title>Node17</title>
<g id="a_node17"><a xlink:href="grammar_8h.html" target="_top" xlink:title="Implementations for the RNA folding grammar. ">
<polygon fill="none" stroke="black" points="16.5404,-129 16.5404,-148 134.54,-148 134.54,-129 16.5404,-129"/>
<text text-anchor="middle" x="75.5404" y="-136" font-family="Helvetica,sans-Serif" font-size="10.00">ViennaRNA/grammar.h</text>
</a>
</g>
</g>
<!-- Node5&#45;&gt;Node17 -->
<g id="edge26" class="edge"><title>Node5&#45;&gt;Node17</title>
<path fill="none" stroke="midnightblue" d="M481.816,-193.752C397.365,-186.892 255.309,-173.42 134.54,-154 127.654,-152.893 120.412,-151.546 113.429,-150.126"/>
<polygon fill="midnightblue" stroke="midnightblue" points="113.965,-146.661 103.456,-148.01 112.512,-153.509 113.965,-146.661"/>
</g>
<!-- Node18 -->
<g id="node18" class="node"><title>Node18</title>
<g id="a_node18"><a xlink:href="structured__domains_8h.html" target="_top" xlink:title="This module provides interfaces that deal with additional structured domains in the folding grammar...">
<polygon fill="none" stroke="black" points="153.04,-123.5 153.04,-153.5 268.04,-153.5 268.04,-123.5 153.04,-123.5"/>
<text text-anchor="start" x="161.04" y="-141.5" font-family="Helvetica,sans-Serif" font-size="10.00">ViennaRNA/structured</text>
<text text-anchor="middle" x="210.54" y="-130.5" font-family="Helvetica,sans-Serif" font-size="10.00">_domains.h</text>
</a>
</g>
</g>
<!-- Node5&#45;&gt;Node18 -->
<g id="edge28" class="edge"><title>Node5&#45;&gt;Node18</title>
<path fill="none" stroke="midnightblue" d="M496.588,-190.478C442.213,-182.394 359.023,-169.462 277.966,-154.215"/>
<polygon fill="midnightblue" stroke="midnightblue" points="278.571,-150.768 268.094,-152.344 277.268,-157.645 278.571,-150.768"/>
</g>
<!-- Node19 -->
<g id="node19" class="node"><title>Node19</title>
<g id="a_node19"><a xlink:href="unstructured__domains_8h.html" target="_top" xlink:title="Functions to modify unstructured domains, e.g. to incorporate ligands binding to unpaired stretches...">
<polygon fill="none" stroke="black" points="286.04,-123.5 286.04,-153.5 411.04,-153.5 411.04,-123.5 286.04,-123.5"/>
<text text-anchor="start" x="294.04" y="-141.5" font-family="Helvetica,sans-Serif" font-size="10.00">ViennaRNA/unstructured</text>
<text text-anchor="middle" x="348.54" y="-130.5" font-family="Helvetica,sans-Serif" font-size="10.00">_domains.h</text>
</a>
</g>
</g>
<!-- Node5&#45;&gt;Node19 -->
<g id="edge29" class="edge"><title>Node5&#45;&gt;Node19</title>
<path fill="none" stroke="midnightblue" d="M520.982,-190.475C488.265,-181.626 438.872,-167.549 401.273,-156.428"/>
<polygon fill="midnightblue" stroke="midnightblue" points="402.079,-153.016 391.496,-153.523 400.085,-159.726 402.079,-153.016"/>
</g>
<!-- Node7 -->
<g id="node7" class="node"><title>Node7</title>
<polygon fill="none" stroke="#bfbfbf" points="931.54,-0.5 931.54,-19.5 979.54,-19.5 979.54,-0.5 931.54,-0.5"/>
<text text-anchor="middle" x="955.54" y="-7.5" font-family="Helvetica,sans-Serif" font-size="10.00">limits.h</text>
</g>
<!-- Node6&#45;&gt;Node7 -->
<g id="edge6" class="edge"><title>Node6&#45;&gt;Node7</title>
<path fill="none" stroke="midnightblue" d="M955.54,-61.9751C955.54,-53.5803 955.54,-40.4806 955.54,-29.6631"/>
<polygon fill="midnightblue" stroke="midnightblue" points="959.04,-29.5091 955.54,-19.5091 952.04,-29.5091 959.04,-29.5091"/>
</g>
<!-- Node9&#45;&gt;Node5 -->
<g id="edge10" class="edge"><title>Node9&#45;&gt;Node5</title>
<path fill="none" stroke="midnightblue" d="M982.177,-148.014C972.17,-150.154 960.955,-152.318 950.54,-154 843.873,-171.231 719.601,-184.514 639.292,-192.045"/>
<polygon fill="midnightblue" stroke="midnightblue" points="638.867,-188.57 629.233,-192.98 639.514,-195.54 638.867,-188.57"/>
</g>
<!-- Node9&#45;&gt;Node6 -->
<g id="edge9" class="edge"><title>Node9&#45;&gt;Node6</title>
<path fill="none" stroke="midnightblue" d="M1003.99,-128.734C995.255,-118.598 980.689,-101.69 969.804,-89.0556"/>
<polygon fill="midnightblue" stroke="midnightblue" points="972.152,-86.4189 962.973,-81.1273 966.849,-90.9879 972.152,-86.4189"/>
</g>
<!-- Node9&#45;&gt;Node8 -->
<g id="edge11" class="edge"><title>Node9&#45;&gt;Node8</title>
<path fill="none" stroke="midnightblue" d="M1022.87,-128.734C1036.6,-118.111 1059.94,-100.049 1076.46,-87.2642"/>
<polygon fill="midnightblue" stroke="midnightblue" points="1078.62,-90.0152 1084.39,-81.1273 1074.34,-84.4791 1078.62,-90.0152"/>
</g>
<!-- Node10&#45;&gt;Node5 -->
<g id="edge13" class="edge"><title>Node10&#45;&gt;Node5</title>
<path fill="none" stroke="midnightblue" d="M732.693,-148.009C699.699,-158.451 639.951,-176.189 598.968,-187.749"/>
<polygon fill="midnightblue" stroke="midnightblue" points="597.924,-184.407 589.239,-190.475 599.813,-191.147 597.924,-184.407"/>
</g>
<!-- Node11&#45;&gt;Node5 -->
<g id="edge15" class="edge"><title>Node11&#45;&gt;Node5</title>
<path fill="none" stroke="midnightblue" d="M539.87,-148.009C545.141,-156.486 550.964,-169.772 554.43,-180.657"/>
<polygon fill="midnightblue" stroke="midnightblue" points="551.082,-181.689 557.002,-190.475 557.853,-179.914 551.082,-181.689"/>
</g>
<!-- Node12 -->
<g id="node12" class="node"><title>Node12</title>
<g id="a_node12"><a xlink:href="constraints__hard_8h.html" target="_top" xlink:title="Functions and data structures for handling of secondary structure hard constraints. ">
<polygon fill="none" stroke="black" points="335.04,-56.5 335.04,-86.5 454.04,-86.5 454.04,-56.5 335.04,-56.5"/>
<text text-anchor="start" x="343.04" y="-74.5" font-family="Helvetica,sans-Serif" font-size="10.00">ViennaRNA/constraints</text>
<text text-anchor="middle" x="394.54" y="-63.5" font-family="Helvetica,sans-Serif" font-size="10.00">_hard.h</text>
</a>
</g>
</g>
<!-- Node11&#45;&gt;Node12 -->
<g id="edge16" class="edge"><title>Node11&#45;&gt;Node12</title>
<path fill="none" stroke="midnightblue" d="M513.348,-128.869C493.057,-119.242 459.642,-103.388 433.409,-90.9415"/>
<polygon fill="midnightblue" stroke="midnightblue" points="434.642,-87.6525 424.107,-86.5281 431.642,-93.9768 434.642,-87.6525"/>
</g>
<!-- Node13 -->
<g id="node13" class="node"><title>Node13</title>
<g id="a_node13"><a xlink:href="constraints__soft_8h.html" target="_top" xlink:title="Functions and data structures for secondary structure soft constraints. ">
<polygon fill="none" stroke="black" points="472.04,-56.5 472.04,-86.5 591.04,-86.5 591.04,-56.5 472.04,-56.5"/>
<text text-anchor="start" x="480.04" y="-74.5" font-family="Helvetica,sans-Serif" font-size="10.00">ViennaRNA/constraints</text>
<text text-anchor="middle" x="531.54" y="-63.5" font-family="Helvetica,sans-Serif" font-size="10.00">_soft.h</text>
</a>
</g>
</g>
<!-- Node11&#45;&gt;Node13 -->
<g id="edge18" class="edge"><title>Node11&#45;&gt;Node13</title>
<path fill="none" stroke="midnightblue" d="M531.54,-128.734C531.54,-120.541 531.54,-107.923 531.54,-96.7136"/>
<polygon fill="midnightblue" stroke="midnightblue" points="535.04,-96.589 531.54,-86.589 528.04,-96.5891 535.04,-96.589"/>
</g>
<!-- Node14 -->
<g id="node14" class="node"><title>Node14</title>
<g id="a_node14"><a xlink:href="constraints__SHAPE_8h.html" target="_top" xlink:title="This module provides function to incorporate SHAPE reactivity data into the folding recursions by mea...">
<polygon fill="none" stroke="black" points="609.04,-56.5 609.04,-86.5 728.04,-86.5 728.04,-56.5 609.04,-56.5"/>
<text text-anchor="start" x="617.04" y="-74.5" font-family="Helvetica,sans-Serif" font-size="10.00">ViennaRNA/constraints</text>
<text text-anchor="middle" x="668.54" y="-63.5" font-family="Helvetica,sans-Serif" font-size="10.00">_SHAPE.h</text>
</a>
</g>
</g>
<!-- Node11&#45;&gt;Node14 -->
<g id="edge20" class="edge"><title>Node11&#45;&gt;Node14</title>
<path fill="none" stroke="midnightblue" d="M549.733,-128.869C570.023,-119.242 603.438,-103.388 629.671,-90.9415"/>
<polygon fill="midnightblue" stroke="midnightblue" points="631.439,-93.9768 638.974,-86.5281 628.439,-87.6525 631.439,-93.9768"/>
</g>
<!-- Node15 -->
<g id="node15" class="node"><title>Node15</title>
<g id="a_node15"><a xlink:href="perturbation__fold_8h.html" target="_top" xlink:title="Find a vector of perturbation energies that minimizes the discripancies between predicted and observe...">
<polygon fill="none" stroke="black" points="746.54,-56.5 746.54,-86.5 868.54,-86.5 868.54,-56.5 746.54,-56.5"/>
<text text-anchor="start" x="754.54" y="-74.5" font-family="Helvetica,sans-Serif" font-size="10.00">ViennaRNA/perturbation</text>
<text text-anchor="middle" x="807.54" y="-63.5" font-family="Helvetica,sans-Serif" font-size="10.00">_fold.h</text>
</a>
</g>
</g>
<!-- Node11&#45;&gt;Node15 -->
<g id="edge22" class="edge"><title>Node11&#45;&gt;Node15</title>
<path fill="none" stroke="midnightblue" d="M567.906,-128.936C611.038,-118.778 683.894,-101.62 737.975,-88.8832"/>
<polygon fill="midnightblue" stroke="midnightblue" points="738.912,-92.2584 747.843,-86.5592 737.307,-85.4448 738.912,-92.2584"/>
</g>
<!-- Node16 -->
<g id="node16" class="node"><title>Node16</title>
<g id="a_node16"><a xlink:href="constraints__ligand_8h.html" target="_top" xlink:title="Functions for incorporation of ligands binding to hairpin and interior loop motifs using the soft con...">
<polygon fill="none" stroke="black" points="64.0404,-56.5 64.0404,-86.5 183.04,-86.5 183.04,-56.5 64.0404,-56.5"/>
<text text-anchor="start" x="72.0404" y="-74.5" font-family="Helvetica,sans-Serif" font-size="10.00">ViennaRNA/constraints</text>
<text text-anchor="middle" x="123.54" y="-63.5" font-family="Helvetica,sans-Serif" font-size="10.00">_ligand.h</text>
</a>
</g>
</g>
<!-- Node11&#45;&gt;Node16 -->
<g id="edge24" class="edge"><title>Node11&#45;&gt;Node16</title>
<path fill="none" stroke="midnightblue" d="M477.782,-128.936C404.634,-117.282 273.657,-96.4157 193.099,-83.5817"/>
<polygon fill="midnightblue" stroke="midnightblue" points="193.474,-80.0974 183.048,-81.9804 192.373,-87.0102 193.474,-80.0974"/>
</g>
<!-- Node12&#45;&gt;Node5 -->
<g id="edge17" class="edge"><title>Node12&#45;&gt;Node5</title>
<path fill="none" stroke="midnightblue" d="M402.666,-86.5532C413.491,-104.252 434.14,-134.679 458.54,-154 476.594,-168.295 499.926,-179.302 519.182,-186.851"/>
<polygon fill="midnightblue" stroke="midnightblue" points="517.956,-190.13 528.548,-190.381 520.425,-183.579 517.956,-190.13"/>
</g>
<!-- Node13&#45;&gt;Node5 -->
<g id="edge19" class="edge"><title>Node13&#45;&gt;Node5</title>
<path fill="none" stroke="midnightblue" d="M564.949,-86.6623C579.929,-94.9063 596.098,-106.894 604.54,-123 610.937,-135.203 610.082,-141.386 604.54,-154 599.15,-166.268 588.582,-176.659 578.636,-184.354"/>
<polygon fill="midnightblue" stroke="midnightblue" points="576.289,-181.73 570.202,-190.402 580.368,-187.419 576.289,-181.73"/>
</g>
<!-- Node14&#45;&gt;Node5 -->
<g id="edge21" class="edge"><title>Node14&#45;&gt;Node5</title>
<path fill="none" stroke="midnightblue" d="M662.718,-86.7151C655.123,-104.037 640.533,-133.521 621.54,-154 610.006,-166.437 594.427,-177.263 581.302,-185.177"/>
<polygon fill="midnightblue" stroke="midnightblue" points="579.171,-182.366 572.271,-190.407 582.679,-188.424 579.171,-182.366"/>
</g>
<!-- Node15&#45;&gt;Node5 -->
<g id="edge23" class="edge"><title>Node15&#45;&gt;Node5</title>
<path fill="none" stroke="midnightblue" d="M818.685,-86.5152C831.298,-104.174 848.069,-134.559 831.54,-154 819.051,-168.691 715.771,-182.478 639.196,-190.826"/>
<polygon fill="midnightblue" stroke="midnightblue" points="638.622,-187.367 629.054,-191.917 639.371,-194.327 638.622,-187.367"/>
</g>
<!-- Node16&#45;&gt;Node5 -->
<g id="edge25" class="edge"><title>Node16&#45;&gt;Node5</title>
<path fill="none" stroke="midnightblue" d="M73.9738,-86.6121C31.554,-101.057 -18.8082,-125.399 7.54038,-154 38.2928,-187.381 325.804,-196 471.603,-198.225"/>
<polygon fill="midnightblue" stroke="midnightblue" points="471.8,-201.729 481.85,-198.375 471.902,-194.729 471.8,-201.729"/>
</g>
<!-- Node17&#45;&gt;Node5 -->
<g id="edge27" class="edge"><title>Node17&#45;&gt;Node5</title>
<path fill="none" stroke="midnightblue" d="M120.774,-148.01C131.254,-150.175 142.291,-152.352 152.54,-154 262.395,-171.665 389.863,-184.408 471.598,-191.73"/>
<polygon fill="midnightblue" stroke="midnightblue" points="471.559,-195.241 481.83,-192.64 472.179,-188.268 471.559,-195.241"/>
</g>
<!-- Node19&#45;&gt;Node5 -->
<g id="edge30" class="edge"><title>Node19&#45;&gt;Node5</title>
<path fill="none" stroke="midnightblue" d="M403.156,-153.523C440.495,-163.871 488.771,-177.782 520.939,-187.483"/>
<polygon fill="midnightblue" stroke="midnightblue" points="520.197,-190.916 530.783,-190.475 522.233,-184.218 520.197,-190.916"/>
</g>
<!-- Node20&#45;&gt;Node4 -->
<g id="edge32" class="edge"><title>Node20&#45;&gt;Node4</title>
<path fill="none" stroke="midnightblue" d="M642.286,-251.975C654.093,-242.608 673.283,-227.384 687.623,-216.008"/>
<polygon fill="midnightblue" stroke="midnightblue" points="690.156,-218.466 695.815,-209.509 685.805,-212.982 690.156,-218.466"/>
</g>
<!-- Node20&#45;&gt;Node5 -->
<g id="edge33" class="edge"><title>Node20&#45;&gt;Node5</title>
<path fill="none" stroke="midnightblue" d="M620.651,-251.975C608.574,-242.52 588.873,-227.096 574.3,-215.687"/>
<polygon fill="midnightblue" stroke="midnightblue" points="576.441,-212.918 566.409,-209.509 572.126,-218.429 576.441,-212.918"/>
</g>
<!-- Node21&#45;&gt;Node3 -->
<g id="edge35" class="edge"><title>Node21&#45;&gt;Node3</title>
<path fill="none" stroke="midnightblue" d="M941.725,-246.399C942.392,-238.466 943.233,-228.458 943.956,-219.858"/>
<polygon fill="midnightblue" stroke="midnightblue" points="947.463,-219.916 944.813,-209.658 940.488,-219.33 947.463,-219.916"/>
</g>
<!-- Node21&#45;&gt;Node5 -->
<g id="edge36" class="edge"><title>Node21&#45;&gt;Node5</title>
<path fill="none" stroke="midnightblue" d="M885.442,-247.71C882.436,-247.108 879.454,-246.533 876.54,-246 796.28,-231.309 703.963,-218.824 638.993,-210.759"/>
<polygon fill="midnightblue" stroke="midnightblue" points="639.16,-207.253 628.807,-209.503 638.303,-214.2 639.16,-207.253"/>
</g>
<!-- Node23&#45;&gt;Node8 -->
<g id="edge39" class="edge"><title>Node23&#45;&gt;Node8</title>
<path fill="none" stroke="midnightblue" d="M1060.28,-190.262C1064.96,-181.356 1072.03,-167.037 1076.54,-154 1083.79,-133.025 1089.15,-108.065 1092.3,-91.3425"/>
<polygon fill="midnightblue" stroke="midnightblue" points="1095.79,-91.6939 1094.12,-81.232 1088.9,-90.4537 1095.79,-91.6939"/>
</g>
</g>
</svg>
