<?xml version="1.0" encoding="UTF-8" standalone="no"?>
<!DOCTYPE svg PUBLIC "-//W3C//DTD SVG 1.1//EN"
 "http://www.w3.org/Graphics/SVG/1.1/DTD/svg11.dtd">
<!-- Generated by graphviz version 2.38.0 (20140413.2041)
 -->
<!-- Title: ViennaRNA/params.h Pages: 1 -->
<svg width="1327pt" height="218pt"
 viewBox="0.00 0.00 1326.50 218.00" xmlns="http://www.w3.org/2000/svg" xmlns:xlink="http://www.w3.org/1999/xlink">
<g id="graph0" class="graph" transform="scale(1 1) rotate(0) translate(4 214)">
<title>ViennaRNA/params.h</title>
<!-- Node1 -->
<g id="node1" class="node"><title>Node1</title>
<polygon fill="#bfbfbf" stroke="black" points="483,-190.5 483,-209.5 595,-209.5 595,-190.5 483,-190.5"/>
<text text-anchor="middle" x="539" y="-197.5" font-family="Helvetica,sans-Serif" font-size="10.00">ViennaRNA/params.h</text>
</g>
<!-- Node2 -->
<g id="node2" class="node"><title>Node2</title>
<g id="a_node2"><a xlink:href="energy__const_8h.html" target="_top" xlink:title="Energy parameter constants. ">
<polygon fill="none" stroke="black" points="0,-73 0,-92 138,-92 138,-73 0,-73"/>
<text text-anchor="middle" x="69" y="-80" font-family="Helvetica,sans-Serif" font-size="10.00">ViennaRNA/energy_const.h</text>
</a>
</g>
</g>
<!-- Node1&#45;&gt;Node2 -->
<g id="edge1" class="edge"><title>Node1&#45;&gt;Node2</title>
<path fill="none" stroke="midnightblue" d="M502.933,-190.48C465.068,-181.51 403.811,-166.921 351,-154 266.551,-133.338 168.053,-108.557 112.66,-94.5592"/>
<polygon fill="midnightblue" stroke="midnightblue" points="113.384,-91.1323 102.831,-92.0744 111.668,-97.9188 113.384,-91.1323"/>
</g>
<!-- Node4 -->
<g id="node4" class="node"><title>Node4</title>
<g id="a_node4"><a xlink:href="data__structures_8h.html" target="_top" xlink:title="Various data structures and pre&#45;processor macros. ">
<polygon fill="none" stroke="black" points="576.5,-134.5 576.5,-153.5 723.5,-153.5 723.5,-134.5 576.5,-134.5"/>
<text text-anchor="middle" x="650" y="-141.5" font-family="Helvetica,sans-Serif" font-size="10.00">ViennaRNA/data_structures.h</text>
</a>
</g>
</g>
<!-- Node1&#45;&gt;Node4 -->
<g id="edge3" class="edge"><title>Node1&#45;&gt;Node4</title>
<path fill="none" stroke="midnightblue" d="M551.719,-190.324C567.862,-181.546 595.719,-167.875 617.756,-157.842"/>
<polygon fill="midnightblue" stroke="midnightblue" points="619.406,-160.938 627.1,-153.655 616.543,-154.55 619.406,-160.938"/>
</g>
<!-- Node5 -->
<g id="node5" class="node"><title>Node5</title>
<g id="a_node5"><a xlink:href="model_8h.html" target="_top" xlink:title="The model details data structure and its corresponding modifiers. ">
<polygon fill="none" stroke="black" points="156,-73 156,-92 262,-92 262,-73 156,-73"/>
<text text-anchor="middle" x="209" y="-80" font-family="Helvetica,sans-Serif" font-size="10.00">ViennaRNA/model.h</text>
</a>
</g>
</g>
<!-- Node1&#45;&gt;Node5 -->
<g id="edge26" class="edge"><title>Node1&#45;&gt;Node5</title>
<path fill="none" stroke="midnightblue" d="M514.466,-190.413C456.356,-170.075 310.198,-118.919 243.342,-95.5197"/>
<polygon fill="midnightblue" stroke="midnightblue" points="244.29,-92.1435 233.696,-92.1434 241.978,-98.7505 244.29,-92.1435"/>
</g>
<!-- Node3 -->
<g id="node3" class="node"><title>Node3</title>
<polygon fill="none" stroke="#bfbfbf" points="45,-6 45,-25 93,-25 93,-6 45,-6"/>
<text text-anchor="middle" x="69" y="-13" font-family="Helvetica,sans-Serif" font-size="10.00">limits.h</text>
</g>
<!-- Node2&#45;&gt;Node3 -->
<g id="edge2" class="edge"><title>Node2&#45;&gt;Node3</title>
<path fill="none" stroke="midnightblue" d="M69,-72.7338C69,-63.1826 69,-47.6183 69,-35.2829"/>
<polygon fill="midnightblue" stroke="midnightblue" points="72.5001,-35.1273 69,-25.1273 65.5001,-35.1273 72.5001,-35.1273"/>
</g>
<!-- Node4&#45;&gt;Node1 -->
<g id="edge6" class="edge"><title>Node4&#45;&gt;Node1</title>
<path fill="none" stroke="midnightblue" d="M637.574,-153.516C621.437,-162.309 593.277,-176.131 571.081,-186.232"/>
<polygon fill="midnightblue" stroke="midnightblue" points="569.373,-183.162 561.677,-190.444 572.234,-189.551 569.373,-183.162"/>
</g>
<!-- Node4&#45;&gt;Node2 -->
<g id="edge4" class="edge"><title>Node4&#45;&gt;Node2</title>
<path fill="none" stroke="midnightblue" d="M576.449,-138.607C478.242,-132.242 299.004,-118.88 147,-98 138.565,-96.8414 129.656,-95.3969 120.994,-93.8721"/>
<polygon fill="midnightblue" stroke="midnightblue" points="121.445,-90.397 110.982,-92.0577 120.197,-97.2848 121.445,-90.397"/>
</g>
<!-- Node4&#45;&gt;Node5 -->
<g id="edge5" class="edge"><title>Node4&#45;&gt;Node5</title>
<path fill="none" stroke="midnightblue" d="M576.26,-136.18C500.616,-128.704 379.676,-115.417 276,-98 269.297,-96.874 262.251,-95.5287 255.347,-94.1181"/>
<polygon fill="midnightblue" stroke="midnightblue" points="255.899,-90.6576 245.392,-92.0226 254.457,-97.5075 255.899,-90.6576"/>
</g>
<!-- Node6 -->
<g id="node6" class="node"><title>Node6</title>
<g id="a_node6"><a xlink:href="dp__matrices_8h.html" target="_top" xlink:title="Functions to deal with standard dynamic programming (DP) matrices. ">
<polygon fill="none" stroke="black" points="730.5,-73 730.5,-92 863.5,-92 863.5,-73 730.5,-73"/>
<text text-anchor="middle" x="797" y="-80" font-family="Helvetica,sans-Serif" font-size="10.00">ViennaRNA/dp_matrices.h</text>
</a>
</g>
</g>
<!-- Node4&#45;&gt;Node6 -->
<g id="edge7" class="edge"><title>Node4&#45;&gt;Node6</title>
<path fill="none" stroke="midnightblue" d="M666.161,-134.475C689.151,-124.269 731.331,-107.108 761.681,-95.5492"/>
<polygon fill="midnightblue" stroke="midnightblue" points="762.956,-98.8093 771.08,-92.0091 760.489,-92.2585 762.956,-98.8093"/>
</g>
<!-- Node7 -->
<g id="node7" class="node"><title>Node7</title>
<g id="a_node7"><a xlink:href="constraints_8h.html" target="_top" xlink:title="Functions and data structures for constraining secondary structure predictions and evaluation...">
<polygon fill="none" stroke="black" points="920,-73 920,-92 1048,-92 1048,-73 920,-73"/>
<text text-anchor="middle" x="984" y="-80" font-family="Helvetica,sans-Serif" font-size="10.00">ViennaRNA/constraints.h</text>
</a>
</g>
</g>
<!-- Node4&#45;&gt;Node7 -->
<g id="edge9" class="edge"><title>Node4&#45;&gt;Node7</title>
<path fill="none" stroke="midnightblue" d="M692.84,-134.433C742.17,-125.484 825.285,-110.969 897,-98 904.351,-96.6707 912.088,-95.2539 919.803,-93.8462"/>
<polygon fill="midnightblue" stroke="midnightblue" points="920.687,-97.243 929.899,-92.0092 919.434,-90.3561 920.687,-97.243"/>
</g>
<!-- Node13 -->
<g id="node13" class="node"><title>Node13</title>
<g id="a_node13"><a xlink:href="grammar_8h.html" target="_top" xlink:title="Implementations for the RNA folding grammar. ">
<polygon fill="none" stroke="black" points="318,-73 318,-92 436,-92 436,-73 318,-73"/>
<text text-anchor="middle" x="377" y="-80" font-family="Helvetica,sans-Serif" font-size="10.00">ViennaRNA/grammar.h</text>
</a>
</g>
</g>
<!-- Node4&#45;&gt;Node13 -->
<g id="edge21" class="edge"><title>Node4&#45;&gt;Node13</title>
<path fill="none" stroke="midnightblue" d="M605.985,-134.475C555.125,-123.893 472.125,-105.836 421.193,-94.2966"/>
<polygon fill="midnightblue" stroke="midnightblue" points="421.672,-90.8161 411.145,-92.0091 420.118,-97.6414 421.672,-90.8161"/>
</g>
<!-- Node14 -->
<g id="node14" class="node"><title>Node14</title>
<g id="a_node14"><a xlink:href="structured__domains_8h.html" target="_top" xlink:title="This module provides interfaces that deal with additional structured domains in the folding grammar...">
<polygon fill="none" stroke="black" points="454.5,-67.5 454.5,-97.5 569.5,-97.5 569.5,-67.5 454.5,-67.5"/>
<text text-anchor="start" x="462.5" y="-85.5" font-family="Helvetica,sans-Serif" font-size="10.00">ViennaRNA/structured</text>
<text text-anchor="middle" x="512" y="-74.5" font-family="Helvetica,sans-Serif" font-size="10.00">_domains.h</text>
</a>
</g>
</g>
<!-- Node4&#45;&gt;Node14 -->
<g id="edge23" class="edge"><title>Node4&#45;&gt;Node14</title>
<path fill="none" stroke="midnightblue" d="M630.228,-134.475C610.402,-125.927 579.263,-112.501 553.918,-101.573"/>
<polygon fill="midnightblue" stroke="midnightblue" points="555.092,-98.2683 544.524,-97.523 552.321,-104.696 555.092,-98.2683"/>
</g>
<!-- Node15 -->
<g id="node15" class="node"><title>Node15</title>
<g id="a_node15"><a xlink:href="unstructured__domains_8h.html" target="_top" xlink:title="Functions to modify unstructured domains, e.g. to incorporate ligands binding to unpaired stretches...">
<polygon fill="none" stroke="black" points="587.5,-67.5 587.5,-97.5 712.5,-97.5 712.5,-67.5 587.5,-67.5"/>
<text text-anchor="start" x="595.5" y="-85.5" font-family="Helvetica,sans-Serif" font-size="10.00">ViennaRNA/unstructured</text>
<text text-anchor="middle" x="650" y="-74.5" font-family="Helvetica,sans-Serif" font-size="10.00">_domains.h</text>
</a>
</g>
</g>
<!-- Node4&#45;&gt;Node15 -->
<g id="edge24" class="edge"><title>Node4&#45;&gt;Node15</title>
<path fill="none" stroke="midnightblue" d="M645.099,-134.475C643.572,-127.471 642.991,-117.192 643.356,-107.696"/>
<polygon fill="midnightblue" stroke="midnightblue" points="646.861,-107.77 644.17,-97.523 639.883,-107.212 646.861,-107.77"/>
</g>
<!-- Node6&#45;&gt;Node4 -->
<g id="edge8" class="edge"><title>Node6&#45;&gt;Node4</title>
<path fill="none" stroke="midnightblue" d="M780.875,-92.0091C757.905,-102.208 715.728,-119.368 685.366,-130.933"/>
<polygon fill="midnightblue" stroke="midnightblue" points="684.086,-127.675 675.962,-134.475 686.554,-134.225 684.086,-127.675"/>
</g>
<!-- Node7&#45;&gt;Node4 -->
<g id="edge10" class="edge"><title>Node7&#45;&gt;Node4</title>
<path fill="none" stroke="midnightblue" d="M947.39,-92.0092C936.943,-93.9953 925.572,-96.0882 915,-98 847.523,-110.202 769.953,-123.774 716.165,-132.79"/>
<polygon fill="midnightblue" stroke="midnightblue" points="715.358,-129.376 706.071,-134.474 716.511,-136.28 715.358,-129.376"/>
</g>
<!-- Node8 -->
<g id="node8" class="node"><title>Node8</title>
<g id="a_node8"><a xlink:href="constraints__hard_8h.html" target="_top" xlink:title="Functions and data structures for handling of secondary structure hard constraints. ">
<polygon fill="none" stroke="black" points="437.5,-0.5 437.5,-30.5 556.5,-30.5 556.5,-0.5 437.5,-0.5"/>
<text text-anchor="start" x="445.5" y="-18.5" font-family="Helvetica,sans-Serif" font-size="10.00">ViennaRNA/constraints</text>
<text text-anchor="middle" x="497" y="-7.5" font-family="Helvetica,sans-Serif" font-size="10.00">_hard.h</text>
</a>
</g>
</g>
<!-- Node7&#45;&gt;Node8 -->
<g id="edge11" class="edge"><title>Node7&#45;&gt;Node8</title>
<path fill="none" stroke="midnightblue" d="M920.083,-72.969C828.706,-60.7729 661.358,-38.4369 566.828,-25.8199"/>
<polygon fill="midnightblue" stroke="midnightblue" points="567.167,-22.3342 556.791,-24.4804 566.241,-29.2727 567.167,-22.3342"/>
</g>
<!-- Node9 -->
<g id="node9" class="node"><title>Node9</title>
<g id="a_node9"><a xlink:href="constraints__soft_8h.html" target="_top" xlink:title="Functions and data structures for secondary structure soft constraints. ">
<polygon fill="none" stroke="black" points="784.5,-0.5 784.5,-30.5 903.5,-30.5 903.5,-0.5 784.5,-0.5"/>
<text text-anchor="start" x="792.5" y="-18.5" font-family="Helvetica,sans-Serif" font-size="10.00">ViennaRNA/constraints</text>
<text text-anchor="middle" x="844" y="-7.5" font-family="Helvetica,sans-Serif" font-size="10.00">_soft.h</text>
</a>
</g>
</g>
<!-- Node7&#45;&gt;Node9 -->
<g id="edge13" class="edge"><title>Node7&#45;&gt;Node9</title>
<path fill="none" stroke="midnightblue" d="M965.409,-72.8685C944.583,-63.1995 910.228,-47.2486 883.368,-34.778"/>
<polygon fill="midnightblue" stroke="midnightblue" points="884.758,-31.5647 874.214,-30.5281 881.81,-37.9138 884.758,-31.5647"/>
</g>
<!-- Node10 -->
<g id="node10" class="node"><title>Node10</title>
<g id="a_node10"><a xlink:href="constraints__SHAPE_8h.html" target="_top" xlink:title="This module provides function to incorporate SHAPE reactivity data into the folding recursions by mea...">
<polygon fill="none" stroke="black" points="921.5,-0.5 921.5,-30.5 1040.5,-30.5 1040.5,-0.5 921.5,-0.5"/>
<text text-anchor="start" x="929.5" y="-18.5" font-family="Helvetica,sans-Serif" font-size="10.00">ViennaRNA/constraints</text>
<text text-anchor="middle" x="981" y="-7.5" font-family="Helvetica,sans-Serif" font-size="10.00">_SHAPE.h</text>
</a>
</g>
</g>
<!-- Node7&#45;&gt;Node10 -->
<g id="edge15" class="edge"><title>Node7&#45;&gt;Node10</title>
<path fill="none" stroke="midnightblue" d="M983.595,-72.7338C983.217,-64.5406 982.635,-51.9225 982.118,-40.7136"/>
<polygon fill="midnightblue" stroke="midnightblue" points="985.608,-40.417 981.65,-30.589 978.615,-40.7398 985.608,-40.417"/>
</g>
<!-- Node11 -->
<g id="node11" class="node"><title>Node11</title>
<g id="a_node11"><a xlink:href="perturbation__fold_8h.html" target="_top" xlink:title="Find a vector of perturbation energies that minimizes the discripancies between predicted and observe...">
<polygon fill="none" stroke="black" points="1059,-0.5 1059,-30.5 1181,-30.5 1181,-0.5 1059,-0.5"/>
<text text-anchor="start" x="1067" y="-18.5" font-family="Helvetica,sans-Serif" font-size="10.00">ViennaRNA/perturbation</text>
<text text-anchor="middle" x="1120" y="-7.5" font-family="Helvetica,sans-Serif" font-size="10.00">_fold.h</text>
</a>
</g>
</g>
<!-- Node7&#45;&gt;Node11 -->
<g id="edge17" class="edge"><title>Node7&#45;&gt;Node11</title>
<path fill="none" stroke="midnightblue" d="M1002.06,-72.8685C1022.2,-63.2417 1055.37,-47.3878 1081.41,-34.9415"/>
<polygon fill="midnightblue" stroke="midnightblue" points="1083.14,-37.9982 1090.65,-30.5281 1080.12,-31.6825 1083.14,-37.9982"/>
</g>
<!-- Node12 -->
<g id="node12" class="node"><title>Node12</title>
<g id="a_node12"><a xlink:href="constraints__ligand_8h.html" target="_top" xlink:title="Functions for incorporation of ligands binding to hairpin and interior loop motifs using the soft con...">
<polygon fill="none" stroke="black" points="1199.5,-0.5 1199.5,-30.5 1318.5,-30.5 1318.5,-0.5 1199.5,-0.5"/>
<text text-anchor="start" x="1207.5" y="-18.5" font-family="Helvetica,sans-Serif" font-size="10.00">ViennaRNA/constraints</text>
<text text-anchor="middle" x="1259" y="-7.5" font-family="Helvetica,sans-Serif" font-size="10.00">_ligand.h</text>
</a>
</g>
</g>
<!-- Node7&#45;&gt;Node12 -->
<g id="edge19" class="edge"><title>Node7&#45;&gt;Node12</title>
<path fill="none" stroke="midnightblue" d="M1020.23,-72.9355C1063.21,-62.7776 1135.8,-45.6197 1189.69,-32.8832"/>
<polygon fill="midnightblue" stroke="midnightblue" points="1190.59,-36.2656 1199.52,-30.5592 1188.98,-29.4533 1190.59,-36.2656"/>
</g>
<!-- Node8&#45;&gt;Node4 -->
<g id="edge12" class="edge"><title>Node8&#45;&gt;Node4</title>
<path fill="none" stroke="midnightblue" d="M437.434,-22.0905C368.259,-30.8337 268.488,-51.7903 309,-98 325.736,-117.089 470.706,-130.674 566.161,-137.644"/>
<polygon fill="midnightblue" stroke="midnightblue" points="566.164,-141.153 576.39,-138.38 566.666,-134.171 566.164,-141.153"/>
</g>
<!-- Node9&#45;&gt;Node4 -->
<g id="edge14" class="edge"><title>Node9&#45;&gt;Node4</title>
<path fill="none" stroke="midnightblue" d="M856.327,-30.6313C870.05,-48.136 888.289,-78.0784 872,-98 854.483,-119.424 789.129,-130.892 733.83,-136.877"/>
<polygon fill="midnightblue" stroke="midnightblue" points="733.222,-133.421 723.635,-137.931 733.942,-140.384 733.222,-133.421"/>
</g>
<!-- Node10&#45;&gt;Node4 -->
<g id="edge16" class="edge"><title>Node10&#45;&gt;Node4</title>
<path fill="none" stroke="midnightblue" d="M1010.25,-30.6201C1039.88,-46.746 1078.49,-74.0035 1057,-98 1035.85,-121.615 846.594,-134.168 733.752,-139.61"/>
<polygon fill="midnightblue" stroke="midnightblue" points="733.574,-136.114 723.75,-140.083 733.905,-143.107 733.574,-136.114"/>
</g>
<!-- Node11&#45;&gt;Node4 -->
<g id="edge18" class="edge"><title>Node11&#45;&gt;Node4</title>
<path fill="none" stroke="midnightblue" d="M1116.51,-30.7943C1111.08,-49.6476 1098.7,-82.2705 1075,-98 1020.8,-133.969 841.463,-141.776 733.839,-143.125"/>
<polygon fill="midnightblue" stroke="midnightblue" points="733.615,-139.628 723.654,-143.237 733.691,-146.627 733.615,-139.628"/>
</g>
<!-- Node12&#45;&gt;Node4 -->
<g id="edge20" class="edge"><title>Node12&#45;&gt;Node4</title>
<path fill="none" stroke="midnightblue" d="M1238.41,-30.5719C1209.56,-49.4871 1154.82,-82.5226 1103,-98 1036.08,-117.985 845.66,-131.823 734.151,-138.477"/>
<polygon fill="midnightblue" stroke="midnightblue" points="733.722,-134.996 723.945,-139.079 734.134,-141.984 733.722,-134.996"/>
</g>
<!-- Node13&#45;&gt;Node4 -->
<g id="edge22" class="edge"><title>Node13&#45;&gt;Node4</title>
<path fill="none" stroke="midnightblue" d="M420.939,-92.0091C471.767,-102.584 554.767,-120.641 605.73,-132.186"/>
<polygon fill="midnightblue" stroke="midnightblue" points="605.259,-135.668 615.786,-134.475 606.813,-128.843 605.259,-135.668"/>
</g>
<!-- Node15&#45;&gt;Node4 -->
<g id="edge25" class="edge"><title>Node15&#45;&gt;Node4</title>
<path fill="none" stroke="midnightblue" d="M655.83,-97.523C656.873,-105.586 657.029,-115.813 656.299,-124.526"/>
<polygon fill="midnightblue" stroke="midnightblue" points="652.827,-124.085 654.901,-134.475 659.759,-125.06 652.827,-124.085"/>
</g>
</g>
</svg>
