<?xml version="1.0" encoding="UTF-8" standalone="no"?>
<!DOCTYPE svg PUBLIC "-//W3C//DTD SVG 1.1//EN"
 "http://www.w3.org/Graphics/SVG/1.1/DTD/svg11.dtd">
<!-- Generated by graphviz version 2.38.0 (20140413.2041)
 -->
<!-- Title: ViennaRNA/part_func.h Pages: 1 -->
<svg width="1123pt" height="341pt"
 viewBox="0.00 0.00 1122.50 341.00" xmlns="http://www.w3.org/2000/svg" xmlns:xlink="http://www.w3.org/1999/xlink">
<g id="graph0" class="graph" transform="scale(1 1) rotate(0) translate(4 337)">
<title>ViennaRNA/part_func.h</title>
<!-- Node1 -->
<g id="node1" class="node"><title>Node1</title>
<polygon fill="#bfbfbf" stroke="black" points="320,-313.5 320,-332.5 440,-332.5 440,-313.5 320,-313.5"/>
<text text-anchor="middle" x="380" y="-320.5" font-family="Helvetica,sans-Serif" font-size="10.00">ViennaRNA/part_func.h</text>
</g>
<!-- Node2 -->
<g id="node2" class="node"><title>Node2</title>
<g id="a_node2"><a xlink:href="data__structures_8h.html" target="_top" xlink:title="Various data structures and pre&#45;processor macros. ">
<polygon fill="none" stroke="black" points="392.5,-190.5 392.5,-209.5 539.5,-209.5 539.5,-190.5 392.5,-190.5"/>
<text text-anchor="middle" x="466" y="-197.5" font-family="Helvetica,sans-Serif" font-size="10.00">ViennaRNA/data_structures.h</text>
</a>
</g>
</g>
<!-- Node1&#45;&gt;Node2 -->
<g id="edge1" class="edge"><title>Node1&#45;&gt;Node2</title>
<path fill="none" stroke="midnightblue" d="M399.969,-313.488C415.105,-306.025 435.244,-293.743 447,-277 458.938,-259.998 463.394,-236.227 465.047,-219.819"/>
<polygon fill="midnightblue" stroke="midnightblue" points="468.54,-220.043 465.801,-209.809 461.56,-219.518 468.54,-220.043"/>
</g>
<!-- Node6 -->
<g id="node6" class="node"><title>Node6</title>
<g id="a_node6"><a xlink:href="params_8h.html" target="_top" xlink:title="Functions to deal with sets of energy parameters. ">
<polygon fill="none" stroke="black" points="22,-129 22,-148 134,-148 134,-129 22,-129"/>
<text text-anchor="middle" x="78" y="-136" font-family="Helvetica,sans-Serif" font-size="10.00">ViennaRNA/params.h</text>
</a>
</g>
</g>
<!-- Node1&#45;&gt;Node6 -->
<g id="edge28" class="edge"><title>Node1&#45;&gt;Node6</title>
<path fill="none" stroke="midnightblue" d="M319.643,-319.866C276.771,-315.806 219.506,-304.999 177,-277 131.074,-246.749 99.4269,-187.348 85.6972,-157.508"/>
<polygon fill="midnightblue" stroke="midnightblue" points="88.8558,-155.997 81.594,-148.283 82.4598,-158.842 88.8558,-155.997"/>
</g>
<!-- Node17 -->
<g id="node17" class="node"><title>Node17</title>
<g id="a_node17"><a xlink:href="centroid_8h.html" target="_top" xlink:title="Centroid structure computation. ">
<polygon fill="none" stroke="black" points="494,-252 494,-271 608,-271 608,-252 494,-252"/>
<text text-anchor="middle" x="551" y="-259" font-family="Helvetica,sans-Serif" font-size="10.00">ViennaRNA/centroid.h</text>
</a>
</g>
</g>
<!-- Node1&#45;&gt;Node17 -->
<g id="edge29" class="edge"><title>Node1&#45;&gt;Node17</title>
<path fill="none" stroke="midnightblue" d="M404.5,-313.475C433.96,-303.225 483.579,-285.959 516.802,-274.399"/>
<polygon fill="midnightblue" stroke="midnightblue" points="518.251,-277.601 526.545,-271.009 515.95,-270.99 518.251,-277.601"/>
</g>
<!-- Node18 -->
<g id="node18" class="node"><title>Node18</title>
<g id="a_node18"><a xlink:href="equilibrium__probs_8h.html" target="_top" xlink:title="Equilibrium Probability implementations. ">
<polygon fill="none" stroke="black" points="186,-246.5 186,-276.5 304,-276.5 304,-246.5 186,-246.5"/>
<text text-anchor="start" x="194" y="-264.5" font-family="Helvetica,sans-Serif" font-size="10.00">ViennaRNA/equilibrium</text>
<text text-anchor="middle" x="245" y="-253.5" font-family="Helvetica,sans-Serif" font-size="10.00">_probs.h</text>
</a>
</g>
</g>
<!-- Node1&#45;&gt;Node18 -->
<g id="edge31" class="edge"><title>Node1&#45;&gt;Node18</title>
<path fill="none" stroke="midnightblue" d="M360.658,-313.475C341.263,-304.927 310.801,-291.501 286.007,-280.573"/>
<polygon fill="midnightblue" stroke="midnightblue" points="287.379,-277.353 276.817,-276.523 284.556,-283.759 287.379,-277.353"/>
</g>
<!-- Node19 -->
<g id="node19" class="node"><title>Node19</title>
<g id="a_node19"><a xlink:href="boltzmann__sampling_8h.html" target="_top" xlink:title="Boltzmann Sampling of secondary structures from the ensemble. ">
<polygon fill="none" stroke="black" points="322,-246.5 322,-276.5 438,-276.5 438,-246.5 322,-246.5"/>
<text text-anchor="start" x="330" y="-264.5" font-family="Helvetica,sans-Serif" font-size="10.00">ViennaRNA/boltzmann</text>
<text text-anchor="middle" x="380" y="-253.5" font-family="Helvetica,sans-Serif" font-size="10.00">_sampling.h</text>
</a>
</g>
</g>
<!-- Node1&#45;&gt;Node19 -->
<g id="edge33" class="edge"><title>Node1&#45;&gt;Node19</title>
<path fill="none" stroke="midnightblue" d="M380,-313.475C380,-306.471 380,-296.192 380,-286.696"/>
<polygon fill="midnightblue" stroke="midnightblue" points="383.5,-286.523 380,-276.523 376.5,-286.523 383.5,-286.523"/>
</g>
<!-- Node3 -->
<g id="node3" class="node"><title>Node3</title>
<g id="a_node3"><a xlink:href="energy__const_8h.html" target="_top" xlink:title="Energy parameter constants. ">
<polygon fill="none" stroke="black" points="0,-62 0,-81 138,-81 138,-62 0,-62"/>
<text text-anchor="middle" x="69" y="-69" font-family="Helvetica,sans-Serif" font-size="10.00">ViennaRNA/energy_const.h</text>
</a>
</g>
</g>
<!-- Node2&#45;&gt;Node3 -->
<g id="edge2" class="edge"><title>Node2&#45;&gt;Node3</title>
<path fill="none" stroke="midnightblue" d="M392.339,-193.987C338.273,-188.521 263.806,-177.215 202,-154 178.926,-145.333 121.421,-107.785 90.1155,-86.8099"/>
<polygon fill="midnightblue" stroke="midnightblue" points="91.9197,-83.8053 81.6691,-81.1266 88.0119,-89.613 91.9197,-83.8053"/>
</g>
<!-- Node5 -->
<g id="node5" class="node"><title>Node5</title>
<g id="a_node5"><a xlink:href="model_8h.html" target="_top" xlink:title="The model details data structure and its corresponding modifiers. ">
<polygon fill="none" stroke="black" points="156,-62 156,-81 262,-81 262,-62 156,-62"/>
<text text-anchor="middle" x="209" y="-69" font-family="Helvetica,sans-Serif" font-size="10.00">ViennaRNA/model.h</text>
</a>
</g>
</g>
<!-- Node2&#45;&gt;Node5 -->
<g id="edge4" class="edge"><title>Node2&#45;&gt;Node5</title>
<path fill="none" stroke="midnightblue" d="M392.44,-195.036C328.394,-189.957 242.257,-178.65 219,-154 203.364,-137.428 203.354,-109.781 205.553,-91.3476"/>
<polygon fill="midnightblue" stroke="midnightblue" points="209.047,-91.6545 207.088,-81.2422 202.126,-90.6033 209.047,-91.6545"/>
</g>
<!-- Node2&#45;&gt;Node6 -->
<g id="edge5" class="edge"><title>Node2&#45;&gt;Node6</title>
<path fill="none" stroke="midnightblue" d="M392.197,-190.793C325.626,-182.584 225.38,-169.043 139,-154 132.264,-152.827 125.185,-151.487 118.313,-150.107"/>
<polygon fill="midnightblue" stroke="midnightblue" points="118.957,-146.666 108.456,-148.07 117.54,-153.521 118.957,-146.666"/>
</g>
<!-- Node7 -->
<g id="node7" class="node"><title>Node7</title>
<g id="a_node7"><a xlink:href="dp__matrices_8h.html" target="_top" xlink:title="Functions to deal with standard dynamic programming (DP) matrices. ">
<polygon fill="none" stroke="black" points="228.5,-129 228.5,-148 361.5,-148 361.5,-129 228.5,-129"/>
<text text-anchor="middle" x="295" y="-136" font-family="Helvetica,sans-Serif" font-size="10.00">ViennaRNA/dp_matrices.h</text>
</a>
</g>
</g>
<!-- Node2&#45;&gt;Node7 -->
<g id="edge9" class="edge"><title>Node2&#45;&gt;Node7</title>
<path fill="none" stroke="midnightblue" d="M436.599,-190.475C405.041,-180.269 355.505,-163.108 324.079,-151.549"/>
<polygon fill="midnightblue" stroke="midnightblue" points="325.15,-148.214 314.558,-148.009 322.711,-154.775 325.15,-148.214"/>
</g>
<!-- Node8 -->
<g id="node8" class="node"><title>Node8</title>
<g id="a_node8"><a xlink:href="constraints_8h.html" target="_top" xlink:title="Functions and data structures for constraining secondary structure predictions and evaluation...">
<polygon fill="none" stroke="black" points="494,-129 494,-148 622,-148 622,-129 494,-129"/>
<text text-anchor="middle" x="558" y="-136" font-family="Helvetica,sans-Serif" font-size="10.00">ViennaRNA/constraints.h</text>
</a>
</g>
</g>
<!-- Node2&#45;&gt;Node8 -->
<g id="edge11" class="edge"><title>Node2&#45;&gt;Node8</title>
<path fill="none" stroke="midnightblue" d="M474.281,-190.475C487.249,-180.711 511.899,-164.581 531.23,-153.081"/>
<polygon fill="midnightblue" stroke="midnightblue" points="533.063,-156.064 539.946,-148.009 529.542,-150.013 533.063,-156.064"/>
</g>
<!-- Node14 -->
<g id="node14" class="node"><title>Node14</title>
<g id="a_node14"><a xlink:href="grammar_8h.html" target="_top" xlink:title="Implementations for the RNA folding grammar. ">
<polygon fill="none" stroke="black" points="640,-129 640,-148 758,-148 758,-129 640,-129"/>
<text text-anchor="middle" x="699" y="-136" font-family="Helvetica,sans-Serif" font-size="10.00">ViennaRNA/grammar.h</text>
</a>
</g>
</g>
<!-- Node2&#45;&gt;Node14 -->
<g id="edge23" class="edge"><title>Node2&#45;&gt;Node14</title>
<path fill="none" stroke="midnightblue" d="M494.483,-190.475C533.45,-179.937 603.589,-161.986 650.785,-150.441"/>
<polygon fill="midnightblue" stroke="midnightblue" points="651.893,-153.774 660.782,-148.009 650.238,-146.973 651.893,-153.774"/>
</g>
<!-- Node15 -->
<g id="node15" class="node"><title>Node15</title>
<g id="a_node15"><a xlink:href="structured__domains_8h.html" target="_top" xlink:title="This module provides interfaces that deal with additional structured domains in the folding grammar...">
<polygon fill="none" stroke="black" points="776.5,-123.5 776.5,-153.5 891.5,-153.5 891.5,-123.5 776.5,-123.5"/>
<text text-anchor="start" x="784.5" y="-141.5" font-family="Helvetica,sans-Serif" font-size="10.00">ViennaRNA/structured</text>
<text text-anchor="middle" x="834" y="-130.5" font-family="Helvetica,sans-Serif" font-size="10.00">_domains.h</text>
</a>
</g>
</g>
<!-- Node2&#45;&gt;Node15 -->
<g id="edge25" class="edge"><title>Node2&#45;&gt;Node15</title>
<path fill="none" stroke="midnightblue" d="M531.376,-190.469C590.216,-182.508 679.267,-169.761 766.257,-154.063"/>
<polygon fill="midnightblue" stroke="midnightblue" points="767.092,-157.468 776.304,-152.235 765.839,-150.581 767.092,-157.468"/>
</g>
<!-- Node16 -->
<g id="node16" class="node"><title>Node16</title>
<g id="a_node16"><a xlink:href="unstructured__domains_8h.html" target="_top" xlink:title="Functions to modify unstructured domains, e.g. to incorporate ligands binding to unpaired stretches...">
<polygon fill="none" stroke="black" points="909.5,-123.5 909.5,-153.5 1034.5,-153.5 1034.5,-123.5 909.5,-123.5"/>
<text text-anchor="start" x="917.5" y="-141.5" font-family="Helvetica,sans-Serif" font-size="10.00">ViennaRNA/unstructured</text>
<text text-anchor="middle" x="972" y="-130.5" font-family="Helvetica,sans-Serif" font-size="10.00">_domains.h</text>
</a>
</g>
</g>
<!-- Node2&#45;&gt;Node16 -->
<g id="edge26" class="edge"><title>Node2&#45;&gt;Node16</title>
<path fill="none" stroke="midnightblue" d="M539.647,-192.984C624.611,-185.902 768.182,-172.691 891,-154 893.685,-153.591 896.421,-153.151 899.187,-152.685"/>
<polygon fill="midnightblue" stroke="midnightblue" points="900.048,-156.088 909.292,-150.91 898.837,-149.193 900.048,-156.088"/>
</g>
<!-- Node4 -->
<g id="node4" class="node"><title>Node4</title>
<polygon fill="none" stroke="#bfbfbf" points="45,-0.5 45,-19.5 93,-19.5 93,-0.5 45,-0.5"/>
<text text-anchor="middle" x="69" y="-7.5" font-family="Helvetica,sans-Serif" font-size="10.00">limits.h</text>
</g>
<!-- Node3&#45;&gt;Node4 -->
<g id="edge3" class="edge"><title>Node3&#45;&gt;Node4</title>
<path fill="none" stroke="midnightblue" d="M69,-61.9751C69,-53.5803 69,-40.4806 69,-29.6631"/>
<polygon fill="midnightblue" stroke="midnightblue" points="72.5001,-29.5091 69,-19.5091 65.5001,-29.5091 72.5001,-29.5091"/>
</g>
<!-- Node6&#45;&gt;Node2 -->
<g id="edge7" class="edge"><title>Node6&#45;&gt;Node2</title>
<path fill="none" stroke="midnightblue" d="M125.864,-148.07C136.189,-150.139 146.974,-152.254 157,-154 237.784,-168.068 330.696,-180.823 393.436,-189.132"/>
<polygon fill="midnightblue" stroke="midnightblue" points="393.254,-192.638 403.627,-190.477 394.171,-185.698 393.254,-192.638"/>
</g>
<!-- Node6&#45;&gt;Node3 -->
<g id="edge6" class="edge"><title>Node6&#45;&gt;Node3</title>
<path fill="none" stroke="midnightblue" d="M76.7862,-128.734C75.4638,-119.183 73.3087,-103.618 71.6007,-91.2829"/>
<polygon fill="midnightblue" stroke="midnightblue" points="75.0331,-90.5527 70.1945,-81.1273 68.0992,-91.5129 75.0331,-90.5527"/>
</g>
<!-- Node6&#45;&gt;Node5 -->
<g id="edge8" class="edge"><title>Node6&#45;&gt;Node5</title>
<path fill="none" stroke="midnightblue" d="M95.3958,-128.869C117.613,-117.845 156.287,-98.6554 182.26,-85.7678"/>
<polygon fill="midnightblue" stroke="midnightblue" points="184.13,-88.7473 191.532,-81.1672 181.019,-82.4767 184.13,-88.7473"/>
</g>
<!-- Node7&#45;&gt;Node2 -->
<g id="edge10" class="edge"><title>Node7&#45;&gt;Node2</title>
<path fill="none" stroke="midnightblue" d="M324.352,-148.009C355.892,-158.208 405.428,-175.368 436.872,-186.933"/>
<polygon fill="midnightblue" stroke="midnightblue" points="435.808,-190.271 446.4,-190.475 438.247,-183.71 435.808,-190.271"/>
</g>
<!-- Node8&#45;&gt;Node2 -->
<g id="edge12" class="edge"><title>Node8&#45;&gt;Node2</title>
<path fill="none" stroke="midnightblue" d="M549.74,-148.009C536.785,-157.767 512.138,-173.896 492.802,-185.401"/>
<polygon fill="midnightblue" stroke="midnightblue" points="490.964,-182.42 484.082,-190.475 494.485,-188.47 490.964,-182.42"/>
</g>
<!-- Node9 -->
<g id="node9" class="node"><title>Node9</title>
<g id="a_node9"><a xlink:href="constraints__hard_8h.html" target="_top" xlink:title="Functions and data structures for handling of secondary structure hard constraints. ">
<polygon fill="none" stroke="black" points="305.5,-56.5 305.5,-86.5 424.5,-86.5 424.5,-56.5 305.5,-56.5"/>
<text text-anchor="start" x="313.5" y="-74.5" font-family="Helvetica,sans-Serif" font-size="10.00">ViennaRNA/constraints</text>
<text text-anchor="middle" x="365" y="-63.5" font-family="Helvetica,sans-Serif" font-size="10.00">_hard.h</text>
</a>
</g>
</g>
<!-- Node8&#45;&gt;Node9 -->
<g id="edge13" class="edge"><title>Node8&#45;&gt;Node9</title>
<path fill="none" stroke="midnightblue" d="M532.371,-128.869C502.909,-118.946 453.805,-102.408 416.383,-89.8051"/>
<polygon fill="midnightblue" stroke="midnightblue" points="417.247,-86.4029 406.653,-86.5281 415.012,-93.0368 417.247,-86.4029"/>
</g>
<!-- Node10 -->
<g id="node10" class="node"><title>Node10</title>
<g id="a_node10"><a xlink:href="constraints__soft_8h.html" target="_top" xlink:title="Functions and data structures for secondary structure soft constraints. ">
<polygon fill="none" stroke="black" points="442.5,-56.5 442.5,-86.5 561.5,-86.5 561.5,-56.5 442.5,-56.5"/>
<text text-anchor="start" x="450.5" y="-74.5" font-family="Helvetica,sans-Serif" font-size="10.00">ViennaRNA/constraints</text>
<text text-anchor="middle" x="502" y="-63.5" font-family="Helvetica,sans-Serif" font-size="10.00">_soft.h</text>
</a>
</g>
</g>
<!-- Node8&#45;&gt;Node10 -->
<g id="edge15" class="edge"><title>Node8&#45;&gt;Node10</title>
<path fill="none" stroke="midnightblue" d="M550.448,-128.734C542.879,-119.949 530.929,-106.078 520.791,-94.3111"/>
<polygon fill="midnightblue" stroke="midnightblue" points="523.317,-91.8806 514.138,-86.589 518.014,-96.4496 523.317,-91.8806"/>
</g>
<!-- Node11 -->
<g id="node11" class="node"><title>Node11</title>
<g id="a_node11"><a xlink:href="constraints__SHAPE_8h.html" target="_top" xlink:title="This module provides function to incorporate SHAPE reactivity data into the folding recursions by mea...">
<polygon fill="none" stroke="black" points="579.5,-56.5 579.5,-86.5 698.5,-86.5 698.5,-56.5 579.5,-56.5"/>
<text text-anchor="start" x="587.5" y="-74.5" font-family="Helvetica,sans-Serif" font-size="10.00">ViennaRNA/constraints</text>
<text text-anchor="middle" x="639" y="-63.5" font-family="Helvetica,sans-Serif" font-size="10.00">_SHAPE.h</text>
</a>
</g>
</g>
<!-- Node8&#45;&gt;Node11 -->
<g id="edge17" class="edge"><title>Node8&#45;&gt;Node11</title>
<path fill="none" stroke="midnightblue" d="M568.924,-128.734C580.292,-119.611 598.495,-105.004 613.5,-92.9631"/>
<polygon fill="midnightblue" stroke="midnightblue" points="615.834,-95.5775 621.443,-86.589 611.453,-90.118 615.834,-95.5775"/>
</g>
<!-- Node12 -->
<g id="node12" class="node"><title>Node12</title>
<g id="a_node12"><a xlink:href="perturbation__fold_8h.html" target="_top" xlink:title="Find a vector of perturbation energies that minimizes the discripancies between predicted and observe...">
<polygon fill="none" stroke="black" points="809,-56.5 809,-86.5 931,-86.5 931,-56.5 809,-56.5"/>
<text text-anchor="start" x="817" y="-74.5" font-family="Helvetica,sans-Serif" font-size="10.00">ViennaRNA/perturbation</text>
<text text-anchor="middle" x="870" y="-63.5" font-family="Helvetica,sans-Serif" font-size="10.00">_fold.h</text>
</a>
</g>
</g>
<!-- Node8&#45;&gt;Node12 -->
<g id="edge19" class="edge"><title>Node8&#45;&gt;Node12</title>
<path fill="none" stroke="midnightblue" d="M599.109,-128.936C649.895,-118.355 737.134,-100.18 798.874,-87.318"/>
<polygon fill="midnightblue" stroke="midnightblue" points="799.861,-90.6875 808.937,-85.2214 798.434,-83.8346 799.861,-90.6875"/>
</g>
<!-- Node13 -->
<g id="node13" class="node"><title>Node13</title>
<g id="a_node13"><a xlink:href="constraints__ligand_8h.html" target="_top" xlink:title="Functions for incorporation of ligands binding to hairpin and interior loop motifs using the soft con...">
<polygon fill="none" stroke="black" points="995.5,-56.5 995.5,-86.5 1114.5,-86.5 1114.5,-56.5 995.5,-56.5"/>
<text text-anchor="start" x="1003.5" y="-74.5" font-family="Helvetica,sans-Serif" font-size="10.00">ViennaRNA/constraints</text>
<text text-anchor="middle" x="1055" y="-63.5" font-family="Helvetica,sans-Serif" font-size="10.00">_ligand.h</text>
</a>
</g>
</g>
<!-- Node8&#45;&gt;Node13 -->
<g id="edge21" class="edge"><title>Node8&#45;&gt;Node13</title>
<path fill="none" stroke="midnightblue" d="M598.059,-128.943C608.733,-126.828 620.278,-124.687 631,-123 767.583,-101.514 802.744,-103.648 940,-87 954.608,-85.2281 970.254,-83.2854 985.153,-81.414"/>
<polygon fill="midnightblue" stroke="midnightblue" points="985.842,-84.855 995.326,-80.1328 984.967,-77.9099 985.842,-84.855"/>
</g>
<!-- Node9&#45;&gt;Node2 -->
<g id="edge14" class="edge"><title>Node9&#45;&gt;Node2</title>
<path fill="none" stroke="midnightblue" d="M376.488,-86.888C395.367,-110.534 432.847,-157.477 452.793,-182.459"/>
<polygon fill="midnightblue" stroke="midnightblue" points="450.083,-184.674 459.058,-190.305 455.554,-180.307 450.083,-184.674"/>
</g>
<!-- Node10&#45;&gt;Node2 -->
<g id="edge16" class="edge"><title>Node10&#45;&gt;Node2</title>
<path fill="none" stroke="midnightblue" d="M481.763,-86.5865C470.703,-95.5727 458.054,-108.281 452,-123 444.213,-141.932 450.682,-165.294 457.179,-181.08"/>
<polygon fill="midnightblue" stroke="midnightblue" points="454.005,-182.556 461.303,-190.237 460.388,-179.682 454.005,-182.556"/>
</g>
<!-- Node11&#45;&gt;Node2 -->
<g id="edge18" class="edge"><title>Node11&#45;&gt;Node2</title>
<path fill="none" stroke="midnightblue" d="M579.435,-85.7381C541.943,-95.223 498.226,-108.787 485,-123 470.697,-138.37 466.735,-162.84 465.843,-179.845"/>
<polygon fill="midnightblue" stroke="midnightblue" points="462.336,-180.152 465.627,-190.222 469.335,-180.297 462.336,-180.152"/>
</g>
<!-- Node12&#45;&gt;Node2 -->
<g id="edge20" class="edge"><title>Node12&#45;&gt;Node2</title>
<path fill="none" stroke="midnightblue" d="M931.27,-80.3496C995.048,-90.8841 1080.76,-113.177 1043,-154 1010.23,-189.42 701.785,-197.021 549.81,-198.609"/>
<polygon fill="midnightblue" stroke="midnightblue" points="549.553,-195.111 539.588,-198.709 549.621,-202.111 549.553,-195.111"/>
</g>
<!-- Node13&#45;&gt;Node2 -->
<g id="edge22" class="edge"><title>Node13&#45;&gt;Node2</title>
<path fill="none" stroke="midnightblue" d="M1061.87,-86.6519C1069.53,-104.742 1078.8,-135.881 1062,-154 1027.91,-190.76 705.636,-197.664 549.712,-198.84"/>
<polygon fill="midnightblue" stroke="midnightblue" points="549.662,-195.34 539.687,-198.91 549.711,-202.34 549.662,-195.34"/>
</g>
<!-- Node14&#45;&gt;Node2 -->
<g id="edge24" class="edge"><title>Node14&#45;&gt;Node2</title>
<path fill="none" stroke="midnightblue" d="M670.576,-148.009C631.64,-158.539 561.505,-176.49 514.286,-188.041"/>
<polygon fill="midnightblue" stroke="midnightblue" points="513.173,-184.71 504.284,-190.475 514.828,-191.511 513.173,-184.71"/>
</g>
<!-- Node16&#45;&gt;Node2 -->
<g id="edge27" class="edge"><title>Node16&#45;&gt;Node2</title>
<path fill="none" stroke="midnightblue" d="M912.046,-153.526C911.024,-153.688 910.008,-153.847 909,-154 784.791,-172.903 639.355,-186.201 549.887,-193.222"/>
<polygon fill="midnightblue" stroke="midnightblue" points="549.496,-189.742 539.797,-194.006 550.038,-196.721 549.496,-189.742"/>
</g>
<!-- Node17&#45;&gt;Node2 -->
<g id="edge30" class="edge"><title>Node17&#45;&gt;Node2</title>
<path fill="none" stroke="midnightblue" d="M538.822,-251.975C525.188,-242.431 502.868,-226.807 486.526,-215.368"/>
<polygon fill="midnightblue" stroke="midnightblue" points="488.355,-212.376 478.156,-209.509 484.341,-218.111 488.355,-212.376"/>
</g>
<!-- Node18&#45;&gt;Node2 -->
<g id="edge32" class="edge"><title>Node18&#45;&gt;Node2</title>
<path fill="none" stroke="midnightblue" d="M297.094,-246.475C336.054,-235.986 388.606,-221.837 424.689,-212.122"/>
<polygon fill="midnightblue" stroke="midnightblue" points="425.659,-215.486 434.405,-209.506 423.839,-208.727 425.659,-215.486"/>
</g>
<!-- Node19&#45;&gt;Node2 -->
<g id="edge34" class="edge"><title>Node19&#45;&gt;Node2</title>
<path fill="none" stroke="midnightblue" d="M400.381,-246.399C413.908,-237.04 431.611,-224.792 445.22,-215.377"/>
<polygon fill="midnightblue" stroke="midnightblue" points="447.254,-218.226 453.486,-209.658 443.271,-212.469 447.254,-218.226"/>
</g>
</g>
</svg>
