<?xml version="1.0" encoding="UTF-8" standalone="no"?>
<!DOCTYPE svg PUBLIC "-//W3C//DTD SVG 1.1//EN"
 "http://www.w3.org/Graphics/SVG/1.1/DTD/svg11.dtd">
<!-- Generated by graphviz version 2.38.0 (20140413.2041)
 -->
<!-- Title: ViennaRNA/plot_structure.h Pages: 1 -->
<svg width="1150pt" height="330pt"
 viewBox="0.00 0.00 1149.83 330.00" xmlns="http://www.w3.org/2000/svg" xmlns:xlink="http://www.w3.org/1999/xlink">
<g id="graph0" class="graph" transform="scale(1 1) rotate(0) translate(4 326)">
<title>ViennaRNA/plot_structure.h</title>
<!-- Node1 -->
<g id="node1" class="node"><title>Node1</title>
<polygon fill="#bfbfbf" stroke="black" points="40.835,-302.5 40.835,-321.5 179.835,-321.5 179.835,-302.5 40.835,-302.5"/>
<text text-anchor="middle" x="110.335" y="-309.5" font-family="Helvetica,sans-Serif" font-size="10.00">ViennaRNA/plot_structure.h</text>
</g>
<!-- Node2 -->
<g id="node2" class="node"><title>Node2</title>
<g id="a_node2"><a xlink:href="model_8h.html" target="_top" xlink:title="The model details data structure and its corresponding modifiers. ">
<polygon fill="none" stroke="black" points="73.335,-62 73.335,-81 179.335,-81 179.335,-62 73.335,-62"/>
<text text-anchor="middle" x="126.335" y="-69" font-family="Helvetica,sans-Serif" font-size="10.00">ViennaRNA/model.h</text>
</a>
</g>
</g>
<!-- Node1&#45;&gt;Node2 -->
<g id="edge1" class="edge"><title>Node1&#45;&gt;Node2</title>
<path fill="none" stroke="midnightblue" d="M99.2576,-302.438C65.4382,-275.248 -31.6258,-188.786 11.335,-123 24.0522,-103.526 46.1363,-91.5131 67.574,-84.1245"/>
<polygon fill="midnightblue" stroke="midnightblue" points="68.8574,-87.3897 77.3423,-81.0449 66.7526,-80.7136 68.8574,-87.3897"/>
</g>
<!-- Node3 -->
<g id="node3" class="node"><title>Node3</title>
<g id="a_node3"><a xlink:href="plot__layouts_8h.html" target="_top" xlink:title="Secondary structure plot layout algorithms. ">
<polygon fill="none" stroke="black" points="162.335,-246.5 162.335,-265.5 294.335,-265.5 294.335,-246.5 162.335,-246.5"/>
<text text-anchor="middle" x="228.335" y="-253.5" font-family="Helvetica,sans-Serif" font-size="10.00">ViennaRNA/plot_layouts.h</text>
</a>
</g>
</g>
<!-- Node1&#45;&gt;Node3 -->
<g id="edge2" class="edge"><title>Node1&#45;&gt;Node3</title>
<path fill="none" stroke="midnightblue" d="M129.032,-302.444C148.279,-293.636 178.487,-279.812 200.535,-269.722"/>
<polygon fill="midnightblue" stroke="midnightblue" points="202.088,-272.86 209.725,-265.516 199.175,-266.495 202.088,-272.86"/>
</g>
<!-- Node4 -->
<g id="node4" class="node"><title>Node4</title>
<g id="a_node4"><a xlink:href="data__structures_8h.html" target="_top" xlink:title="Various data structures and pre&#45;processor macros. ">
<polygon fill="none" stroke="black" points="444.835,-190.5 444.835,-209.5 591.835,-209.5 591.835,-190.5 444.835,-190.5"/>
<text text-anchor="middle" x="518.335" y="-197.5" font-family="Helvetica,sans-Serif" font-size="10.00">ViennaRNA/data_structures.h</text>
</a>
</g>
</g>
<!-- Node3&#45;&gt;Node4 -->
<g id="edge3" class="edge"><title>Node3&#45;&gt;Node4</title>
<path fill="none" stroke="midnightblue" d="M274.286,-246.444C325.406,-236.925 407.989,-221.547 462.718,-211.356"/>
<polygon fill="midnightblue" stroke="midnightblue" points="463.408,-214.788 472.599,-209.516 462.127,-207.906 463.408,-214.788"/>
</g>
<!-- Node18 -->
<g id="node18" class="node"><title>Node18</title>
<g id="a_node18"><a xlink:href="naview_8h.html" target="_top" xlink:title="ViennaRNA/naview.h">
<polygon fill="none" stroke="black" points="173.335,-190.5 173.335,-209.5 283.335,-209.5 283.335,-190.5 173.335,-190.5"/>
<text text-anchor="middle" x="228.335" y="-197.5" font-family="Helvetica,sans-Serif" font-size="10.00">ViennaRNA/naview.h</text>
</a>
</g>
</g>
<!-- Node3&#45;&gt;Node18 -->
<g id="edge30" class="edge"><title>Node3&#45;&gt;Node18</title>
<path fill="none" stroke="midnightblue" d="M228.335,-246.083C228.335,-239.006 228.335,-228.861 228.335,-219.986"/>
<polygon fill="midnightblue" stroke="midnightblue" points="231.835,-219.751 228.335,-209.751 224.835,-219.751 231.835,-219.751"/>
</g>
<!-- Node4&#45;&gt;Node2 -->
<g id="edge6" class="edge"><title>Node4&#45;&gt;Node2</title>
<path fill="none" stroke="midnightblue" d="M444.57,-194.268C364.435,-188.128 242.358,-175.564 201.335,-154 172.942,-139.075 149.706,-108.995 136.962,-89.8478"/>
<polygon fill="midnightblue" stroke="midnightblue" points="139.768,-87.7387 131.427,-81.2052 133.873,-91.5139 139.768,-87.7387"/>
</g>
<!-- Node5 -->
<g id="node5" class="node"><title>Node5</title>
<g id="a_node5"><a xlink:href="energy__const_8h.html" target="_top" xlink:title="Energy parameter constants. ">
<polygon fill="none" stroke="black" points="197.335,-62 197.335,-81 335.335,-81 335.335,-62 197.335,-62"/>
<text text-anchor="middle" x="266.335" y="-69" font-family="Helvetica,sans-Serif" font-size="10.00">ViennaRNA/energy_const.h</text>
</a>
</g>
</g>
<!-- Node4&#45;&gt;Node5 -->
<g id="edge4" class="edge"><title>Node4&#45;&gt;Node5</title>
<path fill="none" stroke="midnightblue" d="M498.006,-190.48C477.459,-181.744 444.897,-167.554 417.335,-154 371.745,-131.58 319.883,-102.862 290.34,-86.1873"/>
<polygon fill="midnightblue" stroke="midnightblue" points="291.994,-83.102 281.568,-81.2198 288.545,-89.1931 291.994,-83.102"/>
</g>
<!-- Node7 -->
<g id="node7" class="node"><title>Node7</title>
<g id="a_node7"><a xlink:href="params_8h.html" target="_top" xlink:title="Functions to deal with sets of energy parameters. ">
<polygon fill="none" stroke="black" points="210.335,-129 210.335,-148 322.335,-148 322.335,-129 210.335,-129"/>
<text text-anchor="middle" x="266.335" y="-136" font-family="Helvetica,sans-Serif" font-size="10.00">ViennaRNA/params.h</text>
</a>
</g>
</g>
<!-- Node4&#45;&gt;Node7 -->
<g id="edge7" class="edge"><title>Node4&#45;&gt;Node7</title>
<path fill="none" stroke="midnightblue" d="M477.329,-190.475C430.4,-179.937 354.216,-161.986 307.306,-150.441"/>
<polygon fill="midnightblue" stroke="midnightblue" points="308.024,-147.014 297.476,-148.009 306.343,-153.809 308.024,-147.014"/>
</g>
<!-- Node8 -->
<g id="node8" class="node"><title>Node8</title>
<g id="a_node8"><a xlink:href="dp__matrices_8h.html" target="_top" xlink:title="Functions to deal with standard dynamic programming (DP) matrices. ">
<polygon fill="none" stroke="black" points="20.835,-129 20.835,-148 153.835,-148 153.835,-129 20.835,-129"/>
<text text-anchor="middle" x="87.335" y="-136" font-family="Helvetica,sans-Serif" font-size="10.00">ViennaRNA/dp_matrices.h</text>
</a>
</g>
</g>
<!-- Node4&#45;&gt;Node8 -->
<g id="edge11" class="edge"><title>Node4&#45;&gt;Node8</title>
<path fill="none" stroke="midnightblue" d="M444.717,-191.391C371.884,-183.136 257.582,-169.1 159.335,-154 151.103,-152.735 142.42,-151.294 134.025,-149.823"/>
<polygon fill="midnightblue" stroke="midnightblue" points="134.436,-146.341 123.976,-148.024 133.202,-153.231 134.436,-146.341"/>
</g>
<!-- Node9 -->
<g id="node9" class="node"><title>Node9</title>
<g id="a_node9"><a xlink:href="constraints_8h.html" target="_top" xlink:title="Functions and data structures for constraining secondary structure predictions and evaluation...">
<polygon fill="none" stroke="black" points="454.335,-129 454.335,-148 582.335,-148 582.335,-129 454.335,-129"/>
<text text-anchor="middle" x="518.335" y="-136" font-family="Helvetica,sans-Serif" font-size="10.00">ViennaRNA/constraints.h</text>
</a>
</g>
</g>
<!-- Node4&#45;&gt;Node9 -->
<g id="edge13" class="edge"><title>Node4&#45;&gt;Node9</title>
<path fill="none" stroke="midnightblue" d="M513.434,-190.475C511.603,-182.08 511.132,-168.981 512.02,-158.163"/>
<polygon fill="midnightblue" stroke="midnightblue" points="515.521,-158.397 513.438,-148.009 508.589,-157.429 515.521,-158.397"/>
</g>
<!-- Node15 -->
<g id="node15" class="node"><title>Node15</title>
<g id="a_node15"><a xlink:href="grammar_8h.html" target="_top" xlink:title="Implementations for the RNA folding grammar. ">
<polygon fill="none" stroke="black" points="600.335,-129 600.335,-148 718.335,-148 718.335,-129 600.335,-129"/>
<text text-anchor="middle" x="659.335" y="-136" font-family="Helvetica,sans-Serif" font-size="10.00">ViennaRNA/grammar.h</text>
</a>
</g>
</g>
<!-- Node4&#45;&gt;Node15 -->
<g id="edge25" class="edge"><title>Node4&#45;&gt;Node15</title>
<path fill="none" stroke="midnightblue" d="M533.636,-190.475C555.502,-180.313 595.697,-163.256 624.852,-151.7"/>
<polygon fill="midnightblue" stroke="midnightblue" points="626.239,-154.915 634.273,-148.009 623.686,-148.397 626.239,-154.915"/>
</g>
<!-- Node16 -->
<g id="node16" class="node"><title>Node16</title>
<g id="a_node16"><a xlink:href="structured__domains_8h.html" target="_top" xlink:title="This module provides interfaces that deal with additional structured domains in the folding grammar...">
<polygon fill="none" stroke="black" points="736.835,-123.5 736.835,-153.5 851.835,-153.5 851.835,-123.5 736.835,-123.5"/>
<text text-anchor="start" x="744.835" y="-141.5" font-family="Helvetica,sans-Serif" font-size="10.00">ViennaRNA/structured</text>
<text text-anchor="middle" x="794.335" y="-130.5" font-family="Helvetica,sans-Serif" font-size="10.00">_domains.h</text>
</a>
</g>
</g>
<!-- Node4&#45;&gt;Node16 -->
<g id="edge27" class="edge"><title>Node4&#45;&gt;Node16</title>
<path fill="none" stroke="midnightblue" d="M558.016,-190.469C598.005,-181.87 661.77,-168.149 726.602,-154.157"/>
<polygon fill="midnightblue" stroke="midnightblue" points="727.556,-157.532 736.592,-152.001 726.079,-150.689 727.556,-157.532"/>
</g>
<!-- Node17 -->
<g id="node17" class="node"><title>Node17</title>
<g id="a_node17"><a xlink:href="unstructured__domains_8h.html" target="_top" xlink:title="Functions to modify unstructured domains, e.g. to incorporate ligands binding to unpaired stretches...">
<polygon fill="none" stroke="black" points="869.835,-123.5 869.835,-153.5 994.835,-153.5 994.835,-123.5 869.835,-123.5"/>
<text text-anchor="start" x="877.835" y="-141.5" font-family="Helvetica,sans-Serif" font-size="10.00">ViennaRNA/unstructured</text>
<text text-anchor="middle" x="932.335" y="-130.5" font-family="Helvetica,sans-Serif" font-size="10.00">_domains.h</text>
</a>
</g>
</g>
<!-- Node4&#45;&gt;Node17 -->
<g id="edge28" class="edge"><title>Node4&#45;&gt;Node17</title>
<path fill="none" stroke="midnightblue" d="M587.581,-190.466C655.076,-182.34 760.359,-169.128 851.335,-154 854.014,-153.555 856.745,-153.083 859.507,-152.592"/>
<polygon fill="midnightblue" stroke="midnightblue" points="860.393,-155.988 869.601,-150.748 859.135,-149.103 860.393,-155.988"/>
</g>
<!-- Node6 -->
<g id="node6" class="node"><title>Node6</title>
<polygon fill="none" stroke="#bfbfbf" points="242.335,-0.5 242.335,-19.5 290.335,-19.5 290.335,-0.5 242.335,-0.5"/>
<text text-anchor="middle" x="266.335" y="-7.5" font-family="Helvetica,sans-Serif" font-size="10.00">limits.h</text>
</g>
<!-- Node5&#45;&gt;Node6 -->
<g id="edge5" class="edge"><title>Node5&#45;&gt;Node6</title>
<path fill="none" stroke="midnightblue" d="M266.335,-61.9751C266.335,-53.5803 266.335,-40.4806 266.335,-29.6631"/>
<polygon fill="midnightblue" stroke="midnightblue" points="269.835,-29.5091 266.335,-19.5091 262.835,-29.5091 269.835,-29.5091"/>
</g>
<!-- Node7&#45;&gt;Node2 -->
<g id="edge10" class="edge"><title>Node7&#45;&gt;Node2</title>
<path fill="none" stroke="midnightblue" d="M247.744,-128.869C223.791,-117.748 181.94,-98.3167 154.181,-85.4286"/>
<polygon fill="midnightblue" stroke="midnightblue" points="155.547,-82.2038 145.003,-81.1672 152.599,-88.5529 155.547,-82.2038"/>
</g>
<!-- Node7&#45;&gt;Node4 -->
<g id="edge9" class="edge"><title>Node7&#45;&gt;Node4</title>
<path fill="none" stroke="midnightblue" d="M307.271,-148.009C354.17,-158.539 430.354,-176.49 477.293,-188.041"/>
<polygon fill="midnightblue" stroke="midnightblue" points="476.582,-191.471 487.13,-190.475 478.263,-184.676 476.582,-191.471"/>
</g>
<!-- Node7&#45;&gt;Node5 -->
<g id="edge8" class="edge"><title>Node7&#45;&gt;Node5</title>
<path fill="none" stroke="midnightblue" d="M266.335,-128.734C266.335,-119.183 266.335,-103.618 266.335,-91.2829"/>
<polygon fill="midnightblue" stroke="midnightblue" points="269.835,-91.1273 266.335,-81.1273 262.835,-91.1273 269.835,-91.1273"/>
</g>
<!-- Node8&#45;&gt;Node4 -->
<g id="edge12" class="edge"><title>Node8&#45;&gt;Node4</title>
<path fill="none" stroke="midnightblue" d="M141.384,-148.024C153.285,-150.093 165.756,-152.22 177.335,-154 267.658,-167.882 371.551,-180.865 440.755,-189.283"/>
<polygon fill="midnightblue" stroke="midnightblue" points="440.359,-192.76 450.708,-190.491 441.202,-185.811 440.359,-192.76"/>
</g>
<!-- Node9&#45;&gt;Node4 -->
<g id="edge14" class="edge"><title>Node9&#45;&gt;Node4</title>
<path fill="none" stroke="midnightblue" d="M523.232,-148.009C525.065,-156.398 525.538,-169.496 524.651,-180.317"/>
<polygon fill="midnightblue" stroke="midnightblue" points="521.15,-180.088 523.236,-190.475 528.083,-181.054 521.15,-180.088"/>
</g>
<!-- Node10 -->
<g id="node10" class="node"><title>Node10</title>
<g id="a_node10"><a xlink:href="constraints__hard_8h.html" target="_top" xlink:title="Functions and data structures for handling of secondary structure hard constraints. ">
<polygon fill="none" stroke="black" points="353.835,-56.5 353.835,-86.5 472.835,-86.5 472.835,-56.5 353.835,-56.5"/>
<text text-anchor="start" x="361.835" y="-74.5" font-family="Helvetica,sans-Serif" font-size="10.00">ViennaRNA/constraints</text>
<text text-anchor="middle" x="413.335" y="-63.5" font-family="Helvetica,sans-Serif" font-size="10.00">_hard.h</text>
</a>
</g>
</g>
<!-- Node9&#45;&gt;Node10 -->
<g id="edge15" class="edge"><title>Node9&#45;&gt;Node10</title>
<path fill="none" stroke="midnightblue" d="M504.174,-128.734C489.029,-119.358 464.523,-104.188 444.78,-91.9658"/>
<polygon fill="midnightblue" stroke="midnightblue" points="446.439,-88.8767 436.094,-86.589 442.755,-94.8285 446.439,-88.8767"/>
</g>
<!-- Node11 -->
<g id="node11" class="node"><title>Node11</title>
<g id="a_node11"><a xlink:href="constraints__soft_8h.html" target="_top" xlink:title="Functions and data structures for secondary structure soft constraints. ">
<polygon fill="none" stroke="black" points="490.835,-56.5 490.835,-86.5 609.835,-86.5 609.835,-56.5 490.835,-56.5"/>
<text text-anchor="start" x="498.835" y="-74.5" font-family="Helvetica,sans-Serif" font-size="10.00">ViennaRNA/constraints</text>
<text text-anchor="middle" x="550.335" y="-63.5" font-family="Helvetica,sans-Serif" font-size="10.00">_soft.h</text>
</a>
</g>
</g>
<!-- Node9&#45;&gt;Node11 -->
<g id="edge17" class="edge"><title>Node9&#45;&gt;Node11</title>
<path fill="none" stroke="midnightblue" d="M522.651,-128.734C526.809,-120.287 533.282,-107.138 538.924,-95.6778"/>
<polygon fill="midnightblue" stroke="midnightblue" points="542.122,-97.1066 543.399,-86.589 535.842,-94.0148 542.122,-97.1066"/>
</g>
<!-- Node12 -->
<g id="node12" class="node"><title>Node12</title>
<g id="a_node12"><a xlink:href="constraints__SHAPE_8h.html" target="_top" xlink:title="This module provides function to incorporate SHAPE reactivity data into the folding recursions by mea...">
<polygon fill="none" stroke="black" points="694.835,-56.5 694.835,-86.5 813.835,-86.5 813.835,-56.5 694.835,-56.5"/>
<text text-anchor="start" x="702.835" y="-74.5" font-family="Helvetica,sans-Serif" font-size="10.00">ViennaRNA/constraints</text>
<text text-anchor="middle" x="754.335" y="-63.5" font-family="Helvetica,sans-Serif" font-size="10.00">_SHAPE.h</text>
</a>
</g>
</g>
<!-- Node9&#45;&gt;Node12 -->
<g id="edge19" class="edge"><title>Node9&#45;&gt;Node12</title>
<path fill="none" stroke="midnightblue" d="M549.674,-128.869C586.236,-118.798 647.538,-101.914 693.539,-89.2446"/>
<polygon fill="midnightblue" stroke="midnightblue" points="694.691,-92.5579 703.402,-86.5281 692.832,-85.8091 694.691,-92.5579"/>
</g>
<!-- Node13 -->
<g id="node13" class="node"><title>Node13</title>
<g id="a_node13"><a xlink:href="perturbation__fold_8h.html" target="_top" xlink:title="Find a vector of perturbation energies that minimizes the discripancies between predicted and observe...">
<polygon fill="none" stroke="black" points="865.335,-56.5 865.335,-86.5 987.335,-86.5 987.335,-56.5 865.335,-56.5"/>
<text text-anchor="start" x="873.335" y="-74.5" font-family="Helvetica,sans-Serif" font-size="10.00">ViennaRNA/perturbation</text>
<text text-anchor="middle" x="926.335" y="-63.5" font-family="Helvetica,sans-Serif" font-size="10.00">_fold.h</text>
</a>
</g>
</g>
<!-- Node9&#45;&gt;Node13 -->
<g id="edge21" class="edge"><title>Node9&#45;&gt;Node13</title>
<path fill="none" stroke="midnightblue" d="M559.581,-128.96C569.931,-126.913 581.025,-124.8 591.335,-123 640.629,-114.394 772.389,-94.9184 855.215,-82.8245"/>
<polygon fill="midnightblue" stroke="midnightblue" points="855.924,-86.2582 865.314,-81.3511 854.914,-79.3315 855.924,-86.2582"/>
</g>
<!-- Node14 -->
<g id="node14" class="node"><title>Node14</title>
<g id="a_node14"><a xlink:href="constraints__ligand_8h.html" target="_top" xlink:title="Functions for incorporation of ligands binding to hairpin and interior loop motifs using the soft con...">
<polygon fill="none" stroke="black" points="1022.83,-56.5 1022.83,-86.5 1141.83,-86.5 1141.83,-56.5 1022.83,-56.5"/>
<text text-anchor="start" x="1030.83" y="-74.5" font-family="Helvetica,sans-Serif" font-size="10.00">ViennaRNA/constraints</text>
<text text-anchor="middle" x="1082.33" y="-63.5" font-family="Helvetica,sans-Serif" font-size="10.00">_ligand.h</text>
</a>
</g>
</g>
<!-- Node9&#45;&gt;Node14 -->
<g id="edge23" class="edge"><title>Node9&#45;&gt;Node14</title>
<path fill="none" stroke="midnightblue" d="M557.224,-128.971C568.212,-126.781 580.207,-124.595 591.335,-123 770.216,-97.3597 817.1,-110.04 996.335,-87 1001.69,-86.3123 1007.21,-85.5352 1012.76,-84.7068"/>
<polygon fill="midnightblue" stroke="midnightblue" points="1013.39,-88.1508 1022.74,-83.1688 1012.33,-81.2324 1013.39,-88.1508"/>
</g>
<!-- Node10&#45;&gt;Node4 -->
<g id="edge16" class="edge"><title>Node10&#45;&gt;Node4</title>
<path fill="none" stroke="midnightblue" d="M414.054,-86.6738C415.622,-104.223 420.593,-134.21 436.335,-154 447.972,-168.629 465.722,-179.2 481.736,-186.405"/>
<polygon fill="midnightblue" stroke="midnightblue" points="480.837,-189.823 491.412,-190.463 483.544,-183.368 480.837,-189.823"/>
</g>
<!-- Node11&#45;&gt;Node4 -->
<g id="edge18" class="edge"><title>Node11&#45;&gt;Node4</title>
<path fill="none" stroke="midnightblue" d="M493.429,-86.599C474.846,-94.195 456.209,-105.704 445.335,-123 438.002,-134.664 438.619,-141.97 445.335,-154 453.491,-168.609 468.555,-179.064 482.889,-186.196"/>
<polygon fill="midnightblue" stroke="midnightblue" points="481.573,-189.443 492.124,-190.414 484.481,-183.076 481.573,-189.443"/>
</g>
<!-- Node12&#45;&gt;Node4 -->
<g id="edge20" class="edge"><title>Node12&#45;&gt;Node4</title>
<path fill="none" stroke="midnightblue" d="M813.909,-82.592C885.909,-95.073 998.263,-115.578 1004.33,-123 1013.06,-133.663 1013.62,-143.818 1004.33,-154 977.82,-183.084 733.827,-193.654 601.978,-197.265"/>
<polygon fill="midnightblue" stroke="midnightblue" points="601.811,-193.768 591.907,-197.533 601.997,-200.766 601.811,-193.768"/>
</g>
<!-- Node13&#45;&gt;Node4 -->
<g id="edge22" class="edge"><title>Node13&#45;&gt;Node4</title>
<path fill="none" stroke="midnightblue" d="M964.302,-86.6039C1000.19,-101.968 1045.24,-127.861 1021.33,-154 993.673,-184.247 738.022,-194.317 602.226,-197.547"/>
<polygon fill="midnightblue" stroke="midnightblue" points="601.779,-194.056 591.863,-197.786 601.941,-201.054 601.779,-194.056"/>
</g>
<!-- Node14&#45;&gt;Node4 -->
<g id="edge24" class="edge"><title>Node14&#45;&gt;Node4</title>
<path fill="none" stroke="midnightblue" d="M1079.15,-86.5305C1074.05,-105.398 1062.13,-138.378 1038.33,-154 1002.8,-177.337 739.885,-190.642 602.084,-196.082"/>
<polygon fill="midnightblue" stroke="midnightblue" points="601.835,-192.589 591.979,-196.476 602.108,-199.584 601.835,-192.589"/>
</g>
<!-- Node15&#45;&gt;Node4 -->
<g id="edge26" class="edge"><title>Node15&#45;&gt;Node4</title>
<path fill="none" stroke="midnightblue" d="M644.068,-148.009C622.221,-158.164 582.03,-175.22 552.863,-186.782"/>
<polygon fill="midnightblue" stroke="midnightblue" points="551.472,-183.569 543.437,-190.475 554.025,-190.086 551.472,-183.569"/>
</g>
<!-- Node17&#45;&gt;Node4 -->
<g id="edge29" class="edge"><title>Node17&#45;&gt;Node4</title>
<path fill="none" stroke="midnightblue" d="M871.992,-153.553C871.102,-153.704 870.215,-153.854 869.335,-154 778.682,-169.074 673.824,-182.246 602.425,-190.379"/>
<polygon fill="midnightblue" stroke="midnightblue" points="601.682,-186.941 592.139,-191.542 602.469,-193.897 601.682,-186.941"/>
</g>
</g>
</svg>
