<?xml version="1.0" encoding="UTF-8" standalone="no"?>
<!DOCTYPE svg PUBLIC "-//W3C//DTD SVG 1.1//EN"
 "http://www.w3.org/Graphics/SVG/1.1/DTD/svg11.dtd">
<!-- Generated by graphviz version 2.38.0 (20140413.2041)
 -->
<!-- Title: ViennaRNA/PS_dot.h Pages: 1 -->
<svg width="1188pt" height="386pt"
 viewBox="0.00 0.00 1187.50 386.00" xmlns="http://www.w3.org/2000/svg" xmlns:xlink="http://www.w3.org/1999/xlink">
<g id="graph0" class="graph" transform="scale(1 1) rotate(0) translate(4 382)">
<title>ViennaRNA/PS_dot.h</title>
<!-- Node1 -->
<g id="node1" class="node"><title>Node1</title>
<polygon fill="#bfbfbf" stroke="black" points="488,-358.5 488,-377.5 600,-377.5 600,-358.5 488,-358.5"/>
<text text-anchor="middle" x="544" y="-365.5" font-family="Helvetica,sans-Serif" font-size="10.00">ViennaRNA/PS_dot.h</text>
</g>
<!-- Node2 -->
<g id="node2" class="node"><title>Node2</title>
<g id="a_node2"><a xlink:href="data__structures_8h.html" target="_top" xlink:title="Various data structures and pre&#45;processor macros. ">
<polygon fill="none" stroke="black" points="483.5,-190.5 483.5,-209.5 630.5,-209.5 630.5,-190.5 483.5,-190.5"/>
<text text-anchor="middle" x="557" y="-197.5" font-family="Helvetica,sans-Serif" font-size="10.00">ViennaRNA/data_structures.h</text>
</a>
</g>
</g>
<!-- Node1&#45;&gt;Node2 -->
<g id="edge1" class="edge"><title>Node1&#45;&gt;Node2</title>
<path fill="none" stroke="midnightblue" d="M544.699,-358.075C546.745,-331.945 552.755,-255.211 555.545,-219.577"/>
<polygon fill="midnightblue" stroke="midnightblue" points="559.037,-219.811 556.329,-209.568 552.059,-219.264 559.037,-219.811"/>
</g>
<!-- Node17 -->
<g id="node17" class="node"><title>Node17</title>
<g id="a_node17"><a xlink:href="plot__structure_8h.html" target="_top" xlink:title="Various functions for plotting RNA secondary structures. ">
<polygon fill="none" stroke="black" points="364.5,-302.5 364.5,-321.5 503.5,-321.5 503.5,-302.5 364.5,-302.5"/>
<text text-anchor="middle" x="434" y="-309.5" font-family="Helvetica,sans-Serif" font-size="10.00">ViennaRNA/plot_structure.h</text>
</a>
</g>
</g>
<!-- Node1&#45;&gt;Node17 -->
<g id="edge28" class="edge"><title>Node1&#45;&gt;Node17</title>
<path fill="none" stroke="midnightblue" d="M526.327,-358.324C508.606,-349.625 481.097,-336.12 460.712,-326.113"/>
<polygon fill="midnightblue" stroke="midnightblue" points="462.149,-322.919 451.63,-321.655 459.064,-329.203 462.149,-322.919"/>
</g>
<!-- Node20 -->
<g id="node20" class="node"><title>Node20</title>
<g id="a_node20"><a xlink:href="plot__aln_8h.html" target="_top" xlink:title="Various functions for plotting Sequence / Structure Alignments. ">
<polygon fill="none" stroke="black" points="572.5,-302.5 572.5,-321.5 685.5,-321.5 685.5,-302.5 572.5,-302.5"/>
<text text-anchor="middle" x="629" y="-309.5" font-family="Helvetica,sans-Serif" font-size="10.00">ViennaRNA/plot_aln.h</text>
</a>
</g>
</g>
<!-- Node1&#45;&gt;Node20 -->
<g id="edge33" class="edge"><title>Node1&#45;&gt;Node20</title>
<path fill="none" stroke="midnightblue" d="M557.657,-358.324C570.916,-349.9 591.268,-336.971 606.846,-327.074"/>
<polygon fill="midnightblue" stroke="midnightblue" points="608.813,-329.971 615.377,-321.655 605.06,-324.063 608.813,-329.971"/>
</g>
<!-- Node3 -->
<g id="node3" class="node"><title>Node3</title>
<g id="a_node3"><a xlink:href="energy__const_8h.html" target="_top" xlink:title="Energy parameter constants. ">
<polygon fill="none" stroke="black" points="0,-62 0,-81 138,-81 138,-62 0,-62"/>
<text text-anchor="middle" x="69" y="-69" font-family="Helvetica,sans-Serif" font-size="10.00">ViennaRNA/energy_const.h</text>
</a>
</g>
</g>
<!-- Node2&#45;&gt;Node3 -->
<g id="edge2" class="edge"><title>Node2&#45;&gt;Node3</title>
<path fill="none" stroke="midnightblue" d="M483.24,-190.944C480.119,-190.621 477.028,-190.305 474,-190 431.142,-185.678 120.458,-182.318 88,-154 70.2375,-138.503 67.3581,-109.913 67.6314,-91.0511"/>
<polygon fill="midnightblue" stroke="midnightblue" points="71.1303,-91.1525 68.0859,-81.0045 64.1375,-90.8361 71.1303,-91.1525"/>
</g>
<!-- Node5 -->
<g id="node5" class="node"><title>Node5</title>
<g id="a_node5"><a xlink:href="model_8h.html" target="_top" xlink:title="The model details data structure and its corresponding modifiers. ">
<polygon fill="none" stroke="black" points="156,-62 156,-81 262,-81 262,-62 156,-62"/>
<text text-anchor="middle" x="209" y="-69" font-family="Helvetica,sans-Serif" font-size="10.00">ViennaRNA/model.h</text>
</a>
</g>
</g>
<!-- Node2&#45;&gt;Node5 -->
<g id="edge4" class="edge"><title>Node2&#45;&gt;Node5</title>
<path fill="none" stroke="midnightblue" d="M490.002,-190.48C404.274,-179.36 265.607,-160.545 256,-154 233.893,-138.939 220.836,-109.794 214.298,-90.7487"/>
<polygon fill="midnightblue" stroke="midnightblue" points="217.605,-89.5998 211.25,-81.1224 210.932,-91.7124 217.605,-89.5998"/>
</g>
<!-- Node6 -->
<g id="node6" class="node"><title>Node6</title>
<g id="a_node6"><a xlink:href="params_8h.html" target="_top" xlink:title="Functions to deal with sets of energy parameters. ">
<polygon fill="none" stroke="black" points="97,-129 97,-148 209,-148 209,-129 97,-129"/>
<text text-anchor="middle" x="153" y="-136" font-family="Helvetica,sans-Serif" font-size="10.00">ViennaRNA/params.h</text>
</a>
</g>
</g>
<!-- Node2&#45;&gt;Node6 -->
<g id="edge5" class="edge"><title>Node2&#45;&gt;Node6</title>
<path fill="none" stroke="midnightblue" d="M483.449,-191.408C413.679,-183.394 306.281,-169.754 214,-154 207.178,-152.835 200.006,-151.49 193.054,-150.098"/>
<polygon fill="midnightblue" stroke="midnightblue" points="193.593,-146.636 183.092,-148.041 192.177,-153.491 193.593,-146.636"/>
</g>
<!-- Node7 -->
<g id="node7" class="node"><title>Node7</title>
<g id="a_node7"><a xlink:href="dp__matrices_8h.html" target="_top" xlink:title="Functions to deal with standard dynamic programming (DP) matrices. ">
<polygon fill="none" stroke="black" points="265.5,-129 265.5,-148 398.5,-148 398.5,-129 265.5,-129"/>
<text text-anchor="middle" x="332" y="-136" font-family="Helvetica,sans-Serif" font-size="10.00">ViennaRNA/dp_matrices.h</text>
</a>
</g>
</g>
<!-- Node2&#45;&gt;Node7 -->
<g id="edge9" class="edge"><title>Node2&#45;&gt;Node7</title>
<path fill="none" stroke="midnightblue" d="M519.862,-190.475C478.069,-180.026 410.816,-162.287 369.06,-150.733"/>
<polygon fill="midnightblue" stroke="midnightblue" points="369.853,-147.321 359.28,-148.009 367.974,-154.064 369.853,-147.321"/>
</g>
<!-- Node8 -->
<g id="node8" class="node"><title>Node8</title>
<g id="a_node8"><a xlink:href="constraints_8h.html" target="_top" xlink:title="Functions and data structures for constraining secondary structure predictions and evaluation...">
<polygon fill="none" stroke="black" points="493,-129 493,-148 621,-148 621,-129 493,-129"/>
<text text-anchor="middle" x="557" y="-136" font-family="Helvetica,sans-Serif" font-size="10.00">ViennaRNA/constraints.h</text>
</a>
</g>
</g>
<!-- Node2&#45;&gt;Node8 -->
<g id="edge11" class="edge"><title>Node2&#45;&gt;Node8</title>
<path fill="none" stroke="midnightblue" d="M552.099,-190.475C550.268,-182.08 549.797,-168.981 550.685,-158.163"/>
<polygon fill="midnightblue" stroke="midnightblue" points="554.186,-158.397 552.103,-148.009 547.254,-157.429 554.186,-158.397"/>
</g>
<!-- Node14 -->
<g id="node14" class="node"><title>Node14</title>
<g id="a_node14"><a xlink:href="grammar_8h.html" target="_top" xlink:title="Implementations for the RNA folding grammar. ">
<polygon fill="none" stroke="black" points="639,-129 639,-148 757,-148 757,-129 639,-129"/>
<text text-anchor="middle" x="698" y="-136" font-family="Helvetica,sans-Serif" font-size="10.00">ViennaRNA/grammar.h</text>
</a>
</g>
</g>
<!-- Node2&#45;&gt;Node14 -->
<g id="edge23" class="edge"><title>Node2&#45;&gt;Node14</title>
<path fill="none" stroke="midnightblue" d="M572.301,-190.475C594.167,-180.313 634.362,-163.256 663.517,-151.7"/>
<polygon fill="midnightblue" stroke="midnightblue" points="664.904,-154.915 672.938,-148.009 662.351,-148.397 664.904,-154.915"/>
</g>
<!-- Node15 -->
<g id="node15" class="node"><title>Node15</title>
<g id="a_node15"><a xlink:href="structured__domains_8h.html" target="_top" xlink:title="This module provides interfaces that deal with additional structured domains in the folding grammar...">
<polygon fill="none" stroke="black" points="775.5,-123.5 775.5,-153.5 890.5,-153.5 890.5,-123.5 775.5,-123.5"/>
<text text-anchor="start" x="783.5" y="-141.5" font-family="Helvetica,sans-Serif" font-size="10.00">ViennaRNA/structured</text>
<text text-anchor="middle" x="833" y="-130.5" font-family="Helvetica,sans-Serif" font-size="10.00">_domains.h</text>
</a>
</g>
</g>
<!-- Node2&#45;&gt;Node15 -->
<g id="edge25" class="edge"><title>Node2&#45;&gt;Node15</title>
<path fill="none" stroke="midnightblue" d="M596.681,-190.469C636.67,-181.87 700.435,-168.149 765.267,-154.157"/>
<polygon fill="midnightblue" stroke="midnightblue" points="766.221,-157.532 775.257,-152.001 764.744,-150.689 766.221,-157.532"/>
</g>
<!-- Node16 -->
<g id="node16" class="node"><title>Node16</title>
<g id="a_node16"><a xlink:href="unstructured__domains_8h.html" target="_top" xlink:title="Functions to modify unstructured domains, e.g. to incorporate ligands binding to unpaired stretches...">
<polygon fill="none" stroke="black" points="908.5,-123.5 908.5,-153.5 1033.5,-153.5 1033.5,-123.5 908.5,-123.5"/>
<text text-anchor="start" x="916.5" y="-141.5" font-family="Helvetica,sans-Serif" font-size="10.00">ViennaRNA/unstructured</text>
<text text-anchor="middle" x="971" y="-130.5" font-family="Helvetica,sans-Serif" font-size="10.00">_domains.h</text>
</a>
</g>
</g>
<!-- Node2&#45;&gt;Node16 -->
<g id="edge26" class="edge"><title>Node2&#45;&gt;Node16</title>
<path fill="none" stroke="midnightblue" d="M626.246,-190.466C693.741,-182.34 799.024,-169.128 890,-154 892.679,-153.555 895.41,-153.083 898.172,-152.592"/>
<polygon fill="midnightblue" stroke="midnightblue" points="899.058,-155.988 908.266,-150.748 897.8,-149.103 899.058,-155.988"/>
</g>
<!-- Node4 -->
<g id="node4" class="node"><title>Node4</title>
<polygon fill="none" stroke="#bfbfbf" points="45,-0.5 45,-19.5 93,-19.5 93,-0.5 45,-0.5"/>
<text text-anchor="middle" x="69" y="-7.5" font-family="Helvetica,sans-Serif" font-size="10.00">limits.h</text>
</g>
<!-- Node3&#45;&gt;Node4 -->
<g id="edge3" class="edge"><title>Node3&#45;&gt;Node4</title>
<path fill="none" stroke="midnightblue" d="M69,-61.9751C69,-53.5803 69,-40.4806 69,-29.6631"/>
<polygon fill="midnightblue" stroke="midnightblue" points="72.5001,-29.5091 69,-19.5091 65.5001,-29.5091 72.5001,-29.5091"/>
</g>
<!-- Node6&#45;&gt;Node2 -->
<g id="edge7" class="edge"><title>Node6&#45;&gt;Node2</title>
<path fill="none" stroke="midnightblue" d="M200.478,-148.041C210.918,-150.133 221.846,-152.267 232,-154 316.31,-168.393 413.239,-181.022 479.21,-189.208"/>
<polygon fill="midnightblue" stroke="midnightblue" points="479.171,-192.729 489.525,-190.483 480.03,-185.782 479.171,-192.729"/>
</g>
<!-- Node6&#45;&gt;Node3 -->
<g id="edge6" class="edge"><title>Node6&#45;&gt;Node3</title>
<path fill="none" stroke="midnightblue" d="M141.671,-128.734C127.943,-118.111 104.601,-100.049 88.0799,-87.2642"/>
<polygon fill="midnightblue" stroke="midnightblue" points="90.1998,-84.4791 80.1491,-81.1273 85.9159,-90.0152 90.1998,-84.4791"/>
</g>
<!-- Node6&#45;&gt;Node5 -->
<g id="edge8" class="edge"><title>Node6&#45;&gt;Node5</title>
<path fill="none" stroke="midnightblue" d="M160.552,-128.734C169.285,-118.598 183.852,-101.69 194.737,-89.0556"/>
<polygon fill="midnightblue" stroke="midnightblue" points="197.692,-90.9879 201.567,-81.1273 192.388,-86.4189 197.692,-90.9879"/>
</g>
<!-- Node7&#45;&gt;Node2 -->
<g id="edge10" class="edge"><title>Node7&#45;&gt;Node2</title>
<path fill="none" stroke="midnightblue" d="M369.074,-148.009C410.842,-158.451 478.095,-176.189 519.877,-187.749"/>
<polygon fill="midnightblue" stroke="midnightblue" points="519.091,-191.164 529.664,-190.475 520.969,-184.42 519.091,-191.164"/>
</g>
<!-- Node8&#45;&gt;Node2 -->
<g id="edge12" class="edge"><title>Node8&#45;&gt;Node2</title>
<path fill="none" stroke="midnightblue" d="M561.897,-148.009C563.73,-156.398 564.203,-169.496 563.317,-180.317"/>
<polygon fill="midnightblue" stroke="midnightblue" points="559.815,-180.088 561.901,-190.475 566.748,-181.054 559.815,-180.088"/>
</g>
<!-- Node9 -->
<g id="node9" class="node"><title>Node9</title>
<g id="a_node9"><a xlink:href="constraints__hard_8h.html" target="_top" xlink:title="Functions and data structures for handling of secondary structure hard constraints. ">
<polygon fill="none" stroke="black" points="363.5,-56.5 363.5,-86.5 482.5,-86.5 482.5,-56.5 363.5,-56.5"/>
<text text-anchor="start" x="371.5" y="-74.5" font-family="Helvetica,sans-Serif" font-size="10.00">ViennaRNA/constraints</text>
<text text-anchor="middle" x="423" y="-63.5" font-family="Helvetica,sans-Serif" font-size="10.00">_hard.h</text>
</a>
</g>
</g>
<!-- Node8&#45;&gt;Node9 -->
<g id="edge13" class="edge"><title>Node8&#45;&gt;Node9</title>
<path fill="none" stroke="midnightblue" d="M539.206,-128.869C519.36,-119.242 486.676,-103.388 461.018,-90.9415"/>
<polygon fill="midnightblue" stroke="midnightblue" points="462.444,-87.7434 451.919,-86.5281 459.389,-94.0416 462.444,-87.7434"/>
</g>
<!-- Node10 -->
<g id="node10" class="node"><title>Node10</title>
<g id="a_node10"><a xlink:href="constraints__soft_8h.html" target="_top" xlink:title="Functions and data structures for secondary structure soft constraints. ">
<polygon fill="none" stroke="black" points="500.5,-56.5 500.5,-86.5 619.5,-86.5 619.5,-56.5 500.5,-56.5"/>
<text text-anchor="start" x="508.5" y="-74.5" font-family="Helvetica,sans-Serif" font-size="10.00">ViennaRNA/constraints</text>
<text text-anchor="middle" x="560" y="-63.5" font-family="Helvetica,sans-Serif" font-size="10.00">_soft.h</text>
</a>
</g>
</g>
<!-- Node8&#45;&gt;Node10 -->
<g id="edge15" class="edge"><title>Node8&#45;&gt;Node10</title>
<path fill="none" stroke="midnightblue" d="M557.405,-128.734C557.783,-120.541 558.365,-107.923 558.882,-96.7136"/>
<polygon fill="midnightblue" stroke="midnightblue" points="562.385,-96.7398 559.35,-86.589 555.392,-96.417 562.385,-96.7398"/>
</g>
<!-- Node11 -->
<g id="node11" class="node"><title>Node11</title>
<g id="a_node11"><a xlink:href="constraints__SHAPE_8h.html" target="_top" xlink:title="This module provides function to incorporate SHAPE reactivity data into the folding recursions by mea...">
<polygon fill="none" stroke="black" points="658.5,-56.5 658.5,-86.5 777.5,-86.5 777.5,-56.5 658.5,-56.5"/>
<text text-anchor="start" x="666.5" y="-74.5" font-family="Helvetica,sans-Serif" font-size="10.00">ViennaRNA/constraints</text>
<text text-anchor="middle" x="718" y="-63.5" font-family="Helvetica,sans-Serif" font-size="10.00">_SHAPE.h</text>
</a>
</g>
</g>
<!-- Node8&#45;&gt;Node11 -->
<g id="edge17" class="edge"><title>Node8&#45;&gt;Node11</title>
<path fill="none" stroke="midnightblue" d="M578.38,-128.869C602.643,-119.073 642.876,-102.83 673.936,-90.2897"/>
<polygon fill="midnightblue" stroke="midnightblue" points="675.291,-93.5173 683.254,-86.5281 672.67,-87.0263 675.291,-93.5173"/>
</g>
<!-- Node12 -->
<g id="node12" class="node"><title>Node12</title>
<g id="a_node12"><a xlink:href="perturbation__fold_8h.html" target="_top" xlink:title="Find a vector of perturbation energies that minimizes the discripancies between predicted and observe...">
<polygon fill="none" stroke="black" points="837,-56.5 837,-86.5 959,-86.5 959,-56.5 837,-56.5"/>
<text text-anchor="start" x="845" y="-74.5" font-family="Helvetica,sans-Serif" font-size="10.00">ViennaRNA/perturbation</text>
<text text-anchor="middle" x="898" y="-63.5" font-family="Helvetica,sans-Serif" font-size="10.00">_fold.h</text>
</a>
</g>
</g>
<!-- Node8&#45;&gt;Node12 -->
<g id="edge19" class="edge"><title>Node8&#45;&gt;Node12</title>
<path fill="none" stroke="midnightblue" d="M599.448,-128.995C609.463,-127.009 620.105,-124.915 630,-123 696.596,-110.112 772.589,-95.8329 826.603,-85.7562"/>
<polygon fill="midnightblue" stroke="midnightblue" points="827.575,-89.1354 836.764,-83.8618 826.292,-82.2539 827.575,-89.1354"/>
</g>
<!-- Node13 -->
<g id="node13" class="node"><title>Node13</title>
<g id="a_node13"><a xlink:href="constraints__ligand_8h.html" target="_top" xlink:title="Functions for incorporation of ligands binding to hairpin and interior loop motifs using the soft con...">
<polygon fill="none" stroke="black" points="1060.5,-56.5 1060.5,-86.5 1179.5,-86.5 1179.5,-56.5 1060.5,-56.5"/>
<text text-anchor="start" x="1068.5" y="-74.5" font-family="Helvetica,sans-Serif" font-size="10.00">ViennaRNA/constraints</text>
<text text-anchor="middle" x="1120" y="-63.5" font-family="Helvetica,sans-Serif" font-size="10.00">_ligand.h</text>
</a>
</g>
</g>
<!-- Node8&#45;&gt;Node13 -->
<g id="edge21" class="edge"><title>Node8&#45;&gt;Node13</title>
<path fill="none" stroke="midnightblue" d="M596.283,-128.998C607.168,-126.833 619.012,-124.654 630,-123 670.459,-116.91 924.248,-91.7051 1049.81,-79.3665"/>
<polygon fill="midnightblue" stroke="midnightblue" points="1050.48,-82.8178 1060.09,-78.3571 1049.8,-75.8513 1050.48,-82.8178"/>
</g>
<!-- Node9&#45;&gt;Node2 -->
<g id="edge14" class="edge"><title>Node9&#45;&gt;Node2</title>
<path fill="none" stroke="midnightblue" d="M429.517,-86.6699C438.144,-104.215 454.772,-134.198 476,-154 490.418,-167.449 509.596,-178.335 525.672,-186.029"/>
<polygon fill="midnightblue" stroke="midnightblue" points="524.662,-189.416 535.211,-190.402 527.579,-183.053 524.662,-189.416"/>
</g>
<!-- Node10&#45;&gt;Node2 -->
<g id="edge16" class="edge"><title>Node10&#45;&gt;Node2</title>
<path fill="none" stroke="midnightblue" d="M524.86,-86.5494C509.386,-94.7129 492.758,-106.665 484,-123 477.49,-135.143 477.284,-141.97 484,-154 492.156,-168.609 507.22,-179.064 521.554,-186.196"/>
<polygon fill="midnightblue" stroke="midnightblue" points="520.238,-189.443 530.789,-190.414 523.146,-183.076 520.238,-189.443"/>
</g>
<!-- Node11&#45;&gt;Node2 -->
<g id="edge18" class="edge"><title>Node11&#45;&gt;Node2</title>
<path fill="none" stroke="midnightblue" d="M777.58,-80.7922C869.97,-93.7885 1037.71,-117.993 1042,-123 1050.96,-133.466 1051.28,-143.818 1042,-154 1015.56,-183.008 772.369,-193.609 640.73,-197.245"/>
<polygon fill="midnightblue" stroke="midnightblue" points="640.577,-193.748 630.675,-197.515 640.765,-200.745 640.577,-193.748"/>
</g>
<!-- Node12&#45;&gt;Node2 -->
<g id="edge20" class="edge"><title>Node12&#45;&gt;Node2</title>
<path fill="none" stroke="midnightblue" d="M959.23,-81.7492C1018.56,-93.1665 1094.85,-115.898 1060,-154 1032.34,-184.247 776.687,-194.317 640.891,-197.547"/>
<polygon fill="midnightblue" stroke="midnightblue" points="640.444,-194.056 630.528,-197.786 640.606,-201.054 640.444,-194.056"/>
</g>
<!-- Node13&#45;&gt;Node2 -->
<g id="edge22" class="edge"><title>Node13&#45;&gt;Node2</title>
<path fill="none" stroke="midnightblue" d="M1117.33,-86.5021C1112.93,-105.336 1102.21,-138.278 1079,-154 1043.64,-177.949 779.24,-190.978 640.874,-196.22"/>
<polygon fill="midnightblue" stroke="midnightblue" points="640.591,-192.728 630.729,-196.599 640.852,-199.723 640.591,-192.728"/>
</g>
<!-- Node14&#45;&gt;Node2 -->
<g id="edge24" class="edge"><title>Node14&#45;&gt;Node2</title>
<path fill="none" stroke="midnightblue" d="M682.733,-148.009C660.886,-158.164 620.695,-175.22 591.529,-186.782"/>
<polygon fill="midnightblue" stroke="midnightblue" points="590.137,-183.569 582.102,-190.475 592.69,-190.086 590.137,-183.569"/>
</g>
<!-- Node16&#45;&gt;Node2 -->
<g id="edge27" class="edge"><title>Node16&#45;&gt;Node2</title>
<path fill="none" stroke="midnightblue" d="M910.657,-153.553C909.767,-153.704 908.88,-153.854 908,-154 817.347,-169.074 712.489,-182.246 641.09,-190.379"/>
<polygon fill="midnightblue" stroke="midnightblue" points="640.347,-186.941 630.804,-191.542 641.134,-193.897 640.347,-186.941"/>
</g>
<!-- Node17&#45;&gt;Node5 -->
<g id="edge29" class="edge"><title>Node17&#45;&gt;Node5</title>
<path fill="none" stroke="midnightblue" d="M367.965,-302.442C286.093,-287.902 149.813,-249.927 88,-154 80.5371,-142.418 80.3608,-134.466 88,-123 97.4525,-108.812 137.269,-93.9383 168.68,-84.0384"/>
<polygon fill="midnightblue" stroke="midnightblue" points="170.006,-87.2925 178.534,-81.0062 167.947,-80.6021 170.006,-87.2925"/>
</g>
<!-- Node18 -->
<g id="node18" class="node"><title>Node18</title>
<g id="a_node18"><a xlink:href="plot__layouts_8h.html" target="_top" xlink:title="Secondary structure plot layout algorithms. ">
<polygon fill="none" stroke="black" points="368,-246.5 368,-265.5 500,-265.5 500,-246.5 368,-246.5"/>
<text text-anchor="middle" x="434" y="-253.5" font-family="Helvetica,sans-Serif" font-size="10.00">ViennaRNA/plot_layouts.h</text>
</a>
</g>
</g>
<!-- Node17&#45;&gt;Node18 -->
<g id="edge30" class="edge"><title>Node17&#45;&gt;Node18</title>
<path fill="none" stroke="midnightblue" d="M434,-302.083C434,-295.006 434,-284.861 434,-275.986"/>
<polygon fill="midnightblue" stroke="midnightblue" points="437.5,-275.751 434,-265.751 430.5,-275.751 437.5,-275.751"/>
</g>
<!-- Node18&#45;&gt;Node2 -->
<g id="edge31" class="edge"><title>Node18&#45;&gt;Node2</title>
<path fill="none" stroke="midnightblue" d="M453.49,-246.444C473.642,-237.596 505.323,-223.687 528.331,-213.586"/>
<polygon fill="midnightblue" stroke="midnightblue" points="529.852,-216.741 537.601,-209.516 527.038,-210.332 529.852,-216.741"/>
</g>
<!-- Node19 -->
<g id="node19" class="node"><title>Node19</title>
<g id="a_node19"><a xlink:href="naview_8h.html" target="_top" xlink:title="ViennaRNA/naview.h">
<polygon fill="none" stroke="black" points="355,-190.5 355,-209.5 465,-209.5 465,-190.5 355,-190.5"/>
<text text-anchor="middle" x="410" y="-197.5" font-family="Helvetica,sans-Serif" font-size="10.00">ViennaRNA/naview.h</text>
</a>
</g>
</g>
<!-- Node18&#45;&gt;Node19 -->
<g id="edge32" class="edge"><title>Node18&#45;&gt;Node19</title>
<path fill="none" stroke="midnightblue" d="M430.037,-246.083C426.787,-238.77 422.081,-228.181 418.046,-219.103"/>
<polygon fill="midnightblue" stroke="midnightblue" points="421.149,-217.468 413.889,-209.751 414.752,-220.311 421.149,-217.468"/>
</g>
</g>
</svg>
