<?xml version="1.0" encoding="UTF-8" standalone="no"?>
<!DOCTYPE svg PUBLIC "-//W3C//DTD SVG 1.1//EN"
 "http://www.w3.org/Graphics/SVG/1.1/DTD/svg11.dtd">
<!-- Generated by graphviz version 2.38.0 (20140413.2041)
 -->
<!-- Title: ViennaRNA/string_utils.h Pages: 1 -->
<svg width="1171pt" height="274pt"
 viewBox="0.00 0.00 1170.50 274.00" xmlns="http://www.w3.org/2000/svg" xmlns:xlink="http://www.w3.org/1999/xlink">
<g id="graph0" class="graph" transform="scale(1 1) rotate(0) translate(4 270)">
<title>ViennaRNA/string_utils.h</title>
<!-- Node1 -->
<g id="node1" class="node"><title>Node1</title>
<polygon fill="#bfbfbf" stroke="black" points="441.5,-246.5 441.5,-265.5 568.5,-265.5 568.5,-246.5 441.5,-246.5"/>
<text text-anchor="middle" x="505" y="-253.5" font-family="Helvetica,sans-Serif" font-size="10.00">ViennaRNA/string_utils.h</text>
</g>
<!-- Node2 -->
<g id="node2" class="node"><title>Node2</title>
<polygon fill="none" stroke="#bfbfbf" points="420,-190.5 420,-209.5 472,-209.5 472,-190.5 420,-190.5"/>
<text text-anchor="middle" x="446" y="-197.5" font-family="Helvetica,sans-Serif" font-size="10.00">stdarg.h</text>
</g>
<!-- Node1&#45;&gt;Node2 -->
<g id="edge1" class="edge"><title>Node1&#45;&gt;Node2</title>
<path fill="none" stroke="midnightblue" d="M495.521,-246.324C486.799,-238.341 473.657,-226.313 463.102,-216.653"/>
<polygon fill="midnightblue" stroke="midnightblue" points="465.392,-214.004 455.652,-209.834 460.666,-219.167 465.392,-214.004"/>
</g>
<!-- Node3 -->
<g id="node3" class="node"><title>Node3</title>
<g id="a_node3"><a xlink:href="data__structures_8h.html" target="_top" xlink:title="Various data structures and pre&#45;processor macros. ">
<polygon fill="none" stroke="black" points="490.5,-190.5 490.5,-209.5 637.5,-209.5 637.5,-190.5 490.5,-190.5"/>
<text text-anchor="middle" x="564" y="-197.5" font-family="Helvetica,sans-Serif" font-size="10.00">ViennaRNA/data_structures.h</text>
</a>
</g>
</g>
<!-- Node1&#45;&gt;Node3 -->
<g id="edge2" class="edge"><title>Node1&#45;&gt;Node3</title>
<path fill="none" stroke="midnightblue" d="M514.479,-246.324C523.201,-238.341 536.343,-226.313 546.898,-216.653"/>
<polygon fill="midnightblue" stroke="midnightblue" points="549.334,-219.167 554.348,-209.834 544.608,-214.004 549.334,-219.167"/>
</g>
<!-- Node4 -->
<g id="node4" class="node"><title>Node4</title>
<g id="a_node4"><a xlink:href="energy__const_8h.html" target="_top" xlink:title="Energy parameter constants. ">
<polygon fill="none" stroke="black" points="0,-62 0,-81 138,-81 138,-62 0,-62"/>
<text text-anchor="middle" x="69" y="-69" font-family="Helvetica,sans-Serif" font-size="10.00">ViennaRNA/energy_const.h</text>
</a>
</g>
</g>
<!-- Node3&#45;&gt;Node4 -->
<g id="edge3" class="edge"><title>Node3&#45;&gt;Node4</title>
<path fill="none" stroke="midnightblue" d="M490.239,-190.951C487.118,-190.627 484.028,-190.308 481,-190 397.054,-181.452 170.919,-204.07 103,-154 82.8843,-139.171 74.6006,-110.182 71.2368,-91.079"/>
<polygon fill="midnightblue" stroke="midnightblue" points="74.6949,-90.5372 69.7725,-81.1553 67.7698,-91.5591 74.6949,-90.5372"/>
</g>
<!-- Node6 -->
<g id="node6" class="node"><title>Node6</title>
<g id="a_node6"><a xlink:href="model_8h.html" target="_top" xlink:title="The model details data structure and its corresponding modifiers. ">
<polygon fill="none" stroke="black" points="156,-62 156,-81 262,-81 262,-62 156,-62"/>
<text text-anchor="middle" x="209" y="-69" font-family="Helvetica,sans-Serif" font-size="10.00">ViennaRNA/model.h</text>
</a>
</g>
</g>
<!-- Node3&#45;&gt;Node6 -->
<g id="edge5" class="edge"><title>Node3&#45;&gt;Node6</title>
<path fill="none" stroke="midnightblue" d="M490.163,-190.576C409.6,-180.927 289.551,-165.03 271,-154 245.741,-138.982 227.253,-109.38 217.322,-90.2886"/>
<polygon fill="midnightblue" stroke="midnightblue" points="220.378,-88.5714 212.807,-81.1591 214.103,-91.6744 220.378,-88.5714"/>
</g>
<!-- Node7 -->
<g id="node7" class="node"><title>Node7</title>
<g id="a_node7"><a xlink:href="params_8h.html" target="_top" xlink:title="Functions to deal with sets of energy parameters. ">
<polygon fill="none" stroke="black" points="112,-129 112,-148 224,-148 224,-129 112,-129"/>
<text text-anchor="middle" x="168" y="-136" font-family="Helvetica,sans-Serif" font-size="10.00">ViennaRNA/params.h</text>
</a>
</g>
</g>
<!-- Node3&#45;&gt;Node7 -->
<g id="edge6" class="edge"><title>Node3&#45;&gt;Node7</title>
<path fill="none" stroke="midnightblue" d="M490.45,-191.123C422.271,-183.011 318.382,-169.408 229,-154 222.18,-152.824 215.009,-151.473 208.058,-150.078"/>
<polygon fill="midnightblue" stroke="midnightblue" points="208.597,-146.615 198.096,-148.018 207.18,-153.47 208.597,-146.615"/>
</g>
<!-- Node8 -->
<g id="node8" class="node"><title>Node8</title>
<g id="a_node8"><a xlink:href="dp__matrices_8h.html" target="_top" xlink:title="Functions to deal with standard dynamic programming (DP) matrices. ">
<polygon fill="none" stroke="black" points="280.5,-129 280.5,-148 413.5,-148 413.5,-129 280.5,-129"/>
<text text-anchor="middle" x="347" y="-136" font-family="Helvetica,sans-Serif" font-size="10.00">ViennaRNA/dp_matrices.h</text>
</a>
</g>
</g>
<!-- Node3&#45;&gt;Node8 -->
<g id="edge10" class="edge"><title>Node3&#45;&gt;Node8</title>
<path fill="none" stroke="midnightblue" d="M528.009,-190.475C487.705,-180.048 423.027,-162.362 382.805,-150.807"/>
<polygon fill="midnightblue" stroke="midnightblue" points="383.715,-147.426 373.136,-148.009 381.769,-154.151 383.715,-147.426"/>
</g>
<!-- Node9 -->
<g id="node9" class="node"><title>Node9</title>
<g id="a_node9"><a xlink:href="constraints_8h.html" target="_top" xlink:title="Functions and data structures for constraining secondary structure predictions and evaluation...">
<polygon fill="none" stroke="black" points="546,-129 546,-148 674,-148 674,-129 546,-129"/>
<text text-anchor="middle" x="610" y="-136" font-family="Helvetica,sans-Serif" font-size="10.00">ViennaRNA/constraints.h</text>
</a>
</g>
</g>
<!-- Node3&#45;&gt;Node9 -->
<g id="edge12" class="edge"><title>Node3&#45;&gt;Node9</title>
<path fill="none" stroke="midnightblue" d="M565.69,-190.475C570.742,-181.373 581.667,-166.741 591.582,-155.483"/>
<polygon fill="midnightblue" stroke="midnightblue" points="594.283,-157.718 598.524,-148.009 589.154,-152.954 594.283,-157.718"/>
</g>
<!-- Node15 -->
<g id="node15" class="node"><title>Node15</title>
<g id="a_node15"><a xlink:href="grammar_8h.html" target="_top" xlink:title="Implementations for the RNA folding grammar. ">
<polygon fill="none" stroke="black" points="768,-129 768,-148 886,-148 886,-129 768,-129"/>
<text text-anchor="middle" x="827" y="-136" font-family="Helvetica,sans-Serif" font-size="10.00">ViennaRNA/grammar.h</text>
</a>
</g>
</g>
<!-- Node3&#45;&gt;Node15 -->
<g id="edge24" class="edge"><title>Node3&#45;&gt;Node15</title>
<path fill="none" stroke="midnightblue" d="M596.781,-190.475C641.432,-179.849 721.582,-161.685 774.596,-150.152"/>
<polygon fill="midnightblue" stroke="midnightblue" points="775.459,-153.547 784.491,-148.009 773.977,-146.705 775.459,-153.547"/>
</g>
<!-- Node16 -->
<g id="node16" class="node"><title>Node16</title>
<g id="a_node16"><a xlink:href="structured__domains_8h.html" target="_top" xlink:title="This module provides interfaces that deal with additional structured domains in the folding grammar...">
<polygon fill="none" stroke="black" points="904.5,-123.5 904.5,-153.5 1019.5,-153.5 1019.5,-123.5 904.5,-123.5"/>
<text text-anchor="start" x="912.5" y="-141.5" font-family="Helvetica,sans-Serif" font-size="10.00">ViennaRNA/structured</text>
<text text-anchor="middle" x="962" y="-130.5" font-family="Helvetica,sans-Serif" font-size="10.00">_domains.h</text>
</a>
</g>
</g>
<!-- Node3&#45;&gt;Node16 -->
<g id="edge26" class="edge"><title>Node3&#45;&gt;Node16</title>
<path fill="none" stroke="midnightblue" d="M637.549,-190.669C702.496,-182.931 799.958,-170.392 894.309,-154.034"/>
<polygon fill="midnightblue" stroke="midnightblue" points="895.066,-157.455 904.313,-152.284 893.859,-150.56 895.066,-157.455"/>
</g>
<!-- Node17 -->
<g id="node17" class="node"><title>Node17</title>
<g id="a_node17"><a xlink:href="unstructured__domains_8h.html" target="_top" xlink:title="Functions to modify unstructured domains, e.g. to incorporate ligands binding to unpaired stretches...">
<polygon fill="none" stroke="black" points="1037.5,-123.5 1037.5,-153.5 1162.5,-153.5 1162.5,-123.5 1037.5,-123.5"/>
<text text-anchor="start" x="1045.5" y="-141.5" font-family="Helvetica,sans-Serif" font-size="10.00">ViennaRNA/unstructured</text>
<text text-anchor="middle" x="1100" y="-130.5" font-family="Helvetica,sans-Serif" font-size="10.00">_domains.h</text>
</a>
</g>
</g>
<!-- Node3&#45;&gt;Node17 -->
<g id="edge27" class="edge"><title>Node3&#45;&gt;Node17</title>
<path fill="none" stroke="midnightblue" d="M637.647,-193.813C728.042,-187.205 885.651,-174.163 1020,-154 1022.36,-153.646 1024.76,-153.264 1027.19,-152.861"/>
<polygon fill="midnightblue" stroke="midnightblue" points="1028.02,-156.269 1037.27,-151.101 1026.82,-149.374 1028.02,-156.269"/>
</g>
<!-- Node5 -->
<g id="node5" class="node"><title>Node5</title>
<polygon fill="none" stroke="#bfbfbf" points="45,-0.5 45,-19.5 93,-19.5 93,-0.5 45,-0.5"/>
<text text-anchor="middle" x="69" y="-7.5" font-family="Helvetica,sans-Serif" font-size="10.00">limits.h</text>
</g>
<!-- Node4&#45;&gt;Node5 -->
<g id="edge4" class="edge"><title>Node4&#45;&gt;Node5</title>
<path fill="none" stroke="midnightblue" d="M69,-61.9751C69,-53.5803 69,-40.4806 69,-29.6631"/>
<polygon fill="midnightblue" stroke="midnightblue" points="72.5001,-29.5091 69,-19.5091 65.5001,-29.5091 72.5001,-29.5091"/>
</g>
<!-- Node7&#45;&gt;Node3 -->
<g id="edge8" class="edge"><title>Node7&#45;&gt;Node3</title>
<path fill="none" stroke="midnightblue" d="M215.482,-148.018C225.922,-150.111 236.849,-152.25 247,-154 329.705,-168.258 424.831,-180.969 489.194,-189.215"/>
<polygon fill="midnightblue" stroke="midnightblue" points="488.89,-192.704 499.253,-190.499 489.777,-185.761 488.89,-192.704"/>
</g>
<!-- Node7&#45;&gt;Node4 -->
<g id="edge7" class="edge"><title>Node7&#45;&gt;Node4</title>
<path fill="none" stroke="midnightblue" d="M154.648,-128.734C138.246,-117.964 110.199,-99.55 90.6878,-86.7395"/>
<polygon fill="midnightblue" stroke="midnightblue" points="92.4203,-83.69 82.14,-81.1273 88.5784,-89.5415 92.4203,-83.69"/>
</g>
<!-- Node7&#45;&gt;Node6 -->
<g id="edge9" class="edge"><title>Node7&#45;&gt;Node6</title>
<path fill="none" stroke="midnightblue" d="M173.529,-128.734C179.8,-118.793 190.179,-102.338 198.095,-89.7892"/>
<polygon fill="midnightblue" stroke="midnightblue" points="201.183,-91.4526 203.558,-81.1273 195.263,-87.718 201.183,-91.4526"/>
</g>
<!-- Node8&#45;&gt;Node3 -->
<g id="edge11" class="edge"><title>Node8&#45;&gt;Node3</title>
<path fill="none" stroke="midnightblue" d="M382.93,-148.009C423.209,-158.429 487.887,-176.114 528.134,-187.676"/>
<polygon fill="midnightblue" stroke="midnightblue" points="527.231,-191.058 537.81,-190.475 529.176,-184.334 527.231,-191.058"/>
</g>
<!-- Node9&#45;&gt;Node3 -->
<g id="edge13" class="edge"><title>Node9&#45;&gt;Node3</title>
<path fill="none" stroke="midnightblue" d="M608.319,-148.009C603.274,-157.104 592.351,-171.736 582.435,-182.997"/>
<polygon fill="midnightblue" stroke="midnightblue" points="579.731,-180.766 575.491,-190.475 584.861,-185.529 579.731,-180.766"/>
</g>
<!-- Node10 -->
<g id="node10" class="node"><title>Node10</title>
<g id="a_node10"><a xlink:href="constraints__hard_8h.html" target="_top" xlink:title="Functions and data structures for handling of secondary structure hard constraints. ">
<polygon fill="none" stroke="black" points="280.5,-56.5 280.5,-86.5 399.5,-86.5 399.5,-56.5 280.5,-56.5"/>
<text text-anchor="start" x="288.5" y="-74.5" font-family="Helvetica,sans-Serif" font-size="10.00">ViennaRNA/constraints</text>
<text text-anchor="middle" x="340" y="-63.5" font-family="Helvetica,sans-Serif" font-size="10.00">_hard.h</text>
</a>
</g>
</g>
<!-- Node9&#45;&gt;Node10 -->
<g id="edge14" class="edge"><title>Node9&#45;&gt;Node10</title>
<path fill="none" stroke="midnightblue" d="M574.425,-128.936C532.318,-118.799 461.254,-101.691 408.383,-88.9625"/>
<polygon fill="midnightblue" stroke="midnightblue" points="408.941,-85.497 398.4,-86.5592 407.303,-92.3026 408.941,-85.497"/>
</g>
<!-- Node11 -->
<g id="node11" class="node"><title>Node11</title>
<g id="a_node11"><a xlink:href="constraints__soft_8h.html" target="_top" xlink:title="Functions and data structures for secondary structure soft constraints. ">
<polygon fill="none" stroke="black" points="417.5,-56.5 417.5,-86.5 536.5,-86.5 536.5,-56.5 417.5,-56.5"/>
<text text-anchor="start" x="425.5" y="-74.5" font-family="Helvetica,sans-Serif" font-size="10.00">ViennaRNA/constraints</text>
<text text-anchor="middle" x="477" y="-63.5" font-family="Helvetica,sans-Serif" font-size="10.00">_soft.h</text>
</a>
</g>
</g>
<!-- Node9&#45;&gt;Node11 -->
<g id="edge16" class="edge"><title>Node9&#45;&gt;Node11</title>
<path fill="none" stroke="midnightblue" d="M592.339,-128.869C572.641,-119.242 540.201,-103.388 514.734,-90.9415"/>
<polygon fill="midnightblue" stroke="midnightblue" points="516.225,-87.7745 505.704,-86.5281 513.151,-94.0636 516.225,-87.7745"/>
</g>
<!-- Node12 -->
<g id="node12" class="node"><title>Node12</title>
<g id="a_node12"><a xlink:href="constraints__SHAPE_8h.html" target="_top" xlink:title="This module provides function to incorporate SHAPE reactivity data into the folding recursions by mea...">
<polygon fill="none" stroke="black" points="554.5,-56.5 554.5,-86.5 673.5,-86.5 673.5,-56.5 554.5,-56.5"/>
<text text-anchor="start" x="562.5" y="-74.5" font-family="Helvetica,sans-Serif" font-size="10.00">ViennaRNA/constraints</text>
<text text-anchor="middle" x="614" y="-63.5" font-family="Helvetica,sans-Serif" font-size="10.00">_SHAPE.h</text>
</a>
</g>
</g>
<!-- Node9&#45;&gt;Node12 -->
<g id="edge18" class="edge"><title>Node9&#45;&gt;Node12</title>
<path fill="none" stroke="midnightblue" d="M610.539,-128.734C611.044,-120.541 611.82,-107.923 612.51,-96.7136"/>
<polygon fill="midnightblue" stroke="midnightblue" points="616.012,-96.7851 613.133,-86.589 609.025,-96.3551 616.012,-96.7851"/>
</g>
<!-- Node13 -->
<g id="node13" class="node"><title>Node13</title>
<g id="a_node13"><a xlink:href="perturbation__fold_8h.html" target="_top" xlink:title="Find a vector of perturbation energies that minimizes the discripancies between predicted and observe...">
<polygon fill="none" stroke="black" points="692,-56.5 692,-86.5 814,-86.5 814,-56.5 692,-56.5"/>
<text text-anchor="start" x="700" y="-74.5" font-family="Helvetica,sans-Serif" font-size="10.00">ViennaRNA/perturbation</text>
<text text-anchor="middle" x="753" y="-63.5" font-family="Helvetica,sans-Serif" font-size="10.00">_fold.h</text>
</a>
</g>
</g>
<!-- Node9&#45;&gt;Node13 -->
<g id="edge20" class="edge"><title>Node9&#45;&gt;Node13</title>
<path fill="none" stroke="midnightblue" d="M628.989,-128.869C650.261,-119.199 685.353,-103.249 712.788,-90.778"/>
<polygon fill="midnightblue" stroke="midnightblue" points="714.483,-93.8524 722.138,-86.5281 711.586,-87.4799 714.483,-93.8524"/>
</g>
<!-- Node14 -->
<g id="node14" class="node"><title>Node14</title>
<g id="a_node14"><a xlink:href="constraints__ligand_8h.html" target="_top" xlink:title="Functions for incorporation of ligands binding to hairpin and interior loop motifs using the soft con...">
<polygon fill="none" stroke="black" points="832.5,-56.5 832.5,-86.5 951.5,-86.5 951.5,-56.5 832.5,-56.5"/>
<text text-anchor="start" x="840.5" y="-74.5" font-family="Helvetica,sans-Serif" font-size="10.00">ViennaRNA/constraints</text>
<text text-anchor="middle" x="892" y="-63.5" font-family="Helvetica,sans-Serif" font-size="10.00">_ligand.h</text>
</a>
</g>
</g>
<!-- Node9&#45;&gt;Node14 -->
<g id="edge22" class="edge"><title>Node9&#45;&gt;Node14</title>
<path fill="none" stroke="midnightblue" d="M647.157,-128.936C691.67,-118.675 767.169,-101.273 822.587,-88.4995"/>
<polygon fill="midnightblue" stroke="midnightblue" points="823.382,-91.9079 832.341,-86.2512 821.81,-85.0868 823.382,-91.9079"/>
</g>
<!-- Node10&#45;&gt;Node3 -->
<g id="edge15" class="edge"><title>Node10&#45;&gt;Node3</title>
<path fill="none" stroke="midnightblue" d="M365.113,-86.6821C408.493,-111.18 496.916,-161.116 539.715,-185.285"/>
<polygon fill="midnightblue" stroke="midnightblue" points="538.175,-188.435 548.604,-190.305 541.617,-182.34 538.175,-188.435"/>
</g>
<!-- Node11&#45;&gt;Node3 -->
<g id="edge17" class="edge"><title>Node11&#45;&gt;Node3</title>
<path fill="none" stroke="midnightblue" d="M485.709,-86.5419C495.978,-102.943 513.714,-130.788 530,-154 536.608,-163.418 544.313,-173.671 550.715,-182.008"/>
<polygon fill="midnightblue" stroke="midnightblue" points="548.148,-184.409 557.038,-190.172 553.683,-180.123 548.148,-184.409"/>
</g>
<!-- Node12&#45;&gt;Node3 -->
<g id="edge19" class="edge"><title>Node12&#45;&gt;Node3</title>
<path fill="none" stroke="midnightblue" d="M578.008,-86.6504C562.448,-94.7844 545.812,-106.683 537,-123 526.655,-142.157 538.836,-166.079 549.997,-181.911"/>
<polygon fill="midnightblue" stroke="midnightblue" points="547.446,-184.34 556.272,-190.201 553.027,-180.115 547.446,-184.34"/>
</g>
<!-- Node13&#45;&gt;Node3 -->
<g id="edge21" class="edge"><title>Node13&#45;&gt;Node3</title>
<path fill="none" stroke="midnightblue" d="M744.029,-86.8055C732.101,-104.771 709.423,-135.479 683,-154 661.002,-169.419 633.046,-180.344 609.758,-187.565"/>
<polygon fill="midnightblue" stroke="midnightblue" points="608.684,-184.233 600.095,-190.436 610.678,-190.943 608.684,-184.233"/>
</g>
<!-- Node14&#45;&gt;Node3 -->
<g id="edge23" class="edge"><title>Node14&#45;&gt;Node3</title>
<path fill="none" stroke="midnightblue" d="M847.112,-86.5274C820.767,-95.4933 787.216,-108.201 759,-123 737.493,-134.281 735.897,-143.494 714,-154 682.176,-169.268 644.053,-180.624 614.204,-188.108"/>
<polygon fill="midnightblue" stroke="midnightblue" points="613.304,-184.725 604.42,-190.498 614.965,-191.525 613.304,-184.725"/>
</g>
<!-- Node15&#45;&gt;Node3 -->
<g id="edge25" class="edge"><title>Node15&#45;&gt;Node3</title>
<path fill="none" stroke="midnightblue" d="M794.286,-148.009C749.669,-158.628 669.524,-176.792 616.483,-188.33"/>
<polygon fill="midnightblue" stroke="midnightblue" points="615.614,-184.937 606.582,-190.475 617.096,-191.779 615.614,-184.937"/>
</g>
<!-- Node17&#45;&gt;Node3 -->
<g id="edge28" class="edge"><title>Node17&#45;&gt;Node3</title>
<path fill="none" stroke="midnightblue" d="M1041.01,-153.538C1040,-153.696 1039,-153.851 1038,-154 902.377,-174.354 743.05,-187.452 647.906,-194"/>
<polygon fill="midnightblue" stroke="midnightblue" points="647.505,-190.519 637.766,-194.689 647.98,-197.503 647.505,-190.519"/>
</g>
</g>
</svg>
