<?xml version="1.0" encoding="UTF-8" standalone="no"?>
<!DOCTYPE svg PUBLIC "-//W3C//DTD SVG 1.1//EN"
 "http://www.w3.org/Graphics/SVG/1.1/DTD/svg11.dtd">
<!-- Generated by graphviz version 2.38.0 (20140413.2041)
 -->
<!-- Title: vrna_fc_s Pages: 1 -->
<svg width="477pt" height="342pt"
 viewBox="0.00 0.00 477.00 342.00" xmlns="http://www.w3.org/2000/svg" xmlns:xlink="http://www.w3.org/1999/xlink">
<g id="graph0" class="graph" transform="scale(1 1) rotate(0) translate(4 338)">
<title>vrna_fc_s</title>
<!-- Node1 -->
<g id="node1" class="node"><title>Node1</title>
<polygon fill="#bfbfbf" stroke="black" points="410,-152.5 410,-171.5 469,-171.5 469,-152.5 410,-152.5"/>
<text text-anchor="middle" x="439.5" y="-159.5" font-family="Helvetica,sans-Serif" font-size="10.00">vrna_fc_s</text>
</g>
<!-- Node2 -->
<g id="node2" class="node"><title>Node2</title>
<g id="a_node2"><a xlink:href="group__soft__constraints.html#structvrna__sc__s" target="_top" xlink:title="The soft constraints data structure. ">
<polygon fill="none" stroke="black" points="205,-304.5 205,-323.5 267,-323.5 267,-304.5 205,-304.5"/>
<text text-anchor="middle" x="236" y="-311.5" font-family="Helvetica,sans-Serif" font-size="10.00">vrna_sc_s</text>
</a>
</g>
</g>
<!-- Node2&#45;&gt;Node1 -->
<g id="edge1" class="edge"><title>Node2&#45;&gt;Node1</title>
<path fill="none" stroke="#9a32cd" stroke-dasharray="5,2" d="M277.305,-316.44C311.573,-316.34 360.149,-310.769 392,-284 427.225,-254.395 435.825,-195.028 437.876,-171.716"/>
<polygon fill="#9a32cd" stroke="#9a32cd" points="277.207,-312.939 267.164,-316.313 277.119,-319.938 277.207,-312.939"/>
<text text-anchor="middle" x="358.5" y="-326" font-family="Helvetica,sans-Serif" font-size="10.00"> sc</text>
<text text-anchor="middle" x="358.5" y="-315" font-family="Helvetica,sans-Serif" font-size="10.00">scs</text>
</g>
<!-- Node3 -->
<g id="node3" class="node"><title>Node3</title>
<g id="a_node3"><a xlink:href="group__energy__parameters.html#structvrna__exp__param__s" target="_top" xlink:title="The data structure that contains temperature scaled Boltzmann weights of the energy parameters...">
<polygon fill="none" stroke="black" points="186.5,-266.5 186.5,-285.5 285.5,-285.5 285.5,-266.5 186.5,-266.5"/>
<text text-anchor="middle" x="236" y="-273.5" font-family="Helvetica,sans-Serif" font-size="10.00">vrna_exp_param_s</text>
</a>
</g>
</g>
<!-- Node3&#45;&gt;Node1 -->
<g id="edge2" class="edge"><title>Node3&#45;&gt;Node1</title>
<path fill="none" stroke="#9a32cd" stroke-dasharray="5,2" d="M295.791,-274.295C326.91,-270.795 364.302,-262.199 392,-242 416.661,-224.015 430.33,-188.659 435.739,-171.624"/>
<polygon fill="#9a32cd" stroke="#9a32cd" points="295.116,-270.844 285.501,-275.296 295.793,-277.811 295.116,-270.844"/>
<text text-anchor="middle" x="358.5" y="-272" font-family="Helvetica,sans-Serif" font-size="10.00"> exp_params</text>
</g>
<!-- Node4 -->
<g id="node4" class="node"><title>Node4</title>
<g id="a_node4"><a xlink:href="structvrna__md__s.html" target="_top" xlink:title="The data structure that contains the complete model details used throughout the calculations. ">
<polygon fill="none" stroke="black" points="0,-247.5 0,-266.5 65,-266.5 65,-247.5 0,-247.5"/>
<text text-anchor="middle" x="32.5" y="-254.5" font-family="Helvetica,sans-Serif" font-size="10.00">vrna_md_s</text>
</a>
</g>
</g>
<!-- Node4&#45;&gt;Node3 -->
<g id="edge3" class="edge"><title>Node4&#45;&gt;Node3</title>
<path fill="none" stroke="#9a32cd" stroke-dasharray="5,2" d="M75.4487,-260.955C107.745,-264.001 152.442,-268.215 186.314,-271.409"/>
<polygon fill="#9a32cd" stroke="#9a32cd" points="75.7127,-257.465 65.4283,-260.011 75.0555,-264.434 75.7127,-257.465"/>
<text text-anchor="middle" x="115" y="-270" font-family="Helvetica,sans-Serif" font-size="10.00"> model_details</text>
</g>
<!-- Node5 -->
<g id="node5" class="node"><title>Node5</title>
<g id="a_node5"><a xlink:href="group__energy__parameters.html#structvrna__param__s" target="_top" xlink:title="The datastructure that contains temperature scaled energy parameters. ">
<polygon fill="none" stroke="black" points="197,-228.5 197,-247.5 275,-247.5 275,-228.5 197,-228.5"/>
<text text-anchor="middle" x="236" y="-235.5" font-family="Helvetica,sans-Serif" font-size="10.00">vrna_param_s</text>
</a>
</g>
</g>
<!-- Node4&#45;&gt;Node5 -->
<g id="edge5" class="edge"><title>Node4&#45;&gt;Node5</title>
<path fill="none" stroke="#9a32cd" stroke-dasharray="5,2" d="M74.9249,-248.188C77.6508,-247.745 80.3605,-247.343 83,-247 121.536,-241.992 165.934,-239.768 196.756,-238.782"/>
<polygon fill="#9a32cd" stroke="#9a32cd" points="74.3131,-244.742 65.0779,-249.934 75.5354,-251.634 74.3131,-244.742"/>
<text text-anchor="middle" x="115" y="-250" font-family="Helvetica,sans-Serif" font-size="10.00"> model_details</text>
</g>
<!-- Node5&#45;&gt;Node1 -->
<g id="edge4" class="edge"><title>Node5&#45;&gt;Node1</title>
<path fill="none" stroke="#9a32cd" stroke-dasharray="5,2" d="M285.106,-233.916C316.867,-229.7 358.623,-221.176 392,-204 407.67,-195.936 422.129,-181.259 430.634,-171.568"/>
<polygon fill="#9a32cd" stroke="#9a32cd" points="284.666,-230.444 275.168,-235.139 285.521,-237.392 284.666,-230.444"/>
<text text-anchor="middle" x="358.5" y="-230" font-family="Helvetica,sans-Serif" font-size="10.00"> params</text>
</g>
<!-- Node6 -->
<g id="node6" class="node"><title>Node6</title>
<g id="a_node6"><a xlink:href="group__hard__constraints.html#structvrna__hc__s" target="_top" xlink:title="The hard constraints data structure. ">
<polygon fill="none" stroke="black" points="205,-190.5 205,-209.5 267,-209.5 267,-190.5 205,-190.5"/>
<text text-anchor="middle" x="236" y="-197.5" font-family="Helvetica,sans-Serif" font-size="10.00">vrna_hc_s</text>
</a>
</g>
</g>
<!-- Node6&#45;&gt;Node1 -->
<g id="edge6" class="edge"><title>Node6&#45;&gt;Node1</title>
<path fill="none" stroke="#9a32cd" stroke-dasharray="5,2" d="M277.424,-195.85C308.904,-192.175 353.564,-185.987 392,-177 398.277,-175.532 404.926,-173.614 411.172,-171.642"/>
<polygon fill="#9a32cd" stroke="#9a32cd" points="276.823,-192.396 267.281,-197 277.612,-199.351 276.823,-192.396"/>
<text text-anchor="middle" x="358.5" y="-192" font-family="Helvetica,sans-Serif" font-size="10.00"> hc</text>
</g>
<!-- Node7 -->
<g id="node7" class="node"><title>Node7</title>
<g id="a_node7"><a xlink:href="group__domains__up.html#structvrna__unstructured__domain__s" target="_top" xlink:title="Data structure to store all functionality for ligand binding. ">
<polygon fill="none" stroke="black" points="165,-152.5 165,-171.5 307,-171.5 307,-152.5 165,-152.5"/>
<text text-anchor="middle" x="236" y="-159.5" font-family="Helvetica,sans-Serif" font-size="10.00">vrna_unstructured_domain_s</text>
</a>
</g>
</g>
<!-- Node7&#45;&gt;Node1 -->
<g id="edge7" class="edge"><title>Node7&#45;&gt;Node1</title>
<path fill="none" stroke="#9a32cd" stroke-dasharray="5,2" d="M317.224,-162C349.911,-162 385.609,-162 409.753,-162"/>
<polygon fill="#9a32cd" stroke="#9a32cd" points="317.192,-158.5 307.192,-162 317.192,-165.5 317.192,-158.5"/>
<text text-anchor="middle" x="358.5" y="-165" font-family="Helvetica,sans-Serif" font-size="10.00"> domains_up</text>
</g>
<!-- Node8 -->
<g id="node8" class="node"><title>Node8</title>
<g id="a_node8"><a xlink:href="group__dp__matrices.html#structvrna__mx__mfe__s" target="_top" xlink:title="Minimum Free Energy (MFE) Dynamic Programming (DP) matrices data structure required within the vrna_f...">
<polygon fill="none" stroke="black" points="193,-114.5 193,-133.5 279,-133.5 279,-114.5 193,-114.5"/>
<text text-anchor="middle" x="236" y="-121.5" font-family="Helvetica,sans-Serif" font-size="10.00">vrna_mx_mfe_s</text>
</a>
</g>
</g>
<!-- Node8&#45;&gt;Node1 -->
<g id="edge8" class="edge"><title>Node8&#45;&gt;Node1</title>
<path fill="none" stroke="#9a32cd" stroke-dasharray="5,2" d="M289.446,-129.601C319.663,-133.37 358.233,-139.105 392,-147 398.277,-148.468 404.926,-150.386 411.172,-152.358"/>
<polygon fill="#9a32cd" stroke="#9a32cd" points="289.476,-126.079 279.127,-128.35 288.633,-133.028 289.476,-126.079"/>
<text text-anchor="middle" x="358.5" y="-150" font-family="Helvetica,sans-Serif" font-size="10.00"> matrices</text>
</g>
<!-- Node9 -->
<g id="node9" class="node"><title>Node9</title>
<g id="a_node9"><a xlink:href="structvrna__gr__aux__s.html" target="_top" xlink:title="vrna_gr_aux_s">
<polygon fill="none" stroke="black" points="196,-76.5 196,-95.5 276,-95.5 276,-76.5 196,-76.5"/>
<text text-anchor="middle" x="236" y="-83.5" font-family="Helvetica,sans-Serif" font-size="10.00">vrna_gr_aux_s</text>
</a>
</g>
</g>
<!-- Node9&#45;&gt;Node1 -->
<g id="edge9" class="edge"><title>Node9&#45;&gt;Node1</title>
<path fill="none" stroke="#9a32cd" stroke-dasharray="5,2" d="M286.403,-90.7786C317.963,-95.338 359.003,-104.141 392,-121 407.335,-128.835 421.665,-142.892 430.257,-152.333"/>
<polygon fill="#9a32cd" stroke="#9a32cd" points="286.466,-87.2556 276.088,-89.3895 285.532,-94.193 286.466,-87.2556"/>
<text text-anchor="middle" x="358.5" y="-124" font-family="Helvetica,sans-Serif" font-size="10.00"> aux_grammar</text>
</g>
<!-- Node10 -->
<g id="node10" class="node"><title>Node10</title>
<g id="a_node10"><a xlink:href="group__dp__matrices.html#structvrna__mx__pf__s" target="_top" xlink:title="Partition function (PF) Dynamic Programming (DP) matrices data structure required within the vrna_fol...">
<polygon fill="none" stroke="black" points="197,-38.5 197,-57.5 275,-57.5 275,-38.5 197,-38.5"/>
<text text-anchor="middle" x="236" y="-45.5" font-family="Helvetica,sans-Serif" font-size="10.00">vrna_mx_pf_s</text>
</a>
</g>
</g>
<!-- Node10&#45;&gt;Node1 -->
<g id="edge10" class="edge"><title>Node10&#45;&gt;Node1</title>
<path fill="none" stroke="#9a32cd" stroke-dasharray="5,2" d="M285.449,-49.5291C318.26,-52.7488 361.097,-61.4346 392,-84 416.064,-101.572 429.941,-135.712 435.557,-152.379"/>
<polygon fill="#9a32cd" stroke="#9a32cd" points="285.435,-46.0156 275.176,-48.6652 284.848,-52.991 285.435,-46.0156"/>
<text text-anchor="middle" x="358.5" y="-87" font-family="Helvetica,sans-Serif" font-size="10.00"> exp_matrices</text>
</g>
<!-- Node11 -->
<g id="node11" class="node"><title>Node11</title>
<g id="a_node11"><a xlink:href="structvrna__structured__domains__s.html" target="_top" xlink:title="vrna_structured_domains_s">
<polygon fill="none" stroke="black" points="167.5,-0.5 167.5,-19.5 304.5,-19.5 304.5,-0.5 167.5,-0.5"/>
<text text-anchor="middle" x="236" y="-7.5" font-family="Helvetica,sans-Serif" font-size="10.00">vrna_structured_domains_s</text>
</a>
</g>
</g>
<!-- Node11&#45;&gt;Node1 -->
<g id="edge11" class="edge"><title>Node11&#45;&gt;Node1</title>
<path fill="none" stroke="#9a32cd" stroke-dasharray="5,2" d="M314.934,-10.6188C341.917,-14.446 370.701,-23.0368 392,-41 426.922,-70.4535 435.699,-129.28 437.837,-152.376"/>
<polygon fill="#9a32cd" stroke="#9a32cd" points="315.049,-7.10715 304.7,-9.37562 314.205,-14.0561 315.049,-7.10715"/>
<text text-anchor="middle" x="358.5" y="-44" font-family="Helvetica,sans-Serif" font-size="10.00"> domains_struc</text>
</g>
</g>
</svg>
