<?xml version="1.0" encoding="UTF-8" standalone="no"?>
<!DOCTYPE svg PUBLIC "-//W3C//DTD SVG 1.1//EN"
 "http://www.w3.org/Graphics/SVG/1.1/DTD/svg11.dtd">
<!-- Generated by graphviz version 2.38.0 (20140413.2041)
 -->
<!-- Title: TwoDpfold_vars Pages: 1 -->
<!--zoomable 339 -->
<svg id="main" version="1.1" xmlns="http://www.w3.org/2000/svg" xmlns:xlink="http://www.w3.org/1999/xlink" xml:space="preserve" onload="init(evt)">
<style type="text/css"><![CDATA[
.edge:hover path { stroke: red; }
.edge:hover polygon { stroke: red; fill: red; }
]]></style>
<script type="text/javascript"><![CDATA[
var edges = document.getElementsByTagName('g');
if (edges && edges.length) {
  for (var i=0;i<edges.length;i++) {
    if (edges[i].id.substr(0,4)=='edge') {
      edges[i].setAttribute('class','edge');
    }
  }
}
]]></script>
        <defs>
                <circle id="rim" cx="0" cy="0" r="7"/>
                <circle id="rim2" cx="0" cy="0" r="3.5"/>
                <g id="zoomPlus">
                        <use xlink:href="#rim" fill="#404040">
                                <set attributeName="fill" to="#808080" begin="zoomplus.mouseover" end="zoomplus.mouseout"/>
                        </use>
                        <path d="M-4,0h8M0,-4v8" fill="none" stroke="white" stroke-width="1.5" pointer-events="none"/>
                </g>
                <g id="zoomMin">
                        <use xlink:href="#rim" fill="#404040">
                                <set attributeName="fill" to="#808080" begin="zoomminus.mouseover" end="zoomminus.mouseout"/>
                        </use>
                        <path d="M-4,0h8" fill="none" stroke="white" stroke-width="1.5" pointer-events="none"/>
                </g>
                <g id="dirArrow">
                        <path fill="none" stroke="white" stroke-width="1.5" d="M0,-3.0v7 M-2.5,-0.5L0,-3.0L2.5,-0.5"/>
                </g>
               <g id="resetDef">
                       <use xlink:href="#rim2" fill="#404040">
                               <set attributeName="fill" to="#808080" begin="reset.mouseover" end="reset.mouseout"/>
                       </use>
               </g>
        </defs>

<script type="text/javascript">
var viewWidth = 659;
var viewHeight = 339;
var sectionId = 'dynsection-0';
</script>
<script xlink:href="svgpan.js"/>
<svg id="graph" class="graph">
<g id="viewport">
<title>TwoDpfold_vars</title>
<!-- Node1 -->
<g id="node1" class="node"><title>Node1</title>
<polygon fill="#bfbfbf" stroke="black" points="563,-277.5 563,-296.5 651,-296.5 651,-277.5 563,-277.5"/>
<text text-anchor="middle" x="607" y="-284.5" font-family="Helvetica,sans-Serif" font-size="10.00">TwoDpfold_vars</text>
</g>
<!-- Node2 -->
<g id="node2" class="node"><title>Node2</title>
<g id="a_node2"><a xlink:href="group__energy__parameters.html#structvrna__exp__param__s" target="_top" xlink:title="The data structure that contains temperature scaled Boltzmann weights of the energy parameters...">
<polygon fill="none" stroke="black" points="186.5,-304.5 186.5,-323.5 285.5,-323.5 285.5,-304.5 186.5,-304.5"/>
<text text-anchor="middle" x="236" y="-311.5" font-family="Helvetica,sans-Serif" font-size="10.00">vrna_exp_param_s</text>
</a>
</g>
</g>
<!-- Node2&#45;&gt;Node1 -->
<g id="edge1" class="edge"><title>Node2&#45;&gt;Node1</title>
<path fill="none" stroke="#9a32cd" stroke-dasharray="5,2" d="M295.835,-320.092C305.567,-320.886 315.56,-321.572 325,-322 354.747,-323.349 362.32,-324.411 392,-322 451.661,-317.153 519.764,-304.826 562.808,-296.179"/>
<polygon fill="#9a32cd" stroke="#9a32cd" points="296.084,-316.601 285.821,-319.232 295.484,-323.575 296.084,-316.601"/>
<text text-anchor="middle" x="439.5" y="-323" font-family="Helvetica,sans-Serif" font-size="10.00"> pf_params</text>
</g>
<!-- Node4 -->
<g id="node4" class="node"><title>Node4</title>
<g id="a_node4"><a xlink:href="group__fold__compound.html#structvrna__fc__s" target="_top" xlink:title="The most basic data structure required by many functions throughout the RNAlib. ">
<polygon fill="none" stroke="black" points="410,-169.5 410,-188.5 469,-188.5 469,-169.5 410,-169.5"/>
<text text-anchor="middle" x="439.5" y="-176.5" font-family="Helvetica,sans-Serif" font-size="10.00">vrna_fc_s</text>
</a>
</g>
</g>
<!-- Node2&#45;&gt;Node4 -->
<g id="edge5" class="edge"><title>Node2&#45;&gt;Node4</title>
<path fill="none" stroke="#9a32cd" stroke-dasharray="5,2" d="M295.985,-310.784C333.301,-307.649 377.199,-301.579 392,-290 425.077,-264.124 434.879,-210.453 437.564,-188.586"/>
<polygon fill="#9a32cd" stroke="#9a32cd" points="295.36,-307.322 285.664,-311.593 295.907,-314.301 295.36,-307.322"/>
<text text-anchor="middle" x="358.5" y="-310" font-family="Helvetica,sans-Serif" font-size="10.00"> exp_params</text>
</g>
<!-- Node3 -->
<g id="node3" class="node"><title>Node3</title>
<g id="a_node3"><a xlink:href="structvrna__md__s.html" target="_top" xlink:title="The data structure that contains the complete model details used throughout the calculations. ">
<polygon fill="none" stroke="black" points="0,-257.5 0,-276.5 65,-276.5 65,-257.5 0,-257.5"/>
<text text-anchor="middle" x="32.5" y="-264.5" font-family="Helvetica,sans-Serif" font-size="10.00">vrna_md_s</text>
</a>
</g>
</g>
<!-- Node3&#45;&gt;Node2 -->
<g id="edge2" class="edge"><title>Node3&#45;&gt;Node2</title>
<path fill="none" stroke="#9a32cd" stroke-dasharray="5,2" d="M75.3014,-276.75C110.171,-284.883 159.572,-296.406 194.168,-304.476"/>
<polygon fill="#9a32cd" stroke="#9a32cd" points="75.9619,-273.31 65.4283,-274.447 74.3718,-280.127 75.9619,-273.31"/>
<text text-anchor="middle" x="115" y="-296" font-family="Helvetica,sans-Serif" font-size="10.00"> model_details</text>
</g>
<!-- Node6 -->
<g id="node6" class="node"><title>Node6</title>
<g id="a_node6"><a xlink:href="group__energy__parameters.html#structvrna__param__s" target="_top" xlink:title="The datastructure that contains temperature scaled energy parameters. ">
<polygon fill="none" stroke="black" points="197,-190.5 197,-209.5 275,-209.5 275,-190.5 197,-190.5"/>
<text text-anchor="middle" x="236" y="-197.5" font-family="Helvetica,sans-Serif" font-size="10.00">vrna_param_s</text>
</a>
</g>
</g>
<!-- Node3&#45;&gt;Node6 -->
<g id="edge7" class="edge"><title>Node3&#45;&gt;Node6</title>
<path fill="none" stroke="#9a32cd" stroke-dasharray="5,2" d="M67.5395,-253.672C93.9287,-243.56 131.521,-229.633 165,-219 175.442,-215.684 186.871,-212.427 197.41,-209.573"/>
<polygon fill="#9a32cd" stroke="#9a32cd" points="66.0785,-250.484 58.006,-257.346 68.5957,-257.016 66.0785,-250.484"/>
<text text-anchor="middle" x="115" y="-250" font-family="Helvetica,sans-Serif" font-size="10.00"> model_details</text>
</g>
<!-- Node4&#45;&gt;Node1 -->
<g id="edge3" class="edge"><title>Node4&#45;&gt;Node1</title>
<path fill="none" stroke="#9a32cd" stroke-dasharray="5,2" d="M463.693,-194.135C498.225,-216.67 562.184,-258.407 591.108,-277.282"/>
<polygon fill="#9a32cd" stroke="#9a32cd" points="465.474,-191.118 455.187,-188.584 461.649,-196.98 465.474,-191.118"/>
<text text-anchor="middle" x="516" y="-248" font-family="Helvetica,sans-Serif" font-size="10.00"> compatibility</text>
</g>
<!-- Node5 -->
<g id="node5" class="node"><title>Node5</title>
<g id="a_node5"><a xlink:href="group__soft__constraints.html#structvrna__sc__s" target="_top" xlink:title="The soft constraints data structure. ">
<polygon fill="none" stroke="black" points="205,-266.5 205,-285.5 267,-285.5 267,-266.5 205,-266.5"/>
<text text-anchor="middle" x="236" y="-273.5" font-family="Helvetica,sans-Serif" font-size="10.00">vrna_sc_s</text>
</a>
</g>
</g>
<!-- Node5&#45;&gt;Node4 -->
<g id="edge4" class="edge"><title>Node5&#45;&gt;Node4</title>
<path fill="none" stroke="#9a32cd" stroke-dasharray="5,2" d="M277.52,-273.715C310.606,-270.2 357.386,-261.328 392,-239 411.713,-226.284 426.493,-202.244 433.67,-188.774"/>
<polygon fill="#9a32cd" stroke="#9a32cd" points="276.919,-270.256 267.291,-274.678 277.575,-277.225 276.919,-270.256"/>
<text text-anchor="middle" x="358.5" y="-278" font-family="Helvetica,sans-Serif" font-size="10.00"> sc</text>
<text text-anchor="middle" x="358.5" y="-267" font-family="Helvetica,sans-Serif" font-size="10.00">scs</text>
</g>
<!-- Node6&#45;&gt;Node4 -->
<g id="edge6" class="edge"><title>Node6&#45;&gt;Node4</title>
<path fill="none" stroke="#9a32cd" stroke-dasharray="5,2" d="M285.407,-194.955C324.202,-190.912 377.334,-185.375 409.716,-182"/>
<polygon fill="#9a32cd" stroke="#9a32cd" points="284.958,-191.483 275.375,-196.001 285.684,-198.445 284.958,-191.483"/>
<text text-anchor="middle" x="358.5" y="-194" font-family="Helvetica,sans-Serif" font-size="10.00"> params</text>
</g>
<!-- Node7 -->
<g id="node7" class="node"><title>Node7</title>
<g id="a_node7"><a xlink:href="group__hard__constraints.html#structvrna__hc__s" target="_top" xlink:title="The hard constraints data structure. ">
<polygon fill="none" stroke="black" points="205,-152.5 205,-171.5 267,-171.5 267,-152.5 205,-152.5"/>
<text text-anchor="middle" x="236" y="-159.5" font-family="Helvetica,sans-Serif" font-size="10.00">vrna_hc_s</text>
</a>
</g>
</g>
<!-- Node7&#45;&gt;Node4 -->
<g id="edge8" class="edge"><title>Node7&#45;&gt;Node4</title>
<path fill="none" stroke="#9a32cd" stroke-dasharray="5,2" d="M277.369,-159.245C308.819,-157.885 353.466,-157.684 392,-164 399.032,-165.153 406.455,-167.164 413.256,-169.346"/>
<polygon fill="#9a32cd" stroke="#9a32cd" points="277.053,-155.756 267.236,-159.742 277.396,-162.747 277.053,-155.756"/>
<text text-anchor="middle" x="358.5" y="-167" font-family="Helvetica,sans-Serif" font-size="10.00"> hc</text>
</g>
<!-- Node8 -->
<g id="node8" class="node"><title>Node8</title>
<g id="a_node8"><a xlink:href="group__domains__up.html#structvrna__unstructured__domain__s" target="_top" xlink:title="Data structure to store all functionality for ligand binding. ">
<polygon fill="none" stroke="black" points="165,-114.5 165,-133.5 307,-133.5 307,-114.5 165,-114.5"/>
<text text-anchor="middle" x="236" y="-121.5" font-family="Helvetica,sans-Serif" font-size="10.00">vrna_unstructured_domain_s</text>
</a>
</g>
</g>
<!-- Node8&#45;&gt;Node4 -->
<g id="edge9" class="edge"><title>Node8&#45;&gt;Node4</title>
<path fill="none" stroke="#9a32cd" stroke-dasharray="5,2" d="M317.292,-126.448C341.943,-129.271 368.7,-134.51 392,-144 406.224,-149.793 419.95,-161.046 428.755,-169.232"/>
<polygon fill="#9a32cd" stroke="#9a32cd" points="317.542,-122.956 307.237,-125.414 316.826,-129.919 317.542,-122.956"/>
<text text-anchor="middle" x="358.5" y="-147" font-family="Helvetica,sans-Serif" font-size="10.00"> domains_up</text>
</g>
<!-- Node9 -->
<g id="node9" class="node"><title>Node9</title>
<g id="a_node9"><a xlink:href="group__dp__matrices.html#structvrna__mx__mfe__s" target="_top" xlink:title="Minimum Free Energy (MFE) Dynamic Programming (DP) matrices data structure required within the vrna_f...">
<polygon fill="none" stroke="black" points="193,-76.5 193,-95.5 279,-95.5 279,-76.5 193,-76.5"/>
<text text-anchor="middle" x="236" y="-83.5" font-family="Helvetica,sans-Serif" font-size="10.00">vrna_mx_mfe_s</text>
</a>
</g>
</g>
<!-- Node9&#45;&gt;Node4 -->
<g id="edge10" class="edge"><title>Node9&#45;&gt;Node4</title>
<path fill="none" stroke="#9a32cd" stroke-dasharray="5,2" d="M289.291,-85.277C321.167,-87.1083 361.498,-93.6747 392,-113 413.549,-126.653 427.961,-154.252 434.492,-169.066"/>
<polygon fill="#9a32cd" stroke="#9a32cd" points="289.405,-81.7787 279.262,-84.8386 289.099,-88.772 289.405,-81.7787"/>
<text text-anchor="middle" x="358.5" y="-116" font-family="Helvetica,sans-Serif" font-size="10.00"> matrices</text>
</g>
<!-- Node10 -->
<g id="node10" class="node"><title>Node10</title>
<g id="a_node10"><a xlink:href="structvrna__gr__aux__s.html" target="_top" xlink:title="vrna_gr_aux_s">
<polygon fill="none" stroke="black" points="196,-38.5 196,-57.5 276,-57.5 276,-38.5 196,-38.5"/>
<text text-anchor="middle" x="236" y="-45.5" font-family="Helvetica,sans-Serif" font-size="10.00">vrna_gr_aux_s</text>
</a>
</g>
</g>
<!-- Node10&#45;&gt;Node4 -->
<g id="edge11" class="edge"><title>Node10&#45;&gt;Node4</title>
<path fill="none" stroke="#9a32cd" stroke-dasharray="5,2" d="M286.435,-45.1629C319.5,-45.8048 362.241,-51.8372 392,-75 423.059,-99.175 433.929,-148.609 437.23,-169.424"/>
<polygon fill="#9a32cd" stroke="#9a32cd" points="286.079,-41.6618 276.068,-45.129 286.056,-48.6618 286.079,-41.6618"/>
<text text-anchor="middle" x="358.5" y="-78" font-family="Helvetica,sans-Serif" font-size="10.00"> aux_grammar</text>
</g>
<!-- Node11 -->
<g id="node11" class="node"><title>Node11</title>
<g id="a_node11"><a xlink:href="group__dp__matrices.html#structvrna__mx__pf__s" target="_top" xlink:title="Partition function (PF) Dynamic Programming (DP) matrices data structure required within the vrna_fol...">
<polygon fill="none" stroke="black" points="197,-0.5 197,-19.5 275,-19.5 275,-0.5 197,-0.5"/>
<text text-anchor="middle" x="236" y="-7.5" font-family="Helvetica,sans-Serif" font-size="10.00">vrna_mx_pf_s</text>
</a>
</g>
</g>
<!-- Node11&#45;&gt;Node4 -->
<g id="edge12" class="edge"><title>Node11&#45;&gt;Node4</title>
<path fill="none" stroke="#9a32cd" stroke-dasharray="5,2" d="M285.118,-5.07788C318.802,-4.31682 362.825,-9.07296 392,-34 433.806,-69.7194 438.375,-143.117 438.618,-169.386"/>
<polygon fill="#9a32cd" stroke="#9a32cd" points="284.879,-1.58448 275.024,-5.47497 285.154,-8.57907 284.879,-1.58448"/>
<text text-anchor="middle" x="358.5" y="-37" font-family="Helvetica,sans-Serif" font-size="10.00"> exp_matrices</text>
</g>
<!-- Node12 -->
<g id="node12" class="node"><title>Node12</title>
<g id="a_node12"><a xlink:href="structvrna__structured__domains__s.html" target="_top" xlink:title="vrna_structured_domains_s">
<polygon fill="none" stroke="black" points="167.5,-228.5 167.5,-247.5 304.5,-247.5 304.5,-228.5 167.5,-228.5"/>
<text text-anchor="middle" x="236" y="-235.5" font-family="Helvetica,sans-Serif" font-size="10.00">vrna_structured_domains_s</text>
</a>
</g>
</g>
<!-- Node12&#45;&gt;Node4 -->
<g id="edge13" class="edge"><title>Node12&#45;&gt;Node4</title>
<path fill="none" stroke="#9a32cd" stroke-dasharray="5,2" d="M314.599,-227.053C339.783,-222.17 367.526,-215.347 392,-206 403.686,-201.537 415.878,-194.348 424.846,-188.511"/>
<polygon fill="#9a32cd" stroke="#9a32cd" points="313.908,-223.622 304.719,-228.897 315.192,-230.503 313.908,-223.622"/>
<text text-anchor="middle" x="358.5" y="-227" font-family="Helvetica,sans-Serif" font-size="10.00"> domains_struc</text>
</g>
</g>
</svg>
        <g id="navigator" transform="translate(0 0)" fill="#404254">
                <rect fill="#f2f5e9" fill-opacity="0.5" stroke="#606060" stroke-width=".5" x="0" y="0" width="60" height="60"/>
                <use id="zoomplus" xlink:href="#zoomPlus" x="17" y="9" onmousedown="handleZoom(evt,'in')"/>
                <use id="zoomminus" xlink:href="#zoomMin" x="42" y="9" onmousedown="handleZoom(evt,'out')"/>
                <use id="reset" xlink:href="#resetDef" x="30" y="36" onmousedown="handleReset()"/>
                <g id="arrowUp" xlink:href="#dirArrow" transform="translate(30 24)" onmousedown="handlePan(0,-1)">
                  <use xlink:href="#rim" fill="#404040">
                        <set attributeName="fill" to="#808080" begin="arrowUp.mouseover" end="arrowUp.mouseout"/>
                  </use>
                  <path fill="none" stroke="white" stroke-width="1.5" d="M0,-3.0v7 M-2.5,-0.5L0,-3.0L2.5,-0.5"/>
                </g>
                <g id="arrowRight" xlink:href="#dirArrow" transform="rotate(90) translate(36 -43)" onmousedown="handlePan(1,0)">
                  <use xlink:href="#rim" fill="#404040">
                        <set attributeName="fill" to="#808080" begin="arrowRight.mouseover" end="arrowRight.mouseout"/>
                  </use>
                  <path fill="none" stroke="white" stroke-width="1.5" d="M0,-3.0v7 M-2.5,-0.5L0,-3.0L2.5,-0.5"/>
                </g>
                <g id="arrowDown" xlink:href="#dirArrow" transform="rotate(180) translate(-30 -48)" onmousedown="handlePan(0,1)">
                  <use xlink:href="#rim" fill="#404040">
                        <set attributeName="fill" to="#808080" begin="arrowDown.mouseover" end="arrowDown.mouseout"/>
                  </use>
                  <path fill="none" stroke="white" stroke-width="1.5" d="M0,-3.0v7 M-2.5,-0.5L0,-3.0L2.5,-0.5"/>
                </g>
                <g id="arrowLeft" xlink:href="#dirArrow" transform="rotate(270) translate(-36 17)" onmousedown="handlePan(-1,0)">
                  <use xlink:href="#rim" fill="#404040">
                        <set attributeName="fill" to="#808080" begin="arrowLeft.mouseover" end="arrowLeft.mouseout"/>
                  </use>
                  <path fill="none" stroke="white" stroke-width="1.5" d="M0,-3.0v7 M-2.5,-0.5L0,-3.0L2.5,-0.5"/>
                </g>
        </g>
        <svg viewBox="0 0 15 15" width="100%" height="30px" preserveAspectRatio="xMaxYMin meet">
         <g id="arrow_out" transform="scale(0.3 0.3)">
          <a xlink:href="structTwoDpfold__vars__coll__graph_org.svg" target="_base">
           <rect id="button" ry="5" rx="5" y="6" x="6" height="38" width="38"
                fill="#f2f5e9" fill-opacity="0.5" stroke="#606060" stroke-width="1.0"/>
           <path id="arrow"
             d="M 11.500037,31.436501 C 11.940474,20.09759 22.043105,11.32322 32.158766,21.979434 L 37.068811,17.246167 C 37.068811,17.246167 37.088388,32 37.088388,32 L 22.160133,31.978069 C 22.160133,31.978069 26.997745,27.140456 26.997745,27.140456 C 18.528582,18.264221 13.291696,25.230495 11.500037,31.436501 z"
             style="fill:#404040;"/>
          </a>
         </g>
        </svg>
</svg>
