<?xml version="1.0" encoding="UTF-8" standalone="no"?>
<!DOCTYPE svg PUBLIC "-//W3C//DTD SVG 1.1//EN"
 "http://www.w3.org/Graphics/SVG/1.1/DTD/svg11.dtd">
<!-- Generated by graphviz version 2.38.0 (20140413.2041)
 -->
<!-- Title: TwoDfold_vars Pages: 1 -->
<svg width="654pt" height="337pt"
 viewBox="0.00 0.00 654.00 337.00" xmlns="http://www.w3.org/2000/svg" xmlns:xlink="http://www.w3.org/1999/xlink">
<g id="graph0" class="graph" transform="scale(1 1) rotate(0) translate(4 333)">
<title>TwoDfold_vars</title>
<!-- Node1 -->
<g id="node1" class="node"><title>Node1</title>
<polygon fill="#bfbfbf" stroke="black" points="563,-277.5 563,-296.5 646,-296.5 646,-277.5 563,-277.5"/>
<text text-anchor="middle" x="604.5" y="-284.5" font-family="Helvetica,sans-Serif" font-size="10.00">TwoDfold_vars</text>
</g>
<!-- Node2 -->
<g id="node2" class="node"><title>Node2</title>
<g id="a_node2"><a xlink:href="group__fold__compound.html#structvrna__fc__s" target="_top" xlink:title="The most basic data structure required by many functions throughout the RNAlib. ">
<polygon fill="none" stroke="black" points="410,-170.5 410,-189.5 469,-189.5 469,-170.5 410,-170.5"/>
<text text-anchor="middle" x="439.5" y="-177.5" font-family="Helvetica,sans-Serif" font-size="10.00">vrna_fc_s</text>
</a>
</g>
</g>
<!-- Node2&#45;&gt;Node1 -->
<g id="edge1" class="edge"><title>Node2&#45;&gt;Node1</title>
<path fill="none" stroke="#9a32cd" stroke-dasharray="5,2" d="M463.666,-195.207C497.776,-217.599 560.532,-258.794 588.898,-277.415"/>
<polygon fill="#9a32cd" stroke="#9a32cd" points="465.533,-192.246 455.253,-189.684 461.692,-198.098 465.533,-192.246"/>
<text text-anchor="middle" x="516" y="-250" font-family="Helvetica,sans-Serif" font-size="10.00"> compatibility</text>
</g>
<!-- Node3 -->
<g id="node3" class="node"><title>Node3</title>
<g id="a_node3"><a xlink:href="group__soft__constraints.html#structvrna__sc__s" target="_top" xlink:title="The soft constraints data structure. ">
<polygon fill="none" stroke="black" points="205,-266.5 205,-285.5 267,-285.5 267,-266.5 205,-266.5"/>
<text text-anchor="middle" x="236" y="-273.5" font-family="Helvetica,sans-Serif" font-size="10.00">vrna_sc_s</text>
</a>
</g>
</g>
<!-- Node3&#45;&gt;Node2 -->
<g id="edge2" class="edge"><title>Node3&#45;&gt;Node2</title>
<path fill="none" stroke="#9a32cd" stroke-dasharray="5,2" d="M277.397,-270.087C316.752,-263.762 373.301,-253.006 392,-241 412.17,-228.05 426.965,-203.153 433.972,-189.512"/>
<polygon fill="#9a32cd" stroke="#9a32cd" points="276.633,-266.664 267.298,-271.674 277.72,-273.579 276.633,-266.664"/>
<text text-anchor="middle" x="358.5" y="-274" font-family="Helvetica,sans-Serif" font-size="10.00"> sc</text>
<text text-anchor="middle" x="358.5" y="-263" font-family="Helvetica,sans-Serif" font-size="10.00">scs</text>
</g>
<!-- Node4 -->
<g id="node4" class="node"><title>Node4</title>
<g id="a_node4"><a xlink:href="group__energy__parameters.html#structvrna__exp__param__s" target="_top" xlink:title="The data structure that contains temperature scaled Boltzmann weights of the energy parameters...">
<polygon fill="none" stroke="black" points="186.5,-228.5 186.5,-247.5 285.5,-247.5 285.5,-228.5 186.5,-228.5"/>
<text text-anchor="middle" x="236" y="-235.5" font-family="Helvetica,sans-Serif" font-size="10.00">vrna_exp_param_s</text>
</a>
</g>
</g>
<!-- Node4&#45;&gt;Node2 -->
<g id="edge3" class="edge"><title>Node4&#45;&gt;Node2</title>
<path fill="none" stroke="#9a32cd" stroke-dasharray="5,2" d="M295.776,-230.9C325.297,-226.177 361.234,-218.641 392,-207 403.7,-202.573 415.892,-195.383 424.855,-189.535"/>
<polygon fill="#9a32cd" stroke="#9a32cd" points="294.976,-227.482 285.621,-232.456 296.036,-234.401 294.976,-227.482"/>
<text text-anchor="middle" x="358.5" y="-229" font-family="Helvetica,sans-Serif" font-size="10.00"> exp_params</text>
</g>
<!-- Node5 -->
<g id="node5" class="node"><title>Node5</title>
<g id="a_node5"><a xlink:href="structvrna__md__s.html" target="_top" xlink:title="The data structure that contains the complete model details used throughout the calculations. ">
<polygon fill="none" stroke="black" points="0,-271.5 0,-290.5 65,-290.5 65,-271.5 0,-271.5"/>
<text text-anchor="middle" x="32.5" y="-278.5" font-family="Helvetica,sans-Serif" font-size="10.00">vrna_md_s</text>
</a>
</g>
</g>
<!-- Node5&#45;&gt;Node4 -->
<g id="edge4" class="edge"><title>Node5&#45;&gt;Node4</title>
<path fill="none" stroke="#9a32cd" stroke-dasharray="5,2" d="M75.3729,-272.064C108.895,-264.911 155.815,-254.898 190.11,-247.58"/>
<polygon fill="#9a32cd" stroke="#9a32cd" points="74.4776,-268.677 65.4283,-274.187 75.9386,-275.522 74.4776,-268.677"/>
<text text-anchor="middle" x="115" y="-272" font-family="Helvetica,sans-Serif" font-size="10.00"> model_details</text>
</g>
<!-- Node6 -->
<g id="node6" class="node"><title>Node6</title>
<g id="a_node6"><a xlink:href="group__energy__parameters.html#structvrna__param__s" target="_top" xlink:title="The datastructure that contains temperature scaled energy parameters. ">
<polygon fill="none" stroke="black" points="197,-304.5 197,-323.5 275,-323.5 275,-304.5 197,-304.5"/>
<text text-anchor="middle" x="236" y="-311.5" font-family="Helvetica,sans-Serif" font-size="10.00">vrna_param_s</text>
</a>
</g>
</g>
<!-- Node5&#45;&gt;Node6 -->
<g id="edge6" class="edge"><title>Node5&#45;&gt;Node6</title>
<path fill="none" stroke="#9a32cd" stroke-dasharray="5,2" d="M75.5318,-287.884C111.244,-293.732 162.075,-302.057 196.684,-307.725"/>
<polygon fill="#9a32cd" stroke="#9a32cd" points="75.8625,-284.391 65.4283,-286.229 74.7311,-291.299 75.8625,-284.391"/>
<text text-anchor="middle" x="115" y="-302" font-family="Helvetica,sans-Serif" font-size="10.00"> model_details</text>
</g>
<!-- Node6&#45;&gt;Node1 -->
<g id="edge13" class="edge"><title>Node6&#45;&gt;Node1</title>
<path fill="none" stroke="#9a32cd" stroke-dasharray="5,2" d="M285.187,-317.88C298.108,-318.758 312.079,-319.56 325,-320 354.761,-321.013 362.311,-322.302 392,-320 451.839,-315.36 520.351,-303.441 562.779,-295.273"/>
<polygon fill="#9a32cd" stroke="#9a32cd" points="285.311,-314.38 275.089,-317.165 284.817,-321.362 285.311,-314.38"/>
<text text-anchor="middle" x="439.5" y="-321" font-family="Helvetica,sans-Serif" font-size="10.00"> P</text>
</g>
<!-- Node6&#45;&gt;Node2 -->
<g id="edge5" class="edge"><title>Node6&#45;&gt;Node2</title>
<path fill="none" stroke="#9a32cd" stroke-dasharray="5,2" d="M285.296,-310.224C324.464,-306.279 375.743,-298.829 392,-286 423.393,-261.228 434.078,-210.917 437.28,-189.741"/>
<polygon fill="#9a32cd" stroke="#9a32cd" points="284.74,-306.761 275.119,-311.199 285.407,-313.729 284.74,-306.761"/>
<text text-anchor="middle" x="358.5" y="-308" font-family="Helvetica,sans-Serif" font-size="10.00"> params</text>
</g>
<!-- Node7 -->
<g id="node7" class="node"><title>Node7</title>
<g id="a_node7"><a xlink:href="group__hard__constraints.html#structvrna__hc__s" target="_top" xlink:title="The hard constraints data structure. ">
<polygon fill="none" stroke="black" points="205,-152.5 205,-171.5 267,-171.5 267,-152.5 205,-152.5"/>
<text text-anchor="middle" x="236" y="-159.5" font-family="Helvetica,sans-Serif" font-size="10.00">vrna_hc_s</text>
</a>
</g>
</g>
<!-- Node7&#45;&gt;Node2 -->
<g id="edge7" class="edge"><title>Node7&#45;&gt;Node2</title>
<path fill="none" stroke="#9a32cd" stroke-dasharray="5,2" d="M277.378,-159.575C308.834,-158.455 353.482,-158.559 392,-165 399.028,-166.175 406.45,-168.194 413.251,-170.377"/>
<polygon fill="#9a32cd" stroke="#9a32cd" points="277.091,-156.083 267.244,-159.994 277.38,-163.077 277.091,-156.083"/>
<text text-anchor="middle" x="358.5" y="-168" font-family="Helvetica,sans-Serif" font-size="10.00"> hc</text>
</g>
<!-- Node8 -->
<g id="node8" class="node"><title>Node8</title>
<g id="a_node8"><a xlink:href="group__domains__up.html#structvrna__unstructured__domain__s" target="_top" xlink:title="Data structure to store all functionality for ligand binding. ">
<polygon fill="none" stroke="black" points="165,-114.5 165,-133.5 307,-133.5 307,-114.5 165,-114.5"/>
<text text-anchor="middle" x="236" y="-121.5" font-family="Helvetica,sans-Serif" font-size="10.00">vrna_unstructured_domain_s</text>
</a>
</g>
</g>
<!-- Node8&#45;&gt;Node2 -->
<g id="edge8" class="edge"><title>Node8&#45;&gt;Node2</title>
<path fill="none" stroke="#9a32cd" stroke-dasharray="5,2" d="M317.305,-127.05C341.957,-130.035 368.71,-135.428 392,-145 406.205,-150.838 419.935,-162.082 428.746,-170.255"/>
<polygon fill="#9a32cd" stroke="#9a32cd" points="317.571,-123.558 307.249,-125.948 316.809,-130.516 317.571,-123.558"/>
<text text-anchor="middle" x="358.5" y="-148" font-family="Helvetica,sans-Serif" font-size="10.00"> domains_up</text>
</g>
<!-- Node9 -->
<g id="node9" class="node"><title>Node9</title>
<g id="a_node9"><a xlink:href="group__dp__matrices.html#structvrna__mx__mfe__s" target="_top" xlink:title="Minimum Free Energy (MFE) Dynamic Programming (DP) matrices data structure required within the vrna_f...">
<polygon fill="none" stroke="black" points="193,-76.5 193,-95.5 279,-95.5 279,-76.5 193,-76.5"/>
<text text-anchor="middle" x="236" y="-83.5" font-family="Helvetica,sans-Serif" font-size="10.00">vrna_mx_mfe_s</text>
</a>
</g>
</g>
<!-- Node9&#45;&gt;Node2 -->
<g id="edge9" class="edge"><title>Node9&#45;&gt;Node2</title>
<path fill="none" stroke="#9a32cd" stroke-dasharray="5,2" d="M289.31,-85.6704C321.193,-87.7286 361.525,-94.5578 392,-114 413.506,-127.72 427.936,-155.291 434.481,-170.083"/>
<polygon fill="#9a32cd" stroke="#9a32cd" points="289.443,-82.1728 279.278,-85.1599 289.087,-89.1637 289.443,-82.1728"/>
<text text-anchor="middle" x="358.5" y="-117" font-family="Helvetica,sans-Serif" font-size="10.00"> matrices</text>
</g>
<!-- Node10 -->
<g id="node10" class="node"><title>Node10</title>
<g id="a_node10"><a xlink:href="structvrna__gr__aux__s.html" target="_top" xlink:title="vrna_gr_aux_s">
<polygon fill="none" stroke="black" points="196,-38.5 196,-57.5 276,-57.5 276,-38.5 196,-38.5"/>
<text text-anchor="middle" x="236" y="-45.5" font-family="Helvetica,sans-Serif" font-size="10.00">vrna_gr_aux_s</text>
</a>
</g>
</g>
<!-- Node10&#45;&gt;Node2 -->
<g id="edge10" class="edge"><title>Node10&#45;&gt;Node2</title>
<path fill="none" stroke="#9a32cd" stroke-dasharray="5,2" d="M286.46,-45.5284C319.537,-46.4046 362.281,-52.7184 392,-76 422.983,-100.272 433.895,-149.652 437.219,-170.438"/>
<polygon fill="#9a32cd" stroke="#9a32cd" points="286.125,-42.0249 276.089,-45.4204 286.052,-49.0245 286.125,-42.0249"/>
<text text-anchor="middle" x="358.5" y="-79" font-family="Helvetica,sans-Serif" font-size="10.00"> aux_grammar</text>
</g>
<!-- Node11 -->
<g id="node11" class="node"><title>Node11</title>
<g id="a_node11"><a xlink:href="group__dp__matrices.html#structvrna__mx__pf__s" target="_top" xlink:title="Partition function (PF) Dynamic Programming (DP) matrices data structure required within the vrna_fol...">
<polygon fill="none" stroke="black" points="197,-0.5 197,-19.5 275,-19.5 275,-0.5 197,-0.5"/>
<text text-anchor="middle" x="236" y="-7.5" font-family="Helvetica,sans-Serif" font-size="10.00">vrna_mx_pf_s</text>
</a>
</g>
</g>
<!-- Node11&#45;&gt;Node2 -->
<g id="edge11" class="edge"><title>Node11&#45;&gt;Node2</title>
<path fill="none" stroke="#9a32cd" stroke-dasharray="5,2" d="M285.148,-5.43174C318.846,-4.90897 362.875,-9.95636 392,-35 433.694,-70.8508 438.332,-144.167 438.606,-170.4"/>
<polygon fill="#9a32cd" stroke="#9a32cd" points="284.932,-1.93679 275.049,-5.75683 285.157,-8.93317 284.932,-1.93679"/>
<text text-anchor="middle" x="358.5" y="-38" font-family="Helvetica,sans-Serif" font-size="10.00"> exp_matrices</text>
</g>
<!-- Node12 -->
<g id="node12" class="node"><title>Node12</title>
<g id="a_node12"><a xlink:href="structvrna__structured__domains__s.html" target="_top" xlink:title="vrna_structured_domains_s">
<polygon fill="none" stroke="black" points="167.5,-190.5 167.5,-209.5 304.5,-209.5 304.5,-190.5 167.5,-190.5"/>
<text text-anchor="middle" x="236" y="-197.5" font-family="Helvetica,sans-Serif" font-size="10.00">vrna_structured_domains_s</text>
</a>
</g>
</g>
<!-- Node12&#45;&gt;Node2 -->
<g id="edge12" class="edge"><title>Node12&#45;&gt;Node2</title>
<path fill="none" stroke="#9a32cd" stroke-dasharray="5,2" d="M314.87,-192.271C348.198,-188.963 385.053,-185.305 409.778,-182.851"/>
<polygon fill="#9a32cd" stroke="#9a32cd" points="314.263,-188.814 304.657,-193.285 314.954,-195.78 314.263,-188.814"/>
<text text-anchor="middle" x="358.5" y="-195" font-family="Helvetica,sans-Serif" font-size="10.00"> domains_struc</text>
</g>
</g>
</svg>
