<?xml version="1.0" encoding="UTF-8" standalone="no"?>
<!DOCTYPE svg PUBLIC "-//W3C//DTD SVG 1.1//EN"
 "http://www.w3.org/Graphics/SVG/1.1/DTD/svg11.dtd">
<!-- Generated by graphviz version 2.38.0 (20140413.2041)
 -->
<!-- Title: ViennaRNA/unstructured_domains.h Pages: 1 -->
<svg width="1022pt" height="285pt"
 viewBox="0.00 0.00 1021.50 285.00" xmlns="http://www.w3.org/2000/svg" xmlns:xlink="http://www.w3.org/1999/xlink">
<g id="graph0" class="graph" transform="scale(1 1) rotate(0) translate(4 281)">
<title>ViennaRNA/unstructured_domains.h</title>
<!-- Node1 -->
<g id="node1" class="node"><title>Node1</title>
<polygon fill="#bfbfbf" stroke="black" points="457.5,-246.5 457.5,-276.5 582.5,-276.5 582.5,-246.5 457.5,-246.5"/>
<text text-anchor="start" x="465.5" y="-264.5" font-family="Helvetica,sans-Serif" font-size="10.00">ViennaRNA/unstructured</text>
<text text-anchor="middle" x="520" y="-253.5" font-family="Helvetica,sans-Serif" font-size="10.00">_domains.h</text>
</g>
<!-- Node2 -->
<g id="node2" class="node"><title>Node2</title>
<g id="a_node2"><a xlink:href="data__structures_8h.html" target="_top" xlink:title="Various data structures and pre&#45;processor macros. ">
<polygon fill="none" stroke="black" points="446.5,-190.5 446.5,-209.5 593.5,-209.5 593.5,-190.5 446.5,-190.5"/>
<text text-anchor="middle" x="520" y="-197.5" font-family="Helvetica,sans-Serif" font-size="10.00">ViennaRNA/data_structures.h</text>
</a>
</g>
</g>
<!-- Node1&#45;&gt;Node2 -->
<g id="edge1" class="edge"><title>Node1&#45;&gt;Node2</title>
<path fill="none" stroke="midnightblue" d="M514.16,-246.399C513.13,-238.377 512.974,-228.233 513.693,-219.569"/>
<polygon fill="midnightblue" stroke="midnightblue" points="517.16,-220.044 515.071,-209.658 510.227,-219.081 517.16,-220.044"/>
</g>
<!-- Node2&#45;&gt;Node1 -->
<g id="edge26" class="edge"><title>Node2&#45;&gt;Node1</title>
<path fill="none" stroke="midnightblue" d="M524.929,-209.658C526.435,-216.655 527.007,-226.857 526.645,-236.289"/>
<polygon fill="midnightblue" stroke="midnightblue" points="523.145,-236.153 525.84,-246.399 530.123,-236.709 523.145,-236.153"/>
</g>
<!-- Node3 -->
<g id="node3" class="node"><title>Node3</title>
<g id="a_node3"><a xlink:href="energy__const_8h.html" target="_top" xlink:title="Energy parameter constants. ">
<polygon fill="none" stroke="black" points="0,-62 0,-81 138,-81 138,-62 0,-62"/>
<text text-anchor="middle" x="69" y="-69" font-family="Helvetica,sans-Serif" font-size="10.00">ViennaRNA/energy_const.h</text>
</a>
</g>
</g>
<!-- Node2&#45;&gt;Node3 -->
<g id="edge2" class="edge"><title>Node2&#45;&gt;Node3</title>
<path fill="none" stroke="midnightblue" d="M446.138,-195.424C332.156,-189.271 123.674,-175.26 97,-154 78.0179,-138.871 71.8498,-110.182 69.8778,-91.1989"/>
<polygon fill="midnightblue" stroke="midnightblue" points="73.3574,-90.7927 69.1257,-81.0797 66.3767,-91.3116 73.3574,-90.7927"/>
</g>
<!-- Node5 -->
<g id="node5" class="node"><title>Node5</title>
<g id="a_node5"><a xlink:href="model_8h.html" target="_top" xlink:title="The model details data structure and its corresponding modifiers. ">
<polygon fill="none" stroke="black" points="156,-62 156,-81 262,-81 262,-62 156,-62"/>
<text text-anchor="middle" x="209" y="-69" font-family="Helvetica,sans-Serif" font-size="10.00">ViennaRNA/model.h</text>
</a>
</g>
</g>
<!-- Node2&#45;&gt;Node5 -->
<g id="edge4" class="edge"><title>Node2&#45;&gt;Node5</title>
<path fill="none" stroke="midnightblue" d="M446.236,-192.35C381.882,-185.412 294.347,-172.882 265,-154 241.246,-138.717 224.894,-109.414 216.241,-90.4252"/>
<polygon fill="midnightblue" stroke="midnightblue" points="219.393,-88.8959 212.228,-81.0916 212.963,-91.661 219.393,-88.8959"/>
</g>
<!-- Node6 -->
<g id="node6" class="node"><title>Node6</title>
<g id="a_node6"><a xlink:href="params_8h.html" target="_top" xlink:title="Functions to deal with sets of energy parameters. ">
<polygon fill="none" stroke="black" points="106,-129 106,-148 218,-148 218,-129 106,-129"/>
<text text-anchor="middle" x="162" y="-136" font-family="Helvetica,sans-Serif" font-size="10.00">ViennaRNA/params.h</text>
</a>
</g>
</g>
<!-- Node2&#45;&gt;Node6 -->
<g id="edge5" class="edge"><title>Node2&#45;&gt;Node6</title>
<path fill="none" stroke="midnightblue" d="M452.826,-190.465C392.361,-181.991 301.423,-168.24 223,-154 216.509,-152.821 209.696,-151.507 203.054,-150.164"/>
<polygon fill="midnightblue" stroke="midnightblue" points="203.332,-146.647 192.83,-148.046 201.912,-153.502 203.332,-146.647"/>
</g>
<!-- Node7 -->
<g id="node7" class="node"><title>Node7</title>
<g id="a_node7"><a xlink:href="dp__matrices_8h.html" target="_top" xlink:title="Functions to deal with standard dynamic programming (DP) matrices. ">
<polygon fill="none" stroke="black" points="274.5,-129 274.5,-148 407.5,-148 407.5,-129 274.5,-129"/>
<text text-anchor="middle" x="341" y="-136" font-family="Helvetica,sans-Serif" font-size="10.00">ViennaRNA/dp_matrices.h</text>
</a>
</g>
</g>
<!-- Node2&#45;&gt;Node7 -->
<g id="edge9" class="edge"><title>Node2&#45;&gt;Node7</title>
<path fill="none" stroke="midnightblue" d="M489.453,-190.475C456.38,-180.225 404.23,-162.959 371.272,-151.399"/>
<polygon fill="midnightblue" stroke="midnightblue" points="372.296,-148.049 361.702,-148.009 369.959,-154.648 372.296,-148.049"/>
</g>
<!-- Node8 -->
<g id="node8" class="node"><title>Node8</title>
<g id="a_node8"><a xlink:href="constraints_8h.html" target="_top" xlink:title="Functions and data structures for constraining secondary structure predictions and evaluation...">
<polygon fill="none" stroke="black" points="502,-129 502,-148 630,-148 630,-129 502,-129"/>
<text text-anchor="middle" x="566" y="-136" font-family="Helvetica,sans-Serif" font-size="10.00">ViennaRNA/constraints.h</text>
</a>
</g>
</g>
<!-- Node2&#45;&gt;Node8 -->
<g id="edge11" class="edge"><title>Node2&#45;&gt;Node8</title>
<path fill="none" stroke="midnightblue" d="M521.69,-190.475C526.742,-181.373 537.667,-166.741 547.582,-155.483"/>
<polygon fill="midnightblue" stroke="midnightblue" points="550.283,-157.718 554.524,-148.009 545.154,-152.954 550.283,-157.718"/>
</g>
<!-- Node14 -->
<g id="node14" class="node"><title>Node14</title>
<g id="a_node14"><a xlink:href="grammar_8h.html" target="_top" xlink:title="Implementations for the RNA folding grammar. ">
<polygon fill="none" stroke="black" points="762,-129 762,-148 880,-148 880,-129 762,-129"/>
<text text-anchor="middle" x="821" y="-136" font-family="Helvetica,sans-Serif" font-size="10.00">ViennaRNA/grammar.h</text>
</a>
</g>
</g>
<!-- Node2&#45;&gt;Node14 -->
<g id="edge23" class="edge"><title>Node2&#45;&gt;Node14</title>
<path fill="none" stroke="midnightblue" d="M556.59,-190.473C600.152,-181.434 674.685,-166.734 739,-154 745.557,-152.702 752.446,-151.336 759.338,-149.983"/>
<polygon fill="midnightblue" stroke="midnightblue" points="760.255,-153.37 769.4,-148.019 758.915,-146.5 760.255,-153.37"/>
</g>
<!-- Node15 -->
<g id="node15" class="node"><title>Node15</title>
<g id="a_node15"><a xlink:href="structured__domains_8h.html" target="_top" xlink:title="This module provides interfaces that deal with additional structured domains in the folding grammar...">
<polygon fill="none" stroke="black" points="898.5,-123.5 898.5,-153.5 1013.5,-153.5 1013.5,-123.5 898.5,-123.5"/>
<text text-anchor="start" x="906.5" y="-141.5" font-family="Helvetica,sans-Serif" font-size="10.00">ViennaRNA/structured</text>
<text text-anchor="middle" x="956" y="-130.5" font-family="Helvetica,sans-Serif" font-size="10.00">_domains.h</text>
</a>
</g>
</g>
<!-- Node2&#45;&gt;Node15 -->
<g id="edge25" class="edge"><title>Node2&#45;&gt;Node15</title>
<path fill="none" stroke="midnightblue" d="M593.799,-192.013C666.234,-184.698 780.036,-171.988 888.208,-154.031"/>
<polygon fill="midnightblue" stroke="midnightblue" points="889.039,-157.441 898.321,-152.334 887.88,-150.538 889.039,-157.441"/>
</g>
<!-- Node4 -->
<g id="node4" class="node"><title>Node4</title>
<polygon fill="none" stroke="#bfbfbf" points="45,-0.5 45,-19.5 93,-19.5 93,-0.5 45,-0.5"/>
<text text-anchor="middle" x="69" y="-7.5" font-family="Helvetica,sans-Serif" font-size="10.00">limits.h</text>
</g>
<!-- Node3&#45;&gt;Node4 -->
<g id="edge3" class="edge"><title>Node3&#45;&gt;Node4</title>
<path fill="none" stroke="midnightblue" d="M69,-61.9751C69,-53.5803 69,-40.4806 69,-29.6631"/>
<polygon fill="midnightblue" stroke="midnightblue" points="72.5001,-29.5091 69,-19.5091 65.5001,-29.5091 72.5001,-29.5091"/>
</g>
<!-- Node6&#45;&gt;Node2 -->
<g id="edge7" class="edge"><title>Node6&#45;&gt;Node2</title>
<path fill="none" stroke="midnightblue" d="M210.26,-148.046C220.469,-150.093 231.109,-152.204 241,-154 314.828,-167.406 399.747,-180.378 456.395,-188.922"/>
<polygon fill="midnightblue" stroke="midnightblue" points="456.224,-192.436 466.634,-190.465 457.268,-185.514 456.224,-192.436"/>
</g>
<!-- Node6&#45;&gt;Node3 -->
<g id="edge6" class="edge"><title>Node6&#45;&gt;Node3</title>
<path fill="none" stroke="midnightblue" d="M149.458,-128.734C134.119,-118.013 107.941,-99.7165 89.6227,-86.9137"/>
<polygon fill="midnightblue" stroke="midnightblue" points="91.5452,-83.9873 81.3437,-81.1273 87.5351,-89.7248 91.5452,-83.9873"/>
</g>
<!-- Node6&#45;&gt;Node5 -->
<g id="edge8" class="edge"><title>Node6&#45;&gt;Node5</title>
<path fill="none" stroke="midnightblue" d="M168.339,-128.734C175.597,-118.695 187.659,-102.014 196.765,-89.4213"/>
<polygon fill="midnightblue" stroke="midnightblue" points="199.739,-91.2816 202.762,-81.1273 194.066,-87.18 199.739,-91.2816"/>
</g>
<!-- Node7&#45;&gt;Node2 -->
<g id="edge10" class="edge"><title>Node7&#45;&gt;Node2</title>
<path fill="none" stroke="midnightblue" d="M371.496,-148.009C404.55,-158.252 456.699,-175.517 489.678,-187.083"/>
<polygon fill="midnightblue" stroke="midnightblue" points="488.659,-190.435 499.254,-190.475 490.997,-183.837 488.659,-190.435"/>
</g>
<!-- Node8&#45;&gt;Node2 -->
<g id="edge12" class="edge"><title>Node8&#45;&gt;Node2</title>
<path fill="none" stroke="midnightblue" d="M564.319,-148.009C559.274,-157.104 548.351,-171.736 538.435,-182.997"/>
<polygon fill="midnightblue" stroke="midnightblue" points="535.731,-180.766 531.491,-190.475 540.861,-185.529 535.731,-180.766"/>
</g>
<!-- Node9 -->
<g id="node9" class="node"><title>Node9</title>
<g id="a_node9"><a xlink:href="constraints__hard_8h.html" target="_top" xlink:title="Functions and data structures for handling of secondary structure hard constraints. ">
<polygon fill="none" stroke="black" points="280.5,-56.5 280.5,-86.5 399.5,-86.5 399.5,-56.5 280.5,-56.5"/>
<text text-anchor="start" x="288.5" y="-74.5" font-family="Helvetica,sans-Serif" font-size="10.00">ViennaRNA/constraints</text>
<text text-anchor="middle" x="340" y="-63.5" font-family="Helvetica,sans-Serif" font-size="10.00">_hard.h</text>
</a>
</g>
</g>
<!-- Node8&#45;&gt;Node9 -->
<g id="edge13" class="edge"><title>Node8&#45;&gt;Node9</title>
<path fill="none" stroke="midnightblue" d="M535.989,-128.869C501.049,-118.819 442.518,-101.985 398.497,-89.3243"/>
<polygon fill="midnightblue" stroke="midnightblue" points="399.352,-85.9285 388.775,-86.5281 397.417,-92.6558 399.352,-85.9285"/>
</g>
<!-- Node10 -->
<g id="node10" class="node"><title>Node10</title>
<g id="a_node10"><a xlink:href="constraints__soft_8h.html" target="_top" xlink:title="Functions and data structures for secondary structure soft constraints. ">
<polygon fill="none" stroke="black" points="417.5,-56.5 417.5,-86.5 536.5,-86.5 536.5,-56.5 417.5,-56.5"/>
<text text-anchor="start" x="425.5" y="-74.5" font-family="Helvetica,sans-Serif" font-size="10.00">ViennaRNA/constraints</text>
<text text-anchor="middle" x="477" y="-63.5" font-family="Helvetica,sans-Serif" font-size="10.00">_soft.h</text>
</a>
</g>
</g>
<!-- Node8&#45;&gt;Node10 -->
<g id="edge15" class="edge"><title>Node8&#45;&gt;Node10</title>
<path fill="none" stroke="midnightblue" d="M553.997,-128.734C541.391,-119.527 521.134,-104.733 504.562,-92.6293"/>
<polygon fill="midnightblue" stroke="midnightblue" points="506.431,-89.6605 496.291,-86.589 502.302,-95.3134 506.431,-89.6605"/>
</g>
<!-- Node11 -->
<g id="node11" class="node"><title>Node11</title>
<g id="a_node11"><a xlink:href="constraints__SHAPE_8h.html" target="_top" xlink:title="This module provides function to incorporate SHAPE reactivity data into the folding recursions by mea...">
<polygon fill="none" stroke="black" points="554.5,-56.5 554.5,-86.5 673.5,-86.5 673.5,-56.5 554.5,-56.5"/>
<text text-anchor="start" x="562.5" y="-74.5" font-family="Helvetica,sans-Serif" font-size="10.00">ViennaRNA/constraints</text>
<text text-anchor="middle" x="614" y="-63.5" font-family="Helvetica,sans-Serif" font-size="10.00">_SHAPE.h</text>
</a>
</g>
</g>
<!-- Node8&#45;&gt;Node11 -->
<g id="edge17" class="edge"><title>Node8&#45;&gt;Node11</title>
<path fill="none" stroke="midnightblue" d="M572.473,-128.734C578.898,-120.034 589.007,-106.345 597.642,-94.6511"/>
<polygon fill="midnightblue" stroke="midnightblue" points="600.471,-96.7125 603.596,-86.589 594.84,-92.5542 600.471,-96.7125"/>
</g>
<!-- Node12 -->
<g id="node12" class="node"><title>Node12</title>
<g id="a_node12"><a xlink:href="perturbation__fold_8h.html" target="_top" xlink:title="Find a vector of perturbation energies that minimizes the discripancies between predicted and observe...">
<polygon fill="none" stroke="black" points="692,-56.5 692,-86.5 814,-86.5 814,-56.5 692,-56.5"/>
<text text-anchor="start" x="700" y="-74.5" font-family="Helvetica,sans-Serif" font-size="10.00">ViennaRNA/perturbation</text>
<text text-anchor="middle" x="753" y="-63.5" font-family="Helvetica,sans-Serif" font-size="10.00">_fold.h</text>
</a>
</g>
</g>
<!-- Node8&#45;&gt;Node12 -->
<g id="edge19" class="edge"><title>Node8&#45;&gt;Node12</title>
<path fill="none" stroke="midnightblue" d="M590.832,-128.869C619.257,-118.988 666.551,-102.549 702.751,-89.9662"/>
<polygon fill="midnightblue" stroke="midnightblue" points="704.346,-93.1174 712.642,-86.5281 702.048,-86.5054 704.346,-93.1174"/>
</g>
<!-- Node13 -->
<g id="node13" class="node"><title>Node13</title>
<g id="a_node13"><a xlink:href="constraints__ligand_8h.html" target="_top" xlink:title="Functions for incorporation of ligands binding to hairpin and interior loop motifs using the soft con...">
<polygon fill="none" stroke="black" points="832.5,-56.5 832.5,-86.5 951.5,-86.5 951.5,-56.5 832.5,-56.5"/>
<text text-anchor="start" x="840.5" y="-74.5" font-family="Helvetica,sans-Serif" font-size="10.00">ViennaRNA/constraints</text>
<text text-anchor="middle" x="892" y="-63.5" font-family="Helvetica,sans-Serif" font-size="10.00">_ligand.h</text>
</a>
</g>
</g>
<!-- Node8&#45;&gt;Node13 -->
<g id="edge21" class="edge"><title>Node8&#45;&gt;Node13</title>
<path fill="none" stroke="midnightblue" d="M610.606,-128.919C659.888,-119.397 741.866,-103.438 822.364,-87.1148"/>
<polygon fill="midnightblue" stroke="midnightblue" points="823.068,-90.5434 832.171,-85.1229 821.674,-83.6835 823.068,-90.5434"/>
</g>
<!-- Node9&#45;&gt;Node2 -->
<g id="edge14" class="edge"><title>Node9&#45;&gt;Node2</title>
<path fill="none" stroke="midnightblue" d="M361.794,-86.6122C377.082,-96.6015 397.936,-110.407 416,-123 445.857,-143.813 479.785,-168.88 500.54,-184.379"/>
<polygon fill="midnightblue" stroke="midnightblue" points="498.475,-187.206 508.579,-190.396 502.67,-181.602 498.475,-187.206"/>
</g>
<!-- Node10&#45;&gt;Node2 -->
<g id="edge16" class="edge"><title>Node10&#45;&gt;Node2</title>
<path fill="none" stroke="midnightblue" d="M478.29,-86.7551C480.131,-103.356 484.305,-131.39 493,-154 496.714,-163.657 502.446,-173.602 507.675,-181.678"/>
<polygon fill="midnightblue" stroke="midnightblue" points="504.924,-183.857 513.431,-190.172 510.718,-179.93 504.924,-183.857"/>
</g>
<!-- Node11&#45;&gt;Node2 -->
<g id="edge18" class="edge"><title>Node11&#45;&gt;Node2</title>
<path fill="none" stroke="midnightblue" d="M625.196,-86.602C637.399,-103.81 653.387,-133.179 639,-154 627.773,-170.248 609.872,-180.636 591.328,-187.275"/>
<polygon fill="midnightblue" stroke="midnightblue" points="590.044,-184.011 581.604,-190.416 592.196,-190.672 590.044,-184.011"/>
</g>
<!-- Node12&#45;&gt;Node2 -->
<g id="edge20" class="edge"><title>Node12&#45;&gt;Node2</title>
<path fill="none" stroke="midnightblue" d="M739.5,-86.7968C721.843,-104.753 689.225,-135.452 656,-154 628.561,-169.318 595.076,-180.478 568.198,-187.852"/>
<polygon fill="midnightblue" stroke="midnightblue" points="567.014,-184.545 558.247,-190.494 568.81,-191.311 567.014,-184.545"/>
</g>
<!-- Node13&#45;&gt;Node2 -->
<g id="edge22" class="edge"><title>Node13&#45;&gt;Node2</title>
<path fill="none" stroke="midnightblue" d="M849.198,-86.5406C821.44,-96.014 784.68,-109.256 753,-123 725.101,-135.104 720.429,-143.201 692,-154 653.001,-168.815 607.238,-180.53 572.724,-188.289"/>
<polygon fill="midnightblue" stroke="midnightblue" points="571.859,-184.895 562.849,-190.47 573.369,-191.73 571.859,-184.895"/>
</g>
<!-- Node14&#45;&gt;Node2 -->
<g id="edge24" class="edge"><title>Node14&#45;&gt;Node2</title>
<path fill="none" stroke="midnightblue" d="M786.91,-148.019C777.253,-149.986 766.76,-152.068 757,-154 696.956,-165.889 628.006,-179.49 579.92,-188.599"/>
<polygon fill="midnightblue" stroke="midnightblue" points="579.164,-185.18 569.986,-190.473 580.462,-192.059 579.164,-185.18"/>
</g>
</g>
</svg>
