<?xml version="1.0" encoding="UTF-8" standalone="no"?>
<!DOCTYPE svg PUBLIC "-//W3C//DTD SVG 1.1//EN"
 "http://www.w3.org/Graphics/SVG/1.1/DTD/svg11.dtd">
<!-- Generated by graphviz version 2.38.0 (20140413.2041)
 -->
<!-- Title: ViennaRNA/utils.h Pages: 1 -->
<!--zoomable 341 -->
<svg id="main" version="1.1" xmlns="http://www.w3.org/2000/svg" xmlns:xlink="http://www.w3.org/1999/xlink" xml:space="preserve" onload="init(evt)">
<style type="text/css"><![CDATA[
.edge:hover path { stroke: red; }
.edge:hover polygon { stroke: red; fill: red; }
]]></style>
<script type="text/javascript"><![CDATA[
var edges = document.getElementsByTagName('g');
if (edges && edges.length) {
  for (var i=0;i<edges.length;i++) {
    if (edges[i].id.substr(0,4)=='edge') {
      edges[i].setAttribute('class','edge');
    }
  }
}
]]></script>
        <defs>
                <circle id="rim" cx="0" cy="0" r="7"/>
                <circle id="rim2" cx="0" cy="0" r="3.5"/>
                <g id="zoomPlus">
                        <use xlink:href="#rim" fill="#404040">
                                <set attributeName="fill" to="#808080" begin="zoomplus.mouseover" end="zoomplus.mouseout"/>
                        </use>
                        <path d="M-4,0h8M0,-4v8" fill="none" stroke="white" stroke-width="1.5" pointer-events="none"/>
                </g>
                <g id="zoomMin">
                        <use xlink:href="#rim" fill="#404040">
                                <set attributeName="fill" to="#808080" begin="zoomminus.mouseover" end="zoomminus.mouseout"/>
                        </use>
                        <path d="M-4,0h8" fill="none" stroke="white" stroke-width="1.5" pointer-events="none"/>
                </g>
                <g id="dirArrow">
                        <path fill="none" stroke="white" stroke-width="1.5" d="M0,-3.0v7 M-2.5,-0.5L0,-3.0L2.5,-0.5"/>
                </g>
               <g id="resetDef">
                       <use xlink:href="#rim2" fill="#404040">
                               <set attributeName="fill" to="#808080" begin="reset.mouseover" end="reset.mouseout"/>
                       </use>
               </g>
        </defs>

<script type="text/javascript">
var viewWidth = 1194;
var viewHeight = 341;
var sectionId = 'dynsection-0';
</script>
<script xlink:href="svgpan.js"/>
<svg id="graph" class="graph">
<g id="viewport">
<title>ViennaRNA/utils.h</title>
<!-- Node1 -->
<g id="node1" class="node"><title>Node1</title>
<polygon fill="#bfbfbf" stroke="black" points="492,-313.5 492,-332.5 590,-332.5 590,-313.5 492,-313.5"/>
<text text-anchor="middle" x="541" y="-320.5" font-family="Helvetica,sans-Serif" font-size="10.00">ViennaRNA/utils.h</text>
</g>
<!-- Node2 -->
<g id="node2" class="node"><title>Node2</title>
<polygon fill="none" stroke="#bfbfbf" points="315,-190.5 315,-209.5 361,-209.5 361,-190.5 315,-190.5"/>
<text text-anchor="middle" x="338" y="-197.5" font-family="Helvetica,sans-Serif" font-size="10.00">stdio.h</text>
</g>
<!-- Node1&#45;&gt;Node2 -->
<g id="edge1" class="edge"><title>Node1&#45;&gt;Node2</title>
<path fill="none" stroke="midnightblue" d="M491.676,-315.87C443.519,-308.886 374.817,-295.931 356,-277 341.166,-262.076 337.702,-237.317 337.274,-220.132"/>
<polygon fill="midnightblue" stroke="midnightblue" points="340.778,-219.687 337.361,-209.658 333.778,-219.629 340.778,-219.687"/>
</g>
<!-- Node3 -->
<g id="node3" class="node"><title>Node3</title>
<polygon fill="none" stroke="#bfbfbf" points="697,-190.5 697,-209.5 749,-209.5 749,-190.5 697,-190.5"/>
<text text-anchor="middle" x="723" y="-197.5" font-family="Helvetica,sans-Serif" font-size="10.00">stdarg.h</text>
</g>
<!-- Node1&#45;&gt;Node3 -->
<g id="edge2" class="edge"><title>Node1&#45;&gt;Node3</title>
<path fill="none" stroke="midnightblue" d="M590.369,-321.295C626.937,-318.075 675.369,-307.694 705,-277 719.615,-261.861 723.125,-237.148 723.624,-220.032"/>
<polygon fill="midnightblue" stroke="midnightblue" points="727.122,-219.595 723.587,-209.607 720.122,-219.619 727.122,-219.595"/>
</g>
<!-- Node4 -->
<g id="node4" class="node"><title>Node4</title>
<g id="a_node4"><a xlink:href="data__structures_8h.html" target="_top" xlink:title="Various data structures and pre&#45;processor macros. ">
<polygon fill="none" stroke="black" points="521.5,-190.5 521.5,-209.5 668.5,-209.5 668.5,-190.5 521.5,-190.5"/>
<text text-anchor="middle" x="595" y="-197.5" font-family="Helvetica,sans-Serif" font-size="10.00">ViennaRNA/data_structures.h</text>
</a>
</g>
</g>
<!-- Node1&#45;&gt;Node4 -->
<g id="edge3" class="edge"><title>Node1&#45;&gt;Node4</title>
<path fill="none" stroke="midnightblue" d="M542.001,-313.162C543.915,-298.559 548.928,-268.745 560,-246 565.08,-235.564 572.85,-225.247 579.779,-217.129"/>
<polygon fill="midnightblue" stroke="midnightblue" points="582.496,-219.342 586.549,-209.553 577.276,-214.678 582.496,-219.342"/>
</g>
<!-- Node19 -->
<g id="node19" class="node"><title>Node19</title>
<g id="a_node19"><a xlink:href="string__utils_8h.html" target="_top" xlink:title="General utility&#45; and helper&#45;functions for RNA sequence and structure strings used throughout the Vien...">
<polygon fill="none" stroke="black" points="569.5,-252 569.5,-271 696.5,-271 696.5,-252 569.5,-252"/>
<text text-anchor="middle" x="633" y="-259" font-family="Helvetica,sans-Serif" font-size="10.00">ViennaRNA/string_utils.h</text>
</a>
</g>
</g>
<!-- Node1&#45;&gt;Node19 -->
<g id="edge30" class="edge"><title>Node1&#45;&gt;Node19</title>
<path fill="none" stroke="midnightblue" d="M554.181,-313.475C569.074,-303.843 593.544,-288.017 611.273,-276.552"/>
<polygon fill="midnightblue" stroke="midnightblue" points="613.347,-279.379 619.843,-271.009 609.545,-273.501 613.347,-279.379"/>
</g>
<!-- Node20 -->
<g id="node20" class="node"><title>Node20</title>
<g id="a_node20"><a xlink:href="structure__utils_8h.html" target="_top" xlink:title="Various utility&#45; and helper&#45;functions for secondary structure parsing, converting, etc. ">
<polygon fill="none" stroke="black" points="365,-246.5 365,-276.5 475,-276.5 475,-246.5 365,-246.5"/>
<text text-anchor="start" x="373" y="-264.5" font-family="Helvetica,sans-Serif" font-size="10.00">ViennaRNA/structure</text>
<text text-anchor="middle" x="420" y="-253.5" font-family="Helvetica,sans-Serif" font-size="10.00">_utils.h</text>
</a>
</g>
</g>
<!-- Node1&#45;&gt;Node20 -->
<g id="edge33" class="edge"><title>Node1&#45;&gt;Node20</title>
<path fill="none" stroke="midnightblue" d="M523.664,-313.475C506.51,-305.04 479.697,-291.855 457.638,-281.008"/>
<polygon fill="midnightblue" stroke="midnightblue" points="459.036,-277.795 448.517,-276.523 455.947,-284.077 459.036,-277.795"/>
</g>
<!-- Node21 -->
<g id="node21" class="node"><title>Node21</title>
<g id="a_node21"><a xlink:href="file__utils_8h.html" target="_top" xlink:title="Several utilities for file handling. ">
<polygon fill="none" stroke="black" points="753,-252 753,-271 869,-271 869,-252 753,-252"/>
<text text-anchor="middle" x="811" y="-259" font-family="Helvetica,sans-Serif" font-size="10.00">ViennaRNA/file_utils.h</text>
</a>
</g>
</g>
<!-- Node1&#45;&gt;Node21 -->
<g id="edge36" class="edge"><title>Node1&#45;&gt;Node21</title>
<path fill="none" stroke="midnightblue" d="M579.684,-313.475C627.803,-302.871 709.987,-284.76 762.335,-273.224"/>
<polygon fill="midnightblue" stroke="midnightblue" points="763.375,-276.579 772.387,-271.009 761.868,-269.743 763.375,-276.579"/>
</g>
<!-- Node22 -->
<g id="node22" class="node"><title>Node22</title>
<g id="a_node22"><a xlink:href="alphabet_8h.html" target="_top" xlink:title="Functions to process, convert, and generally handle different nucleotide and/or base pair alphabets...">
<polygon fill="none" stroke="black" points="382,-190.5 382,-209.5 498,-209.5 498,-190.5 382,-190.5"/>
<text text-anchor="middle" x="440" y="-197.5" font-family="Helvetica,sans-Serif" font-size="10.00">ViennaRNA/alphabet.h</text>
</a>
</g>
</g>
<!-- Node1&#45;&gt;Node22 -->
<g id="edge37" class="edge"><title>Node1&#45;&gt;Node22</title>
<path fill="none" stroke="midnightblue" d="M535.024,-313.284C525.011,-298.855 503.969,-269.288 484,-246 475.287,-235.839 464.838,-225.099 456.309,-216.66"/>
<polygon fill="midnightblue" stroke="midnightblue" points="458.72,-214.123 449.121,-209.639 453.829,-219.131 458.72,-214.123"/>
</g>
<!-- Node5 -->
<g id="node5" class="node"><title>Node5</title>
<g id="a_node5"><a xlink:href="energy__const_8h.html" target="_top" xlink:title="Energy parameter constants. ">
<polygon fill="none" stroke="black" points="0,-62 0,-81 138,-81 138,-62 0,-62"/>
<text text-anchor="middle" x="69" y="-69" font-family="Helvetica,sans-Serif" font-size="10.00">ViennaRNA/energy_const.h</text>
</a>
</g>
</g>
<!-- Node4&#45;&gt;Node5 -->
<g id="edge4" class="edge"><title>Node4&#45;&gt;Node5</title>
<path fill="none" stroke="midnightblue" d="M521.063,-191.396C516.304,-190.92 511.585,-190.451 507,-190 422.365,-181.674 199.49,-196.798 126,-154 101.325,-139.63 84.7431,-109.815 76.0953,-90.5068"/>
<polygon fill="midnightblue" stroke="midnightblue" points="79.2105,-88.8857 72.1062,-81.0256 72.7583,-91.6004 79.2105,-88.8857"/>
</g>
<!-- Node7 -->
<g id="node7" class="node"><title>Node7</title>
<g id="a_node7"><a xlink:href="model_8h.html" target="_top" xlink:title="The model details data structure and its corresponding modifiers. ">
<polygon fill="none" stroke="black" points="156,-62 156,-81 262,-81 262,-62 156,-62"/>
<text text-anchor="middle" x="209" y="-69" font-family="Helvetica,sans-Serif" font-size="10.00">ViennaRNA/model.h</text>
</a>
</g>
</g>
<!-- Node4&#45;&gt;Node7 -->
<g id="edge6" class="edge"><title>Node4&#45;&gt;Node7</title>
<path fill="none" stroke="midnightblue" d="M522.376,-190.483C439.907,-180.445 314.128,-163.882 294,-154 277.727,-146.011 243.209,-109.979 223.533,-88.591"/>
<polygon fill="midnightblue" stroke="midnightblue" points="226.114,-86.2272 216.788,-81.2001 220.944,-90.9459 226.114,-86.2272"/>
</g>
<!-- Node8 -->
<g id="node8" class="node"><title>Node8</title>
<g id="a_node8"><a xlink:href="params_8h.html" target="_top" xlink:title="Functions to deal with sets of energy parameters. ">
<polygon fill="none" stroke="black" points="135,-129 135,-148 247,-148 247,-129 135,-129"/>
<text text-anchor="middle" x="191" y="-136" font-family="Helvetica,sans-Serif" font-size="10.00">ViennaRNA/params.h</text>
</a>
</g>
</g>
<!-- Node4&#45;&gt;Node8 -->
<g id="edge7" class="edge"><title>Node4&#45;&gt;Node8</title>
<path fill="none" stroke="midnightblue" d="M521.449,-191.408C451.679,-183.394 344.281,-169.754 252,-154 245.178,-152.835 238.006,-151.49 231.054,-150.098"/>
<polygon fill="midnightblue" stroke="midnightblue" points="231.593,-146.636 221.092,-148.041 230.177,-153.491 231.593,-146.636"/>
</g>
<!-- Node9 -->
<g id="node9" class="node"><title>Node9</title>
<g id="a_node9"><a xlink:href="dp__matrices_8h.html" target="_top" xlink:title="Functions to deal with standard dynamic programming (DP) matrices. ">
<polygon fill="none" stroke="black" points="303.5,-129 303.5,-148 436.5,-148 436.5,-129 303.5,-129"/>
<text text-anchor="middle" x="370" y="-136" font-family="Helvetica,sans-Serif" font-size="10.00">ViennaRNA/dp_matrices.h</text>
</a>
</g>
</g>
<!-- Node4&#45;&gt;Node9 -->
<g id="edge11" class="edge"><title>Node4&#45;&gt;Node9</title>
<path fill="none" stroke="midnightblue" d="M557.862,-190.475C516.069,-180.026 448.816,-162.287 407.06,-150.733"/>
<polygon fill="midnightblue" stroke="midnightblue" points="407.853,-147.321 397.28,-148.009 405.974,-154.064 407.853,-147.321"/>
</g>
<!-- Node10 -->
<g id="node10" class="node"><title>Node10</title>
<g id="a_node10"><a xlink:href="constraints_8h.html" target="_top" xlink:title="Functions and data structures for constraining secondary structure predictions and evaluation...">
<polygon fill="none" stroke="black" points="531,-129 531,-148 659,-148 659,-129 531,-129"/>
<text text-anchor="middle" x="595" y="-136" font-family="Helvetica,sans-Serif" font-size="10.00">ViennaRNA/constraints.h</text>
</a>
</g>
</g>
<!-- Node4&#45;&gt;Node10 -->
<g id="edge13" class="edge"><title>Node4&#45;&gt;Node10</title>
<path fill="none" stroke="midnightblue" d="M590.099,-190.475C588.268,-182.08 587.797,-168.981 588.685,-158.163"/>
<polygon fill="midnightblue" stroke="midnightblue" points="592.186,-158.397 590.103,-148.009 585.254,-157.429 592.186,-158.397"/>
</g>
<!-- Node16 -->
<g id="node16" class="node"><title>Node16</title>
<g id="a_node16"><a xlink:href="grammar_8h.html" target="_top" xlink:title="Implementations for the RNA folding grammar. ">
<polygon fill="none" stroke="black" points="791,-129 791,-148 909,-148 909,-129 791,-129"/>
<text text-anchor="middle" x="850" y="-136" font-family="Helvetica,sans-Serif" font-size="10.00">ViennaRNA/grammar.h</text>
</a>
</g>
</g>
<!-- Node4&#45;&gt;Node16 -->
<g id="edge25" class="edge"><title>Node4&#45;&gt;Node16</title>
<path fill="none" stroke="midnightblue" d="M626.635,-190.475C669.768,-179.871 747.242,-161.76 798.707,-150.224"/>
<polygon fill="midnightblue" stroke="midnightblue" points="799.638,-153.603 808.635,-148.009 798.113,-146.771 799.638,-153.603"/>
</g>
<!-- Node17 -->
<g id="node17" class="node"><title>Node17</title>
<g id="a_node17"><a xlink:href="structured__domains_8h.html" target="_top" xlink:title="This module provides interfaces that deal with additional structured domains in the folding grammar...">
<polygon fill="none" stroke="black" points="927.5,-123.5 927.5,-153.5 1042.5,-153.5 1042.5,-123.5 927.5,-123.5"/>
<text text-anchor="start" x="935.5" y="-141.5" font-family="Helvetica,sans-Serif" font-size="10.00">ViennaRNA/structured</text>
<text text-anchor="middle" x="985" y="-130.5" font-family="Helvetica,sans-Serif" font-size="10.00">_domains.h</text>
</a>
</g>
</g>
<!-- Node4&#45;&gt;Node17 -->
<g id="edge27" class="edge"><title>Node4&#45;&gt;Node17</title>
<path fill="none" stroke="midnightblue" d="M667.404,-190.484C730.719,-182.677 825.353,-170.143 917.275,-154.045"/>
<polygon fill="midnightblue" stroke="midnightblue" points="918.072,-157.458 927.311,-152.271 916.854,-150.565 918.072,-157.458"/>
</g>
<!-- Node18 -->
<g id="node18" class="node"><title>Node18</title>
<g id="a_node18"><a xlink:href="unstructured__domains_8h.html" target="_top" xlink:title="Functions to modify unstructured domains, e.g. to incorporate ligands binding to unpaired stretches...">
<polygon fill="none" stroke="black" points="1060.5,-123.5 1060.5,-153.5 1185.5,-153.5 1185.5,-123.5 1060.5,-123.5"/>
<text text-anchor="start" x="1068.5" y="-141.5" font-family="Helvetica,sans-Serif" font-size="10.00">ViennaRNA/unstructured</text>
<text text-anchor="middle" x="1123" y="-130.5" font-family="Helvetica,sans-Serif" font-size="10.00">_domains.h</text>
</a>
</g>
</g>
<!-- Node4&#45;&gt;Node18 -->
<g id="edge28" class="edge"><title>Node4&#45;&gt;Node18</title>
<path fill="none" stroke="midnightblue" d="M668.702,-191.308C793.544,-178.823 1033.77,-155.392 1043,-154 1045.36,-153.644 1047.76,-153.26 1050.19,-152.856"/>
<polygon fill="midnightblue" stroke="midnightblue" points="1051.02,-156.264 1060.27,-151.091 1049.81,-149.369 1051.02,-156.264"/>
</g>
<!-- Node6 -->
<g id="node6" class="node"><title>Node6</title>
<polygon fill="none" stroke="#bfbfbf" points="45,-0.5 45,-19.5 93,-19.5 93,-0.5 45,-0.5"/>
<text text-anchor="middle" x="69" y="-7.5" font-family="Helvetica,sans-Serif" font-size="10.00">limits.h</text>
</g>
<!-- Node5&#45;&gt;Node6 -->
<g id="edge5" class="edge"><title>Node5&#45;&gt;Node6</title>
<path fill="none" stroke="midnightblue" d="M69,-61.9751C69,-53.5803 69,-40.4806 69,-29.6631"/>
<polygon fill="midnightblue" stroke="midnightblue" points="72.5001,-29.5091 69,-19.5091 65.5001,-29.5091 72.5001,-29.5091"/>
</g>
<!-- Node8&#45;&gt;Node4 -->
<g id="edge9" class="edge"><title>Node8&#45;&gt;Node4</title>
<path fill="none" stroke="midnightblue" d="M238.478,-148.041C248.918,-150.133 259.846,-152.267 270,-154 354.31,-168.393 451.239,-181.022 517.21,-189.208"/>
<polygon fill="midnightblue" stroke="midnightblue" points="517.171,-192.729 527.525,-190.483 518.03,-185.782 517.171,-192.729"/>
</g>
<!-- Node8&#45;&gt;Node5 -->
<g id="edge8" class="edge"><title>Node8&#45;&gt;Node5</title>
<path fill="none" stroke="midnightblue" d="M174.799,-128.869C154.2,-117.893 118.409,-98.8243 94.223,-85.9385"/>
<polygon fill="midnightblue" stroke="midnightblue" points="95.739,-82.7804 85.2677,-81.1672 92.4474,-88.9583 95.739,-82.7804"/>
</g>
<!-- Node8&#45;&gt;Node7 -->
<g id="edge10" class="edge"><title>Node8&#45;&gt;Node7</title>
<path fill="none" stroke="midnightblue" d="M193.428,-128.734C196.099,-119.085 200.471,-103.3 203.903,-90.9063"/>
<polygon fill="midnightblue" stroke="midnightblue" points="207.315,-91.6987 206.611,-81.1273 200.569,-89.8305 207.315,-91.6987"/>
</g>
<!-- Node9&#45;&gt;Node4 -->
<g id="edge12" class="edge"><title>Node9&#45;&gt;Node4</title>
<path fill="none" stroke="midnightblue" d="M407.074,-148.009C448.842,-158.451 516.095,-176.189 557.877,-187.749"/>
<polygon fill="midnightblue" stroke="midnightblue" points="557.091,-191.164 567.664,-190.475 558.969,-184.42 557.091,-191.164"/>
</g>
<!-- Node10&#45;&gt;Node4 -->
<g id="edge14" class="edge"><title>Node10&#45;&gt;Node4</title>
<path fill="none" stroke="midnightblue" d="M599.897,-148.009C601.73,-156.398 602.203,-169.496 601.317,-180.317"/>
<polygon fill="midnightblue" stroke="midnightblue" points="597.815,-180.088 599.901,-190.475 604.748,-181.054 597.815,-180.088"/>
</g>
<!-- Node11 -->
<g id="node11" class="node"><title>Node11</title>
<g id="a_node11"><a xlink:href="constraints__hard_8h.html" target="_top" xlink:title="Functions and data structures for handling of secondary structure hard constraints. ">
<polygon fill="none" stroke="black" points="293.5,-56.5 293.5,-86.5 412.5,-86.5 412.5,-56.5 293.5,-56.5"/>
<text text-anchor="start" x="301.5" y="-74.5" font-family="Helvetica,sans-Serif" font-size="10.00">ViennaRNA/constraints</text>
<text text-anchor="middle" x="353" y="-63.5" font-family="Helvetica,sans-Serif" font-size="10.00">_hard.h</text>
</a>
</g>
</g>
<!-- Node10&#45;&gt;Node11 -->
<g id="edge15" class="edge"><title>Node10&#45;&gt;Node11</title>
<path fill="none" stroke="midnightblue" d="M563.114,-128.936C525.609,-118.862 462.473,-101.904 415.18,-89.2012"/>
<polygon fill="midnightblue" stroke="midnightblue" points="415.909,-85.773 405.343,-86.5592 414.093,-92.5334 415.909,-85.773"/>
</g>
<!-- Node12 -->
<g id="node12" class="node"><title>Node12</title>
<g id="a_node12"><a xlink:href="constraints__soft_8h.html" target="_top" xlink:title="Functions and data structures for secondary structure soft constraints. ">
<polygon fill="none" stroke="black" points="430.5,-56.5 430.5,-86.5 549.5,-86.5 549.5,-56.5 430.5,-56.5"/>
<text text-anchor="start" x="438.5" y="-74.5" font-family="Helvetica,sans-Serif" font-size="10.00">ViennaRNA/constraints</text>
<text text-anchor="middle" x="490" y="-63.5" font-family="Helvetica,sans-Serif" font-size="10.00">_soft.h</text>
</a>
</g>
</g>
<!-- Node10&#45;&gt;Node12 -->
<g id="edge17" class="edge"><title>Node10&#45;&gt;Node12</title>
<path fill="none" stroke="midnightblue" d="M580.839,-128.734C565.694,-119.358 541.188,-104.188 521.445,-91.9658"/>
<polygon fill="midnightblue" stroke="midnightblue" points="523.104,-88.8767 512.759,-86.589 519.42,-94.8285 523.104,-88.8767"/>
</g>
<!-- Node13 -->
<g id="node13" class="node"><title>Node13</title>
<g id="a_node13"><a xlink:href="constraints__SHAPE_8h.html" target="_top" xlink:title="This module provides function to incorporate SHAPE reactivity data into the folding recursions by mea...">
<polygon fill="none" stroke="black" points="567.5,-56.5 567.5,-86.5 686.5,-86.5 686.5,-56.5 567.5,-56.5"/>
<text text-anchor="start" x="575.5" y="-74.5" font-family="Helvetica,sans-Serif" font-size="10.00">ViennaRNA/constraints</text>
<text text-anchor="middle" x="627" y="-63.5" font-family="Helvetica,sans-Serif" font-size="10.00">_SHAPE.h</text>
</a>
</g>
</g>
<!-- Node10&#45;&gt;Node13 -->
<g id="edge19" class="edge"><title>Node10&#45;&gt;Node13</title>
<path fill="none" stroke="midnightblue" d="M599.316,-128.734C603.474,-120.287 609.948,-107.138 615.589,-95.6778"/>
<polygon fill="midnightblue" stroke="midnightblue" points="618.787,-97.1066 620.064,-86.589 612.507,-94.0148 618.787,-97.1066"/>
</g>
<!-- Node14 -->
<g id="node14" class="node"><title>Node14</title>
<g id="a_node14"><a xlink:href="perturbation__fold_8h.html" target="_top" xlink:title="Find a vector of perturbation energies that minimizes the discripancies between predicted and observe...">
<polygon fill="none" stroke="black" points="705,-56.5 705,-86.5 827,-86.5 827,-56.5 705,-56.5"/>
<text text-anchor="start" x="713" y="-74.5" font-family="Helvetica,sans-Serif" font-size="10.00">ViennaRNA/perturbation</text>
<text text-anchor="middle" x="766" y="-63.5" font-family="Helvetica,sans-Serif" font-size="10.00">_fold.h</text>
</a>
</g>
</g>
<!-- Node10&#45;&gt;Node14 -->
<g id="edge21" class="edge"><title>Node10&#45;&gt;Node14</title>
<path fill="none" stroke="midnightblue" d="M617.707,-128.869C643.589,-119.031 686.578,-102.689 719.626,-90.1277"/>
<polygon fill="midnightblue" stroke="midnightblue" points="720.992,-93.3529 729.095,-86.5281 718.504,-86.8096 720.992,-93.3529"/>
</g>
<!-- Node15 -->
<g id="node15" class="node"><title>Node15</title>
<g id="a_node15"><a xlink:href="constraints__ligand_8h.html" target="_top" xlink:title="Functions for incorporation of ligands binding to hairpin and interior loop motifs using the soft con...">
<polygon fill="none" stroke="black" points="845.5,-56.5 845.5,-86.5 964.5,-86.5 964.5,-56.5 845.5,-56.5"/>
<text text-anchor="start" x="853.5" y="-74.5" font-family="Helvetica,sans-Serif" font-size="10.00">ViennaRNA/constraints</text>
<text text-anchor="middle" x="905" y="-63.5" font-family="Helvetica,sans-Serif" font-size="10.00">_ligand.h</text>
</a>
</g>
</g>
<!-- Node10&#45;&gt;Node15 -->
<g id="edge23" class="edge"><title>Node10&#45;&gt;Node15</title>
<path fill="none" stroke="midnightblue" d="M635.938,-128.929C681.827,-119.32 758.743,-103.209 834.91,-87.2282"/>
<polygon fill="midnightblue" stroke="midnightblue" points="836.093,-90.5561 845.161,-85.077 834.656,-83.7053 836.093,-90.5561"/>
</g>
<!-- Node11&#45;&gt;Node4 -->
<g id="edge16" class="edge"><title>Node11&#45;&gt;Node4</title>
<path fill="none" stroke="midnightblue" d="M378.79,-86.6245C397.24,-96.7371 422.661,-110.686 445,-123 469.913,-136.733 475.715,-140.964 501,-154 522.911,-165.297 548.126,-177.316 566.921,-186.088"/>
<polygon fill="midnightblue" stroke="midnightblue" points="565.569,-189.319 576.113,-190.358 568.518,-182.971 565.569,-189.319"/>
</g>
<!-- Node12&#45;&gt;Node4 -->
<g id="edge18" class="edge"><title>Node12&#45;&gt;Node4</title>
<path fill="none" stroke="midnightblue" d="M492.659,-86.5865C496.55,-104.045 505.231,-133.94 522,-154 533.436,-167.681 550.149,-178.41 564.699,-185.955"/>
<polygon fill="midnightblue" stroke="midnightblue" points="563.351,-189.192 573.87,-190.452 566.433,-182.907 563.351,-189.192"/>
</g>
<!-- Node13&#45;&gt;Node4 -->
<g id="edge20" class="edge"><title>Node13&#45;&gt;Node4</title>
<path fill="none" stroke="midnightblue" d="M642.802,-86.5341C659.26,-102.928 680.971,-130.766 668,-154 659.844,-168.609 644.78,-179.064 630.446,-186.196"/>
<polygon fill="midnightblue" stroke="midnightblue" points="628.854,-183.076 621.211,-190.414 631.762,-189.443 628.854,-183.076"/>
</g>
<!-- Node14&#45;&gt;Node4 -->
<g id="edge22" class="edge"><title>Node14&#45;&gt;Node4</title>
<path fill="none" stroke="midnightblue" d="M754.349,-86.5394C739.386,-103.949 711.992,-133.794 684,-154 665.995,-166.997 643.693,-178.265 625.919,-186.275"/>
<polygon fill="midnightblue" stroke="midnightblue" points="624.316,-183.156 616.566,-190.38 627.129,-189.566 624.316,-183.156"/>
</g>
<!-- Node15&#45;&gt;Node4 -->
<g id="edge24" class="edge"><title>Node15&#45;&gt;Node4</title>
<path fill="none" stroke="midnightblue" d="M869.255,-86.5677C844.589,-96.423 811.122,-110.089 782,-123 752.74,-135.972 746.49,-141.56 717,-154 688.115,-166.185 654.669,-178.392 630.109,-187.011"/>
<polygon fill="midnightblue" stroke="midnightblue" points="628.79,-183.764 620.499,-190.36 631.094,-190.375 628.79,-183.764"/>
</g>
<!-- Node16&#45;&gt;Node4 -->
<g id="edge26" class="edge"><title>Node16&#45;&gt;Node4</title>
<path fill="none" stroke="midnightblue" d="M818.43,-148.009C775.331,-158.606 697.861,-176.716 646.37,-188.258"/>
<polygon fill="midnightblue" stroke="midnightblue" points="645.434,-184.881 636.436,-190.475 646.958,-191.713 645.434,-184.881"/>
</g>
<!-- Node18&#45;&gt;Node4 -->
<g id="edge29" class="edge"><title>Node18&#45;&gt;Node4</title>
<path fill="none" stroke="midnightblue" d="M1064.01,-153.536C1063,-153.695 1062,-153.85 1061,-154 1051.75,-155.396 810.3,-178.945 678.637,-191.405"/>
<polygon fill="midnightblue" stroke="midnightblue" points="678.203,-187.93 668.576,-192.355 678.861,-194.899 678.203,-187.93"/>
</g>
<!-- Node19&#45;&gt;Node3 -->
<g id="edge31" class="edge"><title>Node19&#45;&gt;Node3</title>
<path fill="none" stroke="midnightblue" d="M645.895,-251.975C660.464,-242.343 684.402,-226.517 701.745,-215.052"/>
<polygon fill="midnightblue" stroke="midnightblue" points="703.717,-217.944 710.129,-209.509 699.857,-212.104 703.717,-217.944"/>
</g>
<!-- Node19&#45;&gt;Node4 -->
<g id="edge32" class="edge"><title>Node19&#45;&gt;Node4</title>
<path fill="none" stroke="midnightblue" d="M627.556,-251.975C621.912,-243.138 612.939,-229.089 605.841,-217.975"/>
<polygon fill="midnightblue" stroke="midnightblue" points="608.767,-216.053 600.434,-209.509 602.867,-219.821 608.767,-216.053"/>
</g>
<!-- Node20&#45;&gt;Node2 -->
<g id="edge34" class="edge"><title>Node20&#45;&gt;Node2</title>
<path fill="none" stroke="midnightblue" d="M400.567,-246.399C387.792,-237.129 371.111,-225.025 358.186,-215.647"/>
<polygon fill="midnightblue" stroke="midnightblue" points="360.081,-212.698 349.932,-209.658 355.97,-218.364 360.081,-212.698"/>
</g>
<!-- Node20&#45;&gt;Node4 -->
<g id="edge35" class="edge"><title>Node20&#45;&gt;Node4</title>
<path fill="none" stroke="midnightblue" d="M461.473,-246.399C491.58,-236.163 531.852,-222.47 560.27,-212.808"/>
<polygon fill="midnightblue" stroke="midnightblue" points="561.45,-216.104 569.791,-209.571 559.197,-209.476 561.45,-216.104"/>
</g>
<!-- Node22&#45;&gt;Node7 -->
<g id="edge38" class="edge"><title>Node22&#45;&gt;Node7</title>
<path fill="none" stroke="midnightblue" d="M381.786,-191.141C291.579,-178.895 128.088,-156.409 126,-154 103.606,-128.167 147.125,-100.86 179.176,-85.3256"/>
<polygon fill="midnightblue" stroke="midnightblue" points="180.679,-88.4863 188.258,-81.082 177.716,-82.1445 180.679,-88.4863"/>
</g>
</g>
</svg>
        <g id="navigator" transform="translate(0 0)" fill="#404254">
                <rect fill="#f2f5e9" fill-opacity="0.5" stroke="#606060" stroke-width=".5" x="0" y="0" width="60" height="60"/>
                <use id="zoomplus" xlink:href="#zoomPlus" x="17" y="9" onmousedown="handleZoom(evt,'in')"/>
                <use id="zoomminus" xlink:href="#zoomMin" x="42" y="9" onmousedown="handleZoom(evt,'out')"/>
                <use id="reset" xlink:href="#resetDef" x="30" y="36" onmousedown="handleReset()"/>
                <g id="arrowUp" xlink:href="#dirArrow" transform="translate(30 24)" onmousedown="handlePan(0,-1)">
                  <use xlink:href="#rim" fill="#404040">
                        <set attributeName="fill" to="#808080" begin="arrowUp.mouseover" end="arrowUp.mouseout"/>
                  </use>
                  <path fill="none" stroke="white" stroke-width="1.5" d="M0,-3.0v7 M-2.5,-0.5L0,-3.0L2.5,-0.5"/>
                </g>
                <g id="arrowRight" xlink:href="#dirArrow" transform="rotate(90) translate(36 -43)" onmousedown="handlePan(1,0)">
                  <use xlink:href="#rim" fill="#404040">
                        <set attributeName="fill" to="#808080" begin="arrowRight.mouseover" end="arrowRight.mouseout"/>
                  </use>
                  <path fill="none" stroke="white" stroke-width="1.5" d="M0,-3.0v7 M-2.5,-0.5L0,-3.0L2.5,-0.5"/>
                </g>
                <g id="arrowDown" xlink:href="#dirArrow" transform="rotate(180) translate(-30 -48)" onmousedown="handlePan(0,1)">
                  <use xlink:href="#rim" fill="#404040">
                        <set attributeName="fill" to="#808080" begin="arrowDown.mouseover" end="arrowDown.mouseout"/>
                  </use>
                  <path fill="none" stroke="white" stroke-width="1.5" d="M0,-3.0v7 M-2.5,-0.5L0,-3.0L2.5,-0.5"/>
                </g>
                <g id="arrowLeft" xlink:href="#dirArrow" transform="rotate(270) translate(-36 17)" onmousedown="handlePan(-1,0)">
                  <use xlink:href="#rim" fill="#404040">
                        <set attributeName="fill" to="#808080" begin="arrowLeft.mouseover" end="arrowLeft.mouseout"/>
                  </use>
                  <path fill="none" stroke="white" stroke-width="1.5" d="M0,-3.0v7 M-2.5,-0.5L0,-3.0L2.5,-0.5"/>
                </g>
        </g>
        <svg viewBox="0 0 15 15" width="100%" height="30px" preserveAspectRatio="xMaxYMin meet">
         <g id="arrow_out" transform="scale(0.3 0.3)">
          <a xlink:href="utils_8h__incl_org.svg" target="_base">
           <rect id="button" ry="5" rx="5" y="6" x="6" height="38" width="38"
                fill="#f2f5e9" fill-opacity="0.5" stroke="#606060" stroke-width="1.0"/>
           <path id="arrow"
             d="M 11.500037,31.436501 C 11.940474,20.09759 22.043105,11.32322 32.158766,21.979434 L 37.068811,17.246167 C 37.068811,17.246167 37.088388,32 37.088388,32 L 22.160133,31.978069 C 22.160133,31.978069 26.997745,27.140456 26.997745,27.140456 C 18.528582,18.264221 13.291696,25.230495 11.500037,31.436501 z"
             style="fill:#404040;"/>
          </a>
         </g>
        </svg>
</svg>
